<svg width="1097" height="550" viewBox="0 0 1097 550" fill="none" xmlns="http://www.w3.org/2000/svg">
<path d="M0.992967 0.00027428C0.992973 72.2273 15.1675 143.747 42.7073 210.476C70.2471 277.205 110.613 337.837 161.499 388.909C212.386 439.981 272.798 480.494 339.285 508.134C405.772 535.774 477.032 550 548.997 550C620.961 550 692.222 535.774 758.708 508.134C825.195 480.494 885.607 439.981 936.493 388.909C987.38 337.837 1027.75 277.205 1055.29 210.476C1082.83 143.747 1097 72.2271 1097 0.000117318L888.256 0.000196713C888.256 44.7147 879.481 88.9913 862.431 130.302C845.382 171.613 820.392 209.149 788.889 240.767C757.386 272.385 719.986 297.465 678.825 314.577C637.665 331.688 593.549 340.495 548.996 340.495C504.444 340.495 460.328 331.688 419.168 314.577C378.007 297.465 340.607 272.385 309.104 240.767C277.601 209.149 252.611 171.613 235.562 130.302C218.512 88.9914 209.737 44.7147 209.737 0.000256031L0.992967 0.00027428Z" fill="#FFCC05"/>
</svg>
