<svg width="157" height="52" viewBox="0 0 157 52" fill="none" xmlns="http://www.w3.org/2000/svg">
<g clip-path="url(#clip0_31_544)">
<path d="M13.2956 0.110171C10.0926 0.490537 7.38307 1.92193 4.59299 4.75465C2.48652 6.7064 1.02549 9.24727 0.402855 12.0416C-0.0508032 14.3699 -0.0781175 16.7605 0.322258 19.0984C1.53096 23.5126 3.22315 26.1052 6.56722 28.6276C7.83228 29.5531 9.23155 30.2821 10.7171 30.7897C10.9793 30.8156 11.2349 30.8867 11.4725 30.9999C12.4798 31.5704 17.0326 31.7906 19.2284 31.4003C21.4242 31.0099 25.7654 28.8178 26.1078 27.957C25.8962 27.2593 25.5545 26.6074 25.1006 26.0351C24.4459 25.1343 23.63 24.0332 23.2976 23.4626C22.5422 22.3816 22.1897 22.3215 21.1623 23.0622C19.4211 24.3335 17.2692 24.9216 15.1188 24.7138C11.9963 24.0832 10.4149 23.1824 8.89396 21.1604C8.25206 20.4374 7.76336 19.5931 7.45705 18.6782C7.15073 17.7633 7.03307 16.7964 7.11111 15.8353C7.00111 14.2205 7.38 12.6099 8.19896 11.2109C8.82723 10.1767 9.65835 9.27868 10.6429 8.57021C11.6275 7.86174 12.7455 7.35727 13.9302 7.08685C15.0961 6.79763 16.3085 6.74431 17.4955 6.93002C18.6826 7.11573 19.8199 7.5367 20.8399 8.16791C22.4415 9.08879 22.381 9.16888 23.5494 7.36715C23.9624 6.73654 24.4157 6.12595 24.5567 5.98582C25.2004 5.27404 25.7396 4.47538 26.1582 3.61354C26.1582 3.00295 22.8947 1.21126 20.4169 0.450525C18.0941 0.0108916 15.7209 -0.103688 13.3662 0.110171M69.5203 1.35136C69.4599 1.49149 69.4398 8.22797 69.4599 16.3658L69.5203 31.1H76.4401L76.5006 22.7519C76.5006 18.1475 76.5811 14.2838 76.6315 14.1236C76.6819 13.9635 79.6533 16.7161 85.5155 22.5117L94.2584 31.2201L96.2729 31.16L98.2269 31.1L98.2874 16.2857C98.2874 4.55442 98.2874 1.43141 98.096 1.27126C95.9063 1.04044 93.6983 1.04044 91.5086 1.27126C91.4482 1.39138 91.3877 4.90479 91.3877 9.12885C91.3877 13.3529 91.3877 16.9163 91.287 17.1366C91.1863 17.3568 91.0754 17.4368 90.9546 17.4368C90.8337 17.4368 87.0364 13.7633 82.5138 9.27896L74.1336 1.11113H71.8168C70.1347 1.11113 69.47 1.17118 69.4095 1.35136M149.274 5.91574C148.877 6.2373 148.536 6.62306 148.267 7.05685C147.945 7.50729 146.716 9.29901 145.558 11.0607C144.399 12.8224 143.14 14.514 142.848 14.9144C142.596 15.1876 142.401 15.5073 142.274 15.8553C142.274 15.9954 142.808 16.0655 143.734 16.0655C144.3 16.0042 144.872 16.0869 145.396 16.3057C145.633 18.1476 145.724 20.0051 145.668 21.8611L145.729 27.1762L146.263 28.057C146.792 28.9508 147.515 29.7166 148.378 30.2992C148.599 30.4093 149.153 30.7296 149.627 30.9999C150.423 31.4503 150.634 31.5004 153.162 31.4703C155.378 31.4703 155.973 31.4703 156.386 31.12L156.919 30.7897L156.869 28.3874C156.809 25.9951 156.809 25.9951 156.315 25.955C154.301 25.7548 153.162 25.4445 152.729 24.9541C152.296 24.4636 152.256 24.3435 152.195 20.6699C152.077 19.2673 152.131 17.8556 152.357 16.4659C152.558 16.0856 152.749 16.0455 154.25 16.0455C155.751 16.0455 156.033 15.9755 156.466 15.6551L157 15.2648V12.7923C157 10.9406 156.929 10.2499 156.708 10.1398C155.967 9.98354 155.208 9.92299 154.452 9.95967C152.79 9.95967 152.437 9.8996 152.316 9.63935C152.219 8.99683 152.178 8.34704 152.195 7.69748C152.195 6.26611 152.135 6.00581 151.823 5.83565C150.999 5.54795 150.096 5.58015 149.295 5.92576" fill="#1A1E84"/>
<path d="M34.6294 9.8694C34.2542 10.2787 33.9171 10.7209 33.6222 11.1907L31.4264 14.2737C30.6105 15.4148 29.5429 16.9062 29.0493 17.6168C28.5557 18.3275 27.6492 19.6188 27.0348 20.5597C25.947 22.0911 25.8664 22.2713 26.0275 23.0221C26.4559 24.5603 27.1366 26.0179 28.042 27.3362C29.0413 28.5247 30.2327 29.5395 31.5674 30.3391C33.684 31.4894 36.1263 31.905 38.5074 31.5202C39.322 31.3983 40.1265 31.2177 40.9147 30.9797C41.4284 30.7695 41.6298 30.7695 41.9219 30.9797C42.993 31.2118 44.0921 31.2893 45.1854 31.2099H48.0561V20.87C48.0561 15.1945 48.0561 10.4199 47.9553 10.2598C47.8546 10.0996 47.2201 9.98951 45.0444 9.98951C44.0862 9.921 43.1229 9.98842 42.1838 10.1897C41.9824 10.5 41.1765 10.4199 39.9678 9.98951C38.5073 9.47902 35.1633 9.41894 34.6899 9.90942M38.9203 16.4157C39.7502 16.7726 40.4455 17.381 40.9067 18.154C41.368 18.9269 41.5717 19.825 41.4888 20.7199C41.6116 21.573 41.3908 22.4398 40.8744 23.1321C40.2114 24.1652 39.184 24.9148 37.9937 25.2341C37.6466 25.4068 37.2637 25.4967 36.8756 25.4967C36.4874 25.4967 36.1046 25.4068 35.7576 25.2341C32.8667 24.3733 31.2653 21.4605 32.3329 19.1083C32.6228 18.3576 33.0957 17.6902 33.7093 17.1661C34.3229 16.642 35.0579 16.2775 35.8482 16.1054C36.8698 15.9571 37.9127 16.0815 38.87 16.4658M62.5907 9.95951C61.7849 10.1197 60.8582 10.3299 60.5158 10.45C58.2897 11.2207 58.2897 11.2207 58.0682 10.6101L57.8667 10.0395H55.137C54.127 10.0042 53.1158 10.0578 52.1153 10.1997C51.9138 10.3299 51.8736 12.572 51.9139 20.7699L51.9743 31.1599L54.9961 31.2199L58.0178 31.28V19.1283L58.612 18.4176C59.6193 17.1964 61.9964 16.3156 64.8368 16.1054L66.4182 15.9853V9.68923H65.2398C64.3408 9.69041 63.4439 9.77418 62.5605 9.93947M107.977 11.3608C107.262 12.3618 106.074 14.0334 105.369 15.0544C104.663 16.0754 103.586 17.5368 103.052 18.2975C102.518 19.0582 101.964 19.819 101.843 20.0092C101.722 20.1993 101.309 20.8299 100.836 21.4205L100.08 22.4815L100.403 23.5425C101.029 25.6176 102.237 27.4726 103.885 28.8906C105.533 30.3087 107.554 31.2311 109.71 31.5502C112.903 32.0007 117.053 31.0798 118.866 29.5483C120.014 28.5473 120.296 28.2571 120.296 27.9568C120.296 27.4263 117.607 23.7327 117.274 23.7327C116.876 23.8587 116.499 24.0444 116.156 24.2833C114.844 25.1786 113.273 25.6216 111.684 25.5444C110.022 25.5444 109.861 25.5445 108.954 24.9139C107.726 24.1231 107.111 23.3824 107.514 23.1221C107.665 23.022 110.989 22.972 114.887 22.972C120.578 22.972 122.029 22.972 122.159 22.7118C122.462 22.2813 122.159 18.2575 121.787 17.1464C121.035 14.9294 119.599 13.0049 117.681 11.6478C115.764 10.2906 113.464 9.57011 111.11 9.5891H109.287L107.977 11.3608ZM113.316 16.3656C114.081 16.756 114.817 17.4267 114.676 17.6269C112.388 17.8421 110.084 17.8421 107.796 17.6269C107.544 17.2165 109.025 16.2155 110.254 15.9953C111.275 15.8573 112.316 15.9813 113.276 16.3556" fill="#1A1E84"/>
<path d="M120.578 10.1197C120.367 10.3399 120.8 11.1207 121.867 12.3619C121.968 12.482 122.2 12.8324 122.401 13.1527C122.603 13.473 123.167 14.2537 123.63 14.8643C123.956 15.2429 124.24 15.6558 124.476 16.0955C124.935 16.8529 125.451 17.5756 126.017 18.2576C126.605 18.9641 127.083 19.7534 127.437 20.5998C127.415 20.8017 127.335 20.9929 127.206 21.1504C126.259 22.3354 125.375 23.5682 124.557 24.8439L122.875 27.2062C121.954 28.4184 121.103 29.6816 120.326 30.9898C121.664 31.1323 123.011 31.1791 124.355 31.1299H128.384L129.271 29.8887C129.764 29.2281 130.399 28.3172 130.691 27.8868C130.939 27.5056 131.249 27.1675 131.607 26.8859C131.94 26.6656 132.041 26.7457 132.534 27.4764C132.846 27.9269 133.541 28.9479 134.136 29.7186L135.143 31.15H139.101C142.123 31.15 143.05 31.0899 143.05 30.8997C142.812 30.3468 142.5 29.8283 142.123 29.3582C141.589 28.6375 140.743 27.4164 140.189 26.6256C139.635 25.8348 138.698 24.5236 138.114 23.7028C136.704 21.801 136.1 20.85 136.1 20.4997C136.1 20.1494 137.047 18.7681 141.267 12.8724C143.281 10.1097 143.12 10.2999 142.808 10.1097C140.255 9.86947 137.686 9.86947 135.133 10.1097C134.575 10.6575 134.085 11.269 133.672 11.9315C133.058 12.8424 132.363 13.7833 132.151 14.0535L131.748 14.544L131.134 13.8533C130.822 13.4829 130.127 12.5821 129.674 11.8514C128.294 9.76938 128.666 9.90951 124.456 9.90951C123.146 9.81859 121.83 9.88921 120.538 10.1197M107.272 36.5752C105.559 36.8723 104.016 37.7886 102.941 39.1476C101.581 40.7792 101.279 41.6601 101.279 44.2125C101.182 45.0629 101.265 45.924 101.521 46.7409C101.778 47.5579 102.203 48.3126 102.77 48.9571C103.485 49.863 104.391 50.6017 105.425 51.1206C106.459 51.6396 107.595 51.9261 108.753 51.9599C109.798 51.9319 110.826 51.693 111.775 51.2576C112.724 50.8223 113.574 50.1996 114.273 49.4275C114.985 48.7186 115.533 47.8647 115.881 46.9246C116.229 45.9845 116.368 44.9807 116.287 43.9823C116.411 42.8387 116.157 41.6859 115.562 40.6991C115.17 39.9173 114.675 39.1904 114.091 38.5371C113.207 37.6929 112.132 37.0708 110.956 36.7226C109.78 36.3744 108.538 36.3101 107.333 36.5351M110.455 38.8173C111.814 39.305 112.938 40.2838 113.602 41.5583C114.267 42.8329 114.423 44.3096 114.041 45.6939C113.831 46.4576 113.461 47.1688 112.956 47.781C112.451 48.3933 111.822 48.8929 111.11 49.2474C110.072 49.6553 108.94 49.7646 107.843 49.5627C106.745 49.3609 105.727 48.8562 104.905 48.1063C104.058 47.2582 103.505 46.1645 103.324 44.9833C103.151 43.6673 103.437 42.3321 104.133 41.1996C104.829 40.0671 105.894 39.2053 107.151 38.7573C107.675 38.5346 108.24 38.4249 108.81 38.4352C109.379 38.4456 109.94 38.5758 110.455 38.8173ZM92.6974 36.5551C91.3686 36.9453 90.146 37.6297 89.1217 38.557C88.1585 39.5317 87.4621 40.735 87.099 42.0525C86.7358 43.37 86.7178 44.7579 87.0467 46.0843C87.3484 47.5066 88.113 48.7906 89.2224 49.7378C90.3953 50.9753 91.9742 51.756 93.6749 51.9395C95.3756 52.123 97.0863 51.6973 98.4992 50.7388C99.0129 50.4285 99.4258 50.0181 99.4258 49.858C99.4258 49.5276 98.5395 48.4866 98.2373 48.4866C97.8496 48.6382 97.4838 48.8401 97.1494 49.0872C96.791 49.3527 96.3824 49.5436 95.948 49.6485C95.5136 49.7534 95.0623 49.7702 94.6212 49.6978C93.8262 49.7889 93.0209 49.6778 92.281 49.3749C91.541 49.072 90.8906 48.5872 90.3908 47.9661C89.4463 46.9401 88.9343 45.5928 88.9605 44.2025C88.9579 43.3665 89.1438 42.5405 89.5046 41.7852C89.8654 41.03 90.392 40.3647 91.0455 39.8383C92.0382 39.1213 93.1876 38.6479 94.3997 38.457C95.4065 38.5873 96.3799 38.903 97.2703 39.3879C97.7236 39.7582 98.1164 39.6982 98.5898 39.1877C99.3452 38.3769 99.1639 37.9665 97.7638 37.2859C96.8601 36.8163 95.8525 36.5789 94.8328 36.5952C94.1217 36.5501 93.4085 36.5501 92.6974 36.5952M123.388 37.1057C122.791 37.3509 122.237 37.6888 121.746 38.1067C121.132 38.7373 121.041 38.6572 120.941 37.5761C120.88 37.0056 120.84 36.9856 119.933 36.9856H118.926V51.7197L119.792 51.7798C120.346 51.7798 120.719 51.7798 120.8 51.5896C120.97 49.8534 121.031 48.1083 120.981 46.3646C120.981 41.4299 120.981 41.3598 121.495 40.3588C121.626 40.0178 121.83 39.709 122.093 39.4534C122.355 39.1977 122.67 39.0012 123.016 38.8774C123.858 38.4362 124.827 38.2949 125.762 38.477C126.696 38.6591 127.54 39.1536 128.153 39.8783C129.089 41.1295 129.16 41.62 129.281 46.815L129.381 51.7197L130.157 51.7798C130.63 51.7798 130.983 51.7798 131.084 51.5896C131.248 49.9434 131.305 48.2884 131.255 46.6348C131.185 44.7962 131.265 42.955 131.497 41.1295C131.773 40.3016 132.319 39.5891 133.049 39.1049C133.779 38.6207 134.65 38.3927 135.526 38.457C136.251 38.4029 136.974 38.5767 137.594 38.954C138.214 39.3312 138.699 39.8927 138.981 40.559C139.313 41.3097 139.353 41.8803 139.353 46.3046C139.353 48.9971 139.414 51.3093 139.474 51.5095C139.535 51.7097 139.867 51.8198 140.562 51.8198H141.569V46.9151C141.664 44.9091 141.573 42.8987 141.297 40.9093C141.072 39.7112 140.432 38.6292 139.488 37.8505C138.544 37.0718 137.357 36.6455 136.13 36.6452C134.351 36.6504 132.638 37.3142 131.325 38.507C130.812 39.1576 130.399 39.1377 129.684 38.427C128.861 37.6582 127.843 37.1262 126.74 36.8881C125.636 36.6501 124.488 36.7149 123.419 37.0756M83.34 49.0872C83.1361 49.2237 82.9832 49.4232 82.9049 49.6548C82.8266 49.8864 82.8273 50.1373 82.9069 50.3685C82.9032 50.5837 82.9446 50.7974 83.0285 50.9959C83.1123 51.1945 83.2369 51.3735 83.3942 51.5215C83.5515 51.6696 83.7381 51.7836 83.9421 51.8561C84.1461 51.9286 84.3631 51.9581 84.5792 51.9428C84.7953 51.9274 85.0058 51.8676 85.1974 51.767C85.389 51.6664 85.5573 51.5272 85.6919 51.3584C85.8264 51.1896 85.9241 50.9949 85.9787 50.7865C86.0334 50.5782 86.0438 50.3608 86.0093 50.1482C86.0184 49.8367 85.931 49.53 85.759 49.2695C85.587 49.009 85.3386 48.8072 85.0475 48.6914C84.7564 48.5757 84.4365 48.5516 84.1311 48.6224C83.8258 48.6932 83.5496 48.8554 83.34 49.0872Z" fill="#1A1E84"/>
</g>
<defs>
<clipPath id="clip0_31_544">
<rect width="157" height="52" fill="white"/>
</clipPath>
</defs>
</svg>
