<svg width="195" height="63" viewBox="0 0 195 63" fill="none" xmlns="http://www.w3.org/2000/svg">
<g clip-path="url(#clip0_190_1399)">
<path d="M83.6295 30.7496C83.7587 28.841 83.1433 26.9566 81.9123 25.4919C80.7675 24.2729 79.0669 23.6675 76.7938 23.6675C75.7294 23.6063 74.6638 23.7663 73.6643 24.1374C72.6649 24.5085 71.7532 25.0827 70.9868 25.8237C70.2714 26.6048 69.7183 27.5202 69.3594 28.5166C69.0006 29.5131 68.8431 30.5709 68.8963 31.6286C68.8293 32.6875 68.9959 33.7481 69.3844 34.7355C69.7729 35.7228 70.3738 36.6128 71.1444 37.3423C72.6377 38.6747 74.7835 39.3408 77.5819 39.3408C78.2307 39.3489 78.8793 39.3129 79.5231 39.233C80.0624 39.1501 80.5684 39.0589 81.0827 38.9345C81.5971 38.8101 82.045 38.6608 82.3686 38.5364C82.6921 38.412 83.0157 38.2628 83.3973 38.1218V34.2905H82.9078C82.7004 34.4315 82.4433 34.6057 82.128 34.7964C81.7937 35.0023 81.4443 35.1824 81.0827 35.3354C80.6216 35.5411 80.1407 35.6995 79.6476 35.8081C79.1247 35.9247 78.5905 35.9831 78.0548 35.9823C77.4724 35.9852 76.8912 35.9268 76.321 35.8081C75.831 35.6983 75.3646 35.5017 74.9439 35.2276C74.5335 34.9465 74.1999 34.5674 73.9733 34.1247C73.7007 33.589 73.5478 33.0004 73.5253 32.3998H83.6544L83.6295 30.7496ZM73.5004 29.6466C73.5099 28.8394 73.8036 28.0613 74.33 27.449C74.6026 27.1674 74.9326 26.9477 75.2976 26.8046C75.6625 26.6616 76.054 26.5985 76.4454 26.6197C76.807 26.59 77.1707 26.6433 77.5086 26.7755C77.8464 26.9078 78.1496 27.1154 78.3949 27.3827C78.8677 28.0252 79.1103 28.808 79.0835 29.6052L73.5004 29.6466Z" fill="#1675B8"/>
<path d="M101.092 38.9262H95.6003L91.5851 32.4827L90.8717 33.4447V38.9262H86.251V18.4182H90.8717V29.912L95.2519 24.1236H100.71L95.5173 30.5007L101.092 38.9262Z" fill="#1675B8"/>
<path d="M108.583 39.3325C107.541 39.34 106.502 39.2202 105.489 38.976C104.656 38.7904 103.846 38.5123 103.075 38.1467V34.2491H103.456L104.211 34.8047C104.583 35.0517 104.977 35.2627 105.389 35.4349C105.861 35.6493 106.349 35.8241 106.849 35.9574C107.424 36.104 108.015 36.1764 108.608 36.173C109.198 36.1862 109.784 36.0819 110.333 35.8662C110.546 35.8086 110.733 35.6836 110.868 35.5101C111.002 35.3365 111.077 35.1239 111.08 34.9042C111.089 34.757 111.062 34.6098 111.002 34.4753C110.941 34.3409 110.848 34.2233 110.732 34.133C110.325 33.8831 109.874 33.7116 109.404 33.6271C109.048 33.5442 108.575 33.4447 108.069 33.3452C107.586 33.2593 107.11 33.1429 106.642 32.9969C105.632 32.7269 104.722 32.1712 104.02 31.3964C103.409 30.5995 103.098 29.6132 103.141 28.61C103.14 27.9604 103.297 27.3203 103.597 26.7442C103.926 26.13 104.384 25.5951 104.941 25.1768C105.599 24.6947 106.338 24.3351 107.123 24.1154C108.077 23.8385 109.067 23.7044 110.06 23.7173C111.025 23.7079 111.988 23.8109 112.93 24.0241C113.688 24.1931 114.425 24.4433 115.128 24.7705V28.5105H114.763C114.606 28.3944 114.349 28.2285 114.009 28.0212C113.684 27.8225 113.349 27.6426 113.005 27.4822C112.585 27.2988 112.149 27.1545 111.702 27.051C111.222 26.9344 110.729 26.8759 110.234 26.8768C109.662 26.8654 109.094 26.9845 108.575 27.2251C108.384 27.2915 108.217 27.4126 108.094 27.5734C107.972 27.7341 107.899 27.9274 107.886 28.129C107.875 28.2842 107.9 28.4398 107.959 28.5838C108.018 28.7277 108.109 28.8559 108.226 28.9583C108.683 29.2411 109.19 29.4327 109.72 29.5222C110.118 29.6217 110.549 29.713 111.088 29.8042C111.593 29.8911 112.089 30.0187 112.573 30.1857C113.508 30.4445 114.348 30.9654 114.996 31.6867C115.576 32.443 115.87 33.38 115.825 34.332C115.83 35.0231 115.662 35.7044 115.336 36.314C115.008 36.9476 114.533 37.4936 113.95 37.9062C113.276 38.3942 112.52 38.7591 111.719 38.9843C110.714 39.2583 109.675 39.3867 108.633 39.3657" fill="#1675B8"/>
<path d="M130.517 25.7656C130.085 25.109 129.491 24.5752 128.792 24.2163C128.092 23.8574 127.312 23.6854 126.527 23.7172C125.685 23.6962 124.85 23.8813 124.096 24.2563C123.347 24.6399 122.648 25.1134 122.014 25.6661V24.1236H117.376V44.3496H121.989V38.1881C122.543 38.5096 123.13 38.771 123.739 38.9676C124.365 39.1438 125.013 39.2303 125.664 39.2247C126.522 39.2273 127.369 39.0328 128.14 38.6561C128.911 38.2794 129.585 37.7305 130.11 37.052C131.366 35.4131 132.004 33.384 131.911 31.3217C132.013 29.3686 131.518 27.4306 130.492 25.7656M126.344 34.73C126.049 35.1 125.668 35.3929 125.235 35.5836C124.801 35.7743 124.328 35.857 123.855 35.8247C123.506 35.8289 123.157 35.8095 122.81 35.7666C122.526 35.7258 122.247 35.6506 121.981 35.5427V28.0792C122.352 27.8239 122.757 27.6203 123.183 27.4739C123.587 27.3498 124.006 27.2856 124.428 27.2832C124.829 27.2546 125.23 27.3287 125.595 27.4985C125.959 27.6682 126.274 27.9281 126.51 28.2534C127.033 29.2144 127.266 30.3058 127.182 31.3963C127.26 32.5616 126.969 33.7217 126.352 34.7134" fill="#1675B8"/>
<path d="M148.328 30.7495C148.457 28.8409 147.842 26.9565 146.611 25.4919C145.466 24.2728 143.765 23.6675 141.492 23.6675C140.428 23.6067 139.363 23.7669 138.363 24.138C137.364 24.5091 136.452 25.083 135.685 25.8236C134.97 26.6041 134.417 27.5196 134.059 28.5163C133.702 29.5131 133.547 30.5711 133.603 31.6285C133.537 32.6858 133.702 33.7449 134.088 34.7317C134.473 35.7186 135.069 36.6095 135.835 37.3422C137.328 38.6774 139.468 39.3408 142.272 39.3408C142.926 39.3483 143.58 39.3123 144.23 39.233C144.753 39.15 145.275 39.0588 145.765 38.9344C146.203 38.8271 146.636 38.6942 147.059 38.5363L148.088 38.1217V34.2905H147.615C147.407 34.4314 147.15 34.6056 146.785 34.7964C146.452 35.0088 146.099 35.1893 145.732 35.3354C145.279 35.5423 144.807 35.7007 144.321 35.808C143.798 35.9242 143.264 35.9826 142.728 35.9822C142.146 35.9864 141.565 35.928 140.995 35.808C140.504 35.6995 140.038 35.5028 139.618 35.2275C139.205 34.9486 138.871 34.569 138.647 34.1246C138.374 33.5889 138.221 33.0004 138.199 32.3997H148.328V30.7495ZM138.182 29.6465C138.193 28.8394 138.486 28.0616 139.012 27.4489C139.285 27.1674 139.615 26.9476 139.98 26.8046C140.344 26.6615 140.736 26.5984 141.127 26.6197C141.489 26.5899 141.853 26.6432 142.191 26.7755C142.528 26.9077 142.832 27.1154 143.077 27.3826C143.55 28.0251 143.792 28.808 143.765 29.6051L138.182 29.6465Z" fill="#1675B8"/>
<path d="M159.959 28.4855H159.577C159.325 28.413 159.067 28.3658 158.806 28.3446C158.474 28.3446 158.101 28.3446 157.702 28.3446C157.187 28.3469 156.674 28.4166 156.176 28.5519C155.649 28.688 155.131 28.8569 154.625 29.0578V39.009H150.004V24.1236H154.625V26.2465C154.832 26.0558 155.122 25.807 155.496 25.5168C155.821 25.2571 156.165 25.0214 156.524 24.8119C156.891 24.589 157.284 24.4135 157.694 24.2894C158.1 24.1489 158.526 24.0761 158.955 24.0739H159.453L159.959 24.1153V28.4855Z" fill="#1675B8"/>
<path d="M168.968 39.7471C167.082 39.7471 165.699 39.3602 164.82 38.5862C163.941 37.8122 163.509 36.5462 163.526 34.7881V27.8719H161.759V24.6709H163.526V20.4333H168.155V24.6709H172.601V27.8885H168.155V33.1295C168.155 33.652 168.155 34.0998 168.155 34.4896C168.158 34.8459 168.231 35.1981 168.37 35.5262C168.493 35.8406 168.722 36.1018 169.018 36.2642C169.445 36.4634 169.915 36.5546 170.386 36.5295C170.715 36.5186 171.041 36.4657 171.357 36.372C171.644 36.3098 171.923 36.2123 172.187 36.0818H172.585V39.3408C172.058 39.4764 171.523 39.5788 170.984 39.6476C170.296 39.731 169.603 39.7698 168.91 39.7637" fill="#1675B8"/>
<path d="M175.007 39.3325H179.595V24.5382H174.982L175.007 39.3325ZM174.866 22.4318H179.761V18.866H174.866V22.4318Z" fill="#1675B8"/>
<path d="M194.875 39.3408H181.909V36.289L188.985 27.9963H182.224V24.5299H194.726V27.5236L187.642 35.7997H194.875V39.3408Z" fill="#1675B8"/>
<path d="M55.0506 63H0V0H71.6089L55.0506 63Z" fill="#1675B8"/>
<path d="M41.0556 42.7408H35.9289V23.5763C35.75 21.4513 36.4044 19.3401 37.7539 17.6885C38.529 16.859 39.4747 16.207 40.5258 15.7776C41.5769 15.3481 42.7086 15.1513 43.843 15.2007H45.2865V20.3256H43.8762C43.471 20.29 43.0628 20.337 42.6763 20.4639C42.2899 20.5908 41.9332 20.7948 41.6281 21.0636C41.1794 21.6822 40.9702 22.4422 41.0391 23.2031V23.3524V42.7658L41.0556 42.7408Z" fill="white"/>
<path d="M52.7195 14.9187H47.5928V42.7409H52.7195V14.9187Z" fill="white"/>
<path d="M45.361 24.2148H40.873V28.8007H45.361V24.2148Z" fill="white"/>
<path d="M56.718 24.2148H52.23V28.8007H56.718V24.2148Z" fill="white"/>
<path d="M28.9934 34.6886L28.8027 35.012C28.2267 35.9612 27.4309 36.758 26.4823 37.3353C25.5338 37.9126 24.4603 38.2534 23.3523 38.3291C22.6113 38.3868 21.8658 38.3224 21.1457 38.1384C19.5498 37.7328 18.1503 36.7729 17.1977 35.4303C16.245 34.0876 15.8013 32.45 15.946 30.8103C16.0907 29.1706 16.8143 27.6359 17.9873 26.4807C19.1603 25.3255 20.7063 24.6252 22.3486 24.5051C23.0873 24.4551 23.8292 24.5223 24.5469 24.7041C25.5218 24.9528 26.4306 25.4113 27.2099 26.0476L30.5282 25.351L28.0394 26.8603L23.1781 29.7627L21.8259 27.7642C21.5289 27.313 21.0728 26.9903 20.5484 26.8603C20.2476 26.7832 19.9338 26.7707 19.6278 26.8235C19.3218 26.8764 19.0305 26.9935 18.7731 27.1671C18.5312 27.3255 18.3242 27.5314 18.1644 27.7724C18.0047 28.0133 17.8957 28.2842 17.8439 28.5686C17.7846 28.8531 17.7834 29.1467 17.8404 29.4317C17.8974 29.7167 18.0115 29.9873 18.1758 30.2271L20.6645 33.9506C20.9625 34.3992 21.4186 34.719 21.9421 34.8462C22.1714 34.9096 22.4101 34.932 22.6472 34.9125C22.9873 34.8854 23.3165 34.7804 23.6095 34.6057L29.0266 31.3798L30.2876 30.6335L33.7635 28.5769L33.6723 28.2535C33.5763 27.9086 33.4571 27.5705 33.3155 27.2417C33.2492 27.051 33.1662 26.8686 33.0833 26.6861C32.7993 26.0726 32.4635 25.4845 32.0795 24.9281C30.5088 22.7051 28.197 21.1146 25.559 20.4417C24.3839 20.1425 23.1679 20.0361 21.9587 20.1266C19.2731 20.3166 16.7431 21.457 14.8225 23.3431C12.902 25.2292 11.7165 27.7376 11.4788 30.4185C11.2411 33.0993 11.9667 35.777 13.5254 37.9714C15.0841 40.1658 17.374 41.7333 19.9843 42.3926C21.161 42.6989 22.3804 42.8082 23.5929 42.716C25.5031 42.5834 27.3482 41.9674 28.9547 40.9258C30.5612 39.8842 31.8763 38.4513 32.7763 36.7618L33.0003 36.3389L28.9934 34.6886Z" fill="white"/>
<path d="M136.606 45.1457V44.673H135.976V44.0344H135.304V44.673H135.046V45.1457H135.304V46.174C135.294 46.2748 135.306 46.3765 135.339 46.4723C135.372 46.5681 135.425 46.6558 135.494 46.7296C135.661 46.8608 135.872 46.9232 136.083 46.9037C136.183 46.913 136.283 46.913 136.382 46.9037H136.606V46.4227H136.556H136.432H136.291C136.224 46.4264 136.157 46.409 136.1 46.373C136.077 46.3629 136.056 46.3481 136.039 46.3296C136.022 46.311 136.009 46.2891 136 46.2652C135.993 46.2185 135.993 46.1709 136 46.1242V45.1374L136.606 45.1457Z" fill="#1675B8"/>
<path d="M138.473 44.7808C138.218 44.6452 137.93 44.5847 137.643 44.6066C137.494 44.5904 137.344 44.5904 137.195 44.6066C137.087 44.6177 136.981 44.6429 136.88 44.6813V45.2037H136.938L137.245 45.0959C137.331 45.0676 137.42 45.0509 137.51 45.0461C137.646 45.0447 137.781 45.0672 137.908 45.1125C137.951 45.14 137.986 45.1782 138.009 45.2233C138.032 45.2684 138.043 45.3189 138.041 45.3696C137.85 45.3696 137.676 45.3695 137.494 45.4359C137.349 45.456 137.207 45.4922 137.071 45.5437C136.959 45.6047 136.865 45.6932 136.797 45.8008C136.727 45.9212 136.695 46.06 136.706 46.1989C136.703 46.289 136.718 46.3788 136.751 46.4629C136.784 46.5469 136.833 46.6235 136.896 46.6881C136.954 46.7515 137.024 46.8015 137.103 46.8345C137.182 46.8674 137.267 46.8826 137.353 46.8789C137.433 46.8898 137.513 46.8898 137.593 46.8789C137.655 46.8646 137.714 46.8393 137.767 46.8042C137.821 46.7813 137.869 46.7474 137.908 46.7047C137.95 46.6705 137.994 46.64 138.041 46.6135V46.8374H138.688V45.4027C138.698 45.2933 138.681 45.1833 138.641 45.0812C138.601 44.979 138.537 44.8876 138.456 44.8139M138.041 46.3232C137.993 46.3726 137.933 46.4096 137.867 46.431C137.812 46.465 137.749 46.4822 137.684 46.4808C137.602 46.4871 137.519 46.4635 137.452 46.4144C137.423 46.3891 137.4 46.3571 137.385 46.321C137.371 46.2849 137.365 46.2458 137.369 46.2071C137.367 46.1452 137.384 46.0842 137.419 46.033C137.461 45.9951 137.508 45.9643 137.56 45.9418L137.767 45.892H138.041V46.3232Z" fill="#1675B8"/>
<path d="M140.555 44.6564H140.488C140.422 44.6564 140.381 44.6564 140.298 44.6564C140.24 44.6739 140.187 44.702 140.14 44.7394C140.09 44.7706 140.042 44.8067 139.999 44.8472C139.953 44.8776 139.908 44.9108 139.866 44.9467V44.6482H139.203V46.8374H139.866V45.4028L140.09 45.3365C140.164 45.3203 140.241 45.3203 140.314 45.3365H140.472H140.571H140.605V44.7062C140.581 44.6973 140.554 44.6973 140.53 44.7062" fill="#1675B8"/>
<path d="M142.463 44.7809C142.211 44.6397 141.921 44.5789 141.633 44.6067C141.484 44.5899 141.334 44.5899 141.185 44.6067C141.077 44.6178 140.971 44.6429 140.87 44.6814V45.2038H140.928L141.235 45.096C141.321 45.0663 141.41 45.0496 141.501 45.0462C141.636 45.0448 141.771 45.0672 141.899 45.1126C141.941 45.1401 141.976 45.1783 141.999 45.2234C142.023 45.2685 142.034 45.319 142.031 45.3697C141.848 45.3821 141.665 45.4042 141.484 45.436C141.339 45.4561 141.197 45.4923 141.061 45.5438C140.949 45.6048 140.855 45.6932 140.787 45.8009C140.717 45.9213 140.685 46.0601 140.696 46.1989C140.693 46.2891 140.709 46.3789 140.741 46.4629C140.774 46.547 140.824 46.6236 140.887 46.6882C140.943 46.753 141.013 46.804 141.092 46.8371C141.172 46.8702 141.257 46.8845 141.343 46.879C141.423 46.8884 141.504 46.8884 141.583 46.879C141.645 46.8617 141.703 46.8366 141.758 46.8043C141.811 46.7814 141.859 46.7475 141.899 46.7048C141.94 46.6706 141.985 46.6401 142.031 46.6136V46.8374H142.679V45.4028C142.688 45.2918 142.671 45.18 142.628 45.0774C142.584 44.9747 142.516 44.8843 142.43 44.814M142.031 46.3233C141.98 46.3691 141.921 46.4056 141.857 46.4311C141.802 46.4627 141.739 46.4799 141.675 46.4809C141.634 46.4866 141.592 46.4836 141.552 46.4722C141.512 46.4608 141.474 46.4411 141.442 46.4145C141.413 46.3892 141.39 46.3572 141.375 46.3211C141.361 46.285 141.356 46.2459 141.359 46.2072C141.357 46.1453 141.375 46.0843 141.409 46.0331C141.451 45.9952 141.499 45.9643 141.55 45.9419L141.741 45.8921C141.838 45.8984 141.935 45.8984 142.031 45.8921V46.3233Z" fill="#1675B8"/>
<path d="M144.355 43.794H144.081C143.969 43.7845 143.855 43.7979 143.748 43.8336C143.641 43.8692 143.543 43.9263 143.459 44.0013C143.383 44.0818 143.326 44.1774 143.29 44.2818C143.254 44.3861 143.241 44.4968 143.251 44.6067V44.673H142.986V45.1457H143.251V46.8623H143.923V45.1457H144.413V44.673H143.923C143.918 44.5697 143.947 44.4676 144.006 44.3828C144.048 44.333 144.147 44.3247 144.272 44.3247H144.429C144.479 44.3247 144.529 44.3247 144.545 44.3247H144.595V43.8189H144.388" fill="#1675B8"/>
<path d="M146.246 45.776C146.154 45.6708 146.033 45.5957 145.898 45.5603L145.69 45.494C145.627 45.5057 145.563 45.5057 145.499 45.494L145.275 45.4194C145.242 45.3832 145.225 45.3356 145.226 45.2867C145.23 45.259 145.241 45.2329 145.259 45.211C145.276 45.1891 145.299 45.1723 145.325 45.1623C145.399 45.1154 145.486 45.0922 145.574 45.0959C145.643 45.0873 145.713 45.0873 145.781 45.0959C145.848 45.1093 145.912 45.1316 145.972 45.1623C146.022 45.1821 146.069 45.2071 146.113 45.2369L146.229 45.3199H146.279V44.7642C146.177 44.7122 146.068 44.6759 145.956 44.6564C145.82 44.621 145.681 44.6043 145.541 44.6066C145.404 44.6037 145.267 44.6205 145.134 44.6564C145.018 44.6885 144.908 44.7419 144.811 44.814C144.74 44.8851 144.676 44.9629 144.62 45.0462C144.579 45.1374 144.56 45.2366 144.562 45.3364C144.551 45.4852 144.595 45.6329 144.686 45.7511C144.788 45.8563 144.913 45.936 145.051 45.9833L145.259 46.033L145.45 46.0828C145.515 46.0976 145.578 46.117 145.64 46.1408C145.658 46.1579 145.672 46.1786 145.68 46.2016C145.689 46.2245 145.692 46.2491 145.69 46.2735C145.689 46.3041 145.679 46.3338 145.661 46.3588C145.644 46.3839 145.619 46.4032 145.591 46.4145C145.509 46.4317 145.424 46.4317 145.342 46.4145C145.257 46.4324 145.169 46.4324 145.085 46.4145C145.002 46.4145 144.944 46.3647 144.877 46.3482L144.703 46.2569L144.603 46.1574H144.545V46.7462C144.654 46.8064 144.772 46.8484 144.894 46.8706C145.041 46.9049 145.191 46.9216 145.342 46.9204C145.49 46.9235 145.638 46.9067 145.781 46.8706C145.899 46.8326 146.009 46.7736 146.105 46.6964C146.179 46.6348 146.244 46.5621 146.296 46.4808C146.34 46.3843 146.365 46.2801 146.37 46.174C146.372 46.0315 146.329 45.8921 146.246 45.776Z" fill="#1675B8"/>
<path d="M147.349 44.6648H146.694V46.8541H147.349V44.6648Z" fill="#1675B8"/>
<path d="M148.519 46.3316L149.539 45.1126V44.6648H147.739V45.1789H148.71L147.689 46.4146V46.8624H149.556V46.3316H148.519Z" fill="#1675B8"/>
<path d="M152.269 43.8105H151.746V47.6335H152.269V43.8105Z" fill="#1675B8"/>
<path d="M155.91 43.8105V44.7476C155.827 44.7056 155.741 44.6695 155.653 44.6398C155.566 44.6215 155.475 44.6215 155.388 44.6398C155.267 44.6341 155.147 44.6598 155.039 44.7144C154.927 44.7665 154.828 44.843 154.749 44.9383C154.674 45.0537 154.61 45.1759 154.558 45.3032C154.426 45.7477 154.47 46.226 154.682 46.6384C154.743 46.7388 154.83 46.8212 154.934 46.8766C155.037 46.932 155.154 46.9586 155.271 46.9535C155.329 46.9629 155.388 46.9629 155.446 46.9535C155.504 46.9443 155.56 46.9246 155.612 46.8954C155.665 46.8719 155.713 46.8381 155.753 46.7959C155.808 46.7639 155.86 46.7279 155.91 46.6881V46.912H156.566V43.8603L155.91 43.8105ZM155.91 46.2569C155.862 46.303 155.801 46.3346 155.736 46.3481C155.679 46.3654 155.619 46.3654 155.562 46.3481C155.503 46.3543 155.443 46.3444 155.389 46.3196C155.335 46.2948 155.289 46.2559 155.255 46.2071C155.184 46.057 155.153 45.8916 155.164 45.7262C155.152 45.5614 155.189 45.3968 155.271 45.2535C155.314 45.1979 155.37 45.1531 155.433 45.1229C155.497 45.0926 155.566 45.0777 155.636 45.0793H155.769L155.91 45.1291V46.2569Z" fill="#1675B8"/>
<path d="M159.029 45.6515C159.055 45.3549 158.969 45.0594 158.789 44.8223C158.687 44.7283 158.566 44.6575 158.434 44.6145C158.303 44.5716 158.163 44.5576 158.026 44.5735C157.873 44.5677 157.721 44.5926 157.579 44.6468C157.436 44.7009 157.306 44.7832 157.196 44.8886C156.992 45.1321 156.886 45.4422 156.897 45.7594C156.888 45.9135 156.913 46.0678 156.97 46.2112C157.028 46.3546 157.116 46.4835 157.229 46.5886C157.355 46.6978 157.501 46.7805 157.659 46.8318C157.817 46.8831 157.984 46.9019 158.15 46.8872C158.241 46.8959 158.333 46.8959 158.424 46.8872H158.648C158.715 46.8765 158.779 46.8541 158.839 46.8208C158.888 46.804 158.935 46.7817 158.98 46.7545V46.1989H158.913C158.874 46.2212 158.837 46.2491 158.805 46.2818L158.648 46.3565C158.582 46.3876 158.512 46.4099 158.44 46.4228C158.366 46.4314 158.291 46.4314 158.216 46.4228C158.131 46.4319 158.045 46.4319 157.959 46.4228C157.893 46.4043 157.829 46.3794 157.769 46.3482C157.708 46.302 157.66 46.2423 157.627 46.174C157.593 46.0921 157.57 46.0055 157.561 45.9169H159.013L159.029 45.6515ZM157.578 45.4774C157.575 45.4183 157.586 45.3594 157.609 45.3049C157.631 45.2504 157.666 45.2017 157.71 45.1623C157.745 45.1169 157.791 45.0809 157.843 45.0577C157.895 45.0345 157.952 45.0249 158.009 45.0296C158.061 45.0249 158.113 45.0331 158.161 45.0533C158.208 45.0736 158.25 45.1053 158.283 45.1457C158.348 45.2436 158.38 45.3599 158.374 45.4774H157.578Z" fill="#1675B8"/>
<path d="M160.713 45.1457V44.673H160.075V44.0344H159.411V44.673H159.154V45.1457H159.411V46.174C159.4 46.2749 159.411 46.3771 159.444 46.4732C159.477 46.5692 159.531 46.6568 159.602 46.7296C159.769 46.8608 159.979 46.9232 160.191 46.9037C160.29 46.9127 160.39 46.9127 160.489 46.9037H160.713V46.4227H160.664C160.622 46.4182 160.581 46.4182 160.539 46.4227C160.492 46.4278 160.445 46.4278 160.398 46.4227C160.331 46.4276 160.264 46.4101 160.207 46.373C160.184 46.3629 160.163 46.3481 160.146 46.3296C160.129 46.311 160.116 46.2891 160.108 46.2652C160.101 46.2184 160.101 46.171 160.108 46.1242V45.1374L160.713 45.1457Z" fill="#1675B8"/>
<path d="M162.572 44.7808C162.318 44.6443 162.03 44.5838 161.742 44.6066C161.596 44.5908 161.449 44.5908 161.303 44.6066C161.192 44.62 161.084 44.645 160.979 44.6813V45.2037H161.045C161.137 45.2037 161.253 45.1291 161.344 45.0959C161.438 45.0659 161.536 45.0492 161.634 45.0461C161.765 45.0452 161.894 45.0677 162.016 45.1125C162.057 45.1415 162.089 45.1803 162.111 45.2252C162.133 45.2701 162.143 45.3197 162.141 45.3696C161.96 45.3825 161.78 45.4046 161.601 45.4359C161.454 45.4571 161.31 45.4932 161.17 45.5437C161.061 45.6049 160.969 45.6935 160.904 45.8008C160.832 45.9202 160.797 46.0591 160.805 46.1988C160.804 46.3803 160.872 46.5552 160.996 46.6881C161.056 46.75 161.128 46.7989 161.208 46.8317C161.288 46.8645 161.374 46.8806 161.46 46.8789C161.54 46.8894 161.621 46.8894 161.701 46.8789C161.762 46.8631 161.821 46.8379 161.875 46.8042C161.926 46.7771 161.973 46.7436 162.016 46.7047L162.141 46.6135V46.8373H162.796V45.4027C162.803 45.2927 162.786 45.1825 162.744 45.0804C162.702 44.9783 162.638 44.8872 162.555 44.8139M162.141 46.3232C162.096 46.37 162.043 46.4068 161.983 46.431C161.924 46.463 161.859 46.4801 161.792 46.4808C161.707 46.4856 161.622 46.4623 161.551 46.4144C161.525 46.3872 161.504 46.3547 161.492 46.3189C161.479 46.2831 161.474 46.245 161.477 46.2071C161.476 46.1465 161.49 46.0866 161.518 46.033C161.563 45.9952 161.614 45.9645 161.668 45.9418L161.875 45.892H162.141V46.3232Z" fill="#1675B8"/>
<path d="M164.613 44.6648L164.198 46.0497L163.75 44.6648H163.053L163.833 46.8126L163.509 47.6668H164.215L165.293 44.6648H164.613Z" fill="#1675B8"/>
<path d="M166.206 43.8105H165.55V46.8623H166.206V43.8105Z" fill="#1675B8"/>
<path d="M167.375 44.6648H166.711V46.8541H167.375V44.6648Z" fill="#1675B8"/>
<path d="M170.27 43.8105H169.731V47.6335H170.27V43.8105Z" fill="#1675B8"/>
<path d="M174.501 44.9053C174.442 44.8086 174.357 44.7298 174.256 44.6772C174.155 44.6247 174.042 44.6003 173.929 44.6067C173.806 44.6018 173.683 44.6274 173.572 44.6814C173.472 44.7423 173.378 44.8116 173.29 44.8887V44.6648H172.618V47.6667H173.29V46.7463C173.362 46.8036 173.444 46.8484 173.531 46.879C173.625 46.8846 173.719 46.8846 173.813 46.879C173.936 46.8772 174.057 46.8479 174.168 46.7934C174.278 46.7389 174.375 46.6605 174.451 46.5638C174.624 46.3225 174.711 46.0309 174.7 45.7346C174.719 45.4444 174.65 45.1554 174.501 44.9053ZM173.912 46.2404C173.87 46.2951 173.814 46.3382 173.75 46.3657C173.686 46.3933 173.616 46.4044 173.547 46.398H173.398H173.29V45.2867C173.341 45.2436 173.4 45.2124 173.464 45.1955C173.522 45.1861 173.581 45.1861 173.639 45.1955C173.695 45.1931 173.751 45.2048 173.802 45.2294C173.852 45.254 173.896 45.2908 173.929 45.3365C173.998 45.4871 174.029 45.6521 174.02 45.8175C174.036 45.9878 173.998 46.1587 173.912 46.3068" fill="#1675B8"/>
<path d="M176.418 44.6564H176.343H176.169C176.106 44.6723 176.046 44.7005 175.995 44.7394L175.845 44.8472C175.806 44.8834 175.765 44.9166 175.721 44.9467V44.6482H175.057V46.8374H175.721V45.4028L175.945 45.3365C176.019 45.3215 176.095 45.3215 176.169 45.3365H176.326H176.434H176.484V44.7062C176.463 44.6986 176.439 44.6986 176.418 44.7062" fill="#1675B8"/>
<path d="M178.491 44.9052C178.384 44.7956 178.255 44.7105 178.112 44.6561C177.968 44.6016 177.815 44.5792 177.662 44.5901C177.509 44.5786 177.355 44.6008 177.212 44.6553C177.069 44.7098 176.939 44.7951 176.832 44.9052C176.639 45.1497 176.534 45.452 176.534 45.7635C176.534 46.075 176.639 46.3774 176.832 46.6218C176.939 46.7319 177.069 46.8173 177.212 46.8718C177.355 46.9262 177.509 46.9485 177.662 46.9369C177.814 46.9437 177.967 46.9192 178.109 46.8651C178.252 46.8109 178.382 46.7281 178.491 46.6218C178.686 46.3902 178.786 46.0944 178.774 45.7925C178.788 45.4875 178.68 45.1892 178.475 44.9632M178.06 46.1574C178.042 46.233 178.009 46.3037 177.961 46.3647C177.931 46.4084 177.887 46.4406 177.836 46.456C177.79 46.4875 177.735 46.5048 177.678 46.5057C177.617 46.5071 177.556 46.4897 177.504 46.456C177.475 46.4486 177.447 46.4351 177.423 46.4166C177.398 46.3981 177.378 46.3748 177.363 46.3482C177.331 46.2867 177.303 46.2229 177.28 46.1574C177.269 46.0471 177.269 45.936 177.28 45.8257C177.27 45.7126 177.27 45.5988 177.28 45.4857C177.306 45.4148 177.337 45.3455 177.372 45.2784C177.405 45.2306 177.451 45.1932 177.504 45.1706C177.557 45.1629 177.61 45.1629 177.662 45.1706C177.72 45.1611 177.778 45.1611 177.836 45.1706C177.885 45.1976 177.927 45.2343 177.961 45.2784C178.012 45.3437 178.046 45.4206 178.06 45.5023C178.071 45.6098 178.071 45.7182 178.06 45.8257C178.071 45.936 178.071 46.0471 178.06 46.1574Z" fill="#1675B8"/>
<path d="M180.283 43.794H180.018C179.906 43.7845 179.792 43.7979 179.685 43.8336C179.578 43.8692 179.48 43.9263 179.396 44.0013C179.32 44.0818 179.263 44.1774 179.227 44.2818C179.191 44.3861 179.178 44.4968 179.188 44.6067V44.673H178.915V45.1457H179.188V46.8623H179.852V45.1457H180.35V44.673H179.827C179.819 44.5707 179.845 44.4686 179.902 44.3828C179.952 44.333 180.043 44.3247 180.176 44.3247H180.333C180.369 44.3213 180.405 44.3213 180.441 44.3247H180.491V43.8189C180.422 43.8256 180.352 43.8256 180.283 43.8189" fill="#1675B8"/>
<path d="M182.573 45.6515C182.601 45.3559 182.518 45.0605 182.341 44.8223C182.243 44.7295 182.127 44.6581 181.999 44.6124C181.872 44.5667 181.737 44.5478 181.603 44.5569C181.45 44.5497 181.298 44.5739 181.155 44.6281C181.012 44.6823 180.882 44.7654 180.773 44.872C180.56 45.1104 180.449 45.4234 180.466 45.7428C180.459 45.8959 180.484 46.0489 180.54 46.1918C180.595 46.3346 180.681 46.4642 180.79 46.572C181.046 46.7876 181.376 46.8948 181.71 46.8706C181.804 46.8799 181.899 46.8799 181.992 46.8706H182.216C182.284 46.8613 182.349 46.8388 182.407 46.8042C182.457 46.7874 182.504 46.7651 182.548 46.7379V46.1823H182.49L182.357 46.2652L182.216 46.3399C182.151 46.373 182.081 46.3954 182.009 46.4062C181.935 46.4149 181.859 46.4149 181.785 46.4062C181.702 46.4154 181.619 46.4154 181.536 46.4062C181.469 46.3908 181.405 46.3656 181.345 46.3316C181.281 46.2902 181.231 46.2291 181.204 46.1574C181.162 46.0783 181.139 45.9901 181.138 45.9003H182.581L182.573 45.6515ZM181.13 45.4774C181.128 45.3631 181.166 45.2518 181.238 45.1623C181.276 45.1197 181.324 45.0858 181.377 45.0629C181.43 45.0401 181.487 45.0287 181.544 45.0296C181.597 45.0243 181.651 45.0321 181.7 45.0523C181.749 45.0726 181.793 45.1047 181.827 45.1457C181.898 45.2408 181.934 45.3585 181.926 45.4774H181.13Z" fill="#1675B8"/>
<path d="M184.481 45.7759C184.39 45.6691 184.268 45.5937 184.132 45.5603L183.925 45.494C183.856 45.5026 183.787 45.5026 183.718 45.494L183.51 45.4194C183.483 45.3804 183.469 45.3341 183.469 45.2866C183.47 45.2593 183.48 45.233 183.496 45.2109C183.512 45.1888 183.534 45.1719 183.56 45.1623C183.63 45.1132 183.715 45.0898 183.801 45.0959C183.875 45.0885 183.95 45.0885 184.025 45.0959C184.086 45.1093 184.144 45.1317 184.199 45.1623C184.247 45.1839 184.295 45.2088 184.34 45.2369C184.383 45.2544 184.42 45.283 184.448 45.3199H184.514V44.7642C184.415 44.7123 184.309 44.6759 184.199 44.6564C184.063 44.623 183.924 44.6063 183.784 44.6066C183.639 44.6053 183.494 44.6221 183.353 44.6564C183.243 44.6879 183.142 44.7415 183.054 44.814C182.975 44.8775 182.91 44.9568 182.863 45.0467C182.816 45.1366 182.788 45.2352 182.78 45.3364C182.78 45.4852 182.826 45.6303 182.913 45.751C183.018 45.86 183.15 45.94 183.295 45.9833L183.494 46.033L183.684 46.0828C183.75 46.0949 183.814 46.1144 183.875 46.1408C183.893 46.1579 183.906 46.1786 183.915 46.2016C183.924 46.2245 183.927 46.2491 183.925 46.2735C183.923 46.3051 183.912 46.3354 183.893 46.3606C183.874 46.3857 183.847 46.4045 183.817 46.4144C183.738 46.4329 183.656 46.4329 183.577 46.4144C183.492 46.4312 183.404 46.4312 183.319 46.4144L183.112 46.3481L182.913 46.232C182.879 46.1968 182.843 46.1636 182.805 46.1325H182.755V46.7213C182.865 46.7803 182.982 46.8222 183.104 46.8457C183.245 46.8791 183.39 46.8958 183.535 46.8954C183.686 46.8987 183.837 46.882 183.983 46.8457C184.101 46.8152 184.21 46.7553 184.298 46.6716C184.384 46.6171 184.455 46.5432 184.506 46.456C184.551 46.3602 184.574 46.2551 184.572 46.1491C184.581 46.007 184.54 45.8662 184.456 45.751" fill="#1675B8"/>
<path d="M186.215 44.6648L185.808 46.0497L185.36 44.6648H184.664L185.443 46.8126L185.12 47.6668H185.833L186.903 44.6648H186.215Z" fill="#1675B8"/>
<path d="M188.903 44.9053C188.796 44.7956 188.666 44.7105 188.523 44.6561C188.379 44.6017 188.226 44.5792 188.073 44.5902C187.92 44.578 187.766 44.6 187.623 44.6545C187.479 44.709 187.35 44.7947 187.243 44.9053C187.056 45.1521 186.954 45.4535 186.954 45.7636C186.954 46.0736 187.056 46.375 187.243 46.6218C187.35 46.7325 187.479 46.8181 187.623 46.8726C187.766 46.9271 187.92 46.9491 188.073 46.937C188.226 46.9479 188.379 46.9254 188.523 46.871C188.666 46.8166 188.796 46.7315 188.903 46.6218C189.09 46.375 189.192 46.0736 189.192 45.7636C189.192 45.4535 189.09 45.1521 188.903 44.9053ZM188.471 46.0994C188.455 46.1714 188.43 46.2411 188.397 46.3068C188.358 46.3527 188.306 46.3847 188.247 46.398C188.202 46.4326 188.146 46.4503 188.09 46.4477C188.028 46.4457 187.969 46.4286 187.915 46.398C187.862 46.3791 187.817 46.3406 187.791 46.2902C187.752 46.2321 187.724 46.1675 187.708 46.0994C187.693 45.9894 187.693 45.8778 187.708 45.7677C187.694 45.6548 187.694 45.5407 187.708 45.4277C187.721 45.3536 187.749 45.283 187.791 45.2204C187.827 45.172 187.876 45.1347 187.932 45.1126C187.984 45.1039 188.037 45.1039 188.09 45.1126C188.147 45.104 188.206 45.104 188.264 45.1126L188.397 45.2204C188.432 45.2911 188.457 45.3665 188.471 45.4443C188.49 45.5512 188.49 45.6607 188.471 45.7677C188.491 45.8774 188.491 45.9897 188.471 46.0994Z" fill="#1675B8"/>
<path d="M191.367 44.8139C191.258 44.7101 191.121 44.6419 190.972 44.6182C190.824 44.5944 190.672 44.6165 190.537 44.6813C190.42 44.7416 190.311 44.8168 190.213 44.9052V44.6647H189.55V46.8623H190.213V45.3032C190.265 45.2617 190.324 45.2307 190.388 45.212C190.439 45.1987 190.494 45.1987 190.545 45.212C190.628 45.212 190.695 45.212 190.728 45.212C190.75 45.2174 190.77 45.2288 190.786 45.2449C190.802 45.261 190.814 45.2811 190.819 45.3032C190.848 45.3687 190.865 45.439 190.869 45.5105C190.869 45.5852 190.869 45.6847 190.869 45.7593V46.8623H191.516V45.4027C191.535 45.1862 191.479 44.9697 191.358 44.7891" fill="#1675B8"/>
<path d="M193.988 45.6516C194.011 45.3539 193.922 45.0583 193.739 44.8223C193.643 44.7298 193.528 44.6584 193.402 44.6127C193.276 44.567 193.143 44.548 193.009 44.5569C192.857 44.5502 192.704 44.5747 192.562 44.6289C192.419 44.6831 192.289 44.7658 192.179 44.8721C191.979 45.1167 191.875 45.4267 191.889 45.7428C191.879 45.8963 191.902 46.0503 191.958 46.1936C192.014 46.337 192.101 46.4662 192.213 46.5721C192.338 46.6812 192.484 46.7639 192.643 46.8152C192.801 46.8665 192.968 46.8854 193.134 46.8707C193.225 46.8803 193.316 46.8803 193.407 46.8707H193.623C193.691 46.8628 193.756 46.8401 193.814 46.8043C193.866 46.7892 193.917 46.7669 193.963 46.7379V46.1823H193.897C193.858 46.2067 193.822 46.2344 193.789 46.2653L193.623 46.3399C193.558 46.373 193.488 46.3954 193.416 46.4063C193.344 46.4156 193.271 46.4156 193.2 46.4063C193.12 46.4154 193.039 46.4154 192.959 46.4063C192.888 46.3878 192.819 46.3628 192.752 46.3316C192.69 46.2876 192.641 46.2273 192.611 46.1574C192.576 46.0756 192.554 45.9889 192.544 45.9004H194.005L193.988 45.6516ZM192.528 45.4775C192.531 45.3611 192.575 45.2496 192.652 45.1624C192.69 45.1184 192.737 45.0836 192.791 45.0606C192.844 45.0376 192.901 45.027 192.959 45.0296C193.01 45.0222 193.062 45.0292 193.109 45.0497C193.156 45.0703 193.196 45.1035 193.225 45.1458C193.295 45.2424 193.336 45.3579 193.341 45.4775H192.528Z" fill="#1675B8"/>
<path d="M194.992 43.8105H194.328V46.8623H194.992V43.8105Z" fill="#1675B8"/>
</g>
<defs>
<clipPath id="clip0_190_1399">
<rect width="195" height="63" fill="white"/>
</clipPath>
</defs>
</svg>
