<svg width="142" height="66" viewBox="0 0 142 66" fill="none" xmlns="http://www.w3.org/2000/svg">
<g clip-path="url(#clip0_31_535)">
<path d="M36.2726 55.1562C29.6401 53.1424 28.3056 47.4536 28.707 41.1708H38.2894C38.2894 45.5104 38.48 49.1452 43.7478 49.1452C46.9787 49.1452 48.5641 47.1315 48.5641 44.0001C48.5641 35.8244 29.289 35.321 29.289 21.8491C29.289 14.7406 32.7105 9.08203 44.3398 9.08203C53.6714 9.08203 58.297 13.2303 57.6649 22.715H48.3333C48.3333 19.3219 47.7714 15.8784 43.8983 15.8784C40.7979 15.8784 38.9516 17.5699 38.9516 20.7113C38.9516 29.32 58.2368 28.5649 58.2368 42.8624C58.2368 50.726 54.3436 53.9379 49.5876 55.2166L36.2726 55.1562Z" fill="#656565"/>
<path d="M81.5858 23.7621C81.6561 19.5534 80.9537 15.8582 75.8765 15.8582C69.9164 15.8582 69.9164 23.8325 69.9164 32.6325C69.9164 46.8193 71.3111 49.3364 76.7695 49.3364C78.3913 49.3006 79.9969 49.0049 81.5256 48.4605V38.3918H76.318V31.4243H91.108V54.4211C90.1046 54.6124 88.4891 54.8842 86.673 55.146H70.2776C61.3976 52.9511 60.2437 45.9735 60.2437 32.119C60.2437 20.671 60.8256 9.05176 76.4886 9.05176C85.8803 9.05176 91.71 14.2673 91.1481 23.752L81.5858 23.7621Z" fill="#656565"/>
<path d="M109.199 9.06177C117.578 9.06177 122.153 12.2938 122.785 19.5936V22.6947H113.454C113.454 19.3922 112.631 15.8581 108.758 15.8581C105.647 15.8581 103.801 17.5496 103.801 20.681C103.801 28.6453 120.287 28.605 122.785 39.8114V46.3863C121.782 51.6924 118.41 54.0988 114.457 55.156H101.092C94.4595 53.1423 93.125 47.4535 93.5263 41.1707H103.109C103.109 45.5103 103.299 49.1551 108.567 49.1551C111.798 49.1551 113.383 47.081 113.383 44C113.383 35.8242 94.0983 35.3208 94.0983 21.849C94.0983 14.7506 97.5298 9.12218 109.199 9.09197" fill="#656565"/>
<path d="M142 55.4983H0V58.4987H142V55.4983Z" fill="#FF6600"/>
<path d="M125.564 0H122.574V66H125.564V0Z" fill="#FF6600"/>
</g>
<defs>
<clipPath id="clip0_31_535">
<rect width="142" height="66" fill="white"/>
</clipPath>
</defs>
</svg>
