<svg width="1920" height="280" viewBox="0 0 1920 280" fill="none" xmlns="http://www.w3.org/2000/svg">
<mask id="mask0_7_16" style="mask-type:alpha" maskUnits="userSpaceOnUse" x="0" y="0" width="1920" height="280">
<rect x="0.919678" width="1919.08" height="280" fill="#C4C4C4"/>
<rect x="0.919678" width="1919.08" height="280" fill="#FFCC05"/>
<rect x="1363.47" y="118" width="373.021" height="70" rx="35" fill="black"/>
<g clip-path="url(#clip0_7_16)">
<path d="M1686.91 153H1704.1" stroke="#FFCC05" stroke-width="1.5" stroke-miterlimit="10" stroke-linecap="round" stroke-linejoin="round"/>
<path d="M1698.51 148.333L1704.1 153L1698.51 157.667" stroke="#FFCC05" stroke-width="1.5" stroke-miterlimit="10" stroke-linecap="round" stroke-linejoin="round"/>
</g>
<path d="M1466.58 146.454H1462.67V159H1466.58C1470.7 159 1473.24 156.642 1473.24 152.754C1473.24 148.866 1470.7 146.454 1466.58 146.454ZM1464.31 157.65V147.786H1466.58C1469.86 147.786 1471.57 149.694 1471.57 152.754C1471.57 155.814 1469.86 157.65 1466.58 157.65H1464.31ZM1479.6 150.36C1481.29 150.36 1482.73 151.422 1482.71 153.348H1476.48C1476.66 151.422 1477.99 150.36 1479.6 150.36ZM1484.2 155.958H1482.44C1482.08 157.02 1481.14 157.776 1479.67 157.776C1477.99 157.776 1476.59 156.678 1476.46 154.68H1484.35C1484.38 154.338 1484.4 154.05 1484.4 153.69C1484.4 150.99 1482.53 148.974 1479.67 148.974C1476.79 148.974 1474.79 150.936 1474.79 154.05C1474.79 157.182 1476.86 159.162 1479.67 159.162C1482.12 159.162 1483.7 157.758 1484.2 155.958ZM1486.92 156.3C1486.92 158.28 1487.91 159 1489.66 159H1491.14V157.614H1489.93C1488.92 157.614 1488.56 157.272 1488.56 156.3V150.486H1491.14V149.136H1488.56V146.652H1486.92V149.136H1485.65V150.486H1486.92V156.3ZM1492.51 154.032C1492.51 157.092 1494.54 159.162 1497.17 159.162C1498.99 159.162 1500.27 158.226 1500.86 157.164V159H1502.52V149.136H1500.86V150.936C1500.28 149.91 1499.02 148.974 1497.19 148.974C1494.54 148.974 1492.51 150.954 1492.51 154.032ZM1500.86 154.05C1500.86 156.372 1499.31 157.722 1497.51 157.722C1495.71 157.722 1494.18 156.354 1494.18 154.032C1494.18 151.71 1495.71 150.396 1497.51 150.396C1499.31 150.396 1500.86 151.764 1500.86 154.05ZM1509.03 157.128L1505.93 149.136H1504.11L1508.09 158.892L1506.15 163.644H1507.84L1513.78 149.136H1512.09L1509.03 157.128ZM1520.23 159H1521.86V149.136H1520.23V159ZM1521.07 147.534C1521.67 147.534 1522.15 147.048 1522.15 146.418C1522.15 145.788 1521.67 145.302 1521.07 145.302C1520.44 145.302 1519.96 145.788 1519.96 146.418C1519.96 147.048 1520.44 147.534 1521.07 147.534ZM1524.04 154.05C1524.04 156.948 1525.77 158.874 1528.26 159.126V161.052H1529.16C1529.93 161.052 1530.31 161.268 1530.31 161.826C1530.31 162.402 1529.93 162.618 1529.16 162.618H1527.41V163.68H1529.48C1530.76 163.68 1531.68 162.96 1531.68 161.826C1531.68 160.638 1530.74 160.026 1529.35 160.044V159.144C1531.51 158.964 1532.94 157.65 1533.4 155.832H1531.64C1531.28 157.074 1530.31 157.776 1528.85 157.776C1527.05 157.776 1525.72 156.498 1525.72 154.05C1525.72 151.638 1527.05 150.36 1528.85 150.36C1530.31 150.36 1531.3 151.116 1531.64 152.304H1533.4C1532.9 150.234 1531.3 148.974 1528.85 148.974C1526.04 148.974 1524.04 150.954 1524.04 154.05ZM1535.59 159H1537.23V149.136H1535.59V159ZM1536.44 147.534C1537.03 147.534 1537.52 147.048 1537.52 146.418C1537.52 145.788 1537.03 145.302 1536.44 145.302C1535.81 145.302 1535.32 145.788 1535.32 146.418C1535.32 147.048 1535.81 147.534 1536.44 147.534ZM1547.24 159H1548.86V153.186C1548.86 150.36 1547.11 148.956 1544.82 148.956C1543.49 148.956 1542.3 149.514 1541.66 150.54V149.136H1540.02V159H1541.66V153.546C1541.66 151.422 1542.81 150.378 1544.48 150.378C1546.14 150.378 1547.24 151.404 1547.24 153.42V159ZM1556.69 156.3C1556.69 158.28 1557.68 159 1559.43 159H1560.9V157.614H1559.7C1558.69 157.614 1558.33 157.272 1558.33 156.3V150.486H1560.9V149.136H1558.33V146.652H1556.69V149.136H1555.41V150.486H1556.69V156.3ZM1562.89 159H1564.53V149.136H1562.89V159ZM1567.32 159H1568.96V154.644L1572.83 159H1575.06L1570.4 154.05L1575.04 149.136H1572.75L1568.96 153.51V145.68H1567.32V159ZM1576.58 159H1578.22V145.68H1576.58V159ZM1580.4 154.032C1580.4 157.092 1582.43 159.162 1585.06 159.162C1586.88 159.162 1588.16 158.226 1588.75 157.164V159H1590.41V149.136H1588.75V150.936C1588.17 149.91 1586.91 148.974 1585.08 148.974C1582.43 148.974 1580.4 150.954 1580.4 154.032ZM1588.75 154.05C1588.75 156.372 1587.2 157.722 1585.4 157.722C1583.6 157.722 1582.07 156.354 1582.07 154.032C1582.07 151.71 1583.6 150.396 1585.4 150.396C1587.2 150.396 1588.75 151.764 1588.75 154.05ZM1596.92 157.128L1593.82 149.136H1592L1595.98 158.892L1594.04 163.644H1595.73L1601.67 149.136H1599.98L1596.92 157.128ZM1603.32 159H1604.96V149.136H1603.32V159ZM1614.97 159H1616.59V153.186C1616.59 150.36 1614.84 148.956 1612.55 148.956C1611.22 148.956 1610.03 149.514 1609.39 150.54V149.136H1607.75V159H1609.39V153.546C1609.39 151.422 1610.54 150.378 1612.21 150.378C1613.87 150.378 1614.97 151.404 1614.97 153.42V159Z" fill="#FFCC05"/>
<path d="M184.432 94.75H193.732V123H202.282V94.75H211.582V87.9H184.432V94.75ZM243.423 95.1H234.873V110.25C234.873 114.05 232.773 116.15 229.473 116.15C226.273 116.15 224.123 114.05 224.123 110.25V95.1H215.623V111.4C215.623 118.85 219.973 123.3 226.423 123.3C230.173 123.3 233.173 121.6 234.873 119.2V123H243.423V95.1ZM224.623 92C226.723 92 228.323 90.4 228.323 88.35C228.323 86.25 226.723 84.65 224.623 84.65C222.573 84.65 220.973 86.25 220.973 88.35C220.973 90.4 222.573 92 224.623 92ZM234.623 92C236.723 92 238.323 90.4 238.323 88.35C238.323 86.25 236.723 84.65 234.623 84.65C232.573 84.65 230.973 86.25 230.973 88.35C230.973 90.4 232.573 92 234.623 92ZM258.115 110.05C258.115 105.25 260.465 103.85 264.515 103.85H266.865V94.8C263.115 94.8 260.065 96.8 258.115 99.75V95.1H249.565V123H258.115V110.05ZM270.951 123H279.501V111.3L288.001 123H298.601L286.901 109.1L298.501 95.1H287.951L279.501 106.45V86H270.951V123ZM301.86 123H310.41V95.1H301.86V123ZM306.16 92.2C309.16 92.2 311.21 90.15 311.21 87.6C311.21 85 309.16 82.95 306.16 82.95C303.11 82.95 301.06 85 301.06 87.6C301.06 90.15 303.11 92.2 306.16 92.2ZM329.456 112.55L323.006 95.1H313.456L324.806 122.05L318.406 136.25H327.606L345.106 95.1H335.856L329.456 112.55ZM360.497 101.55C363.347 101.55 365.747 103.3 365.747 106.35H355.047C355.547 103.25 357.697 101.55 360.497 101.55ZM373.847 113.75H364.747C364.047 115.25 362.697 116.45 360.297 116.45C357.547 116.45 355.297 114.75 354.997 111.1H374.347C374.447 110.25 374.497 109.4 374.497 108.6C374.497 100.1 368.747 94.7 360.597 94.7C352.297 94.7 346.497 100.2 346.497 109.05C346.497 117.9 352.397 123.4 360.597 123.4C367.547 123.4 372.497 119.2 373.847 113.75ZM384.108 101.3L389.708 87.9H380.958L378.358 101.3H384.108ZM393.031 109C393.031 117.8 398.481 123.4 405.331 123.4C409.431 123.4 412.381 121.55 413.931 119V123H422.481V86H413.931V98.95C412.231 96.4 409.031 94.7 405.331 94.7C398.481 94.7 393.031 100.2 393.031 109ZM413.931 109.05C413.931 113.5 411.081 115.95 407.831 115.95C404.631 115.95 401.731 113.45 401.731 109C401.731 104.55 404.631 102.15 407.831 102.15C411.081 102.15 413.931 104.6 413.931 109.05ZM440.966 101.55C443.816 101.55 446.216 103.3 446.216 106.35H435.516C436.016 103.25 438.166 101.55 440.966 101.55ZM454.316 113.75H445.216C444.516 115.25 443.166 116.45 440.766 116.45C438.016 116.45 435.766 114.75 435.466 111.1H454.816C454.916 110.25 454.966 109.4 454.966 108.6C454.966 100.1 449.216 94.7 441.066 94.7C432.766 94.7 426.966 100.2 426.966 109.05C426.966 117.9 432.866 123.4 441.066 123.4C448.016 123.4 452.966 119.2 454.316 113.75ZM194.882 152.75V161.7H186.182V169.35H194.882V178.25H202.982V169.35H211.682V161.7H202.982V152.75H194.882ZM216.029 146.55V153.85H231.579L218.879 183H227.629L240.179 152.9V146.55H216.029ZM245.986 146.45V168.2H254.236C254.686 166.5 256.086 165.2 258.486 165.2C261.536 165.2 263.186 166.95 263.186 170.25C263.186 173.4 261.786 175.75 258.536 175.75C255.736 175.75 254.286 174.05 253.936 172.15H245.586C245.886 178.45 250.636 183 258.836 183C266.936 183 271.436 178 271.436 170.3C271.436 164.4 268.386 158.35 260.436 158.35C257.536 158.35 255.036 159.4 253.736 160.85V153.95H269.336V146.45H245.986ZM310.452 147.9V169.65L296.152 147.9H287.602V183H296.152V161.35L310.452 183H319.002V147.9H310.452ZM352.499 169.05C352.499 160.2 346.199 154.7 337.999 154.7C329.849 154.7 323.499 160.2 323.499 169.05C323.499 177.9 329.699 183.4 337.899 183.4C346.099 183.4 352.499 177.9 352.499 169.05ZM332.199 169.05C332.199 164.3 334.899 162.1 337.999 162.1C340.999 162.1 343.799 164.3 343.799 169.05C343.799 173.75 340.949 176 337.899 176C334.799 176 332.199 173.75 332.199 169.05ZM357.035 183H365.585V171.3L374.085 183H384.685L372.985 169.1L384.585 155.1H374.035L365.585 166.45V146H357.035V183ZM389.294 173.3C389.294 180.55 393.344 183 399.144 183H403.494V175.75H400.444C398.544 175.75 397.844 175.05 397.844 173.4V162.2H403.444V155.1H397.844V148.3H389.294V155.1H385.894V162.2H389.294V173.3ZM406.556 169C406.556 177.8 412.006 183.4 418.806 183.4C422.956 183.4 425.906 181.5 427.456 179.05V183H436.006V155.1H427.456V159.05C425.956 156.6 423.006 154.7 418.856 154.7C412.006 154.7 406.556 160.2 406.556 169ZM427.456 169.05C427.456 173.5 424.606 175.95 421.356 175.95C418.156 175.95 415.256 173.45 415.256 169C415.256 164.55 418.156 162.15 421.356 162.15C424.606 162.15 427.456 164.6 427.456 169.05ZM440.492 169C440.492 177.8 445.942 183.4 452.792 183.4C456.892 183.4 459.842 181.55 461.392 179V183H469.942V146H461.392V158.95C459.692 156.4 456.492 154.7 452.792 154.7C445.942 154.7 440.492 160.2 440.492 169ZM461.392 169.05C461.392 173.5 458.542 175.95 455.292 175.95C452.092 175.95 449.192 173.45 449.192 169C449.192 164.55 452.092 162.15 455.292 162.15C458.542 162.15 461.392 164.6 461.392 169.05ZM474.427 169C474.427 177.8 479.877 183.4 486.677 183.4C490.827 183.4 493.777 181.5 495.327 179.05V183H503.877V155.1H495.327V159.05C493.827 156.6 490.877 154.7 486.727 154.7C479.877 154.7 474.427 160.2 474.427 169ZM495.327 169.05C495.327 173.5 492.477 175.95 489.227 175.95C486.027 175.95 483.127 173.45 483.127 169C483.127 164.55 486.027 162.15 489.227 162.15C492.477 162.15 495.327 164.6 495.327 169.05Z" fill="black"/>
<path opacity="0.8" d="M697.972 81.454V94H704.002V92.668H699.61V81.454H697.972ZM715.102 89.05C715.102 85.936 712.924 83.974 710.116 83.974C707.326 83.974 705.13 85.936 705.13 89.05C705.13 92.182 707.254 94.162 710.044 94.162C712.852 94.162 715.102 92.182 715.102 89.05ZM706.804 89.05C706.804 86.566 708.37 85.396 710.098 85.396C711.79 85.396 713.428 86.566 713.428 89.05C713.428 91.552 711.754 92.722 710.044 92.722C708.334 92.722 706.804 91.552 706.804 89.05ZM718.893 88.636C718.893 86.35 720.081 85.648 721.647 85.648H722.079V83.956C720.513 83.956 719.451 84.64 718.893 85.738V84.136H717.255V94H718.893V88.636ZM728.164 85.36C729.856 85.36 731.296 86.422 731.278 88.348H725.05C725.23 86.422 726.562 85.36 728.164 85.36ZM732.772 90.958H731.008C730.648 92.02 729.712 92.776 728.236 92.776C726.562 92.776 725.158 91.678 725.032 89.68H732.916C732.952 89.338 732.97 89.05 732.97 88.69C732.97 85.99 731.098 83.974 728.236 83.974C725.356 83.974 723.358 85.936 723.358 89.05C723.358 92.182 725.428 94.162 728.236 94.162C730.684 94.162 732.268 92.758 732.772 90.958ZM749.37 94H750.99V88.186C750.99 85.36 749.244 83.956 746.994 83.956C745.482 83.956 744.078 84.73 743.502 86.152C742.854 84.676 741.504 83.956 739.884 83.956C738.588 83.956 737.418 84.514 736.77 85.558V84.136H735.132V94H736.77V88.564C736.77 86.44 737.904 85.378 739.56 85.378C741.18 85.378 742.26 86.404 742.26 88.42V94H743.88V88.564C743.88 86.44 745.014 85.378 746.67 85.378C748.29 85.378 749.37 86.404 749.37 88.42V94ZM758.476 94H760.114V84.136H758.476V94ZM759.322 82.534C759.916 82.534 760.402 82.048 760.402 81.418C760.402 80.788 759.916 80.302 759.322 80.302C758.692 80.302 758.206 80.788 758.206 81.418C758.206 82.048 758.692 82.534 759.322 82.534ZM764.544 85.954V84.136H762.906V98.68H764.544V92.182C765.156 93.19 766.434 94.162 768.234 94.162C770.88 94.162 772.914 92.092 772.914 89.032C772.914 85.954 770.88 83.974 768.234 83.974C766.434 83.974 765.138 84.91 764.544 85.954ZM771.24 89.032C771.24 91.354 769.71 92.722 767.892 92.722C766.11 92.722 764.544 91.372 764.544 89.05C764.544 86.764 766.11 85.396 767.892 85.396C769.71 85.396 771.24 86.71 771.24 89.032ZM782.162 91.318C782.09 87.79 776.366 89.068 776.366 86.728C776.366 85.936 777.086 85.36 778.292 85.36C779.606 85.36 780.362 86.08 780.434 87.07H782.072C781.964 85.144 780.524 83.974 778.346 83.974C776.15 83.974 774.728 85.216 774.728 86.728C774.728 90.4 780.56 89.122 780.56 91.318C780.56 92.128 779.84 92.776 778.544 92.776C777.158 92.776 776.312 92.056 776.222 91.102H774.53C774.638 92.902 776.258 94.162 778.562 94.162C780.74 94.162 782.162 92.938 782.162 91.318ZM793.222 84.136H791.584V89.554C791.584 91.678 790.45 92.722 788.758 92.722C787.102 92.722 786.004 91.696 786.004 89.698V84.136H784.384V89.914C784.384 92.74 786.166 94.144 788.434 94.144C789.748 94.144 790.954 93.568 791.584 92.542V94H793.222V84.136ZM810.226 94H811.846V88.186C811.846 85.36 810.1 83.956 807.85 83.956C806.338 83.956 804.934 84.73 804.358 86.152C803.71 84.676 802.36 83.956 800.74 83.956C799.444 83.956 798.274 84.514 797.626 85.558V84.136H795.988V94H797.626V88.564C797.626 86.44 798.76 85.378 800.416 85.378C802.036 85.378 803.116 86.404 803.116 88.42V94H804.736V88.564C804.736 86.44 805.87 85.378 807.526 85.378C809.146 85.378 810.226 86.404 810.226 88.42V94ZM818.72 89.032C818.72 92.092 820.754 94.162 823.4 94.162C825.2 94.162 826.478 93.244 827.072 92.146V94H828.728V80.68H827.072V85.9C826.388 84.766 824.966 83.974 823.418 83.974C820.754 83.974 818.72 85.954 818.72 89.032ZM827.072 89.05C827.072 91.372 825.524 92.722 823.724 92.722C821.924 92.722 820.394 91.354 820.394 89.032C820.394 86.71 821.924 85.396 823.724 85.396C825.524 85.396 827.072 86.764 827.072 89.05ZM840.856 89.05C840.856 85.936 838.678 83.974 835.87 83.974C833.08 83.974 830.884 85.936 830.884 89.05C830.884 92.182 833.008 94.162 835.798 94.162C838.606 94.162 840.856 92.182 840.856 89.05ZM832.558 89.05C832.558 86.566 834.124 85.396 835.852 85.396C837.544 85.396 839.182 86.566 839.182 89.05C839.182 91.552 837.508 92.722 835.798 92.722C834.088 92.722 832.558 91.552 832.558 89.05ZM843.009 94H844.647V80.68H843.009V94ZM856.799 89.05C856.799 85.936 854.621 83.974 851.813 83.974C849.023 83.974 846.827 85.936 846.827 89.05C846.827 92.182 848.951 94.162 851.741 94.162C854.549 94.162 856.799 92.182 856.799 89.05ZM848.501 89.05C848.501 86.566 850.067 85.396 851.795 85.396C853.487 85.396 855.125 86.566 855.125 89.05C855.125 91.552 853.451 92.722 851.741 92.722C850.031 92.722 848.501 91.552 848.501 89.05ZM860.591 88.636C860.591 86.35 861.779 85.648 863.345 85.648H863.777V83.956C862.211 83.956 861.149 84.64 860.591 85.738V84.136H858.953V94H860.591V88.636ZM877.558 91.318C877.486 87.79 871.762 89.068 871.762 86.728C871.762 85.936 872.482 85.36 873.688 85.36C875.002 85.36 875.758 86.08 875.83 87.07H877.468C877.36 85.144 875.92 83.974 873.742 83.974C871.546 83.974 870.124 85.216 870.124 86.728C870.124 90.4 875.956 89.122 875.956 91.318C875.956 92.128 875.236 92.776 873.94 92.776C872.554 92.776 871.708 92.056 871.618 91.102H869.926C870.034 92.902 871.654 94.162 873.958 94.162C876.136 94.162 877.558 92.938 877.558 91.318ZM879.871 94H881.509V84.136H879.871V94ZM880.717 82.534C881.311 82.534 881.797 82.048 881.797 81.418C881.797 80.788 881.311 80.302 880.717 80.302C880.087 80.302 879.601 80.788 879.601 81.418C879.601 82.048 880.087 82.534 880.717 82.534ZM884.66 91.3C884.66 93.28 885.65 94 887.396 94H888.872V92.614H887.666C886.658 92.614 886.298 92.272 886.298 91.3V85.486H888.872V84.136H886.298V81.652H884.66V84.136H883.382V85.486H884.66V91.3ZM895.044 89.032C895.044 92.092 897.078 94.162 899.706 94.162C901.524 94.162 902.802 93.226 903.396 92.164V94H905.052V84.136H903.396V85.936C902.82 84.91 901.56 83.974 899.724 83.974C897.078 83.974 895.044 85.954 895.044 89.032ZM903.396 89.05C903.396 91.372 901.848 92.722 900.048 92.722C898.248 92.722 896.718 91.354 896.718 89.032C896.718 86.71 898.248 85.396 900.048 85.396C901.848 85.396 903.396 86.764 903.396 89.05ZM922.058 94H923.678V88.186C923.678 85.36 921.932 83.956 919.682 83.956C918.17 83.956 916.766 84.73 916.19 86.152C915.542 84.676 914.192 83.956 912.572 83.956C911.276 83.956 910.106 84.514 909.458 85.558V84.136H907.82V94H909.458V88.564C909.458 86.44 910.592 85.378 912.248 85.378C913.868 85.378 914.948 86.404 914.948 88.42V94H916.568V88.564C916.568 86.44 917.702 85.378 919.358 85.378C920.978 85.378 922.058 86.404 922.058 88.42V94ZM930.559 85.36C932.251 85.36 933.691 86.422 933.673 88.348H927.445C927.625 86.422 928.957 85.36 930.559 85.36ZM935.167 90.958H933.403C933.043 92.02 932.107 92.776 930.631 92.776C928.957 92.776 927.553 91.678 927.427 89.68H935.311C935.347 89.338 935.365 89.05 935.365 88.69C935.365 85.99 933.493 83.974 930.631 83.974C927.751 83.974 925.753 85.936 925.753 89.05C925.753 92.182 927.823 94.162 930.631 94.162C933.079 94.162 934.663 92.758 935.167 90.958ZM937.887 91.3C937.887 93.28 938.877 94 940.623 94H942.099V92.614H940.893C939.885 92.614 939.525 92.272 939.525 91.3V85.486H942.099V84.136H939.525V81.652H937.887V84.136H936.609V85.486H937.887V91.3ZM942.662 96.574H943.76L945.776 91.732H943.976L942.662 96.574ZM951.839 89.05C951.839 92.182 953.837 94.162 956.645 94.162C959.093 94.162 960.695 92.794 961.199 90.832H959.435C959.075 92.074 958.103 92.776 956.645 92.776C954.845 92.776 953.513 91.498 953.513 89.05C953.513 86.638 954.845 85.36 956.645 85.36C958.103 85.36 959.093 86.116 959.435 87.304H961.199C960.695 85.234 959.093 83.974 956.645 83.974C953.837 83.974 951.839 85.954 951.839 89.05ZM972.744 89.05C972.744 85.936 970.566 83.974 967.758 83.974C964.968 83.974 962.772 85.936 962.772 89.05C962.772 92.182 964.896 94.162 967.686 94.162C970.494 94.162 972.744 92.182 972.744 89.05ZM964.446 89.05C964.446 86.566 966.012 85.396 967.74 85.396C969.432 85.396 971.07 86.566 971.07 89.05C971.07 91.552 969.396 92.722 967.686 92.722C965.976 92.722 964.446 91.552 964.446 89.05ZM982.116 94H983.736V88.186C983.736 85.36 981.99 83.956 979.704 83.956C978.372 83.956 977.184 84.514 976.536 85.54V84.136H974.898V94H976.536V88.546C976.536 86.422 977.688 85.378 979.362 85.378C981.018 85.378 982.116 86.404 982.116 88.42V94ZM993.504 91.318C993.432 87.79 987.708 89.068 987.708 86.728C987.708 85.936 988.428 85.36 989.634 85.36C990.948 85.36 991.704 86.08 991.776 87.07H993.414C993.306 85.144 991.866 83.974 989.688 83.974C987.492 83.974 986.07 85.216 986.07 86.728C986.07 90.4 991.902 89.122 991.902 91.318C991.902 92.128 991.182 92.776 989.886 92.776C988.5 92.776 987.654 92.056 987.564 91.102H985.872C985.98 92.902 987.6 94.162 989.904 94.162C992.082 94.162 993.504 92.938 993.504 91.318ZM1000.01 85.36C1001.7 85.36 1003.14 86.422 1003.12 88.348H996.896C997.076 86.422 998.408 85.36 1000.01 85.36ZM1004.62 90.958H1002.85C1002.49 92.02 1001.56 92.776 1000.08 92.776C998.408 92.776 997.004 91.678 996.878 89.68H1004.76C1004.8 89.338 1004.82 89.05 1004.82 88.69C1004.82 85.99 1002.94 83.974 1000.08 83.974C997.202 83.974 995.204 85.936 995.204 89.05C995.204 92.182 997.274 94.162 1000.08 94.162C1002.53 94.162 1004.11 92.758 1004.62 90.958ZM1006.37 89.05C1006.37 92.182 1008.36 94.162 1011.17 94.162C1013.62 94.162 1015.22 92.794 1015.73 90.832H1013.96C1013.6 92.074 1012.63 92.776 1011.17 92.776C1009.37 92.776 1008.04 91.498 1008.04 89.05C1008.04 86.638 1009.37 85.36 1011.17 85.36C1012.63 85.36 1013.62 86.116 1013.96 87.304H1015.73C1015.22 85.234 1013.62 83.974 1011.17 83.974C1008.36 83.974 1006.37 85.954 1006.37 89.05ZM1018.27 91.3C1018.27 93.28 1019.26 94 1021.01 94H1022.48V92.614H1021.28C1020.27 92.614 1019.91 92.272 1019.91 91.3V85.486H1022.48V84.136H1019.91V81.652H1018.27V84.136H1016.99V85.486H1018.27V91.3ZM1028.66 85.36C1030.35 85.36 1031.79 86.422 1031.78 88.348H1025.55C1025.73 86.422 1027.06 85.36 1028.66 85.36ZM1033.27 90.958H1031.51C1031.15 92.02 1030.21 92.776 1028.73 92.776C1027.06 92.776 1025.66 91.678 1025.53 89.68H1033.41C1033.45 89.338 1033.47 89.05 1033.47 88.69C1033.47 85.99 1031.6 83.974 1028.73 83.974C1025.85 83.974 1023.86 85.936 1023.86 89.05C1023.86 92.182 1025.93 94.162 1028.73 94.162C1031.18 94.162 1032.77 92.758 1033.27 90.958ZM1035.99 91.3C1035.99 93.28 1036.98 94 1038.73 94H1040.2V92.614H1039C1037.99 92.614 1037.63 92.272 1037.63 91.3V85.486H1040.2V84.136H1037.63V81.652H1035.99V84.136H1034.71V85.486H1035.99V91.3ZM1050.94 84.136H1049.3V89.554C1049.3 91.678 1048.16 92.722 1046.47 92.722C1044.82 92.722 1043.72 91.696 1043.72 89.698V84.136H1042.1V89.914C1042.1 92.74 1043.88 94.144 1046.15 94.144C1047.46 94.144 1048.67 93.568 1049.3 92.542V94H1050.94V84.136ZM1055.34 88.636C1055.34 86.35 1056.53 85.648 1058.09 85.648H1058.52V83.956C1056.96 83.956 1055.9 84.64 1055.34 85.738V84.136H1053.7V94H1055.34V88.636ZM1064.6 89.032C1064.6 92.092 1066.64 94.162 1069.26 94.162C1071.08 94.162 1072.36 93.226 1072.95 92.164V94H1074.61V84.136H1072.95V85.936C1072.38 84.91 1071.12 83.974 1069.28 83.974C1066.64 83.974 1064.6 85.954 1064.6 89.032ZM1072.95 89.05C1072.95 91.372 1071.41 92.722 1069.61 92.722C1067.81 92.722 1066.28 91.354 1066.28 89.032C1066.28 86.71 1067.81 85.396 1069.61 85.396C1071.41 85.396 1072.95 86.764 1072.95 89.05ZM1076.77 89.032C1076.77 92.092 1078.8 94.162 1081.45 94.162C1083.25 94.162 1084.52 93.244 1085.12 92.146V94H1086.77V80.68H1085.12V85.9C1084.43 84.766 1083.01 83.974 1081.46 83.974C1078.8 83.974 1076.77 85.954 1076.77 89.032ZM1085.12 89.05C1085.12 91.372 1083.57 92.722 1081.77 92.722C1079.97 92.722 1078.44 91.354 1078.44 89.032C1078.44 86.71 1079.97 85.396 1081.77 85.396C1083.57 85.396 1085.12 86.764 1085.12 89.05ZM1089.54 94H1091.18V84.136H1089.54V94ZM1090.39 82.534C1090.98 82.534 1091.47 82.048 1091.47 81.418C1091.47 80.788 1090.98 80.302 1090.39 80.302C1089.76 80.302 1089.27 80.788 1089.27 81.418C1089.27 82.048 1089.76 82.534 1090.39 82.534ZM1095.61 85.954V84.136H1093.97V98.68H1095.61V92.182C1096.22 93.19 1097.5 94.162 1099.3 94.162C1101.95 94.162 1103.98 92.092 1103.98 89.032C1103.98 85.954 1101.95 83.974 1099.3 83.974C1097.5 83.974 1096.2 84.91 1095.61 85.954ZM1102.31 89.032C1102.31 91.354 1100.78 92.722 1098.96 92.722C1097.18 92.722 1095.61 91.372 1095.61 89.05C1095.61 86.764 1097.18 85.396 1098.96 85.396C1100.78 85.396 1102.31 86.71 1102.31 89.032ZM1106.14 94H1107.77V84.136H1106.14V94ZM1106.98 82.534C1107.58 82.534 1108.06 82.048 1108.06 81.418C1108.06 80.788 1107.58 80.302 1106.98 80.302C1106.35 80.302 1105.87 80.788 1105.87 81.418C1105.87 82.048 1106.35 82.534 1106.98 82.534ZM1117.66 91.318C1117.59 87.79 1111.86 89.068 1111.86 86.728C1111.86 85.936 1112.58 85.36 1113.79 85.36C1115.1 85.36 1115.86 86.08 1115.93 87.07H1117.57C1117.46 85.144 1116.02 83.974 1113.84 83.974C1111.65 83.974 1110.22 85.216 1110.22 86.728C1110.22 90.4 1116.06 89.122 1116.06 91.318C1116.06 92.128 1115.34 92.776 1114.04 92.776C1112.65 92.776 1111.81 92.056 1111.72 91.102H1110.03C1110.13 92.902 1111.75 94.162 1114.06 94.162C1116.24 94.162 1117.66 92.938 1117.66 91.318ZM1119.36 89.05C1119.36 92.182 1121.36 94.162 1124.16 94.162C1126.61 94.162 1128.21 92.794 1128.72 90.832H1126.95C1126.59 92.074 1125.62 92.776 1124.16 92.776C1122.36 92.776 1121.03 91.498 1121.03 89.05C1121.03 86.638 1122.36 85.36 1124.16 85.36C1125.62 85.36 1126.61 86.116 1126.95 87.304H1128.72C1128.21 85.234 1126.61 83.974 1124.16 83.974C1121.36 83.974 1119.36 85.954 1119.36 89.05ZM1130.9 94H1132.54V84.136H1130.9V94ZM1131.75 82.534C1132.34 82.534 1132.83 82.048 1132.83 81.418C1132.83 80.788 1132.34 80.302 1131.75 80.302C1131.12 80.302 1130.63 80.788 1130.63 81.418C1130.63 82.048 1131.12 82.534 1131.75 82.534ZM1142.55 94H1144.17V88.186C1144.17 85.36 1142.43 83.956 1140.14 83.956C1138.81 83.956 1137.62 84.514 1136.97 85.54V84.136H1135.33V94H1136.97V88.546C1136.97 86.422 1138.12 85.378 1139.8 85.378C1141.45 85.378 1142.55 86.404 1142.55 88.42V94ZM1146.24 89.032C1146.24 92.092 1148.27 94.162 1150.92 94.162C1152.72 94.162 1153.99 93.208 1154.59 92.146V94.216C1154.59 96.322 1153.27 97.438 1151.53 97.438C1149.91 97.438 1148.74 96.628 1148.38 95.44H1146.76C1147.08 97.546 1148.94 98.86 1151.53 98.86C1154.43 98.86 1156.24 96.934 1156.24 94.216V84.136H1154.59V85.936C1154.01 84.874 1152.72 83.974 1150.92 83.974C1148.27 83.974 1146.24 85.954 1146.24 89.032ZM1154.59 89.05C1154.59 91.372 1153.04 92.722 1151.24 92.722C1149.44 92.722 1147.91 91.354 1147.91 89.032C1147.91 86.71 1149.44 85.396 1151.24 85.396C1153.04 85.396 1154.59 86.764 1154.59 89.05ZM1168 85.36C1169.7 85.36 1171.14 86.422 1171.12 88.348H1164.89C1165.07 86.422 1166.4 85.36 1168 85.36ZM1172.61 90.958H1170.85C1170.49 92.02 1169.55 92.776 1168.08 92.776C1166.4 92.776 1165 91.678 1164.87 89.68H1172.76C1172.79 89.338 1172.81 89.05 1172.81 88.69C1172.81 85.99 1170.94 83.974 1168.08 83.974C1165.2 83.974 1163.2 85.936 1163.2 89.05C1163.2 92.182 1165.27 94.162 1168.08 94.162C1170.52 94.162 1172.11 92.758 1172.61 90.958ZM1174.97 94H1176.61V80.68H1174.97V94ZM1179.4 94H1181.04V84.136H1179.4V94ZM1180.25 82.534C1180.84 82.534 1181.33 82.048 1181.33 81.418C1181.33 80.788 1180.84 80.302 1180.25 80.302C1179.62 80.302 1179.13 80.788 1179.13 81.418C1179.13 82.048 1179.62 82.534 1180.25 82.534ZM1184.19 91.3C1184.19 93.28 1185.18 94 1186.93 94H1188.4V92.614H1187.2C1186.19 92.614 1185.83 92.272 1185.83 91.3V85.486H1188.4V84.136H1185.83V81.652H1184.19V84.136H1182.91V85.486H1184.19V91.3ZM1191.99 92.992C1191.99 92.362 1191.5 91.876 1190.91 91.876C1190.28 91.876 1189.79 92.362 1189.79 92.992C1189.79 93.622 1190.28 94.108 1190.91 94.108C1191.5 94.108 1191.99 93.622 1191.99 92.992ZM704.722 106.436H697.972V119H704.722V117.65H699.61V113.33H704.182V111.98H699.61V107.786H704.722V106.436ZM707.561 116.3C707.561 118.28 708.551 119 710.297 119H711.773V117.614H710.567C709.559 117.614 709.199 117.272 709.199 116.3V110.486H711.773V109.136H709.199V106.652H707.561V109.136H706.283V110.486H707.561V116.3ZM713.757 119H715.395V109.136H713.757V119ZM714.603 107.534C715.197 107.534 715.683 107.048 715.683 106.418C715.683 105.788 715.197 105.302 714.603 105.302C713.973 105.302 713.487 105.788 713.487 106.418C713.487 107.048 713.973 107.534 714.603 107.534ZM717.575 114.032C717.575 117.092 719.609 119.162 722.237 119.162C724.055 119.162 725.333 118.226 725.927 117.164V119H727.583V109.136H725.927V110.936C725.351 109.91 724.091 108.974 722.255 108.974C719.609 108.974 717.575 110.954 717.575 114.032ZM725.927 114.05C725.927 116.372 724.379 117.722 722.579 117.722C720.779 117.722 719.249 116.354 719.249 114.032C719.249 111.71 720.779 110.396 722.579 110.396C724.379 110.396 725.927 111.764 725.927 114.05ZM744.589 119H746.209V113.186C746.209 110.36 744.463 108.956 742.213 108.956C740.701 108.956 739.297 109.73 738.721 111.152C738.073 109.676 736.723 108.956 735.103 108.956C733.807 108.956 732.637 109.514 731.989 110.558V109.136H730.351V119H731.989V113.564C731.989 111.44 733.123 110.378 734.779 110.378C736.399 110.378 737.479 111.404 737.479 113.42V119H739.099V113.564C739.099 111.44 740.233 110.378 741.889 110.378C743.509 110.378 744.589 111.404 744.589 113.42V119ZM757.889 110.36C759.581 110.36 761.021 111.422 761.003 113.348H754.775C754.955 111.422 756.287 110.36 757.889 110.36ZM762.497 115.958H760.733C760.373 117.02 759.437 117.776 757.961 117.776C756.287 117.776 754.883 116.678 754.757 114.68H762.641C762.677 114.338 762.695 114.05 762.695 113.69C762.695 110.99 760.823 108.974 757.961 108.974C755.081 108.974 753.083 110.936 753.083 114.05C753.083 117.182 755.153 119.162 757.961 119.162C760.409 119.162 761.993 117.758 762.497 115.958ZM773.605 109.136H771.967V114.554C771.967 116.678 770.833 117.722 769.141 117.722C767.485 117.722 766.387 116.696 766.387 114.698V109.136H764.767V114.914C764.767 117.74 766.549 119.144 768.817 119.144C770.131 119.144 771.337 118.568 771.967 117.542V119H773.605V109.136ZM781.529 116.3C781.529 118.28 782.519 119 784.265 119H785.741V117.614H784.535C783.527 117.614 783.167 117.272 783.167 116.3V110.486H785.741V109.136H783.167V106.652H781.529V109.136H780.251V110.486H781.529V116.3ZM796.474 109.136H794.836V114.554C794.836 116.678 793.702 117.722 792.01 117.722C790.354 117.722 789.256 116.696 789.256 114.698V109.136H787.636V114.914C787.636 117.74 789.418 119.144 791.686 119.144C793 119.144 794.206 118.568 794.836 117.542V119H796.474V109.136ZM800.878 113.636C800.878 111.35 802.066 110.648 803.632 110.648H804.064V108.956C802.498 108.956 801.436 109.64 800.878 110.738V109.136H799.24V119H800.878V113.636ZM807.593 110.954V109.136H805.955V123.68H807.593V117.182C808.205 118.19 809.483 119.162 811.283 119.162C813.929 119.162 815.963 117.092 815.963 114.032C815.963 110.954 813.929 108.974 811.283 108.974C809.483 108.974 808.187 109.91 807.593 110.954ZM814.289 114.032C814.289 116.354 812.759 117.722 810.941 117.722C809.159 117.722 807.593 116.372 807.593 114.05C807.593 111.764 809.159 110.396 810.941 110.396C812.759 110.396 814.289 111.71 814.289 114.032ZM818.119 119H819.757V109.136H818.119V119ZM818.965 107.534C819.559 107.534 820.045 107.048 820.045 106.418C820.045 105.788 819.559 105.302 818.965 105.302C818.335 105.302 817.849 105.788 817.849 106.418C817.849 107.048 818.335 107.534 818.965 107.534ZM829.64 116.318C829.568 112.79 823.844 114.068 823.844 111.728C823.844 110.936 824.564 110.36 825.77 110.36C827.084 110.36 827.84 111.08 827.912 112.07H829.55C829.442 110.144 828.002 108.974 825.824 108.974C823.628 108.974 822.206 110.216 822.206 111.728C822.206 115.4 828.038 114.122 828.038 116.318C828.038 117.128 827.318 117.776 826.022 117.776C824.636 117.776 823.79 117.056 823.7 116.102H822.008C822.116 117.902 823.736 119.162 826.04 119.162C828.218 119.162 829.64 117.938 829.64 116.318ZM850.989 119H852.609V113.186C852.609 110.36 850.863 108.956 848.613 108.956C847.101 108.956 845.697 109.73 845.121 111.152C844.473 109.676 843.123 108.956 841.503 108.956C840.207 108.956 839.037 109.514 838.389 110.558V109.136H836.751V119H838.389V113.564C838.389 111.44 839.523 110.378 841.179 110.378C842.799 110.378 843.879 111.404 843.879 113.42V119H845.499V113.564C845.499 111.44 846.633 110.378 848.289 110.378C849.909 110.378 850.989 111.404 850.989 113.42V119ZM864.656 114.05C864.656 110.936 862.478 108.974 859.67 108.974C856.88 108.974 854.684 110.936 854.684 114.05C854.684 117.182 856.808 119.162 859.598 119.162C862.406 119.162 864.656 117.182 864.656 114.05ZM856.358 114.05C856.358 111.566 857.924 110.396 859.652 110.396C861.344 110.396 862.982 111.566 862.982 114.05C862.982 116.552 861.308 117.722 859.598 117.722C857.888 117.722 856.358 116.552 856.358 114.05ZM866.81 119H868.448V105.68H866.81V119ZM875.434 110.36C877.126 110.36 878.566 111.422 878.548 113.348H872.32C872.5 111.422 873.832 110.36 875.434 110.36ZM880.042 115.958H878.278C877.918 117.02 876.982 117.776 875.506 117.776C873.832 117.776 872.428 116.678 872.302 114.68H880.186C880.222 114.338 880.24 114.05 880.24 113.69C880.24 110.99 878.368 108.974 875.506 108.974C872.626 108.974 870.628 110.936 870.628 114.05C870.628 117.182 872.698 119.162 875.506 119.162C877.954 119.162 879.538 117.758 880.042 115.958ZM889.494 116.318C889.422 112.79 883.698 114.068 883.698 111.728C883.698 110.936 884.418 110.36 885.624 110.36C886.938 110.36 887.694 111.08 887.766 112.07H889.404C889.296 110.144 887.856 108.974 885.678 108.974C883.482 108.974 882.06 110.216 882.06 111.728C882.06 115.4 887.892 114.122 887.892 116.318C887.892 117.128 887.172 117.776 885.876 117.776C884.49 117.776 883.644 117.056 883.554 116.102H881.862C881.97 117.902 883.59 119.162 885.894 119.162C888.072 119.162 889.494 117.938 889.494 116.318ZM892.166 116.3C892.166 118.28 893.156 119 894.902 119H896.378V117.614H895.172C894.164 117.614 893.804 117.272 893.804 116.3V110.486H896.378V109.136H893.804V106.652H892.166V109.136H890.888V110.486H892.166V116.3ZM898.363 119H900.001V109.136H898.363V119ZM899.209 107.534C899.803 107.534 900.289 107.048 900.289 106.418C900.289 105.788 899.803 105.302 899.209 105.302C898.579 105.302 898.093 105.788 898.093 106.418C898.093 107.048 898.579 107.534 899.209 107.534ZM906.986 110.36C908.678 110.36 910.118 111.422 910.1 113.348H903.872C904.052 111.422 905.384 110.36 906.986 110.36ZM911.594 115.958H909.83C909.47 117.02 908.534 117.776 907.058 117.776C905.384 117.776 903.98 116.678 903.854 114.68H911.738C911.774 114.338 911.792 114.05 911.792 113.69C911.792 110.99 909.92 108.974 907.058 108.974C904.178 108.974 902.18 110.936 902.18 114.05C902.18 117.182 904.25 119.162 907.058 119.162C909.506 119.162 911.09 117.758 911.594 115.958ZM912.533 121.574H913.631L915.647 116.732H913.847L912.533 121.574ZM921.71 114.032C921.71 117.092 923.744 119.162 926.39 119.162C928.19 119.162 929.468 118.244 930.062 117.146V119H931.718V105.68H930.062V110.9C929.378 109.766 927.956 108.974 926.408 108.974C923.744 108.974 921.71 110.954 921.71 114.032ZM930.062 114.05C930.062 116.372 928.514 117.722 926.714 117.722C924.914 117.722 923.384 116.354 923.384 114.032C923.384 111.71 924.914 110.396 926.714 110.396C928.514 110.396 930.062 111.764 930.062 114.05ZM934.486 119H936.124V109.136H934.486V119ZM935.332 107.534C935.926 107.534 936.412 107.048 936.412 106.418C936.412 105.788 935.926 105.302 935.332 105.302C934.702 105.302 934.216 105.788 934.216 106.418C934.216 107.048 934.702 107.534 935.332 107.534ZM938.304 114.05C938.304 117.182 940.302 119.162 943.11 119.162C945.558 119.162 947.16 117.794 947.664 115.832H945.9C945.54 117.074 944.568 117.776 943.11 117.776C941.31 117.776 939.978 116.498 939.978 114.05C939.978 111.638 941.31 110.36 943.11 110.36C944.568 110.36 945.558 111.116 945.9 112.304H947.664C947.16 110.234 945.558 108.974 943.11 108.974C940.302 108.974 938.304 110.954 938.304 114.05ZM950.209 116.3C950.209 118.28 951.199 119 952.945 119H954.421V117.614H953.215C952.207 117.614 951.847 117.272 951.847 116.3V110.486H954.421V109.136H951.847V106.652H950.209V109.136H948.931V110.486H950.209V116.3ZM965.154 109.136H963.516V114.554C963.516 116.678 962.382 117.722 960.69 117.722C959.034 117.722 957.936 116.696 957.936 114.698V109.136H956.316V114.914C956.316 117.74 958.098 119.144 960.366 119.144C961.68 119.144 962.886 118.568 963.516 117.542V119H965.154V109.136ZM982.157 119H983.777V113.186C983.777 110.36 982.031 108.956 979.781 108.956C978.269 108.956 976.865 109.73 976.289 111.152C975.641 109.676 974.291 108.956 972.671 108.956C971.375 108.956 970.205 109.514 969.557 110.558V109.136H967.919V119H969.557V113.564C969.557 111.44 970.691 110.378 972.347 110.378C973.967 110.378 975.047 111.404 975.047 113.42V119H976.667V113.564C976.667 111.44 977.801 110.378 979.457 110.378C981.077 110.378 982.157 111.404 982.157 113.42V119ZM995.457 110.36C997.149 110.36 998.589 111.422 998.571 113.348H992.343C992.523 111.422 993.855 110.36 995.457 110.36ZM1000.07 115.958H998.301C997.941 117.02 997.005 117.776 995.529 117.776C993.855 117.776 992.451 116.678 992.325 114.68H1000.21C1000.25 114.338 1000.26 114.05 1000.26 113.69C1000.26 110.99 998.391 108.974 995.529 108.974C992.649 108.974 990.651 110.936 990.651 114.05C990.651 117.182 992.721 119.162 995.529 119.162C997.977 119.162 999.561 117.758 1000.07 115.958ZM1009.52 116.318C1009.45 112.79 1003.72 114.068 1003.72 111.728C1003.72 110.936 1004.44 110.36 1005.65 110.36C1006.96 110.36 1007.72 111.08 1007.79 112.07H1009.43C1009.32 110.144 1007.88 108.974 1005.7 108.974C1003.51 108.974 1002.08 110.216 1002.08 111.728C1002.08 115.4 1007.92 114.122 1007.92 116.318C1007.92 117.128 1007.2 117.776 1005.9 117.776C1004.51 117.776 1003.67 117.056 1003.58 116.102H1001.89C1001.99 117.902 1003.61 119.162 1005.92 119.162C1008.1 119.162 1009.52 117.938 1009.52 116.318ZM1012.19 116.3C1012.19 118.28 1013.18 119 1014.93 119H1016.4V117.614H1015.2C1014.19 117.614 1013.83 117.272 1013.83 116.3V110.486H1016.4V109.136H1013.83V106.652H1012.19V109.136H1010.91V110.486H1012.19V116.3ZM1022.57 114.032C1022.57 117.092 1024.61 119.162 1027.24 119.162C1029.05 119.162 1030.33 118.226 1030.93 117.164V119H1032.58V109.136H1030.93V110.936C1030.35 109.91 1029.09 108.974 1027.25 108.974C1024.61 108.974 1022.57 110.954 1022.57 114.032ZM1030.93 114.05C1030.93 116.372 1029.38 117.722 1027.58 117.722C1025.78 117.722 1024.25 116.354 1024.25 114.032C1024.25 111.71 1025.78 110.396 1027.58 110.396C1029.38 110.396 1030.93 111.764 1030.93 114.05ZM1033.93 121.574H1035.03L1037.04 116.732H1035.24L1033.93 121.574ZM1057.95 119H1059.57V113.186C1059.57 110.36 1057.83 108.956 1055.58 108.956C1054.07 108.956 1052.66 109.73 1052.09 111.152C1051.44 109.676 1050.09 108.956 1048.47 108.956C1047.17 108.956 1046 109.514 1045.35 110.558V109.136H1043.72V119H1045.35V113.564C1045.35 111.44 1046.49 110.378 1048.14 110.378C1049.76 110.378 1050.84 111.404 1050.84 113.42V119H1052.46V113.564C1052.46 111.44 1053.6 110.378 1055.25 110.378C1056.87 110.378 1057.95 111.404 1057.95 113.42V119ZM1061.65 114.032C1061.65 117.092 1063.68 119.162 1066.31 119.162C1068.13 119.162 1069.41 118.226 1070 117.164V119H1071.66V109.136H1070V110.936C1069.43 109.91 1068.17 108.974 1066.33 108.974C1063.68 108.974 1061.65 110.954 1061.65 114.032ZM1070 114.05C1070 116.372 1068.45 117.722 1066.65 117.722C1064.85 117.722 1063.32 116.354 1063.32 114.032C1063.32 111.71 1064.85 110.396 1066.65 110.396C1068.45 110.396 1070 111.764 1070 114.05ZM1074.79 116.3C1074.79 118.28 1075.78 119 1077.52 119H1079V117.614H1077.79C1076.78 117.614 1076.42 117.272 1076.42 116.3V110.486H1079V109.136H1076.42V106.652H1074.79V109.136H1073.51V110.486H1074.79V116.3ZM1081.34 116.3C1081.34 118.28 1082.33 119 1084.08 119H1085.55V117.614H1084.35C1083.34 117.614 1082.98 117.272 1082.98 116.3V110.486H1085.55V109.136H1082.98V106.652H1081.34V109.136H1080.06V110.486H1081.34V116.3ZM1087.54 119H1089.18V109.136H1087.54V119ZM1088.38 107.534C1088.98 107.534 1089.46 107.048 1089.46 106.418C1089.46 105.788 1088.98 105.302 1088.38 105.302C1087.75 105.302 1087.27 105.788 1087.27 106.418C1087.27 107.048 1087.75 107.534 1088.38 107.534ZM1099.06 116.318C1098.99 112.79 1093.26 114.068 1093.26 111.728C1093.26 110.936 1093.98 110.36 1095.19 110.36C1096.5 110.36 1097.26 111.08 1097.33 112.07H1098.97C1098.86 110.144 1097.42 108.974 1095.24 108.974C1093.05 108.974 1091.63 110.216 1091.63 111.728C1091.63 115.4 1097.46 114.122 1097.46 116.318C1097.46 117.128 1096.74 117.776 1095.44 117.776C1094.06 117.776 1093.21 117.056 1093.12 116.102H1091.43C1091.54 117.902 1093.16 119.162 1095.46 119.162C1097.64 119.162 1099.06 117.938 1099.06 116.318ZM1106.53 116.3C1106.53 118.28 1107.52 119 1109.27 119H1110.74V117.614H1109.54C1108.53 117.614 1108.17 117.272 1108.17 116.3V110.486H1110.74V109.136H1108.17V106.652H1106.53V109.136H1105.25V110.486H1106.53V116.3ZM1116.92 110.36C1118.61 110.36 1120.05 111.422 1120.04 113.348H1113.81C1113.99 111.422 1115.32 110.36 1116.92 110.36ZM1121.53 115.958H1119.77C1119.41 117.02 1118.47 117.776 1116.99 117.776C1115.32 117.776 1113.92 116.678 1113.79 114.68H1121.67C1121.71 114.338 1121.73 114.05 1121.73 113.69C1121.73 110.99 1119.86 108.974 1116.99 108.974C1114.11 108.974 1112.12 110.936 1112.12 114.05C1112.12 117.182 1114.19 119.162 1116.99 119.162C1119.44 119.162 1121.03 117.758 1121.53 115.958ZM1123.89 119H1125.53V105.68H1123.89V119ZM1128.32 119H1129.96V105.68H1128.32V119ZM1141.5 109.136H1139.86V114.554C1139.86 116.678 1138.73 117.722 1137.03 117.722C1135.38 117.722 1134.28 116.696 1134.28 114.698V109.136H1132.66V114.914C1132.66 117.74 1134.44 119.144 1136.71 119.144C1138.02 119.144 1139.23 118.568 1139.86 117.542V119H1141.5V109.136ZM1151.36 116.318C1151.28 112.79 1145.56 114.068 1145.56 111.728C1145.56 110.936 1146.28 110.36 1147.49 110.36C1148.8 110.36 1149.56 111.08 1149.63 112.07H1151.27C1151.16 110.144 1149.72 108.974 1147.54 108.974C1145.34 108.974 1143.92 110.216 1143.92 111.728C1143.92 115.4 1149.75 114.122 1149.75 116.318C1149.75 117.128 1149.03 117.776 1147.74 117.776C1146.35 117.776 1145.51 117.056 1145.42 116.102H1143.72C1143.83 117.902 1145.45 119.162 1147.76 119.162C1149.93 119.162 1151.36 117.938 1151.36 116.318ZM1155.27 117.992C1155.27 117.362 1154.78 116.876 1154.19 116.876C1153.56 116.876 1153.07 117.362 1153.07 117.992C1153.07 118.622 1153.56 119.108 1154.19 119.108C1154.78 119.108 1155.27 118.622 1155.27 117.992ZM1170.4 115.58C1170.4 110.936 1163.63 112.952 1163.63 109.712C1163.63 108.362 1164.69 107.66 1166.04 107.696C1167.57 107.714 1168.37 108.668 1168.47 109.514H1170.27C1170.08 107.606 1168.51 106.292 1166.12 106.292C1163.63 106.292 1161.96 107.696 1161.96 109.766C1161.96 114.428 1168.74 112.268 1168.74 115.652C1168.74 116.84 1167.81 117.74 1166.22 117.74C1164.48 117.74 1163.74 116.696 1163.63 115.652H1161.89C1161.92 117.722 1163.7 119.126 1166.22 119.126C1168.94 119.126 1170.4 117.362 1170.4 115.58ZM1177 110.36C1178.7 110.36 1180.14 111.422 1180.12 113.348H1173.89C1174.07 111.422 1175.4 110.36 1177 110.36ZM1181.61 115.958H1179.85C1179.49 117.02 1178.55 117.776 1177.08 117.776C1175.4 117.776 1174 116.678 1173.87 114.68H1181.76C1181.79 114.338 1181.81 114.05 1181.81 113.69C1181.81 110.99 1179.94 108.974 1177.08 108.974C1174.2 108.974 1172.2 110.936 1172.2 114.05C1172.2 117.182 1174.27 119.162 1177.08 119.162C1179.52 119.162 1181.11 117.758 1181.61 115.958ZM1183.36 114.032C1183.36 117.092 1185.39 119.162 1188.04 119.162C1189.84 119.162 1191.12 118.244 1191.71 117.146V119H1193.37V105.68H1191.71V110.9C1191.03 109.766 1189.61 108.974 1188.06 108.974C1185.39 108.974 1183.36 110.954 1183.36 114.032ZM1191.71 114.05C1191.71 116.372 1190.16 117.722 1188.36 117.722C1186.56 117.722 1185.03 116.354 1185.03 114.032C1185.03 111.71 1186.56 110.396 1188.36 110.396C1190.16 110.396 1191.71 111.764 1191.71 114.05ZM697.36 139.032C697.36 142.092 699.394 144.162 702.04 144.162C703.84 144.162 705.118 143.244 705.712 142.146V144H707.368V130.68H705.712V135.9C705.028 134.766 703.606 133.974 702.058 133.974C699.394 133.974 697.36 135.954 697.36 139.032ZM705.712 139.05C705.712 141.372 704.164 142.722 702.364 142.722C700.564 142.722 699.034 141.354 699.034 139.032C699.034 136.71 700.564 135.396 702.364 135.396C704.164 135.396 705.712 136.764 705.712 139.05ZM710.136 144H711.774V134.136H710.136V144ZM710.982 132.534C711.576 132.534 712.062 132.048 712.062 131.418C712.062 130.788 711.576 130.302 710.982 130.302C710.352 130.302 709.866 130.788 709.866 131.418C709.866 132.048 710.352 132.534 710.982 132.534ZM713.954 139.032C713.954 142.092 715.988 144.162 718.634 144.162C720.434 144.162 721.712 143.208 722.306 142.146V144.216C722.306 146.322 720.992 147.438 719.246 147.438C717.626 147.438 716.456 146.628 716.096 145.44H714.476C714.8 147.546 716.654 148.86 719.246 148.86C722.144 148.86 723.962 146.934 723.962 144.216V134.136H722.306V135.936C721.73 134.874 720.434 133.974 718.634 133.974C715.988 133.974 713.954 135.954 713.954 139.032ZM722.306 139.05C722.306 141.372 720.758 142.722 718.958 142.722C717.158 142.722 715.628 141.354 715.628 139.032C715.628 136.71 717.158 135.396 718.958 135.396C720.758 135.396 722.306 136.764 722.306 139.05ZM733.948 144H735.568V138.186C735.568 135.36 733.822 133.956 731.536 133.956C730.204 133.956 729.016 134.514 728.368 135.54V134.136H726.73V144H728.368V138.546C728.368 136.422 729.52 135.378 731.194 135.378C732.85 135.378 733.948 136.404 733.948 138.42V144ZM738.244 144H739.882V134.136H738.244V144ZM739.09 132.534C739.684 132.534 740.17 132.048 740.17 131.418C740.17 130.788 739.684 130.302 739.09 130.302C738.46 130.302 737.974 130.788 737.974 131.418C737.974 132.048 738.46 132.534 739.09 132.534ZM749.765 141.318C749.693 137.79 743.969 139.068 743.969 136.728C743.969 135.936 744.689 135.36 745.895 135.36C747.209 135.36 747.965 136.08 748.037 137.07H749.675C749.567 135.144 748.127 133.974 745.949 133.974C743.753 133.974 742.331 135.216 742.331 136.728C742.331 140.4 748.163 139.122 748.163 141.318C748.163 142.128 747.443 142.776 746.147 142.776C744.761 142.776 743.915 142.056 743.825 141.102H742.133C742.241 142.902 743.861 144.162 746.165 144.162C748.343 144.162 749.765 142.938 749.765 141.318ZM759.17 141.318C759.098 137.79 753.374 139.068 753.374 136.728C753.374 135.936 754.094 135.36 755.3 135.36C756.614 135.36 757.37 136.08 757.442 137.07H759.08C758.972 135.144 757.532 133.974 755.354 133.974C753.158 133.974 751.736 135.216 751.736 136.728C751.736 140.4 757.568 139.122 757.568 141.318C757.568 142.128 756.848 142.776 755.552 142.776C754.166 142.776 753.32 142.056 753.23 141.102H751.538C751.646 142.902 753.266 144.162 755.57 144.162C757.748 144.162 759.17 142.938 759.17 141.318ZM761.482 144H763.12V134.136H761.482V144ZM762.328 132.534C762.922 132.534 763.408 132.048 763.408 131.418C763.408 130.788 762.922 130.302 762.328 130.302C761.698 130.302 761.212 130.788 761.212 131.418C761.212 132.048 761.698 132.534 762.328 132.534ZM780.15 144H781.77V138.186C781.77 135.36 780.024 133.956 777.774 133.956C776.262 133.956 774.858 134.73 774.282 136.152C773.634 134.676 772.284 133.956 770.664 133.956C769.368 133.956 768.198 134.514 767.55 135.558V134.136H765.912V144H767.55V138.564C767.55 136.44 768.684 135.378 770.34 135.378C771.96 135.378 773.04 136.404 773.04 138.42V144H774.66V138.564C774.66 136.44 775.794 135.378 777.45 135.378C779.07 135.378 780.15 136.404 780.15 138.42V144ZM783.035 146.574H784.133L786.149 141.732H784.349L783.035 146.574ZM807.062 144H808.682V138.186C808.682 135.36 806.936 133.956 804.686 133.956C803.174 133.956 801.77 134.73 801.194 136.152C800.546 134.676 799.196 133.956 797.576 133.956C796.28 133.956 795.11 134.514 794.462 135.558V134.136H792.824V144H794.462V138.564C794.462 136.44 795.596 135.378 797.252 135.378C798.872 135.378 799.952 136.404 799.952 138.42V144H801.572V138.564C801.572 136.44 802.706 135.378 804.362 135.378C805.982 135.378 807.062 136.404 807.062 138.42V144ZM815.563 135.36C817.255 135.36 818.695 136.422 818.677 138.348H812.449C812.629 136.422 813.961 135.36 815.563 135.36ZM820.171 140.958H818.407C818.047 142.02 817.111 142.776 815.635 142.776C813.961 142.776 812.557 141.678 812.431 139.68H820.315C820.351 139.338 820.369 139.05 820.369 138.69C820.369 135.99 818.497 133.974 815.635 133.974C812.755 133.974 810.757 135.936 810.757 139.05C810.757 142.182 812.827 144.162 815.635 144.162C818.083 144.162 819.667 142.758 820.171 140.958ZM822.891 141.3C822.891 143.28 823.881 144 825.627 144H827.103V142.614H825.897C824.889 142.614 824.529 142.272 824.529 141.3V135.486H827.103V134.136H824.529V131.652H822.891V134.136H821.613V135.486H822.891V141.3ZM837.835 134.136H836.197V139.554C836.197 141.678 835.063 142.722 833.371 142.722C831.715 142.722 830.617 141.696 830.617 139.698V134.136H828.997V139.914C828.997 142.74 830.779 144.144 833.047 144.144C834.361 144.144 835.567 143.568 836.197 142.542V144H837.835V134.136ZM847.693 141.318C847.621 137.79 841.897 139.068 841.897 136.728C841.897 135.936 842.617 135.36 843.823 135.36C845.137 135.36 845.893 136.08 845.965 137.07H847.603C847.495 135.144 846.055 133.974 843.877 133.974C841.681 133.974 840.259 135.216 840.259 136.728C840.259 140.4 846.091 139.122 846.091 141.318C846.091 142.128 845.371 142.776 844.075 142.776C842.689 142.776 841.843 142.056 841.753 141.102H840.061C840.169 142.902 841.789 144.162 844.093 144.162C846.271 144.162 847.693 142.938 847.693 141.318ZM862.022 144H863.642V138.186C863.642 135.36 861.896 133.956 859.61 133.956C858.278 133.956 857.09 134.514 856.442 135.54V134.136H854.804V144H856.442V138.546C856.442 136.422 857.594 135.378 859.268 135.378C860.924 135.378 862.022 136.404 862.022 138.42V144ZM870.512 135.36C872.204 135.36 873.644 136.422 873.626 138.348H867.398C867.578 136.422 868.91 135.36 870.512 135.36ZM875.12 140.958H873.356C872.996 142.02 872.06 142.776 870.584 142.776C868.91 142.776 867.506 141.678 867.38 139.68H875.264C875.3 139.338 875.318 139.05 875.318 138.69C875.318 135.99 873.446 133.974 870.584 133.974C867.704 133.974 865.706 135.936 865.706 139.05C865.706 142.182 867.776 144.162 870.584 144.162C873.032 144.162 874.616 142.758 875.12 140.958ZM876.868 139.05C876.868 142.182 878.866 144.162 881.674 144.162C884.122 144.162 885.724 142.794 886.228 140.832H884.464C884.104 142.074 883.132 142.776 881.674 142.776C879.874 142.776 878.542 141.498 878.542 139.05C878.542 136.638 879.874 135.36 881.674 135.36C883.132 135.36 884.122 136.116 884.464 137.304H886.228C885.724 135.234 884.122 133.974 881.674 133.974C878.866 133.974 876.868 135.954 876.868 139.05ZM893.518 144H895.156V135.486H897.226V134.136H895.156V133.434C895.156 132.156 895.642 131.616 897.118 131.616V130.248C894.598 130.248 893.518 131.238 893.518 133.434V134.136H892.24V135.486H893.518V144ZM900.774 138.636C900.774 136.35 901.962 135.648 903.528 135.648H903.96V133.956C902.394 133.956 901.332 134.64 900.774 135.738V134.136H899.136V144H900.774V138.636ZM905.851 144H907.489V134.136H905.851V144ZM906.697 132.534C907.291 132.534 907.777 132.048 907.777 131.418C907.777 130.788 907.291 130.302 906.697 130.302C906.067 130.302 905.581 130.788 905.581 131.418C905.581 132.048 906.067 132.534 906.697 132.534ZM917.499 144H919.119V138.186C919.119 135.36 917.373 133.956 915.087 133.956C913.755 133.956 912.567 134.514 911.919 135.54V134.136H910.281V144H911.919V138.546C911.919 136.422 913.071 135.378 914.745 135.378C916.401 135.378 917.499 136.404 917.499 138.42V144ZM921.182 139.032C921.182 142.092 923.216 144.162 925.862 144.162C927.662 144.162 928.94 143.208 929.534 142.146V144.216C929.534 146.322 928.22 147.438 926.474 147.438C924.854 147.438 923.684 146.628 923.324 145.44H921.704C922.028 147.546 923.882 148.86 926.474 148.86C929.372 148.86 931.19 146.934 931.19 144.216V134.136H929.534V135.936C928.958 134.874 927.662 133.974 925.862 133.974C923.216 133.974 921.182 135.954 921.182 139.032ZM929.534 139.05C929.534 141.372 927.986 142.722 926.186 142.722C924.386 142.722 922.856 141.354 922.856 139.032C922.856 136.71 924.386 135.396 926.186 135.396C927.986 135.396 929.534 136.764 929.534 139.05ZM933.959 144H935.597V134.136H933.959V144ZM934.805 132.534C935.399 132.534 935.885 132.048 935.885 131.418C935.885 130.788 935.399 130.302 934.805 130.302C934.175 130.302 933.689 130.788 933.689 131.418C933.689 132.048 934.175 132.534 934.805 132.534ZM938.388 144H940.026V130.68H938.388V144ZM942.818 144H944.456V130.68H942.818V144ZM946.636 139.032C946.636 142.092 948.67 144.162 951.298 144.162C953.116 144.162 954.394 143.226 954.988 142.164V144H956.644V134.136H954.988V135.936C954.412 134.91 953.152 133.974 951.316 133.974C948.67 133.974 946.636 135.954 946.636 139.032ZM954.988 139.05C954.988 141.372 953.44 142.722 951.64 142.722C949.84 142.722 948.31 141.354 948.31 139.032C948.31 136.71 949.84 135.396 951.64 135.396C953.44 135.396 954.988 136.764 954.988 139.05ZM963.598 139.032C963.598 142.092 965.632 144.162 968.26 144.162C970.078 144.162 971.356 143.226 971.95 142.164V144H973.606V134.136H971.95V135.936C971.374 134.91 970.114 133.974 968.278 133.974C965.632 133.974 963.598 135.954 963.598 139.032ZM971.95 139.05C971.95 141.372 970.402 142.722 968.602 142.722C966.802 142.722 965.272 141.354 965.272 139.032C965.272 136.71 966.802 135.396 968.602 135.396C970.402 135.396 971.95 136.764 971.95 139.05ZM975.763 139.05C975.763 142.182 977.761 144.162 980.569 144.162C983.017 144.162 984.619 142.794 985.123 140.832H983.359C982.999 142.074 982.027 142.776 980.569 142.776C978.769 142.776 977.437 141.498 977.437 139.05C977.437 136.638 978.769 135.36 980.569 135.36C982.027 135.36 983.017 136.116 983.359 137.304H985.123C984.619 135.234 983.017 133.974 980.569 133.974C977.761 133.974 975.763 135.954 975.763 139.05ZM986.696 139.05C986.696 142.182 988.694 144.162 991.502 144.162C993.95 144.162 995.552 142.794 996.056 140.832H994.292C993.932 142.074 992.96 142.776 991.502 142.776C989.702 142.776 988.37 141.498 988.37 139.05C988.37 136.638 989.702 135.36 991.502 135.36C992.96 135.36 993.95 136.116 994.292 137.304H996.056C995.552 135.234 993.95 133.974 991.502 133.974C988.694 133.974 986.696 135.954 986.696 139.05ZM1006.99 134.136H1005.35V139.554C1005.35 141.678 1004.22 142.722 1002.53 142.722C1000.87 142.722 999.772 141.696 999.772 139.698V134.136H998.152V139.914C998.152 142.74 999.934 144.144 1002.2 144.144C1003.52 144.144 1004.72 143.568 1005.35 142.542V144H1006.99V134.136ZM1023.99 144H1025.61V138.186C1025.61 135.36 1023.87 133.956 1021.62 133.956C1020.11 133.956 1018.7 134.73 1018.13 136.152C1017.48 134.676 1016.13 133.956 1014.51 133.956C1013.21 133.956 1012.04 134.514 1011.39 135.558V134.136H1009.76V144H1011.39V138.564C1011.39 136.44 1012.53 135.378 1014.18 135.378C1015.8 135.378 1016.88 136.404 1016.88 138.42V144H1018.5V138.564C1018.5 136.44 1019.64 135.378 1021.29 135.378C1022.91 135.378 1023.99 136.404 1023.99 138.42V144ZM1035.39 141.318C1035.32 137.79 1029.6 139.068 1029.6 136.728C1029.6 135.936 1030.32 135.36 1031.52 135.36C1032.84 135.36 1033.59 136.08 1033.66 137.07H1035.3C1035.19 135.144 1033.75 133.974 1031.58 133.974C1029.38 133.974 1027.96 135.216 1027.96 136.728C1027.96 140.4 1033.79 139.122 1033.79 141.318C1033.79 142.128 1033.07 142.776 1031.77 142.776C1030.39 142.776 1029.54 142.056 1029.45 141.102H1027.76C1027.87 142.902 1029.49 144.162 1031.79 144.162C1033.97 144.162 1035.39 142.938 1035.39 141.318ZM1037.09 139.032C1037.09 142.092 1039.13 144.162 1041.75 144.162C1043.57 144.162 1044.85 143.226 1045.44 142.164V144H1047.1V134.136H1045.44V135.936C1044.87 134.91 1043.61 133.974 1041.77 133.974C1039.13 133.974 1037.09 135.954 1037.09 139.032ZM1045.44 139.05C1045.44 141.372 1043.9 142.722 1042.1 142.722C1040.3 142.722 1038.77 141.354 1038.77 139.032C1038.77 136.71 1040.3 135.396 1042.1 135.396C1043.9 135.396 1045.44 136.764 1045.44 139.05ZM1057.09 144H1058.71V138.186C1058.71 135.36 1056.96 133.956 1054.67 133.956C1053.34 133.956 1052.15 134.514 1051.51 135.54V134.136H1049.87V144H1051.51V138.546C1051.51 136.422 1052.66 135.378 1054.33 135.378C1055.99 135.378 1057.09 136.404 1057.09 138.42V144ZM1059.96 146.574H1061.06L1063.07 141.732H1061.27L1059.96 146.574ZM1071.39 138.636C1071.39 136.35 1072.58 135.648 1074.14 135.648H1074.57V133.956C1073.01 133.956 1071.95 134.64 1071.39 135.738V134.136H1069.75V144H1071.39V138.636ZM1076.46 144H1078.1V134.136H1076.46V144ZM1077.31 132.534C1077.9 132.534 1078.39 132.048 1078.39 131.418C1078.39 130.788 1077.9 130.302 1077.31 130.302C1076.68 130.302 1076.19 130.788 1076.19 131.418C1076.19 132.048 1076.68 132.534 1077.31 132.534ZM1087.99 141.318C1087.91 137.79 1082.19 139.068 1082.19 136.728C1082.19 135.936 1082.91 135.36 1084.12 135.36C1085.43 135.36 1086.19 136.08 1086.26 137.07H1087.9C1087.79 135.144 1086.35 133.974 1084.17 133.974C1081.97 133.974 1080.55 135.216 1080.55 136.728C1080.55 140.4 1086.38 139.122 1086.38 141.318C1086.38 142.128 1085.66 142.776 1084.37 142.776C1082.98 142.776 1082.14 142.056 1082.05 141.102H1080.35C1080.46 142.902 1082.08 144.162 1084.39 144.162C1086.56 144.162 1087.99 142.938 1087.99 141.318ZM1099.05 134.136H1097.41V139.554C1097.41 141.678 1096.27 142.722 1094.58 142.722C1092.93 142.722 1091.83 141.696 1091.83 139.698V134.136H1090.21V139.914C1090.21 142.74 1091.99 144.144 1094.26 144.144C1095.57 144.144 1096.78 143.568 1097.41 142.542V144H1099.05V134.136ZM1108.9 141.318C1108.83 137.79 1103.11 139.068 1103.11 136.728C1103.11 135.936 1103.83 135.36 1105.03 135.36C1106.35 135.36 1107.1 136.08 1107.18 137.07H1108.81C1108.71 135.144 1107.27 133.974 1105.09 133.974C1102.89 133.974 1101.47 135.216 1101.47 136.728C1101.47 140.4 1107.3 139.122 1107.3 141.318C1107.3 142.128 1106.58 142.776 1105.29 142.776C1103.9 142.776 1103.05 142.056 1102.96 141.102H1101.27C1101.38 142.902 1103 144.162 1105.3 144.162C1107.48 144.162 1108.9 142.938 1108.9 141.318ZM1123.11 141.318C1123.04 137.79 1117.31 139.068 1117.31 136.728C1117.31 135.936 1118.03 135.36 1119.24 135.36C1120.55 135.36 1121.31 136.08 1121.38 137.07H1123.02C1122.91 135.144 1121.47 133.974 1119.29 133.974C1117.1 133.974 1115.67 135.216 1115.67 136.728C1115.67 140.4 1121.51 139.122 1121.51 141.318C1121.51 142.128 1120.79 142.776 1119.49 142.776C1118.1 142.776 1117.26 142.056 1117.17 141.102H1115.48C1115.58 142.902 1117.2 144.162 1119.51 144.162C1121.69 144.162 1123.11 142.938 1123.11 141.318ZM1129.61 135.36C1131.31 135.36 1132.75 136.422 1132.73 138.348H1126.5C1126.68 136.422 1128.01 135.36 1129.61 135.36ZM1134.22 140.958H1132.46C1132.1 142.02 1131.16 142.776 1129.69 142.776C1128.01 142.776 1126.61 141.678 1126.48 139.68H1134.37C1134.4 139.338 1134.42 139.05 1134.42 138.69C1134.42 135.99 1132.55 133.974 1129.69 133.974C1126.81 133.974 1124.81 135.936 1124.81 139.05C1124.81 142.182 1126.88 144.162 1129.69 144.162C1132.13 144.162 1133.72 142.758 1134.22 140.958ZM1150.82 144H1152.44V138.186C1152.44 135.36 1150.69 133.956 1148.44 133.956C1146.93 133.956 1145.53 134.73 1144.95 136.152C1144.3 134.676 1142.95 133.956 1141.33 133.956C1140.04 133.956 1138.87 134.514 1138.22 135.558V134.136H1136.58V144H1138.22V138.564C1138.22 136.44 1139.35 135.378 1141.01 135.378C1142.63 135.378 1143.71 136.404 1143.71 138.42V144H1145.33V138.564C1145.33 136.44 1146.46 135.378 1148.12 135.378C1149.74 135.378 1150.82 136.404 1150.82 138.42V144ZM705.064 166.318C704.992 162.79 699.268 164.068 699.268 161.728C699.268 160.936 699.988 160.36 701.194 160.36C702.508 160.36 703.264 161.08 703.336 162.07H704.974C704.866 160.144 703.426 158.974 701.248 158.974C699.052 158.974 697.63 160.216 697.63 161.728C697.63 165.4 703.462 164.122 703.462 166.318C703.462 167.128 702.742 167.776 701.446 167.776C700.06 167.776 699.214 167.056 699.124 166.102H697.432C697.54 167.902 699.16 169.162 701.464 169.162C703.642 169.162 705.064 167.938 705.064 166.318ZM716.736 164.05C716.736 160.936 714.558 158.974 711.75 158.974C708.96 158.974 706.764 160.936 706.764 164.05C706.764 167.182 708.888 169.162 711.678 169.162C714.486 169.162 716.736 167.182 716.736 164.05ZM708.438 164.05C708.438 161.566 710.004 160.396 711.732 160.396C713.424 160.396 715.062 161.566 715.062 164.05C715.062 166.552 713.388 167.722 711.678 167.722C709.968 167.722 708.438 166.552 708.438 164.05ZM718.89 169H720.528V155.68H718.89V169ZM723.32 169H724.958V155.68H723.32V169ZM727.75 169H729.388V159.136H727.75V169ZM728.596 157.534C729.19 157.534 729.676 157.048 729.676 156.418C729.676 155.788 729.19 155.302 728.596 155.302C727.966 155.302 727.48 155.788 727.48 156.418C727.48 157.048 727.966 157.534 728.596 157.534ZM731.567 164.05C731.567 167.182 733.565 169.162 736.373 169.162C738.821 169.162 740.423 167.794 740.927 165.832H739.163C738.803 167.074 737.831 167.776 736.373 167.776C734.573 167.776 733.241 166.498 733.241 164.05C733.241 161.638 734.573 160.36 736.373 160.36C737.831 160.36 738.821 161.116 739.163 162.304H740.927C740.423 160.234 738.821 158.974 736.373 158.974C733.565 158.974 731.567 160.954 731.567 164.05ZM743.113 169H744.751V159.136H743.113V169ZM743.959 157.534C744.553 157.534 745.039 157.048 745.039 156.418C745.039 155.788 744.553 155.302 743.959 155.302C743.329 155.302 742.843 155.788 742.843 156.418C742.843 157.048 743.329 157.534 743.959 157.534ZM747.902 166.3C747.902 168.28 748.892 169 750.638 169H752.114V167.614H750.908C749.9 167.614 749.54 167.272 749.54 166.3V160.486H752.114V159.136H749.54V156.652H747.902V159.136H746.624V160.486H747.902V166.3ZM762.847 159.136H761.209V164.554C761.209 166.678 760.075 167.722 758.383 167.722C756.727 167.722 755.629 166.696 755.629 164.698V159.136H754.009V164.914C754.009 167.74 755.791 169.144 758.059 169.144C759.373 169.144 760.579 168.568 761.209 167.542V169H762.847V159.136ZM765.001 164.032C765.001 167.092 767.035 169.162 769.681 169.162C771.481 169.162 772.759 168.244 773.353 167.146V169H775.009V155.68H773.353V160.9C772.669 159.766 771.247 158.974 769.699 158.974C767.035 158.974 765.001 160.954 765.001 164.032ZM773.353 164.05C773.353 166.372 771.805 167.722 770.005 167.722C768.205 167.722 766.675 166.354 766.675 164.032C766.675 161.71 768.205 160.396 770.005 160.396C771.805 160.396 773.353 161.764 773.353 164.05ZM777.777 169H779.415V159.136H777.777V169ZM778.623 157.534C779.217 157.534 779.703 157.048 779.703 156.418C779.703 155.788 779.217 155.302 778.623 155.302C777.993 155.302 777.507 155.788 777.507 156.418C777.507 157.048 777.993 157.534 778.623 157.534ZM789.425 169H791.045V163.186C791.045 160.36 789.299 158.956 787.013 158.956C785.681 158.956 784.493 159.514 783.845 160.54V159.136H782.207V169H783.845V163.546C783.845 161.422 784.997 160.378 786.671 160.378C788.327 160.378 789.425 161.404 789.425 163.42V169ZM798.519 169H800.157V155.68H798.519V169ZM802.337 164.032C802.337 167.092 804.371 169.162 806.999 169.162C808.817 169.162 810.095 168.226 810.689 167.164V169H812.345V159.136H810.689V160.936C810.113 159.91 808.853 158.974 807.017 158.974C804.371 158.974 802.337 160.954 802.337 164.032ZM810.689 164.05C810.689 166.372 809.141 167.722 807.341 167.722C805.541 167.722 804.011 166.354 804.011 164.032C804.011 161.71 805.541 160.396 807.341 160.396C809.141 160.396 810.689 161.764 810.689 164.05ZM814.501 164.05C814.501 167.182 816.499 169.162 819.307 169.162C821.755 169.162 823.357 167.794 823.861 165.832H822.097C821.737 167.074 820.765 167.776 819.307 167.776C817.507 167.776 816.175 166.498 816.175 164.05C816.175 161.638 817.507 160.36 819.307 160.36C820.765 160.36 821.755 161.116 822.097 162.304H823.861C823.357 160.234 821.755 158.974 819.307 158.974C816.499 158.974 814.501 160.954 814.501 164.05ZM834.794 159.136H833.156V164.554C833.156 166.678 832.022 167.722 830.33 167.722C828.674 167.722 827.576 166.696 827.576 164.698V159.136H825.956V164.914C825.956 167.74 827.738 169.144 830.006 169.144C831.32 169.144 832.526 168.568 833.156 167.542V169H834.794V159.136ZM844.652 166.318C844.58 162.79 838.856 164.068 838.856 161.728C838.856 160.936 839.576 160.36 840.782 160.36C842.096 160.36 842.852 161.08 842.924 162.07H844.562C844.454 160.144 843.014 158.974 840.836 158.974C838.64 158.974 837.218 160.216 837.218 161.728C837.218 165.4 843.05 164.122 843.05 166.318C843.05 167.128 842.33 167.776 841.034 167.776C839.648 167.776 838.802 167.056 838.712 166.102H837.02C837.128 167.902 838.748 169.162 841.052 169.162C843.23 169.162 844.652 167.938 844.652 166.318ZM845.542 171.574H846.64L848.656 166.732H846.856L845.542 171.574ZM864.08 159.136H862.442V164.554C862.442 166.678 861.308 167.722 859.616 167.722C857.96 167.722 856.862 166.696 856.862 164.698V159.136H855.242V164.914C855.242 167.74 857.024 169.144 859.292 169.144C860.606 169.144 861.812 168.568 862.442 167.542V169H864.08V159.136ZM867.205 166.3C867.205 168.28 868.195 169 869.941 169H871.417V167.614H870.211C869.203 167.614 868.843 167.272 868.843 166.3V160.486H871.417V159.136H868.843V156.652H867.205V159.136H865.927V160.486H867.205V166.3ZM878.201 169H879.839V159.136H878.201V169ZM879.047 157.534C879.641 157.534 880.127 157.048 880.127 156.418C880.127 155.788 879.641 155.302 879.047 155.302C878.417 155.302 877.931 155.788 877.931 156.418C877.931 157.048 878.417 157.534 879.047 157.534ZM889.848 169H891.468V163.186C891.468 160.36 889.722 158.956 887.436 158.956C886.104 158.956 884.916 159.514 884.268 160.54V159.136H882.63V169H884.268V163.546C884.268 161.422 885.42 160.378 887.094 160.378C888.75 160.378 889.848 161.404 889.848 163.42V169ZM894.504 166.3C894.504 168.28 895.494 169 897.24 169H898.716V167.614H897.51C896.502 167.614 896.142 167.272 896.142 166.3V160.486H898.716V159.136H896.142V156.652H894.504V159.136H893.226V160.486H894.504V166.3ZM904.895 160.36C906.587 160.36 908.027 161.422 908.009 163.348H901.781C901.961 161.422 903.293 160.36 904.895 160.36ZM909.503 165.958H907.739C907.379 167.02 906.443 167.776 904.967 167.776C903.293 167.776 901.889 166.678 901.763 164.68H909.647C909.683 164.338 909.701 164.05 909.701 163.69C909.701 160.99 907.829 158.974 904.967 158.974C902.087 158.974 900.089 160.936 900.089 164.05C900.089 167.182 902.159 169.162 904.967 169.162C907.415 169.162 908.999 167.758 909.503 165.958ZM913.501 163.636C913.501 161.35 914.689 160.648 916.255 160.648H916.687V158.956C915.121 158.956 914.059 159.64 913.501 160.738V159.136H911.863V169H913.501V163.636ZM917.966 164.032C917.966 167.092 920 169.162 922.646 169.162C924.446 169.162 925.724 168.244 926.318 167.146V169H927.974V155.68H926.318V160.9C925.634 159.766 924.212 158.974 922.664 158.974C920 158.974 917.966 160.954 917.966 164.032ZM926.318 164.05C926.318 166.372 924.77 167.722 922.97 167.722C921.17 167.722 919.64 166.354 919.64 164.032C919.64 161.71 921.17 160.396 922.97 160.396C924.77 160.396 926.318 161.764 926.318 164.05ZM939.49 159.136H937.852V164.554C937.852 166.678 936.718 167.722 935.026 167.722C933.37 167.722 932.272 166.696 932.272 164.698V159.136H930.652V164.914C930.652 167.74 932.434 169.144 934.702 169.144C936.016 169.144 937.222 168.568 937.852 167.542V169H939.49V159.136ZM956.493 169H958.113V163.186C958.113 160.36 956.367 158.956 954.117 158.956C952.605 158.956 951.201 159.73 950.625 161.152C949.977 159.676 948.627 158.956 947.007 158.956C945.711 158.956 944.541 159.514 943.893 160.558V159.136H942.255V169H943.893V163.564C943.893 161.44 945.027 160.378 946.683 160.378C948.303 160.378 949.383 161.404 949.383 163.42V169H951.003V163.564C951.003 161.44 952.137 160.378 953.793 160.378C955.413 160.378 956.493 161.404 956.493 163.42V169ZM965.959 166.3C965.959 168.28 966.949 169 968.695 169H970.171V167.614H968.965C967.957 167.614 967.597 167.272 967.597 166.3V160.486H970.171V159.136H967.597V156.652H965.959V159.136H964.681V160.486H965.959V166.3ZM976.35 160.36C978.042 160.36 979.482 161.422 979.464 163.348H973.236C973.416 161.422 974.748 160.36 976.35 160.36ZM980.958 165.958H979.194C978.834 167.02 977.898 167.776 976.422 167.776C974.748 167.776 973.344 166.678 973.218 164.68H981.102C981.138 164.338 981.156 164.05 981.156 163.69C981.156 160.99 979.284 158.974 976.422 158.974C973.542 158.974 971.544 160.936 971.544 164.05C971.544 167.182 973.614 169.162 976.422 169.162C978.87 169.162 980.454 167.758 980.958 165.958ZM983.318 169H984.956V155.68H983.318V169ZM987.748 169H989.386V155.68H987.748V169ZM1000.93 159.136H999.287V164.554C999.287 166.678 998.153 167.722 996.461 167.722C994.805 167.722 993.707 166.696 993.707 164.698V159.136H992.087V164.914C992.087 167.74 993.869 169.144 996.137 169.144C997.451 169.144 998.657 168.568 999.287 167.542V169H1000.93V159.136ZM1010.78 166.318C1010.71 162.79 1004.99 164.068 1004.99 161.728C1004.99 160.936 1005.71 160.36 1006.91 160.36C1008.23 160.36 1008.98 161.08 1009.05 162.07H1010.69C1010.58 160.144 1009.14 158.974 1006.97 158.974C1004.77 158.974 1003.35 160.216 1003.35 161.728C1003.35 165.4 1009.18 164.122 1009.18 166.318C1009.18 167.128 1008.46 167.776 1007.16 167.776C1005.78 167.776 1004.93 167.056 1004.84 166.102H1003.15C1003.26 167.902 1004.88 169.162 1007.18 169.162C1009.36 169.162 1010.78 167.938 1010.78 166.318ZM1022.09 160.36C1023.78 160.36 1025.22 161.422 1025.2 163.348H1018.97C1019.15 161.422 1020.49 160.36 1022.09 160.36ZM1026.7 165.958H1024.93C1024.57 167.02 1023.64 167.776 1022.16 167.776C1020.49 167.776 1019.08 166.678 1018.96 164.68H1026.84C1026.88 164.338 1026.89 164.05 1026.89 163.69C1026.89 160.99 1025.02 158.974 1022.16 158.974C1019.28 158.974 1017.28 160.936 1017.28 164.05C1017.28 167.182 1019.35 169.162 1022.16 169.162C1024.61 169.162 1026.19 167.758 1026.7 165.958ZM1029.06 169H1030.69V155.68H1029.06V169ZM1033.49 169H1035.12V159.136H1033.49V169ZM1034.33 157.534C1034.93 157.534 1035.41 157.048 1035.41 156.418C1035.41 155.788 1034.93 155.302 1034.33 155.302C1033.7 155.302 1033.22 155.788 1033.22 156.418C1033.22 157.048 1033.7 157.534 1034.33 157.534ZM1038.28 166.3C1038.28 168.28 1039.27 169 1041.01 169H1042.49V167.614H1041.28C1040.27 167.614 1039.91 167.272 1039.91 166.3V160.486H1042.49V159.136H1039.91V156.652H1038.28V159.136H1037V160.486H1038.28V166.3ZM1056.36 166.318C1056.29 162.79 1050.57 164.068 1050.57 161.728C1050.57 160.936 1051.29 160.36 1052.49 160.36C1053.81 160.36 1054.56 161.08 1054.64 162.07H1056.27C1056.17 160.144 1054.73 158.974 1052.55 158.974C1050.35 158.974 1048.93 160.216 1048.93 161.728C1048.93 165.4 1054.76 164.122 1054.76 166.318C1054.76 167.128 1054.04 167.776 1052.75 167.776C1051.36 167.776 1050.51 167.056 1050.42 166.102H1048.73C1048.84 167.902 1050.46 169.162 1052.76 169.162C1054.94 169.162 1056.36 167.938 1056.36 166.318ZM1062.87 160.36C1064.56 160.36 1066 161.422 1065.98 163.348H1059.76C1059.94 161.422 1061.27 160.36 1062.87 160.36ZM1067.48 165.958H1065.71C1065.35 167.02 1064.42 167.776 1062.94 167.776C1061.27 167.776 1059.86 166.678 1059.74 164.68H1067.62C1067.66 164.338 1067.68 164.05 1067.68 163.69C1067.68 160.99 1065.8 158.974 1062.94 158.974C1060.06 158.974 1058.06 160.936 1058.06 164.05C1058.06 167.182 1060.13 169.162 1062.94 169.162C1065.39 169.162 1066.97 167.758 1067.48 165.958ZM1069.23 164.032C1069.23 167.092 1071.26 169.162 1073.91 169.162C1075.71 169.162 1076.98 168.244 1077.58 167.146V169H1079.23V155.68H1077.58V160.9C1076.89 159.766 1075.47 158.974 1073.92 158.974C1071.26 158.974 1069.23 160.954 1069.23 164.032ZM1077.58 164.05C1077.58 166.372 1076.03 167.722 1074.23 167.722C1072.43 167.722 1070.9 166.354 1070.9 164.032C1070.9 161.71 1072.43 160.396 1074.23 160.396C1076.03 160.396 1077.58 161.764 1077.58 164.05ZM1088.44 163.636C1088.44 161.35 1089.63 160.648 1091.19 160.648H1091.62V158.956C1090.06 158.956 1089 159.64 1088.44 160.738V159.136H1086.8V169H1088.44V163.636ZM1093.52 169H1095.15V159.136H1093.52V169ZM1094.36 157.534C1094.96 157.534 1095.44 157.048 1095.44 156.418C1095.44 155.788 1094.96 155.302 1094.36 155.302C1093.73 155.302 1093.25 155.788 1093.25 156.418C1093.25 157.048 1093.73 157.534 1094.36 157.534ZM1105.04 166.318C1104.96 162.79 1099.24 164.068 1099.24 161.728C1099.24 160.936 1099.96 160.36 1101.17 160.36C1102.48 160.36 1103.24 161.08 1103.31 162.07H1104.95C1104.84 160.144 1103.4 158.974 1101.22 158.974C1099.02 158.974 1097.6 160.216 1097.6 161.728C1097.6 165.4 1103.43 164.122 1103.43 166.318C1103.43 167.128 1102.71 167.776 1101.42 167.776C1100.03 167.776 1099.19 167.056 1099.1 166.102H1097.4C1097.51 167.902 1099.13 169.162 1101.44 169.162C1103.61 169.162 1105.04 167.938 1105.04 166.318ZM1116.1 159.136H1114.46V164.554C1114.46 166.678 1113.33 167.722 1111.63 167.722C1109.98 167.722 1108.88 166.696 1108.88 164.698V159.136H1107.26V164.914C1107.26 167.74 1109.04 169.144 1111.31 169.144C1112.62 169.144 1113.83 168.568 1114.46 167.542V169H1116.1V159.136ZM1125.95 166.318C1125.88 162.79 1120.16 164.068 1120.16 161.728C1120.16 160.936 1120.88 160.36 1122.08 160.36C1123.4 160.36 1124.15 161.08 1124.23 162.07H1125.86C1125.76 160.144 1124.32 158.974 1122.14 158.974C1119.94 158.974 1118.52 160.216 1118.52 161.728C1118.52 165.4 1124.35 164.122 1124.35 166.318C1124.35 167.128 1123.63 167.776 1122.34 167.776C1120.95 167.776 1120.1 167.056 1120.01 166.102H1118.32C1118.43 167.902 1120.05 169.162 1122.35 169.162C1124.53 169.162 1125.95 167.938 1125.95 166.318ZM1129.87 167.992C1129.87 167.362 1129.38 166.876 1128.79 166.876C1128.16 166.876 1127.67 167.362 1127.67 167.992C1127.67 168.622 1128.16 169.108 1128.79 169.108C1129.38 169.108 1129.87 168.622 1129.87 167.992ZM697.972 194H699.61V184.694L703.768 194H704.92L709.06 184.712V194H710.698V181.544H708.952L704.344 191.84L699.736 181.544H697.972V194ZM712.864 189.032C712.864 192.092 714.898 194.162 717.526 194.162C719.344 194.162 720.622 193.226 721.216 192.164V194H722.872V184.136H721.216V185.936C720.64 184.91 719.38 183.974 717.544 183.974C714.898 183.974 712.864 185.954 712.864 189.032ZM721.216 189.05C721.216 191.372 719.668 192.722 717.868 192.722C716.068 192.722 714.538 191.354 714.538 189.032C714.538 186.71 716.068 185.396 717.868 185.396C719.668 185.396 721.216 186.764 721.216 189.05ZM729.834 185.36C731.526 185.36 732.966 186.422 732.948 188.348H726.72C726.9 186.422 728.232 185.36 729.834 185.36ZM734.442 190.958H732.678C732.318 192.02 731.382 192.776 729.906 192.776C728.232 192.776 726.828 191.678 726.702 189.68H734.586C734.622 189.338 734.64 189.05 734.64 188.69C734.64 185.99 732.768 183.974 729.906 183.974C727.026 183.974 725.028 185.936 725.028 189.05C725.028 192.182 727.098 194.162 729.906 194.162C732.354 194.162 733.938 192.758 734.442 190.958ZM736.19 189.05C736.19 192.182 738.188 194.162 740.996 194.162C743.444 194.162 745.046 192.794 745.55 190.832H743.786C743.426 192.074 742.454 192.776 740.996 192.776C739.196 192.776 737.864 191.498 737.864 189.05C737.864 186.638 739.196 185.36 740.996 185.36C742.454 185.36 743.444 186.116 743.786 187.304H745.55C745.046 185.234 743.444 183.974 740.996 183.974C738.188 183.974 736.19 185.954 736.19 189.05ZM751.93 185.36C753.622 185.36 755.062 186.422 755.044 188.348H748.816C748.996 186.422 750.328 185.36 751.93 185.36ZM756.538 190.958H754.774C754.414 192.02 753.478 192.776 752.002 192.776C750.328 192.776 748.924 191.678 748.798 189.68H756.682C756.718 189.338 756.736 189.05 756.736 188.69C756.736 185.99 754.864 183.974 752.002 183.974C749.122 183.974 747.124 185.936 747.124 189.05C747.124 192.182 749.194 194.162 752.002 194.162C754.45 194.162 756.034 192.758 756.538 190.958ZM766.116 194H767.736V188.186C767.736 185.36 765.99 183.956 763.704 183.956C762.372 183.956 761.184 184.514 760.536 185.54V184.136H758.898V194H760.536V188.546C760.536 186.422 761.688 185.378 763.362 185.378C765.018 185.378 766.116 186.404 766.116 188.42V194ZM769.8 189.032C769.8 192.092 771.834 194.162 774.462 194.162C776.28 194.162 777.558 193.226 778.152 192.164V194H779.808V184.136H778.152V185.936C777.576 184.91 776.316 183.974 774.48 183.974C771.834 183.974 769.8 185.954 769.8 189.032ZM778.152 189.05C778.152 191.372 776.604 192.722 774.804 192.722C773.004 192.722 771.474 191.354 771.474 189.032C771.474 186.71 773.004 185.396 774.804 185.396C776.604 185.396 778.152 186.764 778.152 189.05ZM789.668 191.318C789.596 187.79 783.872 189.068 783.872 186.728C783.872 185.936 784.592 185.36 785.798 185.36C787.112 185.36 787.868 186.08 787.94 187.07H789.578C789.47 185.144 788.03 183.974 785.852 183.974C783.656 183.974 782.234 185.216 782.234 186.728C782.234 190.4 788.066 189.122 788.066 191.318C788.066 192.128 787.346 192.776 786.05 192.776C784.664 192.776 783.818 192.056 783.728 191.102H782.036C782.144 192.902 783.764 194.162 786.068 194.162C788.246 194.162 789.668 192.938 789.668 191.318ZM800.973 185.36C802.665 185.36 804.105 186.422 804.087 188.348H797.859C798.039 186.422 799.371 185.36 800.973 185.36ZM805.581 190.958H803.817C803.457 192.02 802.521 192.776 801.045 192.776C799.371 192.776 797.967 191.678 797.841 189.68H805.725C805.761 189.338 805.779 189.05 805.779 188.69C805.779 185.99 803.907 183.974 801.045 183.974C798.165 183.974 796.167 185.936 796.167 189.05C796.167 192.182 798.237 194.162 801.045 194.162C803.493 194.162 805.077 192.758 805.581 190.958ZM807.329 189.032C807.329 192.092 809.363 194.162 812.009 194.162C813.809 194.162 815.087 193.208 815.681 192.146V194.216C815.681 196.322 814.367 197.438 812.621 197.438C811.001 197.438 809.831 196.628 809.471 195.44H807.851C808.175 197.546 810.029 198.86 812.621 198.86C815.519 198.86 817.337 196.934 817.337 194.216V184.136H815.681V185.936C815.105 184.874 813.809 183.974 812.009 183.974C809.363 183.974 807.329 185.954 807.329 189.032ZM815.681 189.05C815.681 191.372 814.133 192.722 812.333 192.722C810.533 192.722 809.003 191.354 809.003 189.032C809.003 186.71 810.533 185.396 812.333 185.396C814.133 185.396 815.681 186.764 815.681 189.05ZM824.299 185.36C825.991 185.36 827.431 186.422 827.413 188.348H821.185C821.365 186.422 822.697 185.36 824.299 185.36ZM828.907 190.958H827.143C826.783 192.02 825.847 192.776 824.371 192.776C822.697 192.776 821.293 191.678 821.167 189.68H829.051C829.087 189.338 829.105 189.05 829.105 188.69C829.105 185.99 827.233 183.974 824.371 183.974C821.491 183.974 819.493 185.936 819.493 189.05C819.493 192.182 821.563 194.162 824.371 194.162C826.819 194.162 828.403 192.758 828.907 190.958ZM831.627 191.3C831.627 193.28 832.617 194 834.363 194H835.839V192.614H834.633C833.625 192.614 833.265 192.272 833.265 191.3V185.486H835.839V184.136H833.265V181.652H831.627V184.136H830.349V185.486H831.627V191.3ZM842.011 189.05C842.011 192.182 844.009 194.162 846.817 194.162C849.265 194.162 850.867 192.794 851.371 190.832H849.607C849.247 192.074 848.275 192.776 846.817 192.776C845.017 192.776 843.685 191.498 843.685 189.05C843.685 186.638 845.017 185.36 846.817 185.36C848.275 185.36 849.265 186.116 849.607 187.304H851.371C850.867 185.234 849.265 183.974 846.817 183.974C844.009 183.974 842.011 185.954 842.011 189.05ZM862.916 189.05C862.916 185.936 860.738 183.974 857.93 183.974C855.14 183.974 852.944 185.936 852.944 189.05C852.944 192.182 855.068 194.162 857.858 194.162C860.666 194.162 862.916 192.182 862.916 189.05ZM854.618 189.05C854.618 186.566 856.184 185.396 857.912 185.396C859.604 185.396 861.242 186.566 861.242 189.05C861.242 191.552 859.568 192.722 857.858 192.722C856.148 192.722 854.618 191.552 854.618 189.05ZM872.288 194H873.908V188.186C873.908 185.36 872.162 183.956 869.876 183.956C868.544 183.956 867.356 184.514 866.708 185.54V184.136H865.07V194H866.708V188.546C866.708 186.422 867.86 185.378 869.534 185.378C871.19 185.378 872.288 186.404 872.288 188.42V194ZM875.972 189.032C875.972 192.092 878.006 194.162 880.652 194.162C882.452 194.162 883.73 193.244 884.324 192.146V194H885.98V180.68H884.324V185.9C883.64 184.766 882.218 183.974 880.67 183.974C878.006 183.974 875.972 185.954 875.972 189.032ZM884.324 189.05C884.324 191.372 882.776 192.722 880.976 192.722C879.176 192.722 877.646 191.354 877.646 189.032C877.646 186.71 879.176 185.396 880.976 185.396C882.776 185.396 884.324 186.764 884.324 189.05ZM888.748 194H890.386V184.136H888.748V194ZM889.594 182.534C890.188 182.534 890.674 182.048 890.674 181.418C890.674 180.788 890.188 180.302 889.594 180.302C888.964 180.302 888.478 180.788 888.478 181.418C888.478 182.048 888.964 182.534 889.594 182.534ZM907.415 194H909.035V188.186C909.035 185.36 907.289 183.956 905.039 183.956C903.527 183.956 902.123 184.73 901.547 186.152C900.899 184.676 899.549 183.956 897.929 183.956C896.633 183.956 895.463 184.514 894.815 185.558V184.136H893.177V194H894.815V188.564C894.815 186.44 895.949 185.378 897.605 185.378C899.225 185.378 900.305 186.404 900.305 188.42V194H901.925V188.564C901.925 186.44 903.059 185.378 904.715 185.378C906.335 185.378 907.415 186.404 907.415 188.42V194ZM915.916 185.36C917.608 185.36 919.048 186.422 919.03 188.348H912.802C912.982 186.422 914.314 185.36 915.916 185.36ZM920.524 190.958H918.76C918.4 192.02 917.464 192.776 915.988 192.776C914.314 192.776 912.91 191.678 912.784 189.68H920.668C920.704 189.338 920.722 189.05 920.722 188.69C920.722 185.99 918.85 183.974 915.988 183.974C913.108 183.974 911.11 185.936 911.11 189.05C911.11 192.182 913.18 194.162 915.988 194.162C918.436 194.162 920.02 192.758 920.524 190.958ZM930.102 194H931.722V188.186C931.722 185.36 929.976 183.956 927.69 183.956C926.358 183.956 925.17 184.514 924.522 185.54V184.136H922.884V194H924.522V188.546C924.522 186.422 925.674 185.378 927.348 185.378C929.004 185.378 930.102 186.404 930.102 188.42V194ZM934.758 191.3C934.758 193.28 935.748 194 937.494 194H938.97V192.614H937.764C936.756 192.614 936.396 192.272 936.396 191.3V185.486H938.97V184.136H936.396V181.652H934.758V184.136H933.48V185.486H934.758V191.3ZM949.703 184.136H948.065V189.554C948.065 191.678 946.931 192.722 945.239 192.722C943.583 192.722 942.485 191.696 942.485 189.698V184.136H940.865V189.914C940.865 192.74 942.647 194.144 944.915 194.144C946.229 194.144 947.435 193.568 948.065 192.542V194H949.703V184.136ZM966.706 194H968.326V188.186C968.326 185.36 966.58 183.956 964.33 183.956C962.818 183.956 961.414 184.73 960.838 186.152C960.19 184.676 958.84 183.956 957.22 183.956C955.924 183.956 954.754 184.514 954.106 185.558V184.136H952.468V194H954.106V188.564C954.106 186.44 955.24 185.378 956.896 185.378C958.516 185.378 959.596 186.404 959.596 188.42V194H961.216V188.564C961.216 186.44 962.35 185.378 964.006 185.378C965.626 185.378 966.706 186.404 966.706 188.42V194ZM974.642 184.136L978.512 194H980.42L984.29 184.136H982.544L979.484 192.488L976.406 184.136H974.642ZM990.096 185.36C991.788 185.36 993.228 186.422 993.21 188.348H986.982C987.162 186.422 988.494 185.36 990.096 185.36ZM994.704 190.958H992.94C992.58 192.02 991.644 192.776 990.168 192.776C988.494 192.776 987.09 191.678 986.964 189.68H994.848C994.884 189.338 994.902 189.05 994.902 188.69C994.902 185.99 993.03 183.974 990.168 183.974C987.288 183.974 985.29 185.936 985.29 189.05C985.29 192.182 987.36 194.162 990.168 194.162C992.616 194.162 994.2 192.758 994.704 190.958ZM997.064 194H998.702V180.68H997.064V194ZM1001.49 194H1003.13V184.136H1001.49V194ZM1002.34 182.534C1002.93 182.534 1003.42 182.048 1003.42 181.418C1003.42 180.788 1002.93 180.302 1002.34 180.302C1001.71 180.302 1001.22 180.788 1001.22 181.418C1001.22 182.048 1001.71 182.534 1002.34 182.534ZM1006.28 191.3C1006.28 193.28 1007.27 194 1009.02 194H1010.5V192.614H1009.29C1008.28 192.614 1007.92 192.272 1007.92 191.3V185.486H1010.5V184.136H1007.92V181.652H1006.28V184.136H1005.01V185.486H1006.28V191.3ZM1011.06 196.574H1012.16L1014.17 191.732H1012.37L1011.06 196.574ZM1027.94 191.318C1027.87 187.79 1022.14 189.068 1022.14 186.728C1022.14 185.936 1022.86 185.36 1024.07 185.36C1025.38 185.36 1026.14 186.08 1026.21 187.07H1027.85C1027.74 185.144 1026.3 183.974 1024.12 183.974C1021.93 183.974 1020.51 185.216 1020.51 186.728C1020.51 190.4 1026.34 189.122 1026.34 191.318C1026.34 192.128 1025.62 192.776 1024.32 192.776C1022.94 192.776 1022.09 192.056 1022 191.102H1020.31C1020.42 192.902 1022.04 194.162 1024.34 194.162C1026.52 194.162 1027.94 192.938 1027.94 191.318ZM1030.25 194H1031.89V184.136H1030.25V194ZM1031.1 182.534C1031.69 182.534 1032.18 182.048 1032.18 181.418C1032.18 180.788 1031.69 180.302 1031.1 180.302C1030.47 180.302 1029.98 180.788 1029.98 181.418C1029.98 182.048 1030.47 182.534 1031.1 182.534ZM1035.04 191.3C1035.04 193.28 1036.03 194 1037.78 194H1039.25V192.614H1038.05C1037.04 192.614 1036.68 192.272 1036.68 191.3V185.486H1039.25V184.136H1036.68V181.652H1035.04V184.136H1033.76V185.486H1035.04V191.3ZM1045.42 189.032C1045.42 192.092 1047.46 194.162 1050.09 194.162C1051.9 194.162 1053.18 193.226 1053.78 192.164V194H1055.43V184.136H1053.78V185.936C1053.2 184.91 1051.94 183.974 1050.1 183.974C1047.46 183.974 1045.42 185.954 1045.42 189.032ZM1053.78 189.05C1053.78 191.372 1052.23 192.722 1050.43 192.722C1048.63 192.722 1047.1 191.354 1047.1 189.032C1047.1 186.71 1048.63 185.396 1050.43 185.396C1052.23 185.396 1053.78 186.764 1053.78 189.05ZM1072.44 194H1074.06V188.186C1074.06 185.36 1072.31 183.956 1070.06 183.956C1068.55 183.956 1067.15 184.73 1066.57 186.152C1065.92 184.676 1064.57 183.956 1062.95 183.956C1061.66 183.956 1060.49 184.514 1059.84 185.558V184.136H1058.2V194H1059.84V188.564C1059.84 186.44 1060.97 185.378 1062.63 185.378C1064.25 185.378 1065.33 186.404 1065.33 188.42V194H1066.95V188.564C1066.95 186.44 1068.08 185.378 1069.74 185.378C1071.36 185.378 1072.44 186.404 1072.44 188.42V194ZM1080.94 185.36C1082.63 185.36 1084.07 186.422 1084.05 188.348H1077.83C1078.01 186.422 1079.34 185.36 1080.94 185.36ZM1085.55 190.958H1083.78C1083.42 192.02 1082.49 192.776 1081.01 192.776C1079.34 192.776 1077.93 191.678 1077.81 189.68H1085.69C1085.73 189.338 1085.75 189.05 1085.75 188.69C1085.75 185.99 1083.87 183.974 1081.01 183.974C1078.13 183.974 1076.13 185.936 1076.13 189.05C1076.13 192.182 1078.2 194.162 1081.01 194.162C1083.46 194.162 1085.04 192.758 1085.55 190.958ZM1088.27 191.3C1088.27 193.28 1089.26 194 1091 194H1092.48V192.614H1091.27C1090.27 192.614 1089.91 192.272 1089.91 191.3V185.486H1092.48V184.136H1089.91V181.652H1088.27V184.136H1086.99V185.486H1088.27V191.3ZM1099.57 194H1101.21V185.486H1103.28V184.136H1101.21V183.434C1101.21 182.156 1101.69 181.616 1103.17 181.616V180.248C1100.65 180.248 1099.57 181.238 1099.57 183.434V184.136H1098.29V185.486H1099.57V194ZM1109.38 185.36C1111.07 185.36 1112.51 186.422 1112.5 188.348H1106.27C1106.45 186.422 1107.78 185.36 1109.38 185.36ZM1113.99 190.958H1112.23C1111.87 192.02 1110.93 192.776 1109.45 192.776C1107.78 192.776 1106.38 191.678 1106.25 189.68H1114.13C1114.17 189.338 1114.19 189.05 1114.19 188.69C1114.19 185.99 1112.32 183.974 1109.45 183.974C1106.57 183.974 1104.58 185.936 1104.58 189.05C1104.58 192.182 1106.65 194.162 1109.45 194.162C1111.9 194.162 1113.49 192.758 1113.99 190.958ZM1125.1 184.136H1123.46V189.554C1123.46 191.678 1122.33 192.722 1120.63 192.722C1118.98 192.722 1117.88 191.696 1117.88 189.698V184.136H1116.26V189.914C1116.26 192.74 1118.04 194.144 1120.31 194.144C1121.62 194.144 1122.83 193.568 1123.46 192.542V194H1125.1V184.136ZM1127.25 189.032C1127.25 192.092 1129.28 194.162 1131.93 194.162C1133.73 194.162 1135.01 193.208 1135.6 192.146V194.216C1135.6 196.322 1134.29 197.438 1132.54 197.438C1130.92 197.438 1129.75 196.628 1129.39 195.44H1127.77C1128.1 197.546 1129.95 198.86 1132.54 198.86C1135.44 198.86 1137.26 196.934 1137.26 194.216V184.136H1135.6V185.936C1135.03 184.874 1133.73 183.974 1131.93 183.974C1129.28 183.974 1127.25 185.954 1127.25 189.032ZM1135.6 189.05C1135.6 191.372 1134.05 192.722 1132.25 192.722C1130.45 192.722 1128.92 191.354 1128.92 189.032C1128.92 186.71 1130.45 185.396 1132.25 185.396C1134.05 185.396 1135.6 186.764 1135.6 189.05ZM1140.03 194H1141.66V184.136H1140.03V194ZM1140.87 182.534C1141.47 182.534 1141.95 182.048 1141.95 181.418C1141.95 180.788 1141.47 180.302 1140.87 180.302C1140.24 180.302 1139.76 180.788 1139.76 181.418C1139.76 182.048 1140.24 182.534 1140.87 182.534ZM1143.84 189.032C1143.84 192.092 1145.88 194.162 1148.51 194.162C1150.32 194.162 1151.6 193.226 1152.2 192.164V194H1153.85V184.136H1152.2V185.936C1151.62 184.91 1150.36 183.974 1148.52 183.974C1145.88 183.974 1143.84 185.954 1143.84 189.032ZM1152.2 189.05C1152.2 191.372 1150.65 192.722 1148.85 192.722C1147.05 192.722 1145.52 191.354 1145.52 189.032C1145.52 186.71 1147.05 185.396 1148.85 185.396C1150.65 185.396 1152.2 186.764 1152.2 189.05ZM1156.98 191.3C1156.98 193.28 1157.97 194 1159.72 194H1161.19V192.614H1159.99C1158.98 192.614 1158.62 192.272 1158.62 191.3V185.486H1161.19V184.136H1158.62V181.652H1156.98V184.136H1155.7V185.486H1156.98V191.3ZM697.972 219H699.61V205.68H697.972V219ZM706.596 210.36C708.288 210.36 709.728 211.422 709.71 213.348H703.482C703.662 211.422 704.994 210.36 706.596 210.36ZM711.204 215.958H709.44C709.08 217.02 708.144 217.776 706.668 217.776C704.994 217.776 703.59 216.678 703.464 214.68H711.348C711.384 214.338 711.402 214.05 711.402 213.69C711.402 210.99 709.53 208.974 706.668 208.974C703.788 208.974 701.79 210.936 701.79 214.05C701.79 217.182 703.86 219.162 706.668 219.162C709.116 219.162 710.7 217.758 711.204 215.958ZM712.952 214.05C712.952 217.182 714.95 219.162 717.758 219.162C720.206 219.162 721.808 217.794 722.312 215.832H720.548C720.188 217.074 719.216 217.776 717.758 217.776C715.958 217.776 714.626 216.498 714.626 214.05C714.626 211.638 715.958 210.36 717.758 210.36C719.216 210.36 720.206 211.116 720.548 212.304H722.312C721.808 210.234 720.206 208.974 717.758 208.974C714.95 208.974 712.952 210.954 712.952 214.05ZM724.858 216.3C724.858 218.28 725.848 219 727.594 219H729.07V217.614H727.864C726.856 217.614 726.496 217.272 726.496 216.3V210.486H729.07V209.136H726.496V206.652H724.858V209.136H723.58V210.486H724.858V216.3ZM739.802 209.136H738.164V214.554C738.164 216.678 737.03 217.722 735.338 217.722C733.682 217.722 732.584 216.696 732.584 214.698V209.136H730.964V214.914C730.964 217.74 732.746 219.144 735.014 219.144C736.328 219.144 737.534 218.568 738.164 217.542V219H739.802V209.136ZM749.66 216.318C749.588 212.79 743.864 214.068 743.864 211.728C743.864 210.936 744.584 210.36 745.79 210.36C747.104 210.36 747.86 211.08 747.932 212.07H749.57C749.462 210.144 748.022 208.974 745.844 208.974C743.648 208.974 742.226 210.216 742.226 211.728C742.226 215.4 748.058 214.122 748.058 216.318C748.058 217.128 747.338 217.776 746.042 217.776C744.656 217.776 743.81 217.056 743.72 216.102H742.028C742.136 217.902 743.756 219.162 746.06 219.162C748.238 219.162 749.66 217.938 749.66 216.318ZM753.574 217.992C753.574 217.362 753.088 216.876 752.494 216.876C751.864 216.876 751.378 217.362 751.378 217.992C751.378 218.622 751.864 219.108 752.494 219.108C753.088 219.108 753.574 218.622 753.574 217.992Z" fill="black"/>
</mask>
<g mask="url(#mask0_7_16)">
<g opacity="0.3">
<path d="M1107.32 657.354C1076.43 747.173 1047.09 822.608 1014.86 883.316C982.622 944.023 947.514 989.957 905.105 1020.81C820.343 1082.49 706.142 1084.13 526.633 1022.33C436.767 991.399 323.601 973.727 206.393 959.001C174.448 954.988 142.204 951.193 110.047 947.409C24.1819 937.304 -61.0647 927.271 -138.337 913.341C-244.569 894.188 -335.559 867.693 -392.272 823.629C-420.609 801.612 -440.361 775.23 -449.204 743.202C-458.048 711.169 -456.001 673.407 -440.591 628.596C-378.874 449.134 -209.442 247.595 -10.5194 106.366C188.432 -34.8837 416.614 -115.623 595.827 -53.9322C775.337 7.86047 934.07 96.0352 1032.49 213.578C1130.86 331.075 1169.01 477.954 1107.32 657.354Z" stroke="white" stroke-width="1.5"/>
<path d="M1216.02 582.25C1186.35 668.514 1158.18 740.962 1127.22 799.265C1096.26 857.568 1062.55 901.68 1021.82 931.313C940.425 990.539 830.755 992.114 658.352 932.768C572.039 903.057 463.349 886.084 350.78 871.941C320.097 868.086 289.127 864.441 258.241 860.806C175.776 851.101 93.9057 841.466 19.6938 828.087C-82.3347 809.693 -169.716 784.247 -224.179 741.931C-251.39 720.789 -270.357 695.456 -278.848 664.703C-287.34 633.945 -285.375 597.684 -270.576 554.649C-211.304 382.298 -48.5822 188.739 142.465 53.1009C333.54 -82.5575 552.682 -160.094 724.789 -100.85C897.193 -41.5033 1049.64 43.1797 1144.16 156.065C1238.63 268.904 1275.27 409.96 1216.02 582.25Z" stroke="white" stroke-width="1.5"/>
<path d="M1376.28 530.077C1346.62 616.341 1318.44 688.789 1287.48 747.093C1256.53 805.395 1222.81 849.507 1182.08 879.14C1100.69 938.366 991.02 939.941 818.617 880.595C732.304 850.884 623.614 833.911 511.044 819.768C480.362 815.913 449.392 812.268 418.505 808.633C336.04 798.928 254.17 789.293 179.958 775.914C77.93 757.52 -9.45184 732.074 -63.9146 689.758C-91.1258 668.616 -110.092 643.283 -118.583 612.53C-127.075 581.772 -125.111 545.511 -110.311 502.477C-51.0397 330.125 111.682 136.566 302.729 0.928C493.805 -134.73 712.946 -212.267 885.054 -153.023C1057.46 -93.6762 1209.9 -8.99313 1304.42 103.893C1398.9 216.732 1435.53 357.787 1376.28 530.077Z" stroke="white" stroke-width="1.5"/>
<path d="M1536.55 477.905C1506.88 564.168 1478.71 636.617 1447.75 694.92C1416.79 753.222 1383.07 797.334 1342.35 826.967C1260.95 886.193 1151.28 887.768 978.882 828.422C892.569 798.711 783.879 781.738 671.31 767.595C640.627 763.74 609.657 760.095 578.77 756.46C496.306 746.755 414.436 737.12 340.224 723.741C238.195 705.347 150.813 679.901 96.3505 637.585C69.1393 616.443 50.1727 591.11 41.6819 560.357C33.1897 529.599 35.1543 493.338 49.9537 450.304C109.225 277.952 271.948 84.3932 462.995 -51.2449C654.07 -186.903 873.211 -264.44 1045.32 -205.196C1217.72 -145.849 1370.17 -61.166 1464.69 51.7197C1559.16 164.559 1595.8 305.615 1536.55 477.905Z" stroke="white" stroke-width="1.5"/>
<path d="M1696.81 425.732C1667.15 511.996 1638.97 584.444 1608.01 642.747C1577.06 701.049 1543.34 745.161 1502.61 774.795C1421.22 834.021 1311.55 835.596 1139.15 776.249C1052.83 746.538 944.144 729.565 831.574 715.422C800.892 711.567 769.922 707.922 739.035 704.287C656.57 694.583 574.7 684.947 500.488 671.568C398.46 653.174 311.078 627.728 256.615 585.412C229.404 564.27 210.437 538.937 201.947 508.184C193.454 477.426 195.419 441.165 210.218 398.131C269.49 225.779 432.212 32.2204 623.259 -103.418C814.335 -239.076 1033.48 -316.613 1205.58 -257.368C1377.99 -198.022 1530.43 -113.339 1624.95 -0.453193C1719.43 112.386 1756.06 253.442 1696.81 425.732Z" stroke="white" stroke-width="1.5"/>
<path d="M1857.08 373.559C1827.41 459.823 1799.24 532.271 1768.28 590.574C1737.32 648.877 1703.6 692.988 1662.88 722.622C1581.48 781.848 1471.81 783.423 1299.41 724.077C1213.1 694.365 1104.41 677.392 991.839 663.249C961.157 659.394 930.187 655.749 899.3 652.115C816.835 642.41 734.965 632.775 660.753 619.395C558.725 601.001 471.343 575.555 416.88 533.24C389.669 512.097 370.702 486.765 362.212 456.011C353.719 425.253 355.684 388.992 370.484 345.958C429.755 173.606 592.477 -19.9525 783.524 -155.591C974.6 -291.249 1193.74 -368.786 1365.85 -309.541C1538.25 -250.195 1690.7 -165.512 1785.22 -52.626C1879.69 60.2131 1916.33 201.269 1857.08 373.559Z" stroke="white" stroke-width="1.5"/>
<path d="M2017.34 321.386C1987.68 407.65 1959.5 480.098 1928.54 538.401C1897.59 596.704 1863.87 640.816 1823.14 670.449C1741.75 729.675 1632.08 731.25 1459.68 671.904C1373.36 642.192 1264.67 625.22 1152.1 611.076C1121.42 607.221 1090.45 603.577 1059.56 599.942C977.1 590.237 895.23 580.602 821.018 567.223C718.99 548.829 631.608 523.382 577.145 481.067C549.934 459.925 530.967 434.592 522.476 403.838C513.984 373.081 515.949 336.819 530.748 293.785C590.02 121.434 752.742 -72.1253 943.789 -207.763C1134.86 -343.422 1354.01 -420.959 1526.11 -361.714C1698.52 -302.368 1850.96 -217.685 1945.48 -104.799C2039.96 8.0402 2076.59 149.096 2017.34 321.386Z" stroke="white" stroke-width="1.5"/>
<path d="M2177.61 269.213C2147.94 355.477 2119.77 427.925 2088.81 486.228C2057.85 544.531 2024.13 588.643 1983.41 618.276C1902.01 677.502 1792.34 679.077 1619.94 619.731C1533.63 590.019 1424.94 573.047 1312.37 558.903C1281.69 555.048 1250.72 551.404 1219.83 547.769C1137.36 538.064 1055.49 528.429 981.283 515.05C879.254 496.656 791.873 471.209 737.41 428.894C710.199 407.752 691.232 382.419 682.741 351.665C674.249 320.907 676.214 284.646 691.013 241.612C750.285 69.2604 913.007 -124.298 1104.05 -259.937C1295.13 -395.595 1514.27 -473.132 1686.38 -413.887C1858.78 -354.541 2011.23 -269.858 2105.74 -156.972C2200.22 -44.1329 2236.86 96.923 2177.61 269.213Z" stroke="white" stroke-width="1.5"/>
<path d="M2337.87 217.04C2308.21 303.304 2280.03 375.752 2249.07 434.055C2218.12 492.358 2184.4 536.47 2143.67 566.103C2062.28 625.329 1952.61 626.904 1780.21 567.558C1693.89 537.846 1585.2 520.874 1472.63 506.73C1441.95 502.875 1410.98 499.231 1380.09 495.596C1297.63 485.891 1215.76 476.256 1141.55 462.877C1039.52 444.483 952.138 419.036 897.675 376.721C870.464 355.579 851.497 330.246 843.006 299.493C834.514 268.735 836.479 232.473 851.278 189.439C910.55 17.0876 1073.27 -176.471 1264.32 -312.109C1455.39 -447.768 1674.54 -525.304 1846.64 -466.06C2019.05 -406.714 2171.49 -322.03 2266.01 -209.145C2360.49 -96.3057 2397.12 44.7501 2337.87 217.04Z" stroke="white" stroke-width="1.5"/>
</g>
</g>
<defs>
<clipPath id="clip0_7_16">
<rect width="19.1908" height="16" fill="white" transform="translate(1686.11 145)"/>
</clipPath>
</defs>
</svg>
