<svg width="218" height="79" viewBox="0 0 218 79" fill="none" xmlns="http://www.w3.org/2000/svg">
<g clip-path="url(#clip0_7_168)">
<path d="M114.51 48.8008C113.76 50.9331 112.371 52.7796 110.534 54.0867C108.698 55.3938 106.503 56.0974 104.253 56.1009C101.329 56.0558 98.5373 54.8646 96.474 52.7813C94.4107 50.6979 93.2384 47.8871 93.207 44.9478C93.2053 42.0124 94.3617 39.1961 96.4227 37.1163C98.4837 35.0365 101.281 33.8628 104.202 33.8526C105.702 33.8374 107.189 34.136 108.569 34.7294C109.949 35.3228 111.19 36.1981 112.215 37.2997C113.831 39.02 114.888 41.3525 114.888 43.1759C114.907 43.7584 114.789 44.3372 114.544 44.8655C114.299 45.3938 113.934 45.8568 113.478 46.2171C112.523 46.9258 111.863 47.0805 109.446 47.0805H98.4511C98.8761 48.3075 99.6744 49.3691 100.733 50.1149C101.791 50.8608 103.056 51.2531 104.349 51.2363C105.306 51.2515 106.252 51.0387 107.112 50.6154C107.971 50.192 108.718 49.5702 109.292 48.8008H114.51ZM110.023 42.6669C109.605 41.491 108.83 40.477 107.807 39.7682C106.784 39.0594 105.566 38.6917 104.323 38.7172C103.075 38.7026 101.852 39.0736 100.82 39.7799C99.7886 40.4863 98.9974 41.494 98.5537 42.6669H110.023Z" fill="black"/>
<path d="M119.049 55.7982V21.9907H123.992V55.7982H119.049ZM131.005 55.7982L126.159 48.7107C124.55 46.2816 124.235 45.6695 124.235 44.4066C124.235 43.3435 124.235 43.3435 126.3 40.0446L130.383 34.1684H136.384L128.922 44.3035L137.14 55.8111L131.005 55.7982Z" fill="black"/>
<path d="M152.635 39.6773C151.009 38.682 149.148 38.1394 147.244 38.1051C145.224 38.1051 143.962 38.9686 143.962 40.3861C143.963 40.7059 144.067 41.0168 144.257 41.2731C144.447 41.5294 144.715 41.7176 145.019 41.81C146.117 42.2514 147.246 42.6069 148.398 42.8731C150.263 43.4272 151.328 43.9363 152.084 44.6966C152.672 45.2658 153.137 45.9511 153.449 46.7095C153.762 47.468 153.914 48.2831 153.898 49.1037C153.898 53.3626 150.622 56.2492 145.827 56.2492C143.629 56.2262 141.454 55.7891 139.416 54.9606V49.8898C141.981 51.1075 144.212 51.7132 145.923 51.7132C147.943 51.7132 149.129 50.9078 149.129 49.5354C149.129 48.2467 148.571 47.8666 145.494 47.0032C141.109 45.7854 139.192 43.8589 139.192 40.56C139.192 36.5523 142.468 33.6658 147.007 33.6658C148.934 33.6653 150.846 34.0078 152.655 34.6774L152.635 39.6773Z" fill="black"/>
<path d="M157.886 47.0289C157.886 42.6668 158.238 40.9465 159.597 38.8202C160.61 37.293 161.981 36.0405 163.59 35.1739C165.2 34.3073 166.997 33.8535 168.823 33.8525C171.765 33.8659 174.584 35.0428 176.671 37.1287C178.757 39.2146 179.942 42.0418 179.971 44.9993C179.971 51.0301 174.977 56.1009 169.13 56.1009C166.831 56.0848 164.605 55.2802 162.822 53.82V67.9113H157.886V47.0289ZM162.675 44.9477C162.675 48.601 165.239 51.2363 168.778 51.2363C169.6 51.2545 170.417 51.1061 171.181 50.7997C171.944 50.4933 172.639 50.0353 173.222 49.4531C173.806 48.8708 174.266 48.1763 174.577 47.4111C174.887 46.6458 175.041 45.8255 175.028 44.9993C175.033 44.1731 174.874 43.3542 174.561 42.5901C174.249 41.826 173.788 41.1318 173.207 40.5476C172.626 39.9634 171.935 39.5009 171.175 39.1867C170.414 38.8725 169.6 38.7129 168.778 38.7171C167.97 38.7222 167.17 38.8875 166.426 39.2036C165.681 39.5197 165.006 39.9804 164.439 40.5592C163.872 41.138 163.425 41.8236 163.122 42.5767C162.819 43.3298 162.667 44.1355 162.675 44.9477Z" fill="black"/>
<path d="M204.024 48.8008C203.274 50.9331 201.885 52.7795 200.048 54.0866C198.212 55.3937 196.018 56.0973 193.767 56.1009C190.843 56.0557 188.051 54.8645 185.988 52.7812C183.925 50.6979 182.753 47.887 182.721 44.9477C182.719 42.0124 183.876 39.1961 185.937 37.1163C187.998 35.0364 190.795 33.8628 193.716 33.8526C195.216 33.8381 196.703 34.137 198.083 34.7304C199.462 35.3238 200.704 36.1987 201.729 37.2996C203.345 39.02 204.403 41.3524 204.403 43.1758C204.42 43.7582 204.301 44.3364 204.056 44.8645C203.811 45.3925 203.447 45.8557 202.992 46.217C202.031 46.9258 201.377 47.0804 198.96 47.0804H187.959C188.382 48.3085 189.18 49.3712 190.239 50.1174C191.298 50.8635 192.564 51.255 193.857 51.2363C194.813 51.2514 195.76 51.0386 196.619 50.6153C197.478 50.192 198.226 49.5702 198.8 48.8008H204.024ZM199.537 42.6668C199.119 41.491 198.344 40.4769 197.321 39.7681C196.298 39.0594 195.08 38.6917 193.838 38.7172C192.589 38.7026 191.366 39.0735 190.335 39.7799C189.303 40.4862 188.512 41.494 188.068 42.6668H199.537Z" fill="black"/>
<path d="M208.313 55.7981V43.0728C208.313 37.1966 211.339 33.9492 216.782 33.9492C217.186 33.9455 217.591 33.9627 217.994 34.0008V38.8396C214.262 39.0909 213.256 40.2572 213.256 44.413V55.8174L208.313 55.7981Z" fill="black"/>
<path d="M176.855 78.7874C173.708 78.7874 172.477 78.4588 170.919 77.2604C169.852 76.4348 169.016 75.3453 168.493 74.0982C167.969 72.851 167.777 71.4889 167.934 70.1446C168.091 68.8004 168.592 67.52 169.388 66.4285C170.184 65.3369 171.248 64.4714 172.477 63.9165C173.759 63.3689 174.579 63.2722 177.144 63.2722H178.593V66.7258C176.169 66.7258 175.336 66.7644 174.432 67.0222C173.557 67.2773 172.79 67.8139 172.248 68.5495C171.706 69.2851 171.419 70.179 171.432 71.0943C171.427 71.86 171.638 72.6113 172.041 73.2613C172.444 73.9113 173.022 74.4333 173.708 74.7669C174.721 75.2759 175.297 75.3468 177.432 75.3468H178.593V78.7874H176.855Z" fill="black"/>
<path d="M196.357 71.2103C196.357 75.4692 192.703 78.9937 188.292 78.9937C187.249 78.989 186.217 78.7779 185.255 78.3724C184.293 77.967 183.42 77.375 182.686 76.6304C181.952 75.8858 181.371 75.0031 180.976 74.0328C180.581 73.0625 180.38 72.0235 180.385 70.9751C180.389 69.9268 180.599 68.8896 181.003 67.9228C181.406 66.956 181.995 66.0786 182.736 65.3406C183.477 64.6026 184.355 64.0185 185.321 63.6216C186.286 63.2247 187.32 63.0228 188.363 63.0274C189.424 63.0324 190.473 63.2486 191.45 63.6634C192.428 64.0783 193.314 64.6836 194.057 65.4444C194.8 66.2052 195.386 67.1064 195.781 68.096C196.176 69.0857 196.372 70.1441 196.357 71.2103ZM183.875 71.0299C183.874 71.6174 183.989 72.1992 184.212 72.7421C184.436 73.285 184.763 73.7783 185.177 74.1936C185.59 74.609 186.081 74.9384 186.621 75.1628C187.161 75.3872 187.74 75.5023 188.324 75.5015C189.215 75.5091 190.088 75.2501 190.832 74.7575C191.576 74.2648 192.157 73.5609 192.501 72.7352C192.846 71.9095 192.938 70.9994 192.766 70.1209C192.594 69.2424 192.166 68.4353 191.536 67.8022C190.906 67.1691 190.103 66.7387 189.229 66.5659C188.355 66.3932 187.449 66.4857 186.628 66.8319C185.806 67.178 185.106 67.7621 184.615 68.5097C184.125 69.2573 183.868 70.1346 183.875 71.0299Z" fill="black"/>
<path d="M214.448 78.7874V69.3545C214.448 67.5053 213.762 66.5195 212.461 66.5195C211.16 66.5195 210.358 67.5053 210.358 69.2837V78.7874H206.813V69.3545C206.813 67.4216 206.172 66.5195 204.755 66.5195C203.338 66.5195 202.729 67.428 202.729 69.1741V78.7874H199.178V69.5414C199.178 67.428 199.364 66.5904 200.05 65.5015C200.544 64.7239 201.23 64.0877 202.041 63.6543C202.852 63.2209 203.76 63.0049 204.678 63.0273C206.106 62.9957 207.489 63.533 208.525 64.5221C209.034 64.0268 209.636 63.6392 210.297 63.3824C210.958 63.1256 211.663 63.0049 212.371 63.0273C213.277 63.0097 214.174 63.2162 214.982 63.6285C215.79 64.0408 216.486 64.6464 217.006 65.392C217.692 66.4487 217.942 67.4667 217.942 69.4641V78.7874H214.448Z" fill="black"/>
<path d="M163.136 72.763C163.464 73.1043 163.72 73.5083 163.89 73.951C164.06 74.3937 164.139 74.8661 164.123 75.3403C164.128 75.7911 164.04 76.2381 163.866 76.6536C163.691 77.0691 163.434 77.4444 163.111 77.7565C162.783 78.09 162.391 78.3524 161.959 78.5276C161.527 78.7027 161.063 78.7867 160.598 78.7744C160.141 78.7837 159.687 78.6981 159.264 78.5229C158.842 78.3477 158.46 78.0868 158.142 77.7565C157.809 77.4284 157.546 77.0348 157.371 76.6002C157.196 76.1657 157.111 75.6995 157.123 75.2307C157.137 74.5369 157.353 73.8626 157.744 73.2907C158.135 72.7187 158.684 72.2743 159.323 72.012C159.962 71.7497 160.664 71.681 161.341 71.8144C162.019 71.9479 162.643 72.2776 163.136 72.763Z" fill="black"/>
<path d="M39.1187 78.6392C31.3843 78.6392 23.8235 76.3341 17.3926 72.0154C10.9616 67.6967 5.94935 61.5583 2.98951 54.3765C0.0296692 47.1948 -0.744801 39.2922 0.764114 31.668C2.27303 24.0439 5.99756 17.0407 11.4666 11.544C16.9357 6.04728 23.9037 2.30398 31.4895 0.787449C39.0753 -0.729084 46.9383 0.0492569 54.084 3.02404C61.2297 5.99883 67.3372 11.0365 71.6342 17.4999C75.9312 23.9633 78.2247 31.5623 78.2247 39.3358C78.2095 49.755 74.0845 59.743 66.754 67.1105C59.4235 74.4781 49.4856 78.6239 39.1187 78.6392Z" fill="white"/>
<path d="M76.3079 39.3163C76.3079 46.7075 74.1272 53.9327 70.0415 60.0783C65.9558 66.2238 60.1487 71.0137 53.3544 73.8422C46.5601 76.6707 39.0839 77.4107 31.8712 75.9688C24.6584 74.5268 18.033 70.9677 12.8329 65.7413C7.63284 60.5149 4.09156 53.8561 2.65686 46.607C1.22215 39.3578 1.9585 31.8438 4.77277 25.0153C7.58705 18.1867 12.3529 12.3502 18.4675 8.24388C24.5822 4.13756 31.7711 1.9458 39.1251 1.9458C48.9866 1.9458 58.4442 5.88303 65.4173 12.8914C72.3905 19.8997 76.3079 29.405 76.3079 39.3163Z" fill="black"/>
<path d="M22.6815 17.5771V37.8926C25.2416 35.7958 28.4376 34.641 31.74 34.6194C33.7994 34.6236 35.8351 35.0626 37.7149 35.908C39.5758 36.7283 41.2608 37.9033 42.6769 39.368C44.0873 40.8434 45.2267 42.5579 46.0426 44.4324C46.8979 46.3671 47.3349 48.4621 47.3247 50.5792C47.3321 52.7105 46.8954 54.8197 46.0426 56.7711C44.3741 60.5999 41.3055 63.6378 37.4713 65.2568C35.5125 66.1093 33.4002 66.5479 31.2656 66.5454C28.6145 66.5485 26.0049 65.884 23.6752 64.6125C21.3624 63.3998 19.4013 61.6063 17.9824 59.4064C17.5253 58.687 17.1245 57.933 16.7836 57.1512C16.4496 56.3646 16.1941 55.5466 16.0207 54.7093C15.8103 53.7028 15.6753 52.682 15.6168 51.6552C15.5442 50.5169 15.5078 49.1681 15.5078 47.6089V17.5771H22.6815ZM27.682 42.261C26.6381 42.6856 25.6898 43.3166 24.8933 44.1167C24.0925 44.9212 23.4526 45.8726 23.0084 46.9194C22.5467 47.9999 22.3132 49.1649 22.3225 50.3408C22.3059 51.584 22.5234 52.8192 22.9636 53.9812C23.384 55.0753 24.011 56.0773 24.8099 56.9322C25.595 57.7732 26.5444 58.4422 27.5986 58.8974C28.6987 59.3685 29.884 59.6055 31.0797 59.5932C32.2978 59.6004 33.5051 59.3638 34.6313 58.8974C35.7065 58.4602 36.6881 57.8193 37.5226 57.0095C38.354 56.1927 39.0087 55.2122 39.4458 54.1294C39.9055 52.9963 40.1386 51.7834 40.1318 50.5599C40.1398 49.3487 39.9065 48.1482 39.4458 47.029C39.0052 45.9707 38.3653 45.008 37.5611 44.194C36.7449 43.3751 35.7723 42.7307 34.7018 42.2997C33.5756 41.8332 32.3683 41.5966 31.1502 41.6038C29.9663 41.5844 28.79 41.7989 27.6884 42.2353L27.682 42.261Z" fill="#FFCC05"/>
<path d="M60.0246 25.309C60.4424 25.72 60.7719 26.2129 60.9924 26.757C61.213 27.3012 61.32 27.8851 61.3068 28.4726C61.3128 29.0595 61.1967 29.6413 60.966 30.1805C60.7352 30.7198 60.395 31.2046 59.9669 31.604C59.5537 32.0199 59.0616 32.3482 58.5198 32.5696C57.978 32.7909 57.3976 32.9008 56.8129 32.8926C56.239 32.9046 55.6689 32.7962 55.1391 32.5743C54.6093 32.3524 54.1312 32.022 53.7356 31.604C53.323 31.1958 52.9966 30.708 52.7763 30.1699C52.5559 29.6318 52.4462 29.0544 52.4535 28.4726C52.475 27.6008 52.7475 26.7541 53.2379 26.0348C53.7284 25.3155 54.4158 24.7546 55.2169 24.4198C56.018 24.0851 56.8985 23.9909 57.7518 24.1487C58.6051 24.3065 59.3945 24.7095 60.0246 25.309ZM53.3317 66.1202V35.0253H60.5054V66.1202H53.3317Z" fill="#FFCC05"/>
<path fill-rule="evenodd" clip-rule="evenodd" d="M72.2177 28.2084C71.5883 28.4446 70.9032 28.4872 70.2497 28.3308C69.9248 28.2657 69.6296 28.097 69.4078 27.8497C69.1861 27.6024 69.0496 27.2898 69.0187 26.9584C68.9312 26.1815 68.805 25.4095 68.6405 24.6453C68.2792 23.1734 67.625 21.7904 66.7173 20.5796C64.8791 18.0304 62.1148 16.3125 59.0243 15.7988C58.6679 15.7724 58.3326 15.619 58.0787 15.3662C57.8249 15.1135 57.6691 14.7779 57.6395 14.4199C57.5408 13.7458 57.6435 13.0574 57.9345 12.4419L58.332 12.0746C58.6128 11.9461 58.922 11.8928 59.2294 11.92C60.3224 12.0716 61.3966 12.3372 62.4348 12.7125C64.4952 13.456 66.3763 14.6285 67.9546 16.1532C69.1564 17.3116 70.1688 18.6532 70.9548 20.1286C71.9351 21.9552 72.5452 23.959 72.7499 26.0241C72.9042 26.6332 72.8453 27.277 72.5832 27.8476L72.2177 28.2084Z" fill="#FFCC05"/>
<path fill-rule="evenodd" clip-rule="evenodd" d="M64.0569 20.979C65.6492 22.6851 66.6324 24.8744 66.852 27.2031C66.8735 27.3811 66.8578 27.5617 66.8059 27.7332C66.7539 27.9048 66.667 28.0636 66.5506 28.1994C66.4341 28.3352 66.2907 28.4451 66.1296 28.5221C65.9684 28.5991 65.7931 28.6414 65.6148 28.6464C65.1866 28.6727 64.7568 28.6533 64.3326 28.5884C64.0155 28.5264 63.724 28.3706 63.4956 28.141C63.2672 27.9114 63.1122 27.6185 63.0505 27.2998C62.9276 26.7537 62.7713 26.2157 62.5825 25.689C62.2142 24.7662 61.6372 23.9423 60.8973 23.2825C60.1573 22.6227 59.2747 22.1451 58.3193 21.8875C58.0488 21.8382 57.7929 21.7279 57.5708 21.565C57.3488 21.402 57.1663 21.1907 57.0371 20.9468C56.9308 20.7003 56.872 20.4357 56.864 20.1672C56.8608 19.8639 56.8736 19.5606 56.9024 19.2586C56.9035 19.0542 56.9512 18.8527 57.0417 18.6695C57.1323 18.4864 57.2634 18.3266 57.4249 18.2022C57.5864 18.0778 57.774 17.9922 57.9735 17.952C58.1729 17.9118 58.379 17.9179 58.5757 17.97C60.3107 18.3223 61.9265 19.1166 63.2684 20.2767C63.5889 20.528 63.8902 20.7986 64.0569 20.979Z" fill="#FFCC05"/>
</g>
<defs>
<clipPath id="clip0_7_168">
<rect width="218" height="79" fill="white"/>
</clipPath>
</defs>
</svg>
