<svg width="180" height="64" viewBox="0 0 180 64" fill="none" xmlns="http://www.w3.org/2000/svg">
<g clip-path="url(#clip0_7_385)">
<path d="M94.5407 39.5219C93.9211 41.2487 92.7745 42.7441 91.2583 43.8027C89.7422 44.8613 87.9309 45.4311 86.0731 45.434C83.6595 45.3987 81.3553 44.4352 79.6519 42.7488C77.9485 41.0624 76.9806 38.7866 76.9546 36.4066C76.9518 34.0285 77.9057 31.7464 79.6072 30.0609C81.3088 28.3754 83.6189 27.4242 86.0308 27.4159C87.2693 27.4051 88.4966 27.6476 89.6352 28.1281C90.7738 28.6086 91.799 29.3167 92.6461 30.2075C93.9798 31.6008 94.853 33.4898 94.853 34.9665C94.8683 35.4383 94.7709 35.907 94.5686 36.3348C94.3664 36.7626 94.065 37.1376 93.6887 37.4294C92.9001 38.0034 92.355 38.1286 90.3598 38.1286H81.2836C81.6344 39.1224 82.2934 39.9821 83.1672 40.5862C84.0411 41.1902 85.0855 41.5079 86.1525 41.4943C86.9423 41.5066 87.7238 41.3343 88.433 40.9914C89.1422 40.6486 89.759 40.145 90.2328 39.5219H94.5407ZM90.8362 34.5595C90.4928 33.6058 89.8534 32.783 89.0089 32.2078C88.1643 31.6327 87.1575 31.3345 86.1313 31.3555C85.1 31.3433 84.0898 31.6443 83.2377 32.2174C82.3857 32.7905 81.733 33.6082 81.3683 34.5595H90.8362Z" fill="#FFCC05"/>
<path d="M98.2771 45.1888V17.8094H102.357V45.1888H98.2771ZM108.147 45.1888L104.146 39.4489C102.818 37.4765 102.559 36.9859 102.559 35.958C102.559 35.097 102.558 35.097 104.263 32.4305L107.634 27.6664H112.587L106.427 35.8745L113.212 45.194L108.147 45.1888Z" fill="#FFCC05"/>
<path d="M126.003 32.133C124.658 31.3284 123.12 30.8908 121.547 30.865C119.885 30.865 118.843 31.559 118.843 32.7122C118.844 32.9708 118.929 33.2222 119.086 33.4291C119.244 33.6359 119.464 33.7871 119.716 33.8602C120.621 34.2197 121.554 34.5076 122.505 34.7212C124.045 35.1752 124.924 35.5822 125.548 36.1979C126.034 36.6595 126.419 37.2154 126.676 37.8306C126.934 38.4457 127.06 39.1069 127.046 39.7723C127.046 43.2163 124.336 45.5592 120.383 45.5592C118.568 45.5403 116.773 45.1863 115.091 44.5156V40.4089C117.207 41.3952 119.044 41.8909 120.462 41.8909C122.129 41.8909 123.108 41.2334 123.108 40.1219C123.108 39.0783 122.653 38.7704 120.113 38.0712C116.493 37.085 114.911 35.5248 114.911 32.8531C114.911 29.6127 117.615 27.2698 121.362 27.2698C122.953 27.2714 124.532 27.5505 126.024 28.0942L126.003 32.133Z" fill="#FFCC05"/>
<path d="M130.332 38.0817C130.332 34.5542 130.623 33.1558 131.751 31.4338C132.586 30.197 133.718 29.1826 135.047 28.4808C136.375 27.779 137.859 27.4114 139.366 27.4106C141.795 27.4215 144.123 28.3746 145.845 30.0639C147.567 31.7531 148.546 34.0429 148.569 36.438C148.569 41.3221 144.447 45.4288 139.615 45.4288C137.718 45.4146 135.883 44.763 134.413 43.5815V54.9935H130.332V38.0817ZM134.291 36.4015C134.291 39.3549 136.408 41.4891 139.324 41.4891C140.003 41.5046 140.678 41.3849 141.309 41.137C141.94 40.8892 142.514 40.5184 142.996 40.0468C143.478 39.5752 143.859 39.0125 144.116 38.3924C144.372 37.7723 144.499 37.1076 144.489 36.438C144.492 35.7686 144.36 35.1054 144.101 34.4865C143.843 33.8677 143.462 33.3055 142.982 32.8324C142.502 32.3594 141.931 31.9848 141.303 31.7305C140.675 31.4761 140.003 31.3469 139.324 31.3503C138.656 31.3551 137.996 31.4898 137.381 31.7468C136.767 32.0037 136.21 32.3778 135.742 32.8476C135.274 33.3174 134.905 33.8737 134.656 34.4844C134.407 35.0952 134.283 35.7484 134.291 36.4066V36.4015Z" fill="#FFCC05"/>
<path d="M168.426 39.5219C167.806 41.2488 166.66 42.7441 165.143 43.8027C163.627 44.8613 161.816 45.4311 159.958 45.434C157.545 45.3974 155.243 44.4333 153.54 42.747C151.838 41.0608 150.871 38.7857 150.845 36.4067C150.842 34.0294 151.795 31.7481 153.496 30.0628C155.196 28.3774 157.505 27.4256 159.916 27.4159C161.155 27.4047 162.383 27.6471 163.523 28.1276C164.662 28.6081 165.689 29.3163 166.537 30.2076C167.87 31.6008 168.743 33.4898 168.743 34.9665C168.757 35.4381 168.659 35.9064 168.457 36.334C168.255 36.7617 167.954 37.1368 167.579 37.4294C166.785 38.0034 166.245 38.1287 164.25 38.1287H155.174C155.523 39.1233 156.182 39.9839 157.056 40.5882C157.93 41.1924 158.975 41.5095 160.043 41.4943C160.833 41.5062 161.614 41.3337 162.323 40.9909C163.032 40.6481 163.649 40.1447 164.123 39.5219H168.426ZM164.721 34.5595C164.378 33.6058 163.738 32.783 162.894 32.2079C162.049 31.6327 161.043 31.3345 160.016 31.3556C158.985 31.3434 157.975 31.6443 157.123 32.2174C156.271 32.7906 155.618 33.6082 155.253 34.5595H164.721Z" fill="#FFCC05"/>
<path d="M171.966 45.1888V34.8882C171.966 30.1241 174.464 27.4994 178.957 27.4994C179.169 27.4994 179.54 27.4994 179.958 27.5359V31.4391C176.878 31.6426 176.047 32.587 176.047 35.9527V45.1888H171.966Z" fill="#FFCC05"/>
<path d="M146.034 63.8748C143.436 63.8748 142.42 63.6348 141.129 62.6694C140.243 62.006 139.547 61.1275 139.109 60.1195C138.67 59.1116 138.505 58.0088 138.628 56.9189C138.751 55.829 139.159 54.7893 139.811 53.9012C140.464 53.0132 141.339 52.3072 142.351 51.8523C143.409 51.4036 144.076 51.3305 146.198 51.2992H147.395V54.0961C145.394 54.0961 144.706 54.1378 143.96 54.3518C143.24 54.5637 142.61 55.0024 142.166 55.6008C141.723 56.1992 141.49 56.9243 141.504 57.6653C141.503 58.2856 141.68 58.8936 142.015 59.4183C142.351 59.9431 142.831 60.363 143.399 60.6292C144.24 61.0362 144.717 61.0936 146.479 61.0831H147.463V63.8852L146.034 63.8748Z" fill="white"/>
<path d="M162.096 57.6548C162.096 61.104 159.117 63.9791 155.476 64C153.737 64 152.069 63.3189 150.839 62.1064C149.61 60.894 148.919 59.2495 148.919 57.5348C148.919 55.8201 149.61 54.1756 150.839 52.9632C152.069 51.7507 153.737 51.0696 155.476 51.0696C156.35 51.0702 157.215 51.2414 158.022 51.5733C158.829 51.9052 159.561 52.3912 160.176 53.0033C160.792 53.6154 161.278 54.3416 161.608 55.1399C161.937 55.9382 162.103 56.7929 162.096 57.6548ZM151.792 57.5713C151.795 58.0478 151.893 58.519 152.081 58.958C152.269 59.397 152.543 59.7952 152.887 60.1296C153.231 60.4641 153.639 60.7283 154.087 60.9072C154.534 61.086 155.014 61.1759 155.497 61.1718C156.232 61.1717 156.95 60.9561 157.561 60.5524C158.171 60.1487 158.646 59.5751 158.924 58.9046C159.203 58.2341 159.273 57.4971 159.126 56.7871C158.979 56.0772 158.621 55.4265 158.097 54.9178C157.574 54.4091 156.909 54.0654 156.187 53.9304C155.465 53.7954 154.718 53.8753 154.042 54.1597C153.366 54.4442 152.791 54.9205 152.391 55.528C151.99 56.1355 151.782 56.8468 151.792 57.5713Z" fill="white"/>
<path d="M177.068 63.6921L177.026 56.0684C177.026 54.5656 176.444 53.7725 175.369 53.7777C174.295 53.7829 173.639 54.5865 173.649 56.0267L173.692 63.713H170.765L170.723 56.0841C170.723 54.5187 170.193 53.7881 169.003 53.7934C167.812 53.7986 167.336 54.5396 167.346 55.9537L167.394 63.7286H164.462L164.42 56.2459C164.42 54.5396 164.552 53.8612 165.118 52.9741C165.522 52.3413 166.086 51.8224 166.753 51.4676C167.421 51.1128 168.17 50.9344 168.929 50.9495C170.104 50.9146 171.246 51.3405 172.104 52.134C172.524 51.7312 173.021 51.4152 173.566 51.2047C174.111 50.9941 174.694 50.8931 175.279 50.9078C176.027 50.8899 176.767 51.0532 177.435 51.3835C178.103 51.7138 178.679 52.2009 179.111 52.8019C179.683 53.6525 179.9 54.4769 179.91 56.0946L179.952 63.6347L177.068 63.6921Z" fill="white"/>
<path d="M134.672 58.9541C134.942 59.2305 135.154 59.5577 135.294 59.9162C135.434 60.2747 135.5 60.6573 135.487 61.0413C135.49 61.4065 135.418 61.7684 135.274 62.105C135.13 62.4415 134.918 62.7454 134.651 62.9981C134.38 63.268 134.057 63.4804 133.7 63.6222C133.343 63.764 132.961 63.8322 132.576 63.8226C132.199 63.8301 131.824 63.7607 131.475 63.6188C131.127 63.477 130.811 63.2657 130.549 62.9981C130.274 62.7332 130.058 62.4153 129.913 62.0643C129.768 61.7133 129.698 61.3367 129.708 60.9578C129.725 60.2132 130.033 59.5038 130.567 58.9771C131.101 58.4504 131.821 58.1469 132.576 58.1296C132.964 58.1168 133.351 58.1834 133.712 58.3253C134.072 58.4672 134.399 58.6813 134.672 58.9541Z" fill="white"/>
<path d="M32.2934 63.687C25.9084 63.687 19.6669 61.8201 14.358 58.3226C9.04918 54.825 4.91139 49.8538 2.46799 44.0375C0.0245844 38.2213 -0.61469 31.8212 0.630946 25.6467C1.87658 19.4722 4.95119 13.8006 9.46601 9.34902C13.9808 4.89746 19.7331 1.86593 25.9953 0.63775C32.2575 -0.590434 38.7485 0.0399153 44.6474 2.44908C50.5463 4.85825 55.5882 8.93803 59.1354 14.1725C62.6827 19.407 64.5761 25.5611 64.5761 31.8565C64.5635 40.2947 61.1582 48.3837 55.1068 54.3503C49.0553 60.317 40.8514 63.6745 32.2934 63.687Z" fill="white"/>
<path d="M62.67 36.4534C65.2342 19.9309 53.7284 4.48708 36.9711 1.95877C20.2137 -0.569536 4.55046 10.775 1.98622 27.2976C-0.578015 43.8202 10.9278 59.264 27.6851 61.7923C44.4425 64.3206 60.1057 52.976 62.67 36.4534Z" fill="#FFCC05"/>
<path d="M18.724 14.2194V30.6668C20.4352 29.2855 22.5033 28.4024 24.6957 28.1166C26.8881 27.8309 29.1179 28.1538 31.1343 29.0492C32.6702 29.7117 34.0613 30.6616 35.2306 31.8461C36.3949 33.0409 37.3355 34.4294 38.009 35.9475C38.715 37.5162 39.0758 39.2146 39.0674 40.9308C39.0736 42.6552 38.713 44.3617 38.009 45.9402C36.6439 49.0626 34.1092 51.545 30.9333 52.8698C29.3168 53.5621 27.5727 53.9174 25.8103 53.9135C23.6219 53.9155 21.4677 53.3774 19.5443 52.348C17.6335 51.3663 16.0127 49.9138 14.8395 48.1318C14.4658 47.548 14.1368 46.9375 13.8552 46.3055C13.5795 45.6684 13.3685 45.0059 13.2253 44.3278C13.0516 43.5127 12.9402 42.6859 12.8919 41.8544C12.832 40.9325 12.802 39.842 12.802 38.5827V14.2194H18.724ZM22.852 34.2047C21.989 34.5486 21.2058 35.0617 20.5498 35.7127C19.8864 36.3624 19.358 37.1334 18.9939 37.9826C18.6117 38.8573 18.4189 39.801 18.4277 40.7534C18.4174 41.76 18.5969 42.7597 18.9569 43.7016C19.304 44.5861 19.8216 45.3959 20.4811 46.0863C21.1317 46.758 21.9152 47.2908 22.7832 47.6517C23.6913 48.0333 24.6697 48.2252 25.6568 48.2153C27.6382 48.2233 29.5461 47.4754 30.9809 46.128C31.667 45.4663 32.2074 44.6723 32.5685 43.7956C32.9504 42.8805 33.1429 41.8994 33.1348 40.9099C33.1452 39.9545 32.9635 39.0065 32.6001 38.1207C32.2368 37.2349 31.699 36.4289 31.0179 35.7492C30.3413 35.0895 29.5392 34.5681 28.6576 34.2151C27.7269 33.841 26.7306 33.6513 25.7256 33.6568C24.7407 33.6532 23.7646 33.8393 22.852 34.2047Z" fill="black"/>
<path d="M49.5567 20.4863C49.9018 20.8201 50.1738 21.2202 50.3558 21.6618C50.5379 22.1034 50.6261 22.5771 50.6151 23.0536C50.6197 23.5281 50.5236 23.9983 50.3331 24.4341C50.1427 24.87 49.862 25.2617 49.5091 25.5844C49.1679 25.9212 48.7617 26.1871 48.3144 26.3663C47.8672 26.5456 47.388 26.6346 46.9053 26.628C46.4315 26.6377 45.9609 26.5499 45.5235 26.3702C45.0861 26.1905 44.6915 25.9229 44.3649 25.5844C44.0249 25.2544 43.7559 24.8602 43.5741 24.4254C43.3922 23.9905 43.3012 23.5239 43.3065 23.0536C43.3202 22.1029 43.7093 21.1949 44.3912 20.5226C45.073 19.8503 45.9939 19.4666 46.9582 19.4531C47.4399 19.4413 47.919 19.5269 48.3659 19.7046C48.8127 19.8823 49.218 20.1483 49.5567 20.4863ZM44.0263 53.5482V28.3708H49.9483V53.5482H44.0263Z" fill="black"/>
<path fill-rule="evenodd" clip-rule="evenodd" d="M59.6119 22.8501C59.0913 23.0372 58.5265 23.0699 57.9872 22.944C57.7201 22.8921 57.4772 22.7563 57.295 22.5568C57.1128 22.3574 57.001 22.1051 56.9764 21.8378C56.8864 21.2116 56.8123 20.575 56.6642 19.9645C56.368 18.7718 55.8277 17.6513 55.0765 16.6719C53.5612 14.6041 51.2785 13.2105 48.7258 12.7948C48.4316 12.7734 48.1548 12.6492 47.9452 12.4445C47.7356 12.2398 47.6071 11.968 47.5826 11.6782C47.5011 11.1322 47.5858 10.5746 47.8261 10.0762L48.1542 9.77876C48.3861 9.67469 48.6413 9.63155 48.8951 9.65353C49.7974 9.77629 50.6842 9.99139 51.5412 10.2953C53.2434 10.8973 54.7966 11.8488 56.0979 13.087C57.0898 14.0233 57.9257 15.1081 58.5747 16.3014C59.3847 17.78 59.8866 19.4033 60.0511 21.0759C60.1828 21.5683 60.136 22.0906 59.9188 22.5527L59.6119 22.8501Z" fill="black"/>
<path fill-rule="evenodd" clip-rule="evenodd" d="M52.8802 16.9901C54.1956 18.3711 55.0074 20.1446 55.1876 22.0308C55.2053 22.175 55.1923 22.3212 55.1495 22.4601C55.1066 22.5991 55.0348 22.7277 54.9387 22.8377C54.8425 22.9477 54.7242 23.0367 54.5912 23.099C54.4582 23.1614 54.3134 23.1956 54.1662 23.1997C53.8128 23.2227 53.458 23.2088 53.1077 23.1579C52.8459 23.1077 52.6054 22.9815 52.4168 22.7956C52.2282 22.6096 52.1002 22.3724 52.0493 22.1143C51.9471 21.6722 51.8181 21.2366 51.6629 20.8098C51.3568 20.0638 50.8798 19.3977 50.2693 18.8636C49.6588 18.3296 48.9312 17.9419 48.1436 17.7311C47.9203 17.6911 47.709 17.6019 47.5257 17.4699C47.3424 17.338 47.1918 17.1668 47.0851 16.9692C46.9997 16.7707 46.9514 16.5586 46.9423 16.3431C46.9397 16.0957 46.9502 15.8484 46.974 15.6021C46.976 15.4368 47.0159 15.2742 47.091 15.1264C47.1661 14.9786 47.2742 14.8496 47.4072 14.7491C47.5403 14.6486 47.6948 14.5792 47.859 14.5462C48.0232 14.5131 48.1929 14.5174 48.3553 14.5585C49.7875 14.8438 51.1215 15.487 52.2292 16.4266C52.4991 16.6301 52.732 16.8649 52.8802 16.9901Z" fill="black"/>
</g>
<defs>
<clipPath id="clip0_7_385">
<rect width="180" height="64" fill="white"/>
</clipPath>
</defs>
</svg>
