<svg width="37" height="29" viewBox="0 0 37 29" fill="none" xmlns="http://www.w3.org/2000/svg">
<g clip-path="url(#clip0_52_1119)">
<path d="M27.5855 24.7339H17.9354C17.9354 24.7339 13.614 28.1187 9.65039 24.4526" stroke="#212121" stroke-width="2" stroke-miterlimit="10" stroke-linecap="round"/>
<path d="M7.221 20.5147L3.21973 16.5299" stroke="#212121" stroke-width="2" stroke-miterlimit="10" stroke-linecap="round"/>
<path d="M0.941406 22.8118L6.14777 23.4963" stroke="#212121" stroke-width="2" stroke-miterlimit="10" stroke-linecap="round"/>
<path d="M5.08398 26.9373L8.11554 25.2496" stroke="#212121" stroke-width="2" stroke-miterlimit="10" stroke-linecap="round"/>
<path d="M33.9402 9.50732C34.2397 9.46812 34.5441 9.49121 34.8342 9.57513C35.1242 9.65905 35.3937 9.80199 35.6255 9.99489L35.1359 10.5949L35.6349 9.99489C36.0867 10.3833 36.3784 10.9242 36.4539 11.5138L36.9718 15.5267C37.0267 15.924 36.9255 16.327 36.6893 16.6518C36.5697 16.8163 36.418 16.955 36.2433 17.0597C36.0686 17.1645 35.8745 17.233 35.6725 17.2613L22.6896 18.9302V17.3738L35.4371 15.733L34.9193 11.7294C34.8933 11.5258 34.7927 11.3388 34.6369 11.2044C34.5672 11.1457 34.486 11.102 34.3985 11.0762C34.311 11.0504 34.2191 11.0429 34.1285 11.0543L33.9402 9.50732C34.041 9.49439 34.1433 9.50135 34.2414 9.5278C34.3394 9.55426 34.4313 9.59967 34.5117 9.66148C34.5922 9.7233 34.6596 9.80028 34.7101 9.88804C34.7607 9.97581 34.7934 10.0726 34.8064 10.173C34.8193 10.2733 34.8124 10.3752 34.7858 10.4729C34.7592 10.5706 34.7136 10.6621 34.6515 10.7422C34.5895 10.8223 34.5121 10.8894 34.424 10.9398C34.3359 10.9901 34.2387 11.0227 34.1379 11.0356L22.7084 12.5451V10.9512L33.9402 9.50732ZM22.7084 18.949L10.6575 20.5054H10.4786V18.9864L22.7178 17.4113V18.9677L22.7084 18.949ZM10.4692 12.5264L22.7084 10.9512V12.5451L10.6387 14.1015H10.5257L10.4692 12.5264ZM10.4692 12.5264V14.0922V12.5451V12.5264ZM10.4692 20.5147H10.2338V19.2959L10.4692 19.0146V20.5147ZM10.2338 12.5451H10.3657H10.4692V14.1109C10.3832 14.1396 10.3034 14.1842 10.2338 14.2422V12.5451ZM10.4692 18.7708L10.2338 17.0081V19.2771L10.4692 18.9958V18.7708ZM10.2338 20.4773C9.97061 20.438 9.72317 20.3277 9.51832 20.1585L9.45242 20.0928C9.17964 19.8491 9.00278 19.5168 8.95344 19.1552L8.42621 15.1517C8.43078 15.1237 8.43078 15.0952 8.42621 15.0673C8.36997 14.4909 8.52736 13.914 8.86871 13.4453C9.19909 12.9896 9.68997 12.6748 10.2433 12.5639V14.2234C10.1961 14.2581 10.1574 14.303 10.1303 14.3547C10.0102 14.5095 9.95306 14.7037 9.97023 14.8985C9.97526 14.939 9.97526 14.9799 9.97023 15.0204L10.2338 17.0269V19.2959L10.0079 19.5771L10.2338 19.2959V20.4773Z" fill="#212121"/>
<path d="M31.8971 10.8669C32.0075 11.0374 32.1798 11.1589 32.378 11.2061C32.5762 11.2533 32.7851 11.2224 32.961 11.12C33.1367 11.0115 33.2621 10.8382 33.3098 10.6378C33.3574 10.4375 33.3234 10.2266 33.2152 10.0511L30.1177 5.0912L29.4587 5.49436L30.1742 5.04433C30.0987 4.92523 29.9925 4.82847 29.8666 4.76415C29.7408 4.69984 29.5999 4.67031 29.4587 4.67865C26.853 4.64081 24.2479 4.78811 21.6633 5.11936C18.9099 5.4687 16.1853 6.0139 13.5101 6.75077L13.7078 7.49146L13.5101 6.74139C13.3727 6.77795 13.2482 6.85158 13.1502 6.95416C13.0522 7.05673 12.9845 7.18426 12.9546 7.3227L11.2506 12.8546C11.2209 12.9512 11.2106 13.0527 11.2204 13.1533C11.2301 13.254 11.2596 13.3517 11.3073 13.4409C11.4035 13.6211 11.5677 13.7559 11.7637 13.8156C11.9597 13.8753 12.1715 13.855 12.3524 13.7591C12.5334 13.6633 12.6688 13.4998 12.7287 13.3046L14.3292 8.11969C16.8037 7.46106 19.32 6.96926 21.861 6.64765C24.2556 6.34306 26.6681 6.19895 29.0821 6.21633L31.8971 10.8669Z" fill="#212121"/>
<path d="M32.6691 20.4022L33.7989 20.2616L33.4505 17.5613L32.6691 17.6644V16.108L33.9495 15.9486H34.0154C34.1175 15.9355 34.2211 15.9426 34.3204 15.9694C34.4197 15.9962 34.5126 16.0424 34.594 16.1051C34.6753 16.1678 34.7435 16.2459 34.7944 16.3349C34.8454 16.4239 34.8782 16.522 34.891 16.6237L34.119 16.7175L34.8816 16.6237L35.3335 20.0834C35.3428 20.1393 35.3428 20.1963 35.3335 20.2522C35.3456 20.5901 35.2391 20.9217 35.0322 21.1898C34.8154 21.4699 34.5046 21.663 34.1566 21.7336H33.9872L32.6503 21.9024L32.6691 20.4022ZM31.8877 20.5053L32.6691 20.4022V21.9211L32.0007 22.0055C31.809 22.0305 31.6142 22.0176 31.4276 21.9674C31.2409 21.9173 31.066 21.8309 30.913 21.7133C30.7599 21.5957 30.6316 21.4492 30.5356 21.2821C30.4395 21.1151 30.3775 20.9307 30.3531 20.7397L29.9106 17.2706C29.9094 17.2488 29.9094 17.2268 29.9106 17.205C29.8866 17.0012 29.9444 16.7964 30.0713 16.6348C30.1983 16.4733 30.3841 16.3682 30.5884 16.3424L30.6826 17.1112L30.5884 16.3424L32.6879 16.0705V17.6269L31.5488 17.777L31.8877 20.5053Z" fill="#212121"/>
<path d="M15.4406 24.1807L14.0284 24.3588V22.8024L15.1582 22.6618L14.8098 19.9709L14.0284 20.0647V18.5082L15.3841 18.3395C15.4849 18.3263 15.5873 18.3331 15.6855 18.3595C15.7836 18.3859 15.8756 18.4313 15.956 18.4931C16.0365 18.555 16.1039 18.632 16.1544 18.7199C16.2049 18.8078 16.2375 18.9047 16.2503 19.0052C16.2503 19.0052 16.2503 19.0521 16.2503 19.0708L16.7022 22.5399C16.7265 22.7305 16.7124 22.9241 16.6607 23.1093C16.609 23.2944 16.5206 23.4674 16.4009 23.6182C16.1674 23.924 15.8225 24.1261 15.4406 24.1807ZM14.0284 24.3588L13.3694 24.4433C12.981 24.4943 12.5882 24.3898 12.2772 24.1526C11.9771 23.9235 11.778 23.5874 11.7218 23.215L11.2604 19.6802C11.2472 19.5798 11.2541 19.4779 11.2806 19.3801C11.307 19.2824 11.3526 19.1908 11.4147 19.1106C11.4769 19.0305 11.5542 18.9634 11.6425 18.9131C11.7307 18.8628 11.828 18.8304 11.9289 18.8176H11.9948L14.0284 18.5551V20.0459L12.8986 20.1959L13.247 22.8869L14.0284 22.7837V24.3588Z" fill="#212121"/>
<path d="M31.8411 11.8231C32.2779 11.8245 32.7005 11.9769 33.0368 12.2544L32.6696 12.7045L33.0368 12.2544C33.4338 12.5858 33.6896 13.055 33.7523 13.5671C33.8236 14.0894 33.6923 14.6192 33.3852 15.0485C33.2326 15.2601 33.0375 15.4378 32.8122 15.5702C32.5869 15.7026 32.3363 15.7867 32.0765 15.8173H31.8223V14.6547H31.9353C32.0367 14.6403 32.1341 14.6054 32.2215 14.5522C32.3089 14.499 32.3845 14.4286 32.4437 14.3453C32.5748 14.1564 32.6317 13.9262 32.6037 13.6983C32.572 13.4769 32.4618 13.274 32.2931 13.1264C32.1634 13.0176 32.0011 12.9549 31.8317 12.9483L31.8411 11.8231ZM31.5869 11.8231C31.6714 11.8138 31.7567 11.8138 31.8411 11.8231V12.9764H31.7282C31.6272 12.9886 31.5298 13.0216 31.4423 13.0732C31.3548 13.1249 31.279 13.1941 31.2198 13.2765C31.0864 13.4678 31.0294 13.7018 31.0597 13.9327C31.0915 14.1542 31.2016 14.3571 31.3704 14.5047C31.5009 14.6108 31.6633 14.6702 31.8317 14.6735V15.8361C31.3951 15.8254 30.9745 15.6704 30.6361 15.3954L31.0032 14.9547L30.6361 15.4048C30.2339 15.0651 29.9749 14.5873 29.9103 14.0661C29.8458 13.545 29.9805 13.0187 30.2877 12.592C30.4425 12.3855 30.6371 12.2119 30.8603 12.0815C31.0834 11.9511 31.3305 11.8664 31.5869 11.8325V11.8231Z" fill="#212121"/>
<path d="M13.5193 14.1859C13.9397 14.1967 14.3455 14.3413 14.6773 14.5985C15.0803 14.9355 15.3423 15.4103 15.4117 15.9298C15.4812 16.4534 15.3464 16.9837 15.0351 17.4113C14.8836 17.6218 14.6899 17.7988 14.4663 17.9312C14.2427 18.0635 13.994 18.1483 13.7359 18.1801H13.5005V17.0269H13.5946C13.6947 17.0123 13.7907 16.9773 13.8766 16.924C13.9624 16.8708 14.0363 16.8005 14.0936 16.7174C14.1625 16.6258 14.2122 16.5213 14.2397 16.4101C14.2672 16.299 14.2719 16.1835 14.2537 16.0705C14.2241 15.8457 14.1137 15.6392 13.943 15.4892L14.3102 15.0391L13.9336 15.4892C13.8121 15.3927 13.6647 15.334 13.5099 15.3204L13.5193 14.1859ZM13.171 14.1859H13.5193V15.3579H13.3498C13.159 15.3973 12.9906 15.5081 12.8791 15.6673C12.748 15.8562 12.6911 16.0864 12.7191 16.3143C12.7524 16.5273 12.8629 16.7207 13.0297 16.8581C13.1575 16.9614 13.3171 17.0177 13.4817 17.0175V18.1707C13.0558 18.1673 12.6426 18.0258 12.3048 17.7676L12.672 17.3175L12.3048 17.7676C11.9146 17.4452 11.6567 16.9915 11.5799 16.4924C11.5754 16.4519 11.5754 16.411 11.5799 16.3705C11.5264 15.8686 11.6605 15.3645 11.9565 14.9548C12.2507 14.5599 12.685 14.2916 13.171 14.2047V14.1859Z" fill="#212121"/>
<path d="M18.2363 14.0546C18.0828 14.0734 17.943 14.152 17.8477 14.2733C17.7524 14.3946 17.7093 14.5486 17.7279 14.7015C17.7512 14.8517 17.8317 14.9871 17.9527 15.0796C18.0737 15.1722 18.2258 15.2148 18.3775 15.1985L26.8508 14.1109C27.0043 14.091 27.1437 14.0111 27.2381 13.8889C27.3326 13.7667 27.3744 13.6121 27.3545 13.4592C27.3345 13.3063 27.2543 13.1675 27.1316 13.0734C27.0089 12.9794 26.8537 12.9377 26.7001 12.9576L18.2363 14.0546Z" fill="#212121"/>
<path d="M18.4817 15.9298C18.4062 15.9391 18.3334 15.963 18.2672 16.0003C18.2011 16.0375 18.143 16.0874 18.0962 16.147C18.0495 16.2067 18.0149 16.2749 17.9947 16.3479C17.9744 16.4208 17.9687 16.497 17.978 16.5721C17.9872 16.6472 18.0113 16.7197 18.0487 16.7856C18.0861 16.8514 18.1362 16.9093 18.1961 16.9559C18.256 17.0025 18.3245 17.0369 18.3977 17.0571C18.4709 17.0773 18.5475 17.083 18.6229 17.0737L27.0962 15.9861C27.1718 15.9768 27.2449 15.9527 27.3111 15.9151C27.3773 15.8774 27.4354 15.827 27.4818 15.7668C27.5283 15.7066 27.5622 15.6377 27.5817 15.5643C27.6011 15.4909 27.6057 15.4143 27.5951 15.3391C27.5763 15.1862 27.4973 15.0471 27.3755 14.9522C27.2537 14.8572 27.0991 14.8143 26.9455 14.8328L18.4817 15.9298Z" fill="#212121"/>
</g>
<defs>
<clipPath id="clip0_52_1119">
<rect width="37" height="29" fill="white"/>
</clipPath>
</defs>
</svg>
