<svg width="34" height="39" viewBox="0 0 34 39" fill="none" xmlns="http://www.w3.org/2000/svg">
<path d="M27.6167 16.0696C27.8875 16.0694 28.1556 16.1238 28.405 16.2294C28.6544 16.3351 28.88 16.4899 29.0683 16.6847C29.4537 17.0695 29.6705 17.5916 29.671 18.1363V21.6915C29.6698 22.0564 29.5238 22.4059 29.2651 22.6633C29.1412 22.7927 28.9922 22.8954 28.8272 22.9652C28.6622 23.035 28.4847 23.0704 28.3056 23.0692H16.7543V21.7037H28.2933V18.1486C28.3025 17.9683 28.2407 17.7916 28.121 17.6565C28.0579 17.5937 27.9831 17.5441 27.9008 17.5103C27.8184 17.4765 27.7302 17.4593 27.6413 17.4597V16.0818C27.824 16.0818 27.9992 16.1545 28.1284 16.2836C28.2576 16.4128 28.3302 16.5881 28.3302 16.7708C28.327 16.9525 28.2534 17.1259 28.1249 17.2544C27.9964 17.3829 27.823 17.4565 27.6413 17.4597H16.7543V16.0818L27.6167 16.0696ZM16.7543 23.0692H5.19068C5.01154 23.0704 4.83403 23.035 4.66904 22.9652C4.50405 22.8954 4.35505 22.7927 4.23115 22.6633C3.97247 22.4059 3.82647 22.0564 3.8252 21.6915V18.1363C3.82576 17.5916 4.04257 17.0695 4.42798 16.6847C4.61625 16.4899 4.84181 16.3351 5.09121 16.2294C5.3406 16.1238 5.60872 16.0694 5.87958 16.0696H16.7543V17.4474H5.87958C5.79059 17.447 5.70241 17.4642 5.62009 17.498C5.53776 17.5317 5.46291 17.5814 5.39981 17.6442C5.33614 17.7091 5.28597 17.7861 5.25219 17.8705C5.2184 17.955 5.20168 18.0453 5.20299 18.1363V21.6915H16.7543V23.0692Z" fill="#212121"/>
<path d="M25.6605 17.0413C25.7404 17.2063 25.8816 17.3334 26.0541 17.3955C26.2265 17.4576 26.4164 17.4497 26.5831 17.3735C26.667 17.3331 26.7418 17.2761 26.803 17.206C26.8642 17.1359 26.9106 17.0541 26.9393 16.9656C26.9681 16.877 26.9786 16.7836 26.9702 16.6909C26.9619 16.5982 26.9348 16.5082 26.8907 16.4262L24.6641 11.727L24.049 12.0222L24.6764 11.727C24.6233 11.6172 24.5415 11.5239 24.4398 11.4568C24.338 11.3896 24.22 11.3512 24.0982 11.3456C21.7349 11.0077 19.3505 10.8392 16.9632 10.8413C14.4287 10.8361 11.8968 11.0046 9.38535 11.3456L9.47146 12.0222L9.37306 11.3456C9.25332 11.3645 9.1405 11.4141 9.04564 11.4896C8.95077 11.565 8.87709 11.6637 8.83178 11.7762L6.61747 16.4262C6.57617 16.5066 6.55169 16.5944 6.54551 16.6845C6.53932 16.7746 6.55157 16.8651 6.58151 16.9503C6.61144 17.0355 6.65843 17.1137 6.71961 17.1801C6.78078 17.2465 6.85486 17.2997 6.93732 17.3366C7.10222 17.4122 7.29031 17.4198 7.46075 17.3576C7.6312 17.2954 7.77022 17.1685 7.84764 17.0044L9.91433 12.7357C12.2478 12.435 14.5981 12.2829 16.9509 12.2806C19.1682 12.2901 21.3827 12.4379 23.5815 12.7234L25.6605 17.0413Z" fill="#212121"/>
<path d="M25.3528 25.4557H26.2508V23.0692H25.3528V21.7037H26.8905C27.0711 21.7036 27.2445 21.7745 27.3733 21.9011C27.5022 22.0276 27.5762 22.1998 27.5794 22.3803V25.5049C27.5761 25.8552 27.4347 26.1899 27.1859 26.4364C26.9371 26.6829 26.601 26.8212 26.2508 26.8212H25.3036L25.3528 25.4557ZM24.4425 25.4557H25.3528V26.8212H24.4301C24.0799 26.8212 23.7438 26.6829 23.495 26.4364C23.2462 26.1899 23.1048 25.8552 23.1016 25.5049V22.3803C23.1048 22.1998 23.1788 22.0276 23.3076 21.9011C23.4365 21.7745 23.6099 21.7036 23.7905 21.7037H25.3897V23.0692H24.4301L24.4425 25.4557Z" fill="#212121"/>
<path d="M9.10201 26.8212H8.14248V25.4557H9.0528V23.0692H8.14248V21.7037H9.7417C9.92229 21.7036 10.0957 21.7745 10.2245 21.9011C10.3534 22.0276 10.4274 22.1998 10.4306 22.3803V25.5049C10.4231 25.8553 10.2823 26.1896 10.0369 26.4399C9.91388 26.5618 9.76793 26.6583 9.60749 26.7238C9.44706 26.7892 9.27528 26.8223 9.10201 26.8212ZM8.14248 26.8212H7.20755C7.03321 26.8245 6.85998 26.7928 6.69811 26.728C6.53624 26.6631 6.389 26.5665 6.26513 26.4438C6.14126 26.321 6.04326 26.1747 5.97693 26.0135C5.9106 25.8522 5.87729 25.6793 5.87897 25.5049V22.3803C5.88219 22.1998 5.9562 22.0276 6.08504 21.9011C6.21389 21.7745 6.38727 21.7036 6.56787 21.7037H8.15478V23.0692H7.20755V25.4557H8.10558L8.14248 26.8212Z" fill="#212121"/>
<path d="M25.2056 17.6566C25.4621 17.6566 25.7161 17.7078 25.9526 17.807C26.1892 17.9063 26.4036 18.0516 26.5834 18.2347C26.9469 18.6011 27.151 19.0964 27.151 19.6126C27.151 20.1287 26.9469 20.624 26.5834 20.9903C26.4036 21.1734 26.1892 21.3187 25.9526 21.418C25.7161 21.5173 25.4621 21.5684 25.2056 21.5685V20.1907C25.3561 20.19 25.5009 20.1329 25.6115 20.0308C25.7144 19.9157 25.7713 19.7669 25.7713 19.6126C25.7713 19.4582 25.7144 19.3093 25.6115 19.1943C25.5009 19.0921 25.3561 19.0351 25.2056 19.0343V17.6566ZM25.2056 21.5685C24.9511 21.5668 24.6995 21.5149 24.4651 21.4157C24.2308 21.3165 24.0184 21.1719 23.8401 20.9903C23.4765 20.624 23.2725 20.1287 23.2725 19.6126C23.2725 19.0964 23.4765 18.6011 23.8401 18.2347C24.0184 18.0531 24.2308 17.9086 24.4651 17.8094C24.6995 17.7101 24.9511 17.6582 25.2056 17.6566V19.0343C25.059 19.037 24.9187 19.094 24.8119 19.1943C24.709 19.3093 24.6521 19.4582 24.6521 19.6126C24.6521 19.7669 24.709 19.9157 24.8119 20.0308C24.9187 20.1311 25.059 20.1881 25.2056 20.1907V21.5685Z" fill="#212121"/>
<path d="M8.27824 20.203C8.35125 20.2043 8.42376 20.1908 8.49141 20.1633C8.55906 20.1358 8.62046 20.0949 8.67189 20.0431C8.72694 19.9882 8.77061 19.923 8.80042 19.8512C8.83022 19.7795 8.84556 19.7025 8.84556 19.6248C8.84556 19.5471 8.83022 19.4702 8.80042 19.3984C8.77061 19.3266 8.72694 19.2614 8.67189 19.2066C8.62046 19.1547 8.55906 19.1139 8.49141 19.0864C8.42376 19.0589 8.35125 19.0454 8.27824 19.0467V17.6566C8.53478 17.6566 8.78875 17.7078 9.02531 17.807C9.26187 17.9063 9.47628 18.0516 9.65602 18.2347C10.0196 18.6011 10.2236 19.0964 10.2236 19.6126C10.2236 20.1287 10.0196 20.624 9.65602 20.9903C9.47628 21.1734 9.26187 21.3187 9.02531 21.418C8.78875 21.5173 8.53478 21.5684 8.27824 21.5685V20.203ZM8.27824 19.0467C8.13123 19.0468 7.99005 19.1042 7.88459 19.2066C7.7817 19.3216 7.72482 19.4705 7.72482 19.6248C7.72482 19.7791 7.7817 19.9281 7.88459 20.0431C7.99005 20.1455 8.13123 20.2029 8.27824 20.203V21.5808C7.75948 21.5808 7.26197 21.3747 6.89515 21.0079C6.52834 20.6411 6.32227 20.1436 6.32227 19.6248C6.32227 19.106 6.52834 18.6086 6.89515 18.2418C7.26197 17.8749 7.75948 17.6689 8.27824 17.6689V19.0467Z" fill="#212121"/>
<path d="M12.8295 19.7477C12.6468 19.7477 12.4716 19.8203 12.3424 19.9495C12.2132 20.0787 12.1406 20.2539 12.1406 20.4366C12.1406 20.6193 12.2132 20.7946 12.3424 20.9238C12.4716 21.053 12.6468 21.1255 12.8295 21.1255H20.6534C20.8361 21.1255 21.0113 21.053 21.1405 20.9238C21.2697 20.7946 21.3423 20.6193 21.3423 20.4366C21.3423 20.2539 21.2697 20.0787 21.1405 19.9495C21.0113 19.8203 20.8361 19.7477 20.6534 19.7477H12.8295Z" fill="#212121"/>
<path d="M12.8295 18.0132C12.6468 18.0132 12.4716 18.0858 12.3424 18.215C12.2132 18.3442 12.1406 18.5194 12.1406 18.7021C12.1406 18.8848 12.2132 19.06 12.3424 19.1892C12.4716 19.3184 12.6468 19.391 12.8295 19.391H20.6534C20.8361 19.391 21.0113 19.3184 21.1405 19.1892C21.2697 19.06 21.3423 18.8848 21.3423 18.7021C21.3423 18.5194 21.2697 18.3442 21.1405 18.215C21.0113 18.0858 20.8361 18.0132 20.6534 18.0132H12.8295Z" fill="#212121"/>
<path d="M2.95201 7.81516C2.95201 7.28619 2.63217 6.85559 2.26312 6.85559C1.89407 6.85559 1.57422 7.28619 1.57422 7.81516V37.536C1.57422 38.065 1.88177 38.4956 2.26312 38.4956C2.64447 38.4956 2.95201 38.065 2.95201 37.536V7.81516Z" fill="#212121"/>
<path d="M31.9217 7.81516C31.9217 7.28619 31.6142 6.85559 31.2328 6.85559C30.8515 6.85559 30.5439 7.28619 30.5439 7.81516V37.536C30.5439 38.065 30.8515 38.4956 31.2328 38.4956C31.6142 38.4956 31.9217 38.065 31.9217 37.536V7.81516Z" fill="#212121"/>
<path d="M0.934018 21.8636C0.751312 21.8636 0.576088 21.9362 0.446895 22.0654C0.317702 22.1946 0.245117 22.3698 0.245117 22.5525C0.245117 22.7352 0.317702 22.9104 0.446895 23.0396C0.576088 23.1688 0.751312 23.2414 0.934018 23.2414H32.5494C32.7321 23.2414 32.9073 23.1688 33.0365 23.0396C33.1657 22.9104 33.2383 22.7352 33.2383 22.5525C33.2383 22.3698 33.1657 22.1946 33.0365 22.0654C32.9073 21.9362 32.7321 21.8636 32.5494 21.8636H0.934018Z" fill="#212121"/>
<path d="M2.04208 39C3.16989 39 4.08416 38.0857 4.08416 36.9579C4.08416 35.8301 3.16989 34.9158 2.04208 34.9158C0.91427 34.9158 0 35.8301 0 36.9579C0 38.0857 0.91427 39 2.04208 39Z" fill="#212121"/>
<path d="M31.0733 39C32.2011 39 33.1154 38.0857 33.1154 36.9579C33.1154 35.8301 32.2011 34.9158 31.0733 34.9158C29.9455 34.9158 29.0312 35.8301 29.0312 36.9579C29.0312 38.0857 29.9455 39 31.0733 39Z" fill="#212121"/>
<path d="M17.3456 3.1158L16.7674 3.69401L16.6444 3.57095L17.1857 3.01736C17.1617 2.90795 17.1617 2.79468 17.1857 2.68527C17.2315 2.56116 17.3027 2.448 17.3948 2.3531C17.5075 2.22614 17.6588 2.13969 17.8254 2.10705C17.8999 2.0982 17.9754 2.10694 18.0459 2.13258C18.1164 2.15821 18.1799 2.20003 18.2313 2.25466C18.2424 2.27099 18.2484 2.29033 18.2484 2.31007C18.2484 2.32982 18.2424 2.34909 18.2313 2.36541H18.0714L17.8869 2.4269V2.61146V2.78363L17.9976 2.89437L18.1083 2.99281H18.2805L18.4651 2.919V2.74676V2.58683C18.4731 2.57865 18.4827 2.57212 18.4932 2.56769C18.5038 2.56325 18.5151 2.561 18.5266 2.561C18.538 2.561 18.5494 2.56325 18.5599 2.56769C18.5705 2.57212 18.5801 2.57865 18.5881 2.58683C18.6444 2.63698 18.6874 2.7003 18.7131 2.77116C18.7389 2.84202 18.7467 2.91821 18.7357 2.99281C18.7111 3.15942 18.6283 3.3119 18.502 3.42334C18.4104 3.51956 18.2962 3.59141 18.1698 3.63245C18.0563 3.6567 17.9389 3.6567 17.8254 3.63245L17.2841 4.18604L17.1734 4.12454L17.7639 3.5464C17.7639 3.5464 17.7639 3.5464 17.8377 3.5464C17.9338 3.57662 18.0368 3.57662 18.1329 3.5464C18.232 3.51764 18.3213 3.46233 18.3913 3.38647C18.4964 3.30451 18.5667 3.18586 18.5881 3.0543C18.5935 3.01348 18.5935 2.97214 18.5881 2.93131L18.5143 3.14042C18.5143 3.14042 18.5143 3.20192 18.4528 3.20192L18.2313 3.27572L18.0099 3.34953V3.27572V3.34953C18.0099 3.34953 17.9361 3.34953 17.9238 3.34953L17.7762 3.20192L17.6286 3.0543C17.6185 3.03986 17.6131 3.02272 17.6131 3.00512C17.6131 2.98753 17.6185 2.97031 17.6286 2.95587L17.7024 2.73445L17.7762 2.51302C17.7762 2.51302 17.7762 2.51302 17.85 2.51302L18.0468 2.43922H17.9238C17.7961 2.46331 17.6796 2.52807 17.5917 2.62377C17.5201 2.69716 17.4655 2.7853 17.4317 2.88206C17.4073 2.97895 17.4073 3.0804 17.4317 3.17729H17.3456H17.4317C17.422 3.17905 17.4121 3.17885 17.4024 3.17669C17.3928 3.17453 17.3837 3.17048 17.3757 3.16475C17.3677 3.15902 17.3609 3.15176 17.3557 3.14335C17.3505 3.13494 17.3471 3.12555 17.3456 3.1158ZM16.7674 3.69401L15.6603 4.80112C15.6015 4.83338 15.5554 4.88476 15.5296 4.94671C15.5038 5.00866 15.5 5.07747 15.5186 5.14192C15.5372 5.20638 15.5772 5.26258 15.632 5.30125C15.6869 5.33992 15.7532 5.3588 15.8202 5.35471C15.8976 5.35036 15.9713 5.32001 16.0293 5.26859L17.1365 4.14917L17.2718 4.28447L16.1523 5.39165C16.0633 5.478 15.9443 5.52648 15.8202 5.52695C15.6971 5.5219 15.5796 5.47406 15.4881 5.39165C15.4024 5.30232 15.3545 5.18328 15.3545 5.05948C15.3545 4.93568 15.4024 4.81665 15.4881 4.72731L16.6075 3.62021L16.7674 3.69401Z" fill="#212121"/>
<path d="M16.9753 6.88021C18.599 6.88021 19.9154 5.56388 19.9154 3.9401C19.9154 2.31633 18.599 1 16.9753 1C15.3515 1 14.0352 2.31633 14.0352 3.9401C14.0352 5.56388 15.3515 6.88021 16.9753 6.88021Z" stroke="#212121" stroke-width="0.5" stroke-miterlimit="10"/>
</svg>
