<svg width="29" height="39" viewBox="0 0 29 39" fill="none" xmlns="http://www.w3.org/2000/svg">
<path d="M25.3581 4.875H19.3384C19.3384 3.58207 18.8278 2.34209 17.919 1.42785C17.0103 0.513613 15.7777 0 14.4925 0C13.2073 0 11.9747 0.513613 11.0659 1.42785C10.1572 2.34209 9.64662 3.58207 9.64662 4.875H3.62691C3.14935 4.875 2.67648 4.9699 2.23547 5.15421C1.79445 5.33851 1.39397 5.60862 1.05699 5.94903C0.720005 6.28945 0.45316 6.69345 0.27178 7.13788C0.0903995 7.58231 -0.00195034 8.05837 3.12253e-05 8.5388V35.3513C3.12253e-05 35.8305 0.0938752 36.3049 0.276143 36.7476C0.45841 37.1903 0.72553 37.5925 1.06232 37.9313C1.3991 38.2701 1.79893 38.5389 2.23896 38.7223C2.67899 38.9057 3.15062 39 3.62691 39H25.3581C25.8356 39.002 26.3088 38.9091 26.7506 38.7266C27.1924 38.5442 27.594 38.2757 27.9324 37.9367C28.2708 37.5976 28.5393 37.1948 28.7225 36.7511C28.9057 36.3074 29 35.8318 29 35.3513V8.5388C29 8.05766 28.9058 7.58124 28.7227 7.13672C28.5397 6.69221 28.2715 6.28833 27.9333 5.94811C27.5951 5.60789 27.1936 5.33801 26.7517 5.15388C26.3099 4.96976 25.8363 4.875 25.3581 4.875ZM14.4624 3.0431C14.8226 3.0431 15.1746 3.15054 15.4741 3.35183C15.7735 3.55313 16.0069 3.83923 16.1447 4.17397C16.2826 4.5087 16.3186 4.87703 16.2484 5.23238C16.1781 5.58774 16.0047 5.91415 15.75 6.17034C15.4953 6.42654 15.1709 6.60105 14.8176 6.67174C14.4644 6.74242 14.0983 6.70611 13.7656 6.56746C13.4328 6.42881 13.1484 6.19401 12.9483 5.89276C12.7482 5.5915 12.6414 5.23732 12.6414 4.875C12.6414 4.39176 12.8312 3.92809 13.1694 3.58497C13.5077 3.24185 13.967 3.0471 14.4473 3.0431H14.4624ZM23.6424 20.7112L12.807 31.5059C12.7241 31.5924 12.6248 31.6612 12.5149 31.7082C12.405 31.7553 12.2868 31.7795 12.1674 31.7795C12.0479 31.7795 11.9298 31.7553 11.8199 31.7082C11.71 31.6612 11.6106 31.5924 11.5278 31.5059L5.28234 25.1472C5.19631 25.0638 5.12788 24.9639 5.08113 24.8533C5.03439 24.7427 5.01031 24.6239 5.01031 24.5037C5.01031 24.3836 5.03439 24.2646 5.08113 24.1541C5.12788 24.0435 5.19631 23.9436 5.28234 23.8602L7.44944 21.7104C7.53227 21.6239 7.63159 21.5551 7.74149 21.508C7.85138 21.461 7.96959 21.4368 8.08901 21.4368C8.20844 21.4368 8.32664 21.461 8.43654 21.508C8.54644 21.5551 8.6458 21.6239 8.72863 21.7104L12.205 25.2531L20.2413 17.229C20.3252 17.1443 20.4249 17.0772 20.5346 17.0313C20.6444 16.9855 20.762 16.9619 20.8809 16.9619C20.9997 16.9619 21.1174 16.9855 21.2272 17.0313C21.3369 17.0772 21.4366 17.1443 21.5205 17.229L23.6575 19.3941C23.8284 19.5671 23.9244 19.8011 23.9244 20.0451C23.9244 20.289 23.8284 20.523 23.6575 20.6961L23.6424 20.7112Z" fill="black"/>
</svg>
