<svg width="45" height="43" viewBox="0 0 45 43" fill="none" xmlns="http://www.w3.org/2000/svg">
<path d="M35.0907 1.48851C35.0285 1.42708 34.9792 1.35393 34.9455 1.2733C34.9119 1.19266 34.8945 1.10613 34.8945 1.01874C34.8945 0.931363 34.9119 0.844829 34.9455 0.764194C34.9792 0.683559 35.0285 0.610413 35.0907 0.548977L35.399 0.255361C35.457 0.180646 35.5304 0.119345 35.6141 0.0754458C35.6979 0.0315466 35.7902 0.00615463 35.8846 0.000989005C35.9791 -0.00417662 36.0735 0.0109305 36.1616 0.0454301C36.2497 0.0799298 36.3294 0.132942 36.3952 0.200884C36.461 0.268827 36.5115 0.350177 36.5431 0.439308C36.5748 0.528438 36.587 0.62327 36.5788 0.717513C36.5707 0.811756 36.5424 0.903146 36.4958 0.985503C36.4493 1.06786 36.3856 1.13928 36.3091 1.1949L36.0008 1.50321C35.8762 1.61793 35.7122 1.68039 35.5428 1.67766C35.3734 1.67492 35.2116 1.6072 35.0907 1.48851Z" fill="black"/>
<path d="M32.3763 4.11627C32.2553 3.99278 32.1875 3.82676 32.1875 3.65385C32.1875 3.48093 32.2553 3.31491 32.3763 3.19143L32.6846 2.88321C32.8112 2.76056 32.9812 2.69319 33.1574 2.69594C33.3336 2.6987 33.5015 2.77137 33.6241 2.8979C33.7468 3.02443 33.8141 3.19443 33.8114 3.37062C33.8086 3.54682 33.736 3.7147 33.6094 3.83735L33.3012 4.13096C33.24 4.19172 33.1673 4.23968 33.0874 4.2719C33.0074 4.30413 32.9218 4.31995 32.8357 4.31858C32.7495 4.31721 32.6644 4.29867 32.5855 4.26393C32.5067 4.22918 32.4355 4.17893 32.3763 4.11627Z" fill="black"/>
<path d="M32.7139 1.45922L32.4203 1.151C32.3567 1.09192 32.306 1.02036 32.2713 0.940799C32.2366 0.861235 32.2188 0.77537 32.2188 0.688577C32.2188 0.601785 32.2366 0.515919 32.2713 0.436356C32.306 0.356792 32.3567 0.285237 32.4203 0.226157C32.4805 0.164456 32.5524 0.115382 32.6318 0.081902C32.7112 0.0484225 32.7965 0.031189 32.8827 0.031189C32.9689 0.031189 33.0542 0.0484225 33.1336 0.081902C33.2131 0.115382 33.285 0.164456 33.3451 0.226157L33.6387 0.534377C33.7004 0.594551 33.7495 0.666504 33.7829 0.745921C33.8164 0.825337 33.8337 0.910613 33.8337 0.996798C33.8337 1.08298 33.8164 1.16835 33.7829 1.24776C33.7495 1.32718 33.7004 1.39904 33.6387 1.45922C33.5152 1.58026 33.3492 1.64809 33.1763 1.64809C33.0034 1.64809 32.8374 1.58026 32.7139 1.45922Z" fill="black"/>
<path d="M35.3564 4.17494L35.0628 3.86663C34.9692 3.73792 34.9253 3.57975 34.939 3.42123C34.9527 3.26271 35.0232 3.1145 35.1375 3.00379C35.2518 2.89307 35.4022 2.82736 35.561 2.81868C35.7199 2.80999 35.8766 2.85889 36.0023 2.95648L36.3105 3.26479C36.4201 3.39176 36.4772 3.55563 36.4704 3.72318C36.4635 3.89072 36.3933 4.04942 36.2738 4.16705C36.1543 4.28468 35.9945 4.35245 35.8269 4.35664C35.6592 4.36084 35.4963 4.30114 35.371 4.18963L35.3564 4.17494Z" fill="black"/>
<path d="M32.0963 15.0529L31.0687 14.0253C30.9732 13.898 30.9269 13.7407 30.9382 13.5821C30.9495 13.4235 31.0176 13.2742 31.13 13.1618C31.2425 13.0493 31.3917 12.9812 31.5503 12.97C31.7089 12.9587 31.8663 13.005 31.9935 13.1004L33.0211 14.128C33.24 14.3164 33.5221 14.4152 33.8108 14.4043C34.0994 14.3935 34.3734 14.274 34.5776 14.0698C34.7819 13.8655 34.9014 13.5917 34.9122 13.303C34.923 13.0143 34.8243 12.7322 34.6359 12.5133L29.6594 7.53676C29.4404 7.34834 29.1584 7.24963 28.8697 7.26044C28.581 7.27124 28.3071 7.39074 28.1029 7.595C27.8986 7.79926 27.7791 8.07322 27.7683 8.36188C27.7575 8.65054 27.8562 8.93265 28.0446 9.1516L29.0722 10.1791C29.1343 10.2406 29.1837 10.3137 29.2173 10.3943C29.251 10.475 29.2683 10.5615 29.2683 10.6489C29.2683 10.7363 29.251 10.8228 29.2173 10.9034C29.1837 10.9841 29.1343 11.0572 29.0722 11.1187C28.9487 11.2397 28.7827 11.3075 28.6098 11.3075C28.4369 11.3075 28.2708 11.2397 28.1474 11.1187L27.1198 10.091C26.8642 9.86913 26.657 9.597 26.5112 9.29156C26.3653 8.98611 26.2839 8.65391 26.272 8.31564C26.2601 7.97738 26.318 7.64025 26.442 7.32531C26.566 7.01036 26.7535 6.72438 26.9928 6.48505C27.2322 6.24571 27.5182 6.0582 27.8332 5.93419C28.1481 5.81018 28.4852 5.75232 28.8235 5.76422C29.1617 5.77613 29.4939 5.85752 29.7994 6.00336C30.1048 6.1492 30.377 6.35634 30.5989 6.61192L35.5607 11.5884C35.9914 12.0535 36.2253 12.6674 36.2131 13.3012C36.201 13.935 35.9438 14.5395 35.4955 14.9877C35.0473 15.436 34.4428 15.6932 33.809 15.7053C33.1752 15.7175 32.5614 15.4836 32.0963 15.0529Z" fill="black"/>
<path d="M17.608 41.0362L1.15179 24.58C0.656885 24.1116 0.301571 23.5151 0.125346 22.8569C-0.0508803 22.1986 -0.0411155 21.5044 0.153558 20.8514C0.326732 20.3015 0.65131 19.8116 1.09009 19.4378C1.52887 19.0639 2.06411 18.8212 2.63447 18.7375L20.8376 15.8015L27.194 9.44505C27.3212 9.34964 27.4785 9.30332 27.6371 9.31459C27.7958 9.32586 27.945 9.39398 28.0574 9.50642C28.1699 9.61886 28.238 9.76812 28.2492 9.92673C28.2605 10.0853 28.2142 10.2427 28.1188 10.3699L21.6156 16.8731C21.5196 16.9701 21.397 17.0366 21.2633 17.0639L2.83998 19.9999C2.50413 20.0406 2.18709 20.1772 1.92677 20.3932C1.66645 20.6093 1.47385 20.8958 1.37199 21.2184C1.25617 21.6409 1.25785 22.087 1.37684 22.5087C1.49584 22.9303 1.72764 23.3115 2.04727 23.6112L18.5034 40.0527C18.8002 40.3765 19.1812 40.6111 19.6039 40.7303C20.0265 40.8496 20.4741 40.8488 20.8963 40.7279C21.2189 40.6261 21.5053 40.4335 21.7214 40.1732C21.9375 39.9129 22.074 39.5958 22.1147 39.2599L25.0507 20.8514C25.0625 20.7116 25.1252 20.581 25.2268 20.4844L31.73 13.9812C31.7915 13.919 31.8646 13.8697 31.9453 13.836C32.0259 13.8024 32.1124 13.785 32.1998 13.785C32.2872 13.785 32.3737 13.8024 32.4543 13.836C32.535 13.8697 32.6081 13.919 32.6696 13.9812C32.7906 14.1047 32.8584 14.2707 32.8584 14.4436C32.8584 14.6165 32.7906 14.7825 32.6696 14.906L26.3132 21.2624L23.3772 39.4655C23.2935 40.0358 23.0508 40.5711 22.6769 41.0099C22.303 41.4487 21.8131 41.7732 21.2633 41.9464C20.6286 42.1392 19.9536 42.1563 19.3099 41.996C18.6663 41.8358 18.0781 41.5041 17.608 41.0362Z" fill="black"/>
<path d="M37.1183 10.7222C36.8659 10.4696 36.694 10.1479 36.6245 9.79768C36.5549 9.44745 36.5907 9.08444 36.7274 8.75457C36.8641 8.4247 37.0955 8.14277 37.3924 7.94442C37.6893 7.74606 38.0384 7.64014 38.3955 7.64014C38.7526 7.64014 39.1016 7.74606 39.3985 7.94442C39.6954 8.14277 39.9269 8.4247 40.0636 8.75457C40.2002 9.08444 40.2361 9.44745 40.1665 9.79768C40.0969 10.1479 39.925 10.4696 39.6726 10.7222C39.5049 10.8899 39.3058 11.0231 39.0867 11.1139C38.8676 11.2047 38.6327 11.2514 38.3955 11.2514C38.1583 11.2514 37.9234 11.2047 37.7042 11.1139C37.4851 11.0231 37.286 10.8899 37.1183 10.7222ZM38.7331 9.10741C38.6634 9.03744 38.5744 8.98972 38.4776 8.97032C38.3807 8.95093 38.2803 8.96073 38.189 8.99846C38.0977 9.03618 38.0196 9.10011 37.9647 9.18223C37.9098 9.26434 37.8805 9.36092 37.8805 9.45971C37.8805 9.5585 37.9098 9.65509 37.9647 9.7372C38.0196 9.81932 38.0977 9.88333 38.189 9.92106C38.2803 9.95879 38.3807 9.9685 38.4776 9.9491C38.5744 9.92971 38.6634 9.88199 38.7331 9.81202C38.8263 9.71847 38.8787 9.59179 38.8787 9.45971C38.8787 9.32764 38.8263 9.20096 38.7331 9.10741Z" fill="black"/>
<path d="M44.1493 8.81383C44.6195 8.81383 45.0007 8.43263 45.0007 7.9624C45.0007 7.49216 44.6195 7.11096 44.1493 7.11096C43.6791 7.11096 43.2979 7.49216 43.2979 7.9624C43.2979 8.43263 43.6791 8.81383 44.1493 8.81383Z" fill="black"/>
<path d="M14.1135 34.6063C13.8404 34.3191 13.6575 33.958 13.5875 33.5679C13.5175 33.1778 13.5635 32.7758 13.7197 32.4115C13.876 32.0473 14.1357 31.7369 14.4666 31.5188C14.7975 31.3006 15.1852 31.1844 15.5815 31.1844C15.9778 31.1844 16.3655 31.3006 16.6964 31.5188C17.0273 31.7369 17.287 32.0473 17.4432 32.4115C17.5995 32.7758 17.6455 33.1778 17.5755 33.5679C17.5055 33.958 17.3226 34.3191 17.0495 34.6063C16.8592 34.8034 16.6311 34.9602 16.3789 35.0673C16.1267 35.1743 15.8555 35.2295 15.5815 35.2295C15.3075 35.2295 15.0363 35.1743 14.7841 35.0673C14.5319 34.9602 14.3038 34.8034 14.1135 34.6063ZM16.0513 32.5951C15.9509 32.4939 15.8227 32.4248 15.683 32.3966C15.5433 32.3683 15.3984 32.3822 15.2666 32.4364C15.1348 32.4907 15.0221 32.5829 14.9428 32.7013C14.8635 32.8197 14.8211 32.959 14.8211 33.1015C14.8211 33.2441 14.8635 33.3834 14.9428 33.5019C15.0221 33.6203 15.1348 33.7125 15.2666 33.7667C15.3984 33.821 15.5433 33.8348 15.683 33.8066C15.8227 33.7783 15.9509 33.7093 16.0513 33.608C16.1848 33.4733 16.2598 33.2912 16.2598 33.1015C16.2598 32.9118 16.1848 32.7298 16.0513 32.5951Z" fill="black"/>
<path d="M8.87338 23.3761C8.72292 23.2273 8.60346 23.0502 8.52194 22.8549C8.44041 22.6596 8.39844 22.4501 8.39844 22.2385C8.39844 22.0269 8.44041 21.8173 8.52194 21.622C8.60346 21.4267 8.72292 21.2496 8.87338 21.1007C9.17771 20.8039 9.58598 20.6379 10.0111 20.6379C10.4362 20.6379 10.8444 20.8039 11.1488 21.1007C11.4094 21.4101 11.5445 21.8059 11.5273 22.2101C11.5101 22.6142 11.3418 22.9972 11.0558 23.2832C10.7698 23.5692 10.3868 23.7375 9.98269 23.7547C9.57856 23.7719 9.18269 23.6368 8.87338 23.3761ZM10.2239 22.0403C10.1666 21.9855 10.0904 21.955 10.0111 21.955C9.9318 21.955 9.85556 21.9855 9.79821 22.0403C9.76973 22.0664 9.747 22.0982 9.73145 22.1336C9.71589 22.1689 9.70786 22.2072 9.70786 22.2458C9.70786 22.2845 9.71589 22.3227 9.73145 22.3581C9.747 22.3935 9.76973 22.4252 9.79821 22.4514C9.85556 22.5061 9.9318 22.5366 10.0111 22.5366C10.0904 22.5366 10.1666 22.5061 10.2239 22.4514C10.2745 22.3948 10.3024 22.3217 10.3024 22.2458C10.3024 22.17 10.2745 22.0968 10.2239 22.0403Z" fill="black"/>
<path d="M20.2928 35.0029C20.7631 35.0029 21.1443 34.6217 21.1443 34.1515C21.1443 33.6813 20.7631 33.3 20.2928 33.3C19.8226 33.3 19.4414 33.6813 19.4414 34.1515C19.4414 34.6217 19.8226 35.0029 20.2928 35.0029Z" fill="black"/>
<path d="M10.0624 27.3253C10.5326 27.3253 10.9138 26.9441 10.9138 26.4739C10.9138 26.0036 10.5326 25.6224 10.0624 25.6224C9.59214 25.6224 9.21094 26.0036 9.21094 26.4739C9.21094 26.9441 9.59214 27.3253 10.0624 27.3253Z" fill="black"/>
<path d="M14.98 25.2551C13.5659 23.8899 12.6334 22.1022 12.3229 20.1613C12.3152 20.0511 12.3346 19.9407 12.3795 19.8398C12.4243 19.7389 12.4932 19.6505 12.5801 19.5824C12.6671 19.5143 12.7694 19.4685 12.8781 19.4491C12.9868 19.4297 13.0986 19.4374 13.2037 19.4713C14.7058 20.0768 16.0405 21.0343 17.0955 22.2631C18.1506 23.4918 18.8951 24.9559 19.2665 26.5323L20.7345 27.1488C22.1958 27.6234 23.5587 28.3596 24.7568 29.3215C24.8779 29.445 24.9457 29.611 24.9457 29.7839C24.9457 29.9568 24.8779 30.1229 24.7568 30.2463C24.7017 30.3131 24.6338 30.3679 24.557 30.4079C24.4802 30.4478 24.3962 30.472 24.31 30.4789C24.2237 30.4857 24.1369 30.4751 24.0548 30.4478C23.9727 30.4204 23.8969 30.3769 23.832 30.3197C22.7536 29.4515 21.5245 28.7896 20.2061 28.3673C19.3206 28.0427 18.4576 27.6602 17.6224 27.2223C16.6523 26.696 15.7624 26.0335 14.98 25.2551ZM13.9671 21.3209C14.6551 23.163 15.9493 24.7161 17.6371 25.7249C17.1179 24.3214 16.2427 23.0769 15.0974 22.1136C14.7386 21.8335 14.361 21.5785 13.9671 21.3503V21.3209Z" fill="black"/>
</svg>
