<svg width="26" height="26" viewBox="0 0 26 26" fill="none" xmlns="http://www.w3.org/2000/svg">
<path d="M11.967 25.5C10.4239 25.5282 8.89046 25.2522 7.45408 24.6878C6.0177 24.1234 4.70656 23.2816 3.5955 22.2105C2.48445 21.1394 1.59526 19.8599 0.978682 18.4451C0.362104 17.0303 0.0302012 15.508 0.00196702 13.9649C-0.0262672 12.4219 0.249693 10.8884 0.814101 9.45206C1.37851 8.01568 2.22033 6.70453 3.29146 5.59348C4.36258 4.48243 5.64204 3.59324 7.05681 2.97666C8.47158 2.36008 9.99394 2.02821 11.537 1.99997C11.642 1.99596 11.7469 2.01269 11.8455 2.04923C11.9441 2.08576 12.0345 2.14135 12.1116 2.21286C12.1887 2.28438 12.2509 2.37039 12.2948 2.46598C12.3386 2.56156 12.3631 2.66485 12.367 2.76993C12.371 2.87451 12.3542 2.97885 12.3175 3.07688C12.2809 3.1749 12.2251 3.26468 12.1535 3.34098C12.0818 3.41727 11.9957 3.47859 11.9002 3.52134C11.8047 3.56408 11.7016 3.58737 11.597 3.58994C9.62002 3.66132 7.70692 4.30834 6.09242 5.45151C4.47793 6.59468 3.23228 8.18429 2.50835 10.0253C1.78441 11.8663 1.61368 13.8786 2.0171 15.8153C2.42053 17.7519 3.38058 19.5287 4.7794 20.9275C6.17823 22.3264 7.95498 23.2864 9.89165 23.6899C11.8283 24.0933 13.8406 23.9225 15.6817 23.1986C17.5227 22.4746 19.1123 21.229 20.2554 19.6145C21.3986 18 22.0456 16.0869 22.117 14.11C22.1274 13.8995 22.2203 13.7017 22.3757 13.5594C22.5312 13.4171 22.7364 13.3418 22.947 13.3499C23.0512 13.3525 23.1538 13.3759 23.2488 13.4187C23.3438 13.4616 23.4293 13.5231 23.5001 13.5995C23.571 13.676 23.6257 13.7658 23.6613 13.8638C23.6968 13.9618 23.7124 14.0659 23.707 14.17C23.6007 17.212 22.317 20.0938 20.1268 22.2076C17.9365 24.3214 15.0109 25.5018 11.967 25.5Z" fill="black"/>
<path d="M24.8873 14.94H20.2873C20.1796 14.9388 20.0733 14.9158 19.9747 14.8726C19.8761 14.8293 19.7873 14.7665 19.7135 14.6881C19.6398 14.6097 19.5826 14.5171 19.5454 14.4161C19.5083 14.315 19.4919 14.2075 19.4973 14.1C19.5457 13.0471 19.3739 11.9956 18.993 11.0128C18.6121 10.03 18.0305 9.13747 17.2852 8.39215C16.5398 7.64684 15.6473 7.0651 14.6645 6.68421C13.6817 6.30331 12.6302 6.13161 11.5773 6.18C11.4694 6.18684 11.3613 6.17146 11.2596 6.13483C11.1579 6.0982 11.0648 6.0411 10.9861 5.96704C10.9073 5.89299 10.8446 5.80361 10.8019 5.70435C10.7591 5.60509 10.7371 5.49811 10.7373 5.39002V0.799991C10.7373 0.587818 10.8216 0.384347 10.9716 0.234318C11.1216 0.0842884 11.3251 3.54136e-06 11.5373 3.54136e-06C13.3946 -0.00131133 15.2339 0.363537 16.95 1.07367C18.6662 1.78381 20.2254 2.82527 21.5387 4.13855C22.852 5.45184 23.8935 7.01116 24.6036 8.7273C25.3138 10.4434 25.6786 12.2828 25.6773 14.14C25.6786 14.2446 25.6592 14.3484 25.6201 14.4454C25.5809 14.5424 25.523 14.6307 25.4495 14.7051C25.376 14.7795 25.2885 14.8386 25.192 14.8789C25.0955 14.9192 24.9919 14.94 24.8873 14.94ZM21.0873 13.35H24.0873C23.8984 10.3025 22.6032 7.42897 20.4451 5.26905C18.2871 3.10913 15.4146 1.81153 12.3673 1.62V4.62C14.6517 4.72221 16.8154 5.6742 18.4342 7.28925C20.0529 8.9043 21.0099 11.0659 21.1173 13.35H21.0873Z" fill="black"/>
<path d="M11.9669 16.33C11.4542 16.33 10.9531 16.1778 10.527 15.8928C10.1008 15.6078 9.76888 15.2027 9.57315 14.7288C9.37741 14.255 9.32671 13.7337 9.42746 13.231C9.52821 12.7284 9.77588 12.2669 10.1391 11.9051C10.5023 11.5432 10.9647 11.2974 11.4678 11.1986C11.9709 11.0998 12.4919 11.1525 12.965 11.3501C13.4381 11.5476 13.8419 11.8811 14.1253 12.3084C14.4087 12.7356 14.5589 13.2374 14.5569 13.75C14.5543 14.4352 14.2802 15.0914 13.7948 15.575C13.3094 16.0585 12.6521 16.33 11.9669 16.33ZM11.9669 12.75C11.7017 12.75 11.4474 12.8554 11.2598 13.0429C11.0723 13.2305 10.9669 13.4848 10.9669 13.75C10.9669 14.0152 11.0723 14.2696 11.2598 14.4571C11.4474 14.6447 11.7017 14.75 11.9669 14.75C12.2321 14.75 12.4865 14.6447 12.674 14.4571C12.8616 14.2696 12.9669 14.0152 12.9669 13.75C12.9669 13.4848 12.8616 13.2305 12.674 13.0429C12.4865 12.8554 12.2321 12.75 11.9669 12.75Z" fill="black"/>
<path d="M11.9667 19.5199C10.8227 19.5219 9.70386 19.1844 8.75181 18.55C7.79976 17.9157 7.05737 17.0131 6.61866 15.9565C6.17995 14.9 6.06463 13.7369 6.28733 12.6148C6.51003 11.4927 7.06075 10.4618 7.8697 9.65288C8.67865 8.84393 9.70944 8.29325 10.8316 8.07054C11.9537 7.84784 13.1167 7.96313 14.1733 8.40184C15.2299 8.84055 16.1325 9.58297 16.7668 10.535C17.4012 11.4871 17.7387 12.606 17.7368 13.75C17.7341 15.2795 17.1253 16.7456 16.0438 17.8271C14.9623 18.9086 13.4962 19.5173 11.9667 19.5199ZM11.9667 9.51994C11.1376 9.51797 10.3266 9.76204 9.63621 10.2212C8.94585 10.6804 8.40724 11.3341 8.08857 12.0996C7.76991 12.865 7.68551 13.7078 7.84605 14.5212C8.00659 15.3347 8.40487 16.0822 8.99046 16.6692C9.57604 17.2562 10.3226 17.6562 11.1357 17.8187C11.9487 17.9812 12.7917 17.8988 13.5579 17.582C14.3241 17.2651 14.9791 16.7281 15.4399 16.0389C15.9008 15.3496 16.1468 14.5391 16.1468 13.7099C16.1337 12.6082 15.6881 11.5557 14.9062 10.7794C14.1243 10.0031 13.0686 9.56515 11.9667 9.55998V9.51994Z" fill="black"/>
<path d="M3.99728 14.5499C4.43911 14.5499 4.79727 14.1918 4.79727 13.75C4.79727 13.3081 4.43911 12.95 3.99728 12.95C3.55546 12.95 3.19727 13.3081 3.19727 13.75C3.19727 14.1918 3.55546 14.5499 3.99728 14.5499Z" fill="black"/>
<path d="M6.3371 20.1699C6.77892 20.1699 7.13708 19.8118 7.13708 19.3699C7.13708 18.9281 6.77892 18.5699 6.3371 18.5699C5.89527 18.5699 5.53711 18.9281 5.53711 19.3699C5.53711 19.8118 5.89527 20.1699 6.3371 20.1699Z" fill="black"/>
<path d="M11.967 22.5099C12.4088 22.5099 12.767 22.1517 12.767 21.7099C12.767 21.2681 12.4088 20.9099 11.967 20.9099C11.5252 20.9099 11.167 21.2681 11.167 21.7099C11.167 22.1517 11.5252 22.5099 11.967 22.5099Z" fill="black"/>
<path d="M17.5871 20.1699C18.0289 20.1699 18.3871 19.8118 18.3871 19.3699C18.3871 18.9281 18.0289 18.5699 17.5871 18.5699C17.1453 18.5699 16.7871 18.9281 16.7871 19.3699C16.7871 19.8118 17.1453 20.1699 17.5871 20.1699Z" fill="black"/>
<path d="M6.3371 8.91994C6.77892 8.91994 7.13708 8.56177 7.13708 8.11994C7.13708 7.67811 6.77892 7.31995 6.3371 7.31995C5.89527 7.31995 5.53711 7.67811 5.53711 8.11994C5.53711 8.56177 5.89527 8.91994 6.3371 8.91994Z" fill="black"/>
<path d="M4.94701 12.3499C4.79792 12.351 4.65151 12.3103 4.52429 12.2326C4.39707 12.1548 4.2941 12.0431 4.22701 11.9099L3.53701 10.5199C3.47683 10.4258 3.43707 10.32 3.42025 10.2096C3.40343 10.0991 3.40993 9.98632 3.43936 9.87851C3.46878 9.77071 3.52047 9.67027 3.59109 9.58365C3.6617 9.49704 3.74966 9.42618 3.84933 9.37564C3.949 9.32511 4.05816 9.29603 4.16976 9.29026C4.28136 9.28448 4.39295 9.3021 4.49731 9.34208C4.60166 9.38205 4.69648 9.44345 4.77566 9.52231C4.85484 9.60117 4.91663 9.69577 4.95702 9.79996L5.65701 11.2C5.71601 11.3212 5.74341 11.4554 5.73666 11.5901C5.7299 11.7247 5.68921 11.8556 5.61837 11.9703C5.54753 12.085 5.44885 12.18 5.33148 12.2464C5.2141 12.3128 5.08185 12.3484 4.94701 12.3499Z" fill="black"/>
<path d="M5.19663 17.9199L3.71662 17.4199C3.5335 17.3395 3.38716 17.1934 3.3064 17.0105C3.22565 16.8275 3.21635 16.621 3.28034 16.4315C3.34434 16.242 3.47698 16.0834 3.65214 15.9868C3.82729 15.8903 4.03226 15.8628 4.22663 15.9099L5.70664 16.3999C5.90821 16.4676 6.07464 16.6125 6.16935 16.8029C6.26405 16.9932 6.27928 17.2134 6.21165 17.4149C6.14402 17.6165 5.99907 17.7829 5.80872 17.8776C5.61837 17.9724 5.3982 17.9876 5.19663 17.9199Z" fill="black"/>
<path d="M7.6672 21.8599C7.61945 21.7662 7.5909 21.664 7.58318 21.5591C7.57547 21.4543 7.58875 21.3489 7.62228 21.2493C7.65581 21.1496 7.70891 21.0576 7.77844 20.9788C7.84797 20.8999 7.93255 20.8357 8.02722 20.7899L9.4172 20.0899C9.60733 19.9989 9.82547 19.9856 10.0253 20.0528C10.2251 20.12 10.3908 20.2625 10.4872 20.4499C10.535 20.5436 10.5635 20.6459 10.5712 20.7507C10.5789 20.8556 10.5657 20.9609 10.5321 21.0606C10.4986 21.1603 10.4455 21.2522 10.376 21.3311C10.3064 21.41 10.2219 21.4741 10.1272 21.5199L8.73721 22.2199C8.54708 22.3109 8.32893 22.3242 8.12914 22.257C7.92935 22.1898 7.76364 22.0474 7.6672 21.8599Z" fill="black"/>
<path d="M14.887 22.5399C14.7661 22.5377 14.6473 22.5082 14.5396 22.4535C14.4318 22.3988 14.3378 22.3204 14.2646 22.2242C14.1915 22.1279 14.1411 22.0164 14.1173 21.8979C14.0934 21.7794 14.0967 21.657 14.127 21.5399L14.627 20.06C14.6506 19.9501 14.697 19.8465 14.7633 19.7558C14.8296 19.6651 14.9143 19.5893 15.0118 19.5335C15.1093 19.4777 15.2175 19.4431 15.3293 19.4319C15.4411 19.4206 15.554 19.4331 15.6606 19.4684C15.7673 19.5037 15.8653 19.5612 15.9483 19.6369C16.0313 19.7126 16.0975 19.8049 16.1424 19.9079C16.1873 20.0108 16.2101 20.1222 16.2091 20.2345C16.2082 20.3469 16.1836 20.4578 16.137 20.56L15.647 22.0399C15.5849 22.1898 15.4793 22.3176 15.3438 22.4067C15.2083 22.4959 15.0492 22.5423 14.887 22.5399Z" fill="black"/>
<path d="M19.6871 18.1299C19.5383 18.1298 19.3923 18.0887 19.2653 18.0111C19.1383 17.9335 19.0351 17.8223 18.9671 17.6899L18.2772 16.2899C18.2306 16.1967 18.2027 16.0952 18.1954 15.9912C18.188 15.8872 18.2011 15.7828 18.2341 15.6839C18.267 15.585 18.3192 15.4935 18.3875 15.4148C18.4558 15.336 18.5389 15.2715 18.6322 15.2249C18.7254 15.1783 18.8269 15.1505 18.9309 15.1431C19.0349 15.1357 19.1393 15.1489 19.2382 15.1819C19.3371 15.2148 19.4285 15.2669 19.5072 15.3352C19.586 15.4035 19.6505 15.4866 19.6972 15.5799L20.3972 16.9699C20.4585 17.0915 20.4877 17.2268 20.4821 17.3629C20.4765 17.499 20.4362 17.6314 20.3651 17.7475C20.294 17.8637 20.1944 17.9598 20.0758 18.0267C19.9571 18.0936 19.8233 18.1292 19.6871 18.1299Z" fill="black"/>
<path d="M8.547 8.02993C8.42632 8.02816 8.30766 7.99881 8.20011 7.94405C8.09255 7.88929 7.99896 7.81056 7.92655 7.71401C7.85413 7.61745 7.80481 7.50563 7.78235 7.38704C7.75989 7.26846 7.7649 7.14627 7.797 7.02993L8.28699 5.54994C8.36885 5.37053 8.51409 5.2277 8.69483 5.14882C8.87557 5.06994 9.07909 5.06059 9.2663 5.12258C9.45351 5.18457 9.61122 5.31354 9.70917 5.4847C9.80712 5.65586 9.83839 5.85713 9.797 6.04994L9.30701 7.52993C9.24731 7.68144 9.14224 7.81084 9.0062 7.90035C8.87015 7.98985 8.70977 8.03508 8.547 8.02993Z" fill="black"/>
<g opacity="0.2">
<path d="M20.3873 14.14C19.6267 17.2053 17.6884 19.8471 14.9927 21.4926C12.297 23.1381 9.06129 23.6546 5.9873 22.93C7.61528 23.9673 9.48756 24.5578 11.416 24.6424C13.3445 24.727 15.2613 24.3027 16.9739 23.4119C18.6864 22.5212 20.1344 21.1954 21.1724 19.5679C22.2104 17.9404 22.8018 16.0685 22.8873 14.14H20.3873Z" fill="black"/>
</g>
<g opacity="0.2">
<path d="M20.447 14.14C20.9934 12.314 21.1582 10.3951 20.9312 8.50269C20.7041 6.61027 20.0899 4.78486 19.127 3.14001C20.915 4.36331 22.3771 6.00486 23.3862 7.92194C24.3952 9.83901 24.9207 11.9736 24.917 14.14H20.447Z" fill="black"/>
</g>
<g opacity="0.2">
<path d="M13.3769 8.96997C14.3022 9.70898 14.9238 10.7622 15.1235 11.9294C15.3232 13.0967 15.0872 14.2966 14.4602 15.3013C13.8333 16.3059 12.8591 17.0451 11.7228 17.3786C10.5865 17.7121 9.3673 17.6165 8.29688 17.11C8.81345 17.6903 9.45819 18.1423 10.1799 18.4301C10.9016 18.7178 11.6804 18.8334 12.4546 18.7677C13.2288 18.702 13.977 18.4567 14.6399 18.0515C15.3028 17.6462 15.8621 17.0919 16.2734 16.4328C16.6848 15.7737 16.9368 15.0278 17.0096 14.2542C17.0825 13.4807 16.974 12.7008 16.6929 11.9765C16.4117 11.2522 15.9657 10.6033 15.3901 10.0814C14.8145 9.55955 14.1252 9.17901 13.3769 8.96997Z" fill="black"/>
</g>
</svg>
