<svg width="37" height="37" viewBox="0 0 37 37" fill="none" xmlns="http://www.w3.org/2000/svg">
<path d="M37 18.5C37 22.159 35.915 25.7357 33.8822 28.778C31.8494 31.8203 28.9601 34.1916 25.5796 35.5918C22.1992 36.992 18.4795 37.3583 14.8908 36.6445C11.3022 35.9307 8.00581 34.1687 5.41854 31.5814C2.83126 28.9941 1.06931 25.6978 0.355479 22.1091C-0.358347 18.5205 0.00802011 14.8008 1.40824 11.4203C2.80846 8.03989 5.17965 5.15058 8.22196 3.11777C11.2643 1.08497 14.841 0 18.5 0C23.4065 0 28.1121 1.94909 31.5815 5.41851C35.0509 8.88794 37 13.5935 37 18.5ZM16.4342 28.2896L30.155 14.5687C30.3791 14.3434 30.5048 14.0385 30.5048 13.7208C30.5048 13.403 30.3791 13.0982 30.155 12.8729L28.4746 11.1924C28.3641 11.0796 28.2321 10.99 28.0865 10.9289C27.9409 10.8677 27.7846 10.8362 27.6267 10.8362C27.4687 10.8362 27.3124 10.8677 27.1668 10.9289C27.0212 10.99 26.8893 11.0796 26.7788 11.1924L15.5863 22.3849L10.2675 17.1588C10.1583 17.0464 10.0277 16.957 9.88337 16.896C9.73906 16.8351 9.58398 16.8036 9.4273 16.8036C9.27063 16.8036 9.11554 16.8351 8.97122 16.896C8.8269 16.957 8.69629 17.0464 8.5871 17.1588L6.89125 18.8391C6.66719 19.0644 6.54143 19.3693 6.54143 19.687C6.54143 20.0048 6.66719 20.3096 6.89125 20.5349L14.5996 28.2433C14.7098 28.3537 14.8408 28.4415 14.985 28.5013C15.1292 28.5611 15.2837 28.5918 15.4398 28.5918C15.5959 28.5918 15.7504 28.5611 15.8946 28.5013C16.0388 28.4415 16.1697 28.3537 16.28 28.2433L16.4342 28.2896Z" fill="black"/>
</svg>
