<svg width="41" height="41" viewBox="0 0 41 41" fill="none" xmlns="http://www.w3.org/2000/svg">
    <g clip-path="url(#clip0_98_1995)">
        <path d="M23.8133 0H10.25C8.89077 0 7.5872 0.539954 6.62608 1.50108C5.66495 2.4622 5.125 3.76577 5.125 5.125V35.875C5.125 37.2342 5.66495 38.5378 6.62608 39.4989C7.5872 40.46 8.89077 41 10.25 41H30.75C32.1092 41 33.4128 40.46 34.3739 39.4989C35.335 38.5378 35.875 37.2342 35.875 35.875V12.0617C35.8749 11.3821 35.6048 10.7304 35.1242 10.25L25.625 0.750813C25.1446 0.270217 24.4929 0.000145133 23.8133 0V0ZM24.3438 8.96875V3.84375L32.0312 11.5312H26.9062C26.2266 11.5312 25.5749 11.2613 25.0943 10.7807C24.6137 10.3001 24.3438 9.64837 24.3438 8.96875ZM16.2821 25.2509C16.163 25.37 16.0216 25.4645 15.8659 25.529C15.7103 25.5934 15.5435 25.6266 15.375 25.6266C15.2065 25.6266 15.0397 25.5934 14.8841 25.529C14.7284 25.4645 14.587 25.37 14.4679 25.2509C14.3487 25.1318 14.2543 24.9903 14.1898 24.8347C14.1253 24.679 14.0921 24.5122 14.0921 24.3438C14.0921 24.1753 14.1253 24.0085 14.1898 23.8528C14.2543 23.6972 14.3487 23.5557 14.4679 23.4366L19.5929 18.3116C19.7119 18.1923 19.8533 18.0976 20.0089 18.033C20.1646 17.9685 20.3315 17.9352 20.5 17.9352C20.6685 17.9352 20.8354 17.9685 20.9911 18.033C21.1467 18.0976 21.2881 18.1923 21.4071 18.3116L26.5321 23.4366C26.6513 23.5557 26.7457 23.6972 26.8102 23.8528C26.8747 24.0085 26.9079 24.1753 26.9079 24.3438C26.9079 24.5122 26.8747 24.679 26.8102 24.8347C26.7457 24.9903 26.6513 25.1318 26.5321 25.2509C26.413 25.37 26.2716 25.4645 26.1159 25.529C25.9603 25.5934 25.7935 25.6266 25.625 25.6266C25.4565 25.6266 25.2897 25.5934 25.1341 25.529C24.9784 25.4645 24.837 25.37 24.7179 25.2509L21.7812 22.3117V32.0312C21.7812 32.3711 21.6463 32.6969 21.406 32.9372C21.1657 33.1775 20.8398 33.3125 20.5 33.3125C20.1602 33.3125 19.8343 33.1775 19.594 32.9372C19.3537 32.6969 19.2188 32.3711 19.2188 32.0312V22.3117L16.2821 25.2509Z" fill="#FFCC05"/>
    </g>
    <defs>
        <clipPath id="clip0_98_1995">
            <rect width="41" height="41" fill="white"/>
        </clipPath>
    </defs>
</svg>
