<svg width="64" height="64" viewBox="0 0 64 64" fill="none" xmlns="http://www.w3.org/2000/svg">
    <rect width="64" height="64" rx="32" fill="#FFCC05"/>
    <path d="M42.1919 35.489L42.1539 34.662L35.6709 33.736L34.3559 36.31C32.9675 35.5283 31.6983 34.5517 30.5869 33.41C29.4325 32.3004 28.4488 31.0259 27.6679 29.628L30.4679 28.228L27.6679 21.708L26.9079 21.818C25.6207 21.9953 24.4283 22.593 23.5159 23.518C20.3429 26.687 21.5859 32.9 26.3439 37.657C29.3259 40.638 32.8769 42.239 35.8949 42.238C36.7384 42.2674 37.5793 42.1274 38.3679 41.8263C39.1564 41.5252 39.8766 41.0691 40.4859 40.485C41.1083 39.8208 41.5822 39.0319 41.8764 38.1705C42.1705 37.3092 42.278 36.3951 42.1919 35.489ZM39.0719 39.071C36.7719 41.371 31.5909 40.071 27.7579 36.243C23.9249 32.415 22.6299 27.229 24.9299 24.929C25.3586 24.4945 25.8834 24.1667 26.4619 23.972L27.8819 27.285L26.7749 27.838C26.5351 27.9581 26.3218 28.125 26.1474 28.3288C25.9731 28.5326 25.8414 28.7693 25.7599 29.0248C25.6785 29.2803 25.649 29.5495 25.6732 29.8166C25.6974 30.0837 25.7748 30.3433 25.9009 30.58C26.7762 32.1482 27.877 33.5794 29.1679 34.828C30.4168 36.1045 31.8423 37.1952 33.4009 38.067C33.6411 38.1974 33.905 38.2785 34.177 38.3054C34.4491 38.3324 34.7237 38.3047 34.9849 38.224C35.2403 38.1445 35.4769 38.014 35.6804 37.8404C35.884 37.6668 36.0501 37.4537 36.1689 37.214L36.8159 35.92L40.1829 36.401C40.1445 37.3954 39.7502 38.3429 39.0719 39.071Z" fill="black"/>
</svg>
