<svg width="48" height="33" viewBox="0 0 48 33" fill="none" xmlns="http://www.w3.org/2000/svg">
<g clip-path="url(#clip0_96_1620)">
<path d="M47.0887 27.5993H41.2046C40.9644 27.5993 40.734 27.5051 40.5641 27.3373C40.3943 27.1696 40.2988 26.942 40.2988 26.7048C40.2988 26.0072 40.0996 24.3792 38.239 24.3792C36.2028 24.3792 36.1793 26.6762 36.1793 26.7048C36.1793 26.942 36.0838 27.1696 35.914 27.3373C35.7441 27.5051 35.5137 27.5993 35.2735 27.5993H32.2137C31.972 27.5993 31.7402 27.5045 31.5693 27.3357C31.3985 27.167 31.3024 26.9381 31.3024 26.6995C31.3024 26.4608 31.3985 26.232 31.5693 26.0632C31.7402 25.8945 31.972 25.7997 32.2137 25.7997H34.4474C34.768 24.3024 35.8966 22.5796 38.23 22.5796C40.518 22.5796 41.7282 24.0859 42.0343 25.7997H46.1738V22.5009C46.1738 21.9982 46.0235 17.5903 41.172 17.5903C41.0525 17.5906 40.9342 17.5674 40.8238 17.5223C40.7135 17.4772 40.6132 17.4109 40.5289 17.3274L33.9039 10.7997H26.7408V25.7997H28.5633C28.805 25.7997 29.0368 25.8945 29.2077 26.0632C29.3785 26.232 29.4746 26.4608 29.4746 26.6995C29.4746 26.9381 29.3785 27.167 29.2077 27.3357C29.0368 27.5045 28.805 27.5993 28.5633 27.5993H25.8296C25.5894 27.5993 25.359 27.5051 25.1891 27.3373C25.0192 27.1696 24.9238 26.942 24.9238 26.7048V9.9052C24.9238 9.66797 25.0192 9.44049 25.1891 9.27275C25.359 9.105 25.5894 9.01074 25.8296 9.01074H34.2662C34.3857 9.01053 34.504 9.03366 34.6144 9.07879C34.7247 9.12392 34.825 9.19016 34.9093 9.27371L41.5524 15.8086C43.3894 15.8802 44.8858 16.4794 46.0054 17.5975C47.9836 19.5653 47.9981 22.4061 47.9981 22.5242V26.7192C47.9943 26.9545 47.8967 27.1789 47.7264 27.3437C47.5562 27.5084 47.327 27.6003 47.0887 27.5993V27.5993Z" fill="#FFCC05"/>
<path d="M41.2049 17.4007H27.6451C27.4048 17.4007 27.1744 17.3065 27.0046 17.1387C26.8347 16.971 26.7393 16.7435 26.7393 16.5063V12.9052C26.7393 12.668 26.8347 12.4404 27.0046 12.2727C27.1744 12.105 27.4048 12.0107 27.6451 12.0107H37.2465C37.4748 12.0106 37.6948 12.0955 37.8625 12.2487L41.8244 15.8479C41.963 15.9693 42.0605 16.1297 42.104 16.3074C42.1474 16.4852 42.1346 16.6719 42.0673 16.8423C41.9999 17.0127 41.8814 17.1586 41.7275 17.2603C41.5736 17.3621 41.3918 17.4148 41.2067 17.4114L41.2049 17.4007ZM28.5563 15.6011H38.8697L36.8878 13.7997H28.5545L28.5563 15.6011Z" fill="#FFCC05"/>
<path d="M38.2338 30.245C37.4659 30.245 36.7152 30.0201 36.0768 29.5988C35.4383 29.1775 34.9407 28.5786 34.6469 27.878C34.3531 27.1774 34.2763 26.4065 34.4263 25.6628C34.5762 24.9191 34.9462 24.2361 35.4893 23.7C36.0324 23.1639 36.7243 22.7989 37.4775 22.6512C38.2307 22.5035 39.0114 22.5797 39.7207 22.8701C40.4301 23.1605 41.0363 23.6522 41.4627 24.2828C41.889 24.9135 42.1164 25.6549 42.1161 26.4132C42.1146 27.4293 41.7051 28.4034 40.9773 29.1218C40.2495 29.8401 39.2628 30.2441 38.2338 30.245V30.245ZM38.2338 24.3792C37.8264 24.3792 37.4282 24.4985 37.0895 24.722C36.7507 24.9455 36.4867 25.2632 36.3308 25.6348C36.1749 26.0065 36.1341 26.4155 36.2136 26.81C36.2931 27.2046 36.4893 27.567 36.7773 27.8514C37.0654 28.1359 37.4324 28.3296 37.832 28.4081C38.2315 28.4866 38.6457 28.4463 39.0221 28.2923C39.3984 28.1384 39.7201 27.8777 39.9465 27.5432C40.1728 27.2087 40.2936 26.8155 40.2936 26.4132C40.2931 25.8739 40.076 25.3568 39.6898 24.9755C39.3036 24.5941 38.78 24.3797 38.2338 24.3792V24.3792Z" fill="#FFCC05"/>
<path d="M24.1739 0.00012207H1.95109C1.43346 0.000596231 0.937212 0.203974 0.571364 0.565576C0.205516 0.927178 -2.22715e-07 1.41738 0 1.92853V31.0735C0 31.5844 0.205575 32.0745 0.571475 32.4358C0.937375 32.7971 1.43363 33.0001 1.95109 33.0001H24.1739C24.6916 33.0001 25.188 32.7972 25.5542 32.4359C25.9204 32.0747 26.1263 31.5846 26.1268 31.0735V1.92853C26.1268 1.41707 25.9211 0.926574 25.5548 0.564921C25.1886 0.203268 24.6919 0.00012207 24.1739 0.00012207V0.00012207ZM2.43479 6.32568C2.43479 6.21065 2.45776 6.09677 2.5024 5.99052C2.54703 5.88427 2.61245 5.78776 2.6949 5.7065C2.77735 5.62525 2.87521 5.56086 2.98289 5.517C3.09058 5.47314 3.20597 5.45069 3.32246 5.45092H8.23371C8.46866 5.45092 8.69398 5.54306 8.86012 5.70712C9.02625 5.87117 9.11956 6.09367 9.11956 6.32568V6.32568C9.11956 6.55768 9.02625 6.78019 8.86012 6.94424C8.69398 7.10829 8.46866 7.20048 8.23371 7.20048H3.32246C3.20597 7.20071 3.09058 7.17826 2.98289 7.1344C2.87521 7.09054 2.77735 7.02615 2.6949 6.9449C2.61245 6.86364 2.54703 6.76713 2.5024 6.66088C2.45776 6.55463 2.43479 6.44071 2.43479 6.32568V6.32568ZM12.7609 26.1253C12.7609 26.3573 12.6675 26.5798 12.5014 26.7439C12.3353 26.9079 12.11 27.0001 11.875 27.0001H3.31885C3.20237 27.0003 3.08698 26.9779 2.97929 26.934C2.8716 26.8902 2.77373 26.8258 2.69127 26.7445C2.60882 26.6633 2.5434 26.5668 2.49877 26.4605C2.45414 26.3543 2.43117 26.2403 2.43117 26.1253V26.0753C2.43117 25.9602 2.45414 25.8463 2.49877 25.7401C2.5434 25.6338 2.60882 25.5373 2.69127 25.456C2.77373 25.3748 2.8716 25.3104 2.97929 25.2665C3.08698 25.2227 3.20237 25.2002 3.31885 25.2005H11.875C12.11 25.2005 12.3353 25.2926 12.5014 25.4567C12.6675 25.6207 12.7609 25.8433 12.7609 26.0753V26.1253ZM2.43479 22.5243C2.43479 22.4092 2.45776 22.2953 2.5024 22.1891C2.54703 22.0828 2.61245 21.9863 2.6949 21.9051C2.77735 21.8238 2.87521 21.7594 2.98289 21.7155C3.09058 21.6717 3.20597 21.6493 3.32246 21.6495H8.23371C8.46196 21.6597 8.67743 21.7564 8.8353 21.9195C8.99318 22.0826 9.08128 22.2995 9.08128 22.5251C9.08128 22.7508 8.99318 22.9677 8.8353 23.1308C8.67743 23.2939 8.46196 23.3906 8.23371 23.4008H3.32246C3.20528 23.4015 3.08913 23.3793 2.98068 23.3355C2.87224 23.2916 2.77366 23.227 2.69063 23.1454C2.6076 23.0637 2.54176 22.9666 2.49691 22.8597C2.45207 22.7528 2.42911 22.6382 2.42935 22.5225L2.43479 22.5243ZM12.7609 17.7246C12.7609 17.9566 12.6675 18.1791 12.5014 18.3432C12.3353 18.5072 12.11 18.5994 11.875 18.5994H3.31885C3.20237 18.5996 3.08698 18.5772 2.97929 18.5333C2.8716 18.4895 2.77373 18.4251 2.69127 18.3438C2.60882 18.2626 2.5434 18.1661 2.49877 18.0598C2.45414 17.9536 2.43117 17.8396 2.43117 17.7246V17.6745C2.43117 17.5595 2.45414 17.4456 2.49877 17.3393C2.5434 17.2331 2.60882 17.1366 2.69127 17.0553C2.77373 16.9741 2.8716 16.9097 2.97929 16.8658C3.08698 16.822 3.20237 16.7995 3.31885 16.7997H11.875C12.11 16.7997 12.3353 16.8919 12.5014 17.0559C12.6675 17.22 12.7609 17.4425 12.7609 17.6745V17.7246ZM2.43479 14.1253C2.43479 14.0103 2.45776 13.8964 2.5024 13.7901C2.54703 13.6839 2.61245 13.5874 2.6949 13.5061C2.77735 13.4249 2.87521 13.3605 2.98289 13.3166C3.09058 13.2728 3.20597 13.2503 3.32246 13.2505H8.23371C8.46866 13.2505 8.69398 13.3427 8.86012 13.5068C9.02625 13.6708 9.11956 13.8933 9.11956 14.1253C9.11956 14.3573 9.02625 14.5798 8.86012 14.7439C8.69398 14.908 8.46866 15.0001 8.23371 15.0001H3.32246C3.20552 15.001 3.08955 14.9791 2.98124 14.9356C2.87292 14.892 2.77441 14.8278 2.69139 14.7464C2.60836 14.6651 2.54244 14.5684 2.49747 14.4618C2.45249 14.3552 2.42935 14.2408 2.42935 14.1253H2.43479ZM12.7609 9.92498C12.7609 10.157 12.6675 10.3795 12.5014 10.5435C12.3353 10.7076 12.11 10.7997 11.875 10.7997H3.31885C3.20237 10.8 3.08698 10.7775 2.97929 10.7337C2.8716 10.6898 2.77373 10.6254 2.69127 10.5442C2.60882 10.4629 2.5434 10.3664 2.49877 10.2601C2.45414 10.1539 2.43117 10.04 2.43117 9.92498V9.87489C2.43117 9.75986 2.45414 9.64594 2.49877 9.53969C2.5434 9.43344 2.60882 9.33693 2.69127 9.25567C2.77373 9.17442 2.8716 9.11002 2.97929 9.06617C3.08698 9.02231 3.20237 8.99985 3.31885 9.00009H11.875C12.11 9.00009 12.3353 9.09227 12.5014 9.25633C12.6675 9.42038 12.7609 9.64288 12.7609 9.87489V9.92498ZM22.0761 23.1343L18.5761 26.5904C18.4842 26.6814 18.3751 26.7535 18.2549 26.8027C18.1348 26.852 18.006 26.8773 17.8759 26.8773C17.7458 26.8773 17.617 26.852 17.4969 26.8027C17.3768 26.7535 17.2676 26.6814 17.1757 26.5904L15.7754 25.2076C15.6013 25.022 15.5069 24.777 15.5118 24.524C15.5167 24.2711 15.6207 24.0298 15.8018 23.851C15.983 23.6721 16.2273 23.5694 16.4835 23.5645C16.7396 23.5597 16.9877 23.6529 17.1757 23.8248L17.875 24.5171L20.6757 21.7514C20.8637 21.5796 21.1119 21.4863 21.368 21.4912C21.6242 21.4961 21.8685 21.5987 22.0496 21.7776C22.2308 21.9565 22.3347 22.1977 22.3397 22.4507C22.3446 22.7036 22.2501 22.9486 22.0761 23.1343V23.1343ZM22.0761 14.3328L18.5761 17.789C18.4842 17.8799 18.3751 17.9521 18.2549 18.0013C18.1348 18.0505 18.006 18.0758 17.8759 18.0758C17.7458 18.0758 17.617 18.0505 17.4969 18.0013C17.3768 17.9521 17.2676 17.8799 17.1757 17.789L15.7754 16.4062C15.6835 16.3154 15.6107 16.2076 15.5611 16.089C15.5114 15.9704 15.4859 15.8434 15.486 15.715C15.4862 15.4559 15.5906 15.2074 15.7763 15.0242C15.962 14.8411 16.2137 14.7383 16.4762 14.7385C16.7386 14.7387 16.9903 14.8418 17.1757 15.0252L17.875 15.7157L20.6757 12.95C20.7663 12.8534 20.8757 12.7758 20.9974 12.7219C21.1191 12.668 21.2505 12.6389 21.3838 12.6364C21.5171 12.6338 21.6496 12.6579 21.7733 12.7071C21.897 12.7564 22.0093 12.8297 22.1036 12.9228C22.1979 13.016 22.2722 13.1269 22.322 13.249C22.3719 13.3711 22.3962 13.502 22.3937 13.6336C22.3911 13.7653 22.3617 13.895 22.3071 14.0152C22.2525 14.1353 22.1739 14.2434 22.0761 14.3328V14.3328ZM22.0761 6.50994L18.5761 9.96792C18.3903 10.1511 18.1385 10.254 17.8759 10.254C17.6134 10.254 17.3615 10.1511 17.1757 9.96792L15.7754 8.58509C15.5937 8.40085 15.4927 8.15338 15.4944 7.89621C15.496 7.63905 15.6001 7.39288 15.7841 7.21092C15.9682 7.02895 16.2173 6.92584 16.4778 6.92389C16.7382 6.92194 16.9889 7.0213 17.1757 7.20048L17.875 7.89276L20.6757 5.12712C20.8637 4.95525 21.1119 4.86199 21.368 4.86686C21.6242 4.87174 21.8685 4.97439 22.0496 5.15328C22.2308 5.33217 22.3347 5.5734 22.3397 5.82635C22.3446 6.07929 22.2501 6.32429 22.0761 6.50994V6.50994Z" fill="#FFCC05"/>
<path d="M36.1741 12L33.328 9.89978L26.127 10.254V16.4991H27.9259L27.6324 13.2003L31.1505 12.6636L36.1741 12Z" fill="#FFCC05"/>
<path d="M40.5328 17.3346L26.127 16.5081L26.7339 26.4186H34.3426C34.3426 26.4186 35.5291 23.4687 37.2411 23.4061C38.9531 23.3435 39.7194 24.4473 42.0346 25.8051C44.3498 27.1628 46.3933 26.4168 46.3933 26.4168V23.4061H44.203L44.1306 20.0984L45.2175 19.5224L44.9512 18.6047L43.6107 17.4061L40.5328 17.3346Z" fill="#FFCC05"/>
<path d="M32.54 25.7603H28.5581V27.5993H32.54V25.7603Z" fill="#FFCC05"/>
</g>
<defs>
<clipPath id="clip0_96_1620">
<rect width="48" height="33" fill="white"/>
</clipPath>
</defs>
</svg>
