<svg width="39" height="41" viewBox="0 0 39 41" fill="none" xmlns="http://www.w3.org/2000/svg">
<path d="M22.103 36.8028C20.8099 34.6299 20.1178 32.1581 20.0964 29.6364L20.0684 26.0638C20.0584 25.3131 20.2875 24.5783 20.7232 23.9637C21.1589 23.3491 21.7791 22.8859 22.4957 22.6397C23.2161 22.3961 23.8467 21.9456 24.3071 21.3456C24.649 20.9086 25.0868 20.5542 25.5876 20.3095C26.0883 20.0647 26.6388 19.936 27.1973 19.933L32.0099 19.8978V2.00195C32.0094 1.47118 31.7961 0.962299 31.4168 0.586982C31.0376 0.211666 30.5234 0.000565259 29.9871 0H2.0228C1.4865 0.000565259 0.972323 0.211666 0.593097 0.586982C0.213872 0.962299 0.000571146 1.47118 0 2.00195V38.998C0.000571146 39.5288 0.213872 40.0377 0.593097 40.413C0.972323 40.7883 1.4865 40.9994 2.0228 41H25.88C24.3575 39.8574 23.0749 38.4317 22.1041 36.8028H22.103ZM16.2838 28.306H6.91637C6.59448 28.306 6.28577 28.1795 6.05816 27.9542C5.83055 27.7289 5.70269 27.4234 5.70269 27.1048C5.70269 26.7863 5.83055 26.4807 6.05816 26.2555C6.28577 26.0302 6.59448 25.9037 6.91637 25.9037H16.2838C16.6057 25.9037 16.9144 26.0302 17.142 26.2555C17.3696 26.4807 17.4975 26.7863 17.4975 27.1048C17.4975 27.4234 17.3696 27.7289 17.142 27.9542C16.9144 28.1795 16.6057 28.306 16.2838 28.306ZM17.4975 31.9095C17.4977 32.0673 17.4664 32.2236 17.4054 32.3694C17.3445 32.5152 17.2551 32.6476 17.1424 32.7592C17.0296 32.8708 16.8958 32.9592 16.7485 33.0196C16.6011 33.0799 16.4433 33.1108 16.2838 33.1107H6.91637C6.59448 33.1107 6.28577 32.9841 6.05816 32.7589C5.83055 32.5336 5.70269 32.2281 5.70269 31.9095C5.70269 31.591 5.83055 31.2854 6.05816 31.0602C6.28577 30.8349 6.59448 30.7084 6.91637 30.7084H16.2838C16.6057 30.7084 16.9144 30.8349 17.142 31.0602C17.3696 31.2854 17.4975 31.591 17.4975 31.9095ZM16.2838 24.3021H6.91637C6.59448 24.3021 6.28577 24.1756 6.05816 23.9503C5.83055 23.725 5.70269 23.4195 5.70269 23.1009C5.70269 22.7824 5.83055 22.4768 6.05816 22.2516C6.28577 22.0263 6.59448 21.8998 6.91637 21.8998H16.2838C16.6057 21.8998 16.9144 22.0263 17.142 22.2516C17.3696 22.4768 17.4975 22.7824 17.4975 23.1009C17.4975 23.4195 17.3696 23.725 17.142 23.9503C16.9144 24.1756 16.6057 24.3021 16.2838 24.3021ZM16.2838 19.5295H6.91637C6.59448 19.5295 6.28577 19.4029 6.05816 19.1776C5.83055 18.9524 5.70269 18.6469 5.70269 18.3283C5.70269 18.0097 5.83055 17.7042 6.05816 17.4789C6.28577 17.2537 6.59448 17.1271 6.91637 17.1271H16.2838C16.6057 17.1271 16.9144 17.2537 17.142 17.4789C17.3696 17.7042 17.4975 18.0097 17.4975 18.3283C17.4975 18.6469 17.3696 18.9524 17.142 19.1776C16.9144 19.4029 16.6057 19.5295 16.2838 19.5295ZM16.2838 14.7248H6.91637C6.59448 14.7248 6.28577 14.5982 6.05816 14.373C5.83055 14.1477 5.70269 13.8422 5.70269 13.5236C5.70269 13.205 5.83055 12.8995 6.05816 12.6742C6.28577 12.449 6.59448 12.3224 6.91637 12.3224H16.2838C16.6057 12.3224 16.9144 12.449 17.142 12.6742C17.3696 12.8995 17.4975 13.205 17.4975 13.5236C17.4975 13.8422 17.3696 14.1477 17.142 14.373C16.9144 14.5982 16.6057 14.7248 16.2838 14.7248ZM25.017 9.92008H6.91637C6.59448 9.92008 6.28577 9.79353 6.05816 9.56826C5.83055 9.343 5.70269 9.03748 5.70269 8.71891C5.70269 8.40033 5.83055 8.09481 6.05816 7.86955C6.28577 7.64429 6.59448 7.51773 6.91637 7.51773H25.017C25.3389 7.51773 25.6476 7.64429 25.8752 7.86955C26.1028 8.09481 26.2306 8.40033 26.2306 8.71891C26.2306 9.03748 26.1028 9.343 25.8752 9.56826C25.6476 9.79353 25.3389 9.92008 25.017 9.92008Z" fill="#FFCC05"/>
<path d="M32.9981 39.9302C36.733 37.7424 39.032 33.7449 38.9997 29.4986L38.9716 25.9229C38.9736 25.6762 38.897 25.4351 38.7528 25.2338C38.6085 25.0326 38.4039 24.8814 38.1679 24.8018C36.9863 24.421 35.9459 23.7007 35.1795 22.7326C35.062 22.5904 34.9138 22.4762 34.7457 22.3982C34.5777 22.3202 34.3942 22.2805 34.2086 22.282H34.1989L27.2188 22.3333C27.031 22.3324 26.8455 22.3738 26.6762 22.4542C26.5068 22.5347 26.3582 22.6521 26.2414 22.7977C25.4907 23.777 24.4618 24.5123 23.2865 24.9096C23.0514 24.9927 22.8488 25.1469 22.7074 25.3505C22.566 25.5541 22.4931 25.7966 22.499 26.0435L22.527 29.6182C22.5594 33.8656 24.9199 37.8289 28.6861 39.9622L30.2407 40.842C30.427 40.947 30.6381 41.0015 30.8526 40.9998C31.067 40.9981 31.2772 40.9403 31.4619 40.8324L32.9981 39.9302ZM27.0775 30.2898C27.2011 30.19 27.3433 30.1153 27.496 30.07C27.6488 30.0247 27.809 30.0097 27.9677 30.0257C28.1263 30.0418 28.2802 30.0887 28.4205 30.1637C28.5608 30.2387 28.6848 30.3403 28.7853 30.4628L29.9914 31.9288L33.4329 28.306C33.6549 28.0803 33.9576 27.9499 34.2758 27.9429C34.5939 27.9359 34.9022 28.0529 35.1341 28.2686C35.3659 28.4844 35.5029 28.7817 35.5154 29.0964C35.528 29.4112 35.4151 29.7182 35.2011 29.9514L30.8103 34.5724C30.6968 34.6919 30.5597 34.7871 30.4075 34.8522C30.2554 34.9172 30.0914 34.9506 29.9256 34.9504H29.8825C29.7097 34.944 29.5403 34.9013 29.3856 34.8251C29.2308 34.7489 29.0942 34.6409 28.9849 34.5083L26.9028 31.9779C26.6997 31.7307 26.604 31.4139 26.6368 31.097C26.6696 30.7801 26.8281 30.489 27.0775 30.2877V30.2898Z" fill="#FFCC05"/>
</svg>
