<svg width="60" height="52" viewBox="0 0 60 52" fill="none" xmlns="http://www.w3.org/2000/svg">
<g clip-path="url(#clip0_96_1632)">
<path d="M48.794 39.241C43.534 37.91 37.9928 38.1335 32.8607 39.8836C31.9422 40.2075 30.9738 40.3727 29.9982 40.372C29.0237 40.3724 28.0564 40.2071 27.1388 39.8836C22.0067 38.1335 16.4656 37.91 11.2056 39.241V41.4323L12.6075 43.1609C12.6075 43.1609 12.2815 52 20.6932 52C29.1049 52 28.844 43.0227 28.844 43.0227C29.5872 42.7949 30.3831 42.7949 31.1263 43.0227C31.1263 43.0227 30.8883 52 39.2771 52C47.666 52 47.3627 43.1609 47.3627 43.1609L48.7647 41.4323L48.794 39.241Z" fill="#FFCC05"/>
<path d="M48.794 39.241C48.0832 39.061 47.3855 38.9197 46.6976 38.7911L47.229 38.9196V41.1688L45.788 42.9424C45.788 42.9424 46.0814 51.3445 38.4131 51.9646C38.7 51.9871 38.9967 52.0032 39.3064 52.0032C47.7018 52.0032 47.392 43.1641 47.392 43.1641L48.794 41.4355V39.241Z" fill="#FFCC05"/>
<path d="M11.2056 39.241C11.9163 39.061 12.6141 38.9197 13.302 38.7911L12.7705 38.9196V41.1688L14.2084 42.9424C14.2084 42.9424 13.9149 51.3445 21.5865 51.9646C21.2963 51.9871 21.0029 52.0032 20.6932 52.0032C12.2946 52.0032 12.6075 43.1641 12.6075 43.1641L11.2056 41.4355V39.241Z" fill="#FFCC05"/>
<path d="M33.223 0.375956C31.1327 1.07326 28.8676 1.07326 26.7773 0.375956C22.1346 -1.16309 17.3419 2.19776 16.4584 7.60532L13.335 27.4812H46.6784L43.542 7.59567C42.6584 2.19775 37.8755 -1.16309 33.223 0.375956Z" fill="#FFCC05"/>
<path d="M13.3379 27.478H29.9624H30.0406H46.6651L45.462 19.8342H14.5377L13.3379 27.478Z" fill="#FFCC05"/>
<path d="M29.9985 34.6881C20.822 34.6865 11.7045 33.2417 2.9899 30.4083L2.93119 30.3891C2.40135 30.2175 1.91099 29.9448 1.48808 29.5866C1.06518 29.2283 0.718026 28.7914 0.46644 28.3009C0.214854 27.8104 0.0637699 27.2759 0.021805 26.7278C-0.02016 26.1798 0.0478303 25.629 0.221875 25.1068C0.395919 24.5846 0.672606 24.1014 1.03616 23.6846C1.39972 23.2678 1.84301 22.9257 2.34074 22.6778C2.83846 22.4299 3.38088 22.2809 3.937 22.2396C4.49311 22.1982 5.05201 22.2652 5.58185 22.4368L5.64382 22.456C13.5052 25.0114 21.7303 26.313 30.0083 26.3117H30.0409C38.3276 26.3149 46.5616 25.0132 54.4315 22.456C55.5011 22.1079 56.6673 22.1928 57.6734 22.692C58.6795 23.1913 59.4432 24.0639 59.7964 25.118C60.1496 26.1721 60.0635 27.3214 59.5569 28.3129C59.0504 29.3044 58.1648 30.057 57.0952 30.4051C48.3647 33.2479 39.2291 34.6971 30.0344 34.6977L29.9985 34.6881Z" fill="#FFCC05"/>
</g>
<defs>
<clipPath id="clip0_96_1632">
<rect width="60" height="52" fill="white"/>
</clipPath>
</defs>
</svg>
