<svg width="45" height="45" viewBox="0 0 45 45" fill="none" xmlns="http://www.w3.org/2000/svg">
<path d="M45 5.625H39.375V0H33.75V5.625H28.125V11.25H33.75V16.875H39.375V11.25H45V5.625Z" fill="#FFCC05"/>
<path d="M37.9631 19.6003C38.7731 20.5003 39.51 21.4706 40.1625 22.5C38.4859 25.1575 36.2435 27.4124 33.5953 29.1037C30.2823 31.2206 26.4329 32.3454 22.5014 32.3454C18.5699 32.3454 14.7205 31.2206 11.4075 29.1037C8.76118 27.4101 6.51926 25.1557 4.84031 22.5C6.62735 19.6682 9.05518 17.2962 11.9278 15.5756C11.3663 17.1192 11.1496 18.7669 11.2929 20.4032C11.4362 22.0394 11.9361 23.6244 12.7574 25.0469C13.5787 26.4693 14.7015 27.6946 16.0469 28.6368C17.3923 29.5789 18.9277 30.215 20.5452 30.5004C22.1628 30.7858 23.8232 30.7136 25.4098 30.2888C26.9964 29.8639 28.4707 29.0968 29.7292 28.0414C30.9877 26.9859 31.9998 25.6677 32.6945 24.1793C33.3891 22.6909 33.7494 21.0684 33.75 19.4259V19.3359C31.362 18.718 29.2431 17.3327 27.7192 15.3931C26.1953 13.4535 25.3507 11.067 25.3153 8.60062C24.3806 8.49456 23.4407 8.44104 22.5 8.44031C12.6872 8.44031 4.17937 14.1553 0 22.5028C4.17937 30.8503 12.6872 36.5653 22.5 36.5653C32.3128 36.5653 40.8206 30.8503 45 22.5028C44.229 20.9637 43.3067 19.5053 42.2466 18.1491C40.9328 18.9207 39.4751 19.4155 37.9631 19.6031V19.6003ZM18.2812 14.0625C18.8354 14.0627 19.3842 14.172 19.8961 14.3843C20.4081 14.5965 20.8732 14.9075 21.2649 15.2995C21.6567 15.6916 21.9674 16.1569 22.1793 16.669C22.3912 17.1811 22.5002 17.7299 22.5 18.2841C22.4998 18.8383 22.3905 19.387 22.1782 19.8989C21.966 20.4109 21.655 20.876 21.263 21.2677C20.8709 21.6595 20.4056 21.9702 19.8935 22.1821C19.3814 22.394 18.8326 22.503 18.2784 22.5028C17.1592 22.5024 16.0859 22.0575 15.2947 21.2658C14.5036 20.4741 14.0593 19.4005 14.0597 18.2812C14.0601 17.162 14.505 16.0887 15.2967 15.2976C16.0884 14.5064 17.162 14.0621 18.2812 14.0625Z" fill="#FFCC05"/>
</svg>
