<svg width="37" height="37" viewBox="0 0 37 37" fill="none" xmlns="http://www.w3.org/2000/svg">
<g clip-path="url(#clip0_95_1612)">
<path d="M1.80664 16.6176H18.7496C19.7458 16.6176 20.5562 15.8071 20.5562 14.8109V9.975L23.5291 6.07793C23.7791 5.7502 23.8216 5.30909 23.6388 4.93967C23.456 4.57025 23.0795 4.33647 22.6673 4.33647H20.5563V1.80688C20.5563 0.810703 19.7459 0.000244141 18.7497 0.000244141H1.80664C0.810459 0.000244141 0 0.810703 0 1.80688V14.8109C0 15.8071 0.810459 16.6176 1.80664 16.6176ZM14.4134 7.22247H6.14287C5.54422 7.22247 5.05888 6.73713 5.05888 6.13849C5.05888 5.53984 5.54422 5.0545 6.14287 5.0545H14.4133C15.012 5.0545 15.4973 5.53984 15.4973 6.13849C15.4973 6.73713 15.012 7.22247 14.4134 7.22247ZM15.4974 10.4747C15.4974 11.0734 15.012 11.5587 14.4134 11.5587H6.14287C5.54422 11.5587 5.05888 11.0734 5.05888 10.4747C5.05888 9.87606 5.54422 9.39073 6.14287 9.39073H14.4133C15.012 9.39073 15.4974 9.87606 15.4974 10.4747Z" fill="#FFCC05"/>
<path d="M35.1931 20.3826H18.2501C17.2539 20.3826 16.4435 21.193 16.4435 22.1892V24.7188H14.3325C13.9203 24.7188 13.5438 24.9526 13.361 25.322C13.1782 25.6914 13.2207 26.1325 13.4707 26.4603L16.4436 30.3573V35.1933C16.4436 36.1894 17.254 36.9999 18.2502 36.9999H35.1932C36.1893 36.9999 36.9998 36.1894 36.9998 35.1933V22.1892C36.9997 21.193 36.1893 20.3826 35.1931 20.3826ZM22.5864 29.7777H30.8568C31.4554 29.7777 31.9408 30.263 31.9408 30.8617C31.9408 31.4603 31.4554 31.9456 30.8568 31.9456H22.5864C21.9877 31.9456 21.5024 31.4603 21.5024 30.8617C21.5024 30.263 21.9877 29.7777 22.5864 29.7777ZM21.5024 26.5254C21.5024 25.9268 21.9877 25.4415 22.5864 25.4415H30.8568C31.4554 25.4415 31.9408 25.9268 31.9408 26.5254C31.9408 27.1241 31.4554 27.6094 30.8568 27.6094H22.5864C21.9877 27.6094 21.5024 27.1241 21.5024 26.5254Z" fill="#FFCC05"/>
<path d="M6.00845 30.0099L5.23304 29.3884H1.99352L1.21811 30.0099C0.444 30.6305 0 31.5553 0 32.5474V35.916C0 36.5137 0.486275 37 1.08398 37H6.14258C6.74029 37 7.22656 36.5137 7.22656 35.916V32.5474C7.22656 31.5553 6.78256 30.6305 6.00845 30.0099Z" fill="#FFCC05"/>
<path d="M3.61311 27.2204C4.94303 27.2204 6.02115 26.1423 6.02115 24.8124C6.02115 23.4825 4.94303 22.4044 3.61311 22.4044C2.28319 22.4044 1.20508 23.4825 1.20508 24.8124C1.20508 26.1423 2.28319 27.2204 3.61311 27.2204Z" fill="#FFCC05"/>
<path d="M35.7819 7.60549L35.0065 6.98401H31.767L30.9916 7.60549C30.2174 8.22597 29.7734 9.15082 29.7734 10.143V13.5116C29.7734 14.1093 30.2597 14.5956 30.8574 14.5956H35.916C36.5137 14.5956 37 14.1093 37 13.5116V10.143C37 9.15082 36.556 8.22597 35.7819 7.60549Z" fill="#FFCC05"/>
<path d="M33.3866 4.81607C34.7165 4.81607 35.7946 3.73796 35.7946 2.40804C35.7946 1.07811 34.7165 0 33.3866 0C32.0566 0 30.9785 1.07811 30.9785 2.40804C30.9785 3.73796 32.0566 4.81607 33.3866 4.81607Z" fill="#FFCC05"/>
</g>
<defs>
<clipPath id="clip0_95_1612">
<rect width="37" height="37" fill="white"/>
</clipPath>
</defs>
</svg>
