<svg width="57" height="40" viewBox="0 0 57 40" fill="none" xmlns="http://www.w3.org/2000/svg">
<path d="M4.58297 22.0207C4.69404 22.0204 4.80256 21.9873 4.8949 21.9255C4.98724 21.8638 5.05931 21.7762 5.10207 21.6737C5.14483 21.5712 5.15637 21.4583 5.13525 21.3492C5.11414 21.2402 5.0613 21.1398 4.98337 21.0606C4.06323 20.1429 3.33398 19.052 2.83769 17.8509C2.3414 16.6498 2.08791 15.3623 2.09184 14.0627C2.09184 11.4169 3.11786 8.93262 4.98109 7.0694C5.08742 6.9631 5.14754 6.81915 5.14839 6.66879C5.14924 6.51844 5.09076 6.37382 4.98564 6.26632C4.87671 6.16543 4.73371 6.10937 4.58524 6.10938C4.43677 6.10937 4.29377 6.16543 4.18484 6.26632C3.15936 7.28853 2.34665 8.50387 1.79372 9.84207C1.24079 11.1803 0.958591 12.6148 0.96344 14.0627C0.959393 15.5102 1.24197 16.9442 1.79486 18.2819C2.34776 19.6196 3.16003 20.8347 4.18484 21.8569C4.23718 21.909 4.29928 21.9503 4.36759 21.9784C4.43591 22.0065 4.5091 22.0209 4.58297 22.0207V22.0207Z" fill="#FFCC05"/>
<path d="M5.82714 20.2121C5.93365 20.3177 6.07756 20.3769 6.22754 20.3769C6.37751 20.3769 6.52142 20.3177 6.62794 20.2121C6.68034 20.1595 6.7218 20.097 6.74991 20.0283C6.77803 19.9596 6.79224 19.8859 6.79174 19.8117C6.79232 19.7378 6.77813 19.6645 6.75 19.5961C6.72187 19.5277 6.68037 19.4657 6.62794 19.4136C5.92259 18.7129 5.36349 17.8791 4.9831 16.9605C4.60271 16.042 4.40862 15.057 4.41209 14.0628C4.41209 12.0357 5.19924 10.1361 6.62794 8.70742C6.73175 8.60044 6.78982 8.45723 6.78982 8.30816C6.78982 8.15909 6.73175 8.01587 6.62794 7.9089C6.52113 7.80386 6.37734 7.745 6.22754 7.745C6.07774 7.745 5.93394 7.80386 5.82714 7.9089C4.19895 9.54216 3.28467 11.7543 3.28467 14.0605C3.28467 16.3667 4.19895 18.5788 5.82714 20.2121V20.2121Z" fill="#FFCC05"/>
<path d="M7.46984 18.5672C7.57676 18.6764 7.71781 18.7356 7.87024 18.7356C8.02266 18.7356 8.16371 18.6764 8.26836 18.5695C8.3222 18.5174 8.36472 18.4547 8.39329 18.3855C8.42187 18.3162 8.43587 18.2418 8.43444 18.1668C8.43493 18.0936 8.42068 18.021 8.39254 17.9534C8.3644 17.8858 8.32294 17.8245 8.27064 17.7733C7.78264 17.2867 7.39588 16.7083 7.1327 16.0714C6.86952 15.4346 6.73512 14.7519 6.73729 14.0627C6.73729 12.6591 7.28101 11.3418 8.27291 10.3499C8.37633 10.2432 8.43424 10.1005 8.43444 9.95182C8.43523 9.87821 8.42113 9.80519 8.39298 9.73716C8.36483 9.66913 8.32322 9.6075 8.27064 9.55597C8.16357 9.4517 8.02015 9.39316 7.8707 9.39274C7.72125 9.39231 7.57749 9.45004 7.46984 9.5537C6.27091 10.7549 5.60889 12.3565 5.60889 14.0605C5.60889 15.7644 6.27091 17.366 7.46984 18.5672V18.5672ZM54.9081 14.0605C54.9128 15.3593 54.6598 16.6461 54.1639 17.8465C53.6679 19.0469 52.9389 20.137 52.0189 21.0538C51.9657 21.1062 51.9234 21.1685 51.8943 21.2372C51.8653 21.306 51.8501 21.3798 51.8497 21.4544C51.8493 21.529 51.8636 21.603 51.8919 21.6721C51.9201 21.7411 51.9617 21.804 52.0143 21.8569C52.1209 21.9625 52.2648 22.0217 52.4147 22.0217C52.5647 22.0217 52.7086 21.9625 52.8151 21.8569C53.8406 20.8347 54.6533 19.6194 55.2063 18.2811C55.7592 16.9429 56.0414 15.5084 56.0365 14.0605C56.0406 12.613 55.758 11.179 55.2051 9.84131C54.6522 8.50359 53.8399 7.28856 52.8151 6.26632C52.7062 6.16543 52.5632 6.10938 52.4147 6.10938C52.2663 6.10938 52.1233 6.16543 52.0143 6.26632C51.9094 6.37274 51.8506 6.51616 51.8506 6.66558C51.8506 6.81501 51.9094 6.95843 52.0143 7.06485C52.9353 7.98161 53.6653 9.07196 54.162 10.2728C54.6588 11.4736 54.9124 12.761 54.9081 14.0605V14.0605Z" fill="#FFCC05"/>
<path d="M52.5877 14.0605C52.5877 16.0875 51.8006 17.9872 50.3719 19.4159C50.2681 19.5228 50.21 19.6661 50.21 19.8151C50.21 19.9642 50.2681 20.1074 50.3719 20.2144C50.4784 20.32 50.6223 20.3792 50.7723 20.3792C50.9223 20.3792 51.0662 20.32 51.1727 20.2144C52.8007 18.5815 53.7149 16.3698 53.7149 14.0639C53.7149 11.7581 52.8007 9.54634 51.1727 7.91347C51.0942 7.83282 50.9933 7.77759 50.8831 7.75493C50.7729 7.73226 50.6584 7.74321 50.5545 7.78635C50.4506 7.82948 50.362 7.90283 50.3002 7.99688C50.2385 8.09093 50.2064 8.20136 50.2081 8.31387C50.2081 8.46857 50.2718 8.61644 50.3719 8.71199C51.8006 10.1361 52.5877 12.038 52.5877 14.0605Z" fill="#FFCC05"/>
<path d="M48.5654 18.1714C48.5654 18.3238 48.6246 18.4671 48.7292 18.5672C48.7814 18.6205 48.8436 18.6628 48.9122 18.6918C48.9809 18.7208 49.0546 18.7358 49.1292 18.736C49.2037 18.7362 49.2775 18.7216 49.3463 18.693C49.4151 18.6644 49.4776 18.6224 49.53 18.5695C50.729 17.3683 51.391 15.769 51.391 14.065C51.391 12.361 50.729 10.7594 49.53 9.56049C49.4233 9.45636 49.2803 9.39789 49.1312 9.39746C48.9822 9.39704 48.8388 9.4547 48.7315 9.55821C48.6223 9.66514 48.5654 9.80619 48.5654 9.95861C48.5654 10.111 48.6223 10.2521 48.7292 10.359C49.7189 11.3464 50.2626 12.6636 50.2626 14.0673C50.2648 14.756 50.1305 15.4384 49.8673 16.0749C49.6041 16.7115 49.2173 17.2895 48.7292 17.7755C48.6772 17.8274 48.6359 17.8891 48.6078 17.9571C48.5797 18.025 48.5653 18.0978 48.5654 18.1714V18.1714Z" fill="#FFCC05"/>
<path d="M52.3035 38.5691H46.1542V0.911011H24.4347V38.5691H19.2614V31.3642H22.4851V4.33488H11.6583V38.5691H3.5707C3.41986 38.5691 3.2752 38.629 3.16854 38.7357C3.06187 38.8423 3.00195 38.987 3.00195 39.1378C3.00195 39.2887 3.06187 39.4333 3.16854 39.54C3.2752 39.6467 3.41986 39.7066 3.5707 39.7066H52.3035C52.4543 39.7066 52.599 39.6467 52.7056 39.54C52.8123 39.4333 52.8722 39.2887 52.8722 39.1378C52.8722 38.987 52.8123 38.8423 52.7056 38.7357C52.599 38.629 52.4543 38.5691 52.3035 38.5691V38.5691ZM15.5918 8.43671H20.1623V13.0072H15.5918V8.43671ZM15.5918 15.7804H20.1623V20.3509H15.5918V15.7804ZM15.5918 23.1241H20.1623V27.6946H15.5918V23.1241ZM36.8198 5.41551H41.8385V10.4364H36.8198V5.41551ZM36.8198 13.4827H41.8385V18.5036H36.8198V13.4827ZM36.8198 21.5498H41.8385V26.5707H36.8198V21.5498ZM28.7527 5.41551H33.7713V10.4364H28.7527V5.41551ZM28.7527 13.4827H33.7713V18.5036H28.7527V13.4827ZM28.7527 21.5498H33.7713V26.5707H28.7527V21.5498ZM32.7863 30.602H37.8049V38.5691H32.7863V30.602V30.602Z" fill="#FFCC05"/>
</svg>
