<svg width="1067" height="479" viewBox="0 0 1067 479" fill="none" xmlns="http://www.w3.org/2000/svg">
    <rect x="180" width="322" height="89" rx="44.5" fill="black"/>
    <path d="M237.853 52H240.013L235.531 39.472H233.155L228.673 52H230.815L231.715 49.444H236.953L237.853 52ZM236.377 47.77H232.291L234.343 41.956L236.377 47.77ZM244.013 46.78C244.013 44.674 244.949 44.044 246.461 44.044H246.983V41.92C245.579 41.92 244.589 42.532 244.013 43.522V42.082H241.961V52H244.013V46.78ZM248.186 46.996C248.186 50.056 250.256 52.162 252.83 52.162C254.486 52.162 255.674 51.37 256.304 50.524V52H258.374V42.082H256.304V43.522C255.692 42.712 254.54 41.92 252.866 41.92C250.256 41.92 248.186 43.936 248.186 46.996ZM256.304 47.032C256.304 49.174 254.846 50.38 253.298 50.38C251.768 50.38 250.292 49.138 250.292 46.996C250.292 44.854 251.768 43.702 253.298 43.702C254.846 43.702 256.304 44.908 256.304 47.032ZM260.385 47.032C260.385 49.876 262.059 51.802 264.507 52.108V54.088H265.497C266.127 54.088 266.505 54.214 266.505 54.754C266.505 55.294 266.127 55.42 265.497 55.42H263.535V56.716H265.911C267.189 56.716 268.197 55.978 268.197 54.754C268.197 53.512 267.189 52.864 265.857 52.864V52.126C267.945 51.928 269.313 50.65 269.817 48.868H267.603C267.225 49.894 266.469 50.434 265.245 50.434C263.589 50.434 262.491 49.21 262.491 47.032C262.491 44.872 263.589 43.648 265.245 43.648C266.469 43.648 267.261 44.26 267.603 45.214H269.817C269.259 43.126 267.675 41.92 265.245 41.92C262.401 41.92 260.385 43.936 260.385 47.032ZM276.538 52H278.59V43.432L282.424 52H283.846L287.662 43.432V52H289.714V39.49H287.518L283.144 49.3L278.752 39.49H276.538V52ZM301.393 42.082H299.341V47.608C299.341 49.426 298.351 50.362 296.839 50.362C295.345 50.362 294.355 49.426 294.355 47.608V42.082H292.321V47.914C292.321 50.686 294.085 52.144 296.407 52.144C297.577 52.144 298.693 51.658 299.341 50.812V52H301.393V42.082ZM303.416 46.996C303.416 50.056 305.486 52.162 308.06 52.162C309.716 52.162 310.904 51.37 311.534 50.524V52H313.604V42.082H311.534V43.522C310.922 42.712 309.77 41.92 308.096 41.92C305.486 41.92 303.416 43.936 303.416 46.996ZM311.534 47.032C311.534 49.174 310.076 50.38 308.528 50.38C306.998 50.38 305.522 49.138 305.522 46.996C305.522 44.854 306.998 43.702 308.528 43.702C310.076 43.702 311.534 44.908 311.534 47.032ZM320.205 49.642L317.415 42.082H315.129L319.035 51.838L317.019 56.662H319.143L325.227 42.082H323.103L320.205 49.642ZM330.952 43.648C332.482 43.648 333.688 44.62 333.724 46.15H328.234C328.45 44.584 329.566 43.648 330.952 43.648ZM335.596 49.048H333.382C333.004 49.822 332.302 50.434 331.042 50.434C329.53 50.434 328.36 49.444 328.216 47.806H335.794C335.848 47.464 335.866 47.14 335.866 46.798C335.866 43.882 333.868 41.92 331.042 41.92C328.108 41.92 326.092 43.918 326.092 47.032C326.092 50.146 328.198 52.162 331.042 52.162C333.472 52.162 335.038 50.776 335.596 49.048ZM344.923 52H346.957V46.15C346.957 43.378 345.211 41.92 342.889 41.92C341.701 41.92 340.603 42.406 339.937 43.216V42.082H337.885V52H339.937V46.456C339.937 44.638 340.927 43.702 342.439 43.702C343.933 43.702 344.923 44.638 344.923 46.456V52ZM353.751 43.648C355.281 43.648 356.487 44.62 356.523 46.15H351.033C351.249 44.584 352.365 43.648 353.751 43.648ZM358.395 49.048H356.181C355.803 49.822 355.101 50.434 353.841 50.434C352.329 50.434 351.159 49.444 351.015 47.806H358.593C358.647 47.464 358.665 47.14 358.665 46.798C358.665 43.882 356.667 41.92 353.841 41.92C350.907 41.92 348.891 43.918 348.891 47.032C348.891 50.146 350.997 52.162 353.841 52.162C356.271 52.162 357.837 50.776 358.395 49.048ZM373.298 52H375.35V39.49H373.298V44.854H367.412V39.49H365.36V52H367.412V46.528H373.298V52ZM378.051 52H380.103V42.082H378.051V52ZM379.095 40.768C379.815 40.768 380.391 40.192 380.391 39.454C380.391 38.716 379.815 38.14 379.095 38.14C378.357 38.14 377.781 38.716 377.781 39.454C377.781 40.192 378.357 40.768 379.095 40.768ZM389.115 42.082H382.239V43.756H386.757L382.239 50.326V52H389.115V50.326H384.615L389.115 43.756V42.082ZM405.328 52H407.362V46.15C407.362 43.378 405.598 41.92 403.276 41.92C401.836 41.92 400.432 42.676 399.82 43.882C399.136 42.586 397.822 41.92 396.256 41.92C395.068 41.92 393.988 42.406 393.322 43.216V42.082H391.27V52H393.322V46.456C393.322 44.638 394.312 43.702 395.824 43.702C397.318 43.702 398.308 44.638 398.308 46.456V52H400.342V46.456C400.342 44.638 401.332 43.702 402.844 43.702C404.338 43.702 405.328 44.638 405.328 46.456V52ZM414.149 43.648C415.679 43.648 416.885 44.62 416.921 46.15H411.431C411.647 44.584 412.763 43.648 414.149 43.648ZM418.793 49.048H416.579C416.201 49.822 415.499 50.434 414.239 50.434C412.727 50.434 411.557 49.444 411.413 47.806H418.991C419.045 47.464 419.063 47.14 419.063 46.798C419.063 43.882 417.065 41.92 414.239 41.92C411.305 41.92 409.289 43.918 409.289 47.032C409.289 50.146 411.395 52.162 414.239 52.162C416.669 52.162 418.235 50.776 418.793 49.048ZM421.406 49.246C421.406 51.262 422.504 52 424.268 52H425.888V50.29H424.628C423.764 50.29 423.476 49.984 423.476 49.246V43.756H425.888V42.082H423.476V39.616H421.406V42.082H420.236V43.756H421.406V49.246ZM427.78 52H429.832V38.68H427.78V52ZM436.702 43.648C438.232 43.648 439.438 44.62 439.474 46.15H433.984C434.2 44.584 435.316 43.648 436.702 43.648ZM441.346 49.048H439.132C438.754 49.822 438.052 50.434 436.792 50.434C435.28 50.434 434.11 49.444 433.966 47.806H441.544C441.598 47.464 441.616 47.14 441.616 46.798C441.616 43.882 439.618 41.92 436.792 41.92C433.858 41.92 431.842 43.918 431.842 47.032C431.842 50.146 433.948 52.162 436.792 52.162C439.222 52.162 440.788 50.776 441.346 49.048ZM445.687 46.78C445.687 44.674 446.623 44.044 448.135 44.044H448.657V41.92C447.253 41.92 446.263 42.532 445.687 43.522V42.082H443.635V52H445.687V46.78ZM450.543 52H452.595V42.082H450.543V52ZM451.587 40.768C452.307 40.768 452.883 40.192 452.883 39.454C452.883 38.716 452.307 38.14 451.587 38.14C450.849 38.14 450.273 38.716 450.273 39.454C450.273 40.192 450.849 40.768 451.587 40.768Z" fill="white"/>
    <rect y="124" width="322" height="89" rx="44.5" fill="#2C2C2C"/>
    <path d="M79.5088 154.454C79.5088 149.882 72.8848 151.646 72.8848 148.82C72.8848 147.614 73.8028 147.038 74.9908 147.074C76.2868 147.11 77.0248 147.884 77.0968 148.73H79.3648C79.1848 146.588 77.4928 145.328 75.0988 145.328C72.5428 145.328 70.7968 146.696 70.7968 148.892C70.7968 153.5 77.4388 151.538 77.4388 154.562C77.4388 155.624 76.6288 156.398 75.1888 156.398C73.7668 156.398 73.0468 155.57 72.9568 154.544H70.7608C70.7608 156.578 72.3808 157.892 74.5768 158.09V160.214H75.5668C76.1968 160.214 76.5748 160.34 76.5748 160.88C76.5748 161.42 76.1968 161.546 75.5668 161.546H73.6048V162.842H75.9808C77.2588 162.842 78.2668 162.104 78.2668 160.88C78.2668 159.638 77.2588 158.99 75.9268 158.99V158.09C78.2488 157.802 79.5088 156.146 79.5088 154.454ZM91.3801 153.032C91.3801 149.918 89.1481 147.92 86.3221 147.92C83.4961 147.92 81.2641 149.918 81.2641 153.032C81.2641 156.146 83.4061 158.162 86.2321 158.162C89.0761 158.162 91.3801 156.146 91.3801 153.032ZM83.3521 153.032C83.3521 150.782 84.7381 149.702 86.2861 149.702C87.8161 149.702 89.2741 150.782 89.2741 153.032C89.2741 155.282 87.7621 156.38 86.2321 156.38C84.6841 156.38 83.3521 155.282 83.3521 153.032ZM93.6606 158H95.7306V149.756H97.5666V148.082H95.7306V147.38C95.7306 146.246 96.1626 145.814 97.4226 145.814V144.104C94.8306 144.104 93.6606 145.094 93.6606 147.38V148.082H92.4906V149.756H93.6606V158ZM108.835 153.032C108.835 149.918 106.603 147.92 103.777 147.92C100.951 147.92 98.7192 149.918 98.7192 153.032C98.7192 156.146 100.861 158.162 103.687 158.162C106.531 158.162 108.835 156.146 108.835 153.032ZM100.807 153.032C100.807 150.782 102.193 149.702 103.741 149.702C105.271 149.702 106.729 150.782 106.729 153.032C106.729 155.282 105.217 156.38 103.687 156.38C102.139 156.38 100.807 155.282 100.807 153.032ZM102.229 146.678C102.823 146.678 103.309 146.21 103.309 145.598C103.309 145.004 102.823 144.518 102.229 144.518C101.617 144.518 101.149 145.004 101.149 145.598C101.149 146.21 101.617 146.678 102.229 146.678ZM105.325 146.678C105.919 146.678 106.405 146.21 106.405 145.598C106.405 145.004 105.919 144.518 105.325 144.518C104.713 144.518 104.245 145.004 104.245 145.598C104.245 146.21 104.713 146.678 105.325 146.678ZM112.916 152.78C112.916 150.674 113.852 150.044 115.364 150.044H115.886V147.92C114.482 147.92 113.492 148.532 112.916 149.522V148.082H110.864V158H112.916V152.78ZM117.772 158H119.824V144.68H117.772V158ZM131.5 148.082H129.448V153.608C129.448 155.426 128.458 156.362 126.946 156.362C125.452 156.362 124.462 155.426 124.462 153.608V148.082H122.428V153.914C122.428 156.686 124.192 158.144 126.514 158.144C127.684 158.144 128.8 157.658 129.448 156.812V158H131.5V148.082ZM125.47 146.84C126.064 146.84 126.55 146.372 126.55 145.76C126.55 145.166 126.064 144.68 125.47 144.68C124.858 144.68 124.39 145.166 124.39 145.76C124.39 146.372 124.858 146.84 125.47 146.84ZM128.566 146.84C129.16 146.84 129.646 146.372 129.646 145.76C129.646 145.166 129.16 144.68 128.566 144.68C127.954 144.68 127.486 145.166 127.486 145.76C127.486 146.372 127.954 146.84 128.566 146.84ZM147.325 158H149.485L145.003 145.472H142.627L138.145 158H140.287L141.187 155.444H146.425L147.325 158ZM145.849 153.77H141.763L143.815 147.956L145.849 153.77ZM153.486 152.78C153.486 150.674 154.422 150.044 155.934 150.044H156.456V147.92C155.052 147.92 154.062 148.532 153.486 149.522V148.082H151.434V158H153.486V152.78ZM157.658 152.996C157.658 156.056 159.728 158.162 162.302 158.162C163.958 158.162 165.146 157.37 165.776 156.524V158H167.846V148.082H165.776V149.522C165.164 148.712 164.012 147.92 162.338 147.92C159.728 147.92 157.658 149.936 157.658 152.996ZM165.776 153.032C165.776 155.174 164.318 156.38 162.77 156.38C161.24 156.38 159.764 155.138 159.764 152.996C159.764 150.854 161.24 149.702 162.77 149.702C164.318 149.702 165.776 150.908 165.776 153.032ZM169.857 153.032C169.857 155.876 171.531 157.802 173.979 158.108V160.088H174.969C175.599 160.088 175.977 160.214 175.977 160.754C175.977 161.294 175.599 161.42 174.969 161.42H173.007V162.716H175.383C176.661 162.716 177.669 161.978 177.669 160.754C177.669 159.512 176.661 158.864 175.329 158.864V158.126C177.417 157.928 178.785 156.65 179.289 154.868H177.075C176.697 155.894 175.941 156.434 174.717 156.434C173.061 156.434 171.963 155.21 171.963 153.032C171.963 150.872 173.061 149.648 174.717 149.648C175.941 149.648 176.733 150.26 177.075 151.214H179.289C178.731 149.126 177.147 147.92 174.717 147.92C171.873 147.92 169.857 149.936 169.857 153.032ZM185.362 147.164H188.71V158H190.762V147.164H194.092V145.49H185.362V147.164ZM195.486 152.996C195.486 156.056 197.556 158.162 200.13 158.162C201.786 158.162 202.974 157.37 203.604 156.524V158H205.674V148.082H203.604V149.522C202.992 148.712 201.84 147.92 200.166 147.92C197.556 147.92 195.486 149.936 195.486 152.996ZM203.604 153.032C203.604 155.174 202.146 156.38 200.598 156.38C199.068 156.38 197.592 155.138 197.592 152.996C197.592 150.854 199.068 149.702 200.598 149.702C202.146 149.702 203.604 150.908 203.604 153.032ZM215.768 155.228C215.66 151.646 210.062 152.762 210.062 150.764C210.062 150.098 210.638 149.648 211.736 149.648C212.852 149.648 213.518 150.242 213.59 151.106H215.642C215.534 149.126 214.058 147.92 211.808 147.92C209.468 147.92 207.992 149.198 207.992 150.782C207.992 154.418 213.752 153.302 213.752 155.246C213.752 155.93 213.122 156.434 211.934 156.434C210.8 156.434 210.026 155.768 209.954 154.958H207.83C207.902 156.56 209.252 157.856 211.214 158.108V160.088H212.204C212.834 160.088 213.212 160.214 213.212 160.754C213.212 161.294 212.834 161.42 212.204 161.42H210.242V162.716H212.618C213.896 162.716 214.904 161.978 214.904 160.754C214.904 159.512 213.896 158.864 212.564 158.864V158.126C214.562 157.946 215.768 156.758 215.768 155.228ZM217.985 158H220.037V148.082H217.985V158ZM236.789 158H238.823V152.15C238.823 149.378 237.059 147.92 234.737 147.92C233.297 147.92 231.893 148.676 231.281 149.882C230.597 148.586 229.283 147.92 227.717 147.92C226.529 147.92 225.449 148.406 224.783 149.216V148.082H222.731V158H224.783V152.456C224.783 150.638 225.773 149.702 227.285 149.702C228.779 149.702 229.769 150.638 229.769 152.456V158H231.803V152.456C231.803 150.638 232.793 149.702 234.305 149.702C235.799 149.702 236.789 150.638 236.789 152.456V158ZM240.75 152.996C240.75 156.056 242.82 158.162 245.394 158.162C247.05 158.162 248.238 157.37 248.868 156.524V158H250.938V148.082H248.868V149.522C248.256 148.712 247.104 147.92 245.43 147.92C242.82 147.92 240.75 149.936 240.75 152.996ZM248.868 153.032C248.868 155.174 247.41 156.38 245.862 156.38C244.332 156.38 242.856 155.138 242.856 152.996C242.856 150.854 244.332 149.702 245.862 149.702C247.41 149.702 248.868 150.908 248.868 153.032ZM125.323 192H127.375V179.49H125.323V184.854H119.437V179.49H117.385V192H119.437V186.528H125.323V192ZM130.077 192H132.129V182.082H130.077V192ZM131.121 180.768C131.841 180.768 132.417 180.192 132.417 179.454C132.417 178.716 131.841 178.14 131.121 178.14C130.383 178.14 129.807 178.716 129.807 179.454C129.807 180.192 130.383 180.768 131.121 180.768ZM141.141 182.082H134.265V183.756H138.783L134.265 190.326V192H141.141V190.326H136.641L141.141 183.756V182.082ZM157.353 192H159.387V186.15C159.387 183.378 157.623 181.92 155.301 181.92C153.861 181.92 152.457 182.676 151.845 183.882C151.161 182.586 149.847 181.92 148.281 181.92C147.093 181.92 146.013 182.406 145.347 183.216V182.082H143.295V192H145.347V186.456C145.347 184.638 146.337 183.702 147.849 183.702C149.343 183.702 150.333 184.638 150.333 186.456V192H152.367V186.456C152.367 184.638 153.357 183.702 154.869 183.702C156.363 183.702 157.353 184.638 157.353 186.456V192ZM166.174 183.648C167.704 183.648 168.91 184.62 168.946 186.15H163.456C163.672 184.584 164.788 183.648 166.174 183.648ZM170.818 189.048H168.604C168.226 189.822 167.524 190.434 166.264 190.434C164.752 190.434 163.582 189.444 163.438 187.806H171.016C171.07 187.464 171.088 187.14 171.088 186.798C171.088 183.882 169.09 181.92 166.264 181.92C163.33 181.92 161.314 183.918 161.314 187.032C161.314 190.146 163.42 192.162 166.264 192.162C168.694 192.162 170.26 190.776 170.818 189.048ZM173.432 189.246C173.432 191.262 174.53 192 176.294 192H177.914V190.29H176.654C175.79 190.29 175.502 189.984 175.502 189.246V183.756H177.914V182.082H175.502V179.616H173.432V182.082H172.262V183.756H173.432V189.246ZM179.805 192H181.857V178.68H179.805V192ZM188.727 183.648C190.257 183.648 191.463 184.62 191.499 186.15H186.009C186.225 184.584 187.341 183.648 188.727 183.648ZM193.371 189.048H191.157C190.779 189.822 190.077 190.434 188.817 190.434C187.305 190.434 186.135 189.444 185.991 187.806H193.569C193.623 187.464 193.641 187.14 193.641 186.798C193.641 183.882 191.643 181.92 188.817 181.92C185.883 181.92 183.867 183.918 183.867 187.032C183.867 190.146 185.973 192.162 188.817 192.162C191.247 192.162 192.813 190.776 193.371 189.048ZM197.713 186.78C197.713 184.674 198.649 184.044 200.161 184.044H200.683V181.92C199.279 181.92 198.289 182.532 197.713 183.522V182.082H195.661V192H197.713V186.78ZM202.569 192H204.621V182.082H202.569V192ZM203.613 180.768C204.333 180.768 204.909 180.192 204.909 179.454C204.909 178.716 204.333 178.14 203.613 178.14C202.875 178.14 202.299 178.716 202.299 179.454C202.299 180.192 202.875 180.768 203.613 180.768Z" fill="white"/>
    <rect x="180" y="262" width="322" height="89" rx="44.5" fill="#484848"/>
    <path d="M269.5 289.718C269.5 285.974 266.674 283.328 263.11 283.328C259.582 283.328 256.72 285.974 256.72 289.718C256.72 293.48 259.582 296.126 263.11 296.126C266.674 296.126 269.5 293.48 269.5 289.718ZM258.826 289.718C258.826 286.892 260.626 285.128 263.11 285.128C265.594 285.128 267.394 286.892 267.394 289.718C267.394 292.544 265.594 294.344 263.11 294.344C260.626 294.344 258.826 292.544 258.826 289.718ZM271.843 293.246C271.843 295.262 272.941 296 274.705 296H276.325V294.29H275.065C274.201 294.29 273.913 293.984 273.913 293.246V287.756H276.325V286.082H273.913V283.616H271.843V286.082H270.673V287.756H271.843V293.246ZM287.666 291.032C287.666 287.918 285.434 285.92 282.608 285.92C279.782 285.92 277.55 287.918 277.55 291.032C277.55 294.146 279.692 296.162 282.518 296.162C285.362 296.162 287.666 294.146 287.666 291.032ZM279.638 291.032C279.638 288.782 281.024 287.702 282.572 287.702C284.102 287.702 285.56 288.782 285.56 291.032C285.56 293.282 284.048 294.38 282.518 294.38C280.97 294.38 279.638 293.282 279.638 291.032ZM301.265 296H303.947L298.421 289.754L303.857 283.49H301.283L296.423 289.196V283.49H294.371V296H296.423V290.402L301.265 296ZM314.743 286.082H312.691V291.608C312.691 293.426 311.701 294.362 310.189 294.362C308.695 294.362 307.705 293.426 307.705 291.608V286.082H305.671V291.914C305.671 294.686 307.435 296.144 309.757 296.144C310.927 296.144 312.043 295.658 312.691 294.812V296H314.743V286.082ZM316.767 290.996C316.767 294.056 318.837 296.162 321.411 296.162C323.067 296.162 324.255 295.37 324.885 294.524V296H326.955V286.082H324.885V287.522C324.273 286.712 323.121 285.92 321.447 285.92C318.837 285.92 316.767 287.936 316.767 290.996ZM324.885 291.032C324.885 293.174 323.427 294.38 321.879 294.38C320.349 294.38 318.873 293.138 318.873 290.996C318.873 288.854 320.349 287.702 321.879 287.702C323.427 287.702 324.885 288.908 324.885 291.032ZM329.902 296H331.972V287.756H333.808V286.082H331.972V285.38C331.972 284.246 332.404 283.814 333.664 283.814V282.104C331.072 282.104 329.902 283.094 329.902 285.38V286.082H328.732V287.756H329.902V296ZM345.076 291.032C345.076 287.918 342.844 285.92 340.018 285.92C337.192 285.92 334.96 287.918 334.96 291.032C334.96 294.146 337.102 296.162 339.928 296.162C342.772 296.162 345.076 294.146 345.076 291.032ZM337.048 291.032C337.048 288.782 338.434 287.702 339.982 287.702C341.512 287.702 342.97 288.782 342.97 291.032C342.97 293.282 341.458 294.38 339.928 294.38C338.38 294.38 337.048 293.282 337.048 291.032ZM338.47 284.678C339.064 284.678 339.55 284.21 339.55 283.598C339.55 283.004 339.064 282.518 338.47 282.518C337.858 282.518 337.39 283.004 337.39 283.598C337.39 284.21 337.858 284.678 338.47 284.678ZM341.566 284.678C342.16 284.678 342.646 284.21 342.646 283.598C342.646 283.004 342.16 282.518 341.566 282.518C340.954 282.518 340.486 283.004 340.486 283.598C340.486 284.21 340.954 284.678 341.566 284.678ZM349.157 290.78C349.157 288.674 350.093 288.044 351.605 288.044H352.127V285.92C350.723 285.92 349.733 286.532 349.157 287.522V286.082H347.105V296H349.157V290.78ZM357.519 286.082L361.281 296H363.729L367.509 286.082H365.331L362.523 294.164L359.715 286.082H357.519ZM373.236 287.648C374.766 287.648 375.972 288.62 376.008 290.15H370.518C370.734 288.584 371.85 287.648 373.236 287.648ZM377.88 293.048H375.666C375.288 293.822 374.586 294.434 373.326 294.434C371.814 294.434 370.644 293.444 370.5 291.806H378.078C378.132 291.464 378.15 291.14 378.15 290.798C378.15 287.882 376.152 285.92 373.326 285.92C370.392 285.92 368.376 287.918 368.376 291.032C368.376 294.146 370.482 296.162 373.326 296.162C375.756 296.162 377.322 294.776 377.88 293.048ZM393.287 296H395.447L390.965 283.472H388.589L384.107 296H386.249L387.149 293.444H392.387L393.287 296ZM391.811 291.77H387.725L389.777 285.956L391.811 291.77ZM399.448 290.78C399.448 288.674 400.384 288.044 401.896 288.044H402.418V285.92C401.014 285.92 400.024 286.532 399.448 287.522V286.082H397.396V296H399.448V290.78ZM403.62 290.996C403.62 294.056 405.69 296.162 408.264 296.162C409.92 296.162 411.108 295.37 411.738 294.524V296H413.808V286.082H411.738V287.522C411.126 286.712 409.974 285.92 408.3 285.92C405.69 285.92 403.62 287.936 403.62 290.996ZM411.738 291.032C411.738 293.174 410.28 294.38 408.732 294.38C407.202 294.38 405.726 293.138 405.726 290.996C405.726 288.854 407.202 287.702 408.732 287.702C410.28 287.702 411.738 288.908 411.738 291.032ZM415.819 291.032C415.819 293.876 417.493 295.802 419.941 296.108V298.088H420.931C421.561 298.088 421.939 298.214 421.939 298.754C421.939 299.294 421.561 299.42 420.931 299.42H418.969V300.716H421.345C422.623 300.716 423.631 299.978 423.631 298.754C423.631 297.512 422.623 296.864 421.291 296.864V296.126C423.379 295.928 424.747 294.65 425.251 292.868H423.037C422.659 293.894 421.903 294.434 420.679 294.434C419.023 294.434 417.925 293.21 417.925 291.032C417.925 288.872 419.023 287.648 420.679 287.648C421.903 287.648 422.695 288.26 423.037 289.214H425.251C424.693 287.126 423.109 285.92 420.679 285.92C417.835 285.92 415.819 287.936 415.819 291.032ZM263.769 325.464V330H265.821V325.464L269.961 317.49H267.693L264.795 323.628L261.897 317.49H259.611L263.769 325.464ZM271.589 330H273.641V320.082H271.589V330ZM276.335 330H278.387V325.734L282.059 330H284.831L280.259 325.05L284.831 320.082H281.987L278.387 324.42V316.68H276.335V330ZM285.618 324.996C285.618 328.056 287.688 330.162 290.262 330.162C291.918 330.162 293.106 329.37 293.736 328.524V330H295.806V320.082H293.736V321.522C293.124 320.712 291.972 319.92 290.298 319.92C287.688 319.92 285.618 321.936 285.618 324.996ZM293.736 325.032C293.736 327.174 292.278 328.38 290.73 328.38C289.2 328.38 287.724 327.138 287.724 324.996C287.724 322.854 289.2 321.702 290.73 321.702C292.278 321.702 293.736 322.908 293.736 325.032ZM312.559 330H314.593V324.15C314.593 321.378 312.829 319.92 310.507 319.92C309.067 319.92 307.663 320.676 307.051 321.882C306.367 320.586 305.053 319.92 303.487 319.92C302.299 319.92 301.219 320.406 300.553 321.216V320.082H298.501V330H300.553V324.456C300.553 322.638 301.543 321.702 303.055 321.702C304.549 321.702 305.539 322.638 305.539 324.456V330H307.573V324.456C307.573 322.638 308.563 321.702 310.075 321.702C311.569 321.702 312.559 322.638 312.559 324.456V330ZM316.52 324.996C316.52 328.056 318.59 330.162 321.164 330.162C322.82 330.162 324.008 329.37 324.638 328.524V330H326.708V320.082H324.638V321.522C324.026 320.712 322.874 319.92 321.2 319.92C318.59 319.92 316.52 321.936 316.52 324.996ZM324.638 325.032C324.638 327.174 323.18 328.38 321.632 328.38C320.102 328.38 318.626 327.138 318.626 324.996C318.626 322.854 320.102 321.702 321.632 321.702C323.18 321.702 324.638 322.908 324.638 325.032ZM342.017 330H344.069V317.49H342.017V322.854H336.131V317.49H334.079V330H336.131V324.528H342.017V330ZM346.771 330H348.823V320.082H346.771V330ZM347.815 318.768C348.535 318.768 349.111 318.192 349.111 317.454C349.111 316.716 348.535 316.14 347.815 316.14C347.077 316.14 346.501 316.716 346.501 317.454C346.501 318.192 347.077 318.768 347.815 318.768ZM357.835 320.082H350.959V321.756H355.477L350.959 328.326V330H357.835V328.326H353.335L357.835 321.756V320.082ZM374.048 330H376.082V324.15C376.082 321.378 374.318 319.92 371.996 319.92C370.556 319.92 369.152 320.676 368.54 321.882C367.856 320.586 366.542 319.92 364.976 319.92C363.788 319.92 362.708 320.406 362.042 321.216V320.082H359.99V330H362.042V324.456C362.042 322.638 363.032 321.702 364.544 321.702C366.038 321.702 367.028 322.638 367.028 324.456V330H369.062V324.456C369.062 322.638 370.052 321.702 371.564 321.702C373.058 321.702 374.048 322.638 374.048 324.456V330ZM382.869 321.648C384.399 321.648 385.605 322.62 385.641 324.15H380.151C380.367 322.584 381.483 321.648 382.869 321.648ZM387.513 327.048H385.299C384.921 327.822 384.219 328.434 382.959 328.434C381.447 328.434 380.277 327.444 380.133 325.806H387.711C387.765 325.464 387.783 325.14 387.783 324.798C387.783 321.882 385.785 319.92 382.959 319.92C380.025 319.92 378.009 321.918 378.009 325.032C378.009 328.146 380.115 330.162 382.959 330.162C385.389 330.162 386.955 328.776 387.513 327.048ZM390.126 327.246C390.126 329.262 391.224 330 392.988 330H394.608V328.29H393.348C392.484 328.29 392.196 327.984 392.196 327.246V321.756H394.608V320.082H392.196V317.616H390.126V320.082H388.956V321.756H390.126V327.246ZM396.499 330H398.551V316.68H396.499V330ZM405.422 321.648C406.952 321.648 408.158 322.62 408.194 324.15H402.704C402.92 322.584 404.036 321.648 405.422 321.648ZM410.066 327.048H407.852C407.474 327.822 406.772 328.434 405.512 328.434C404 328.434 402.83 327.444 402.686 325.806H410.264C410.318 325.464 410.336 325.14 410.336 324.798C410.336 321.882 408.338 319.92 405.512 319.92C402.578 319.92 400.562 321.918 400.562 325.032C400.562 328.146 402.668 330.162 405.512 330.162C407.942 330.162 409.508 328.776 410.066 327.048ZM414.407 324.78C414.407 322.674 415.343 322.044 416.855 322.044H417.377V319.92C415.973 319.92 414.983 320.532 414.407 321.522V320.082H412.355V330H414.407V324.78ZM419.263 330H421.315V320.082H419.263V330ZM420.307 318.768C421.027 318.768 421.603 318.192 421.603 317.454C421.603 316.716 421.027 316.14 420.307 316.14C419.569 316.14 418.993 316.716 418.993 317.454C418.993 318.192 419.569 318.768 420.307 318.768Z" fill="white"/>
    <rect x="556" y="262" width="322" height="89" rx="44.5" fill="#656565"/>
    <path d="M620.827 296H622.879V290.528H627.019V288.854H622.879V285.164H628.189V283.49H620.827V296ZM630.09 296H632.142V286.082H630.09V296ZM631.134 284.768C631.854 284.768 632.43 284.192 632.43 283.454C632.43 282.716 631.854 282.14 631.134 282.14C630.396 282.14 629.82 282.716 629.82 283.454C629.82 284.192 630.396 284.768 631.134 284.768ZM634.836 296H636.888V282.68H634.836V296ZM649.032 291.032C649.032 287.918 646.8 285.92 643.974 285.92C641.148 285.92 638.916 287.918 638.916 291.032C638.916 294.146 641.058 296.162 643.884 296.162C646.728 296.162 649.032 294.146 649.032 291.032ZM641.004 291.032C641.004 288.782 642.39 287.702 643.938 287.702C645.468 287.702 646.926 288.782 646.926 291.032C646.926 293.282 645.414 294.38 643.884 294.38C642.336 294.38 641.004 293.282 641.004 291.032ZM664.179 296H666.339L661.857 283.472H659.481L654.999 296H657.141L658.041 293.444H663.279L664.179 296ZM662.703 291.77H658.617L660.669 285.956L662.703 291.77ZM670.34 290.78C670.34 288.674 671.276 288.044 672.788 288.044H673.31V285.92C671.906 285.92 670.916 286.532 670.34 287.522V286.082H668.288V296H670.34V290.78ZM674.512 290.996C674.512 294.056 676.582 296.162 679.156 296.162C680.812 296.162 682 295.37 682.63 294.524V296H684.7V286.082H682.63V287.522C682.018 286.712 680.866 285.92 679.192 285.92C676.582 285.92 674.512 287.936 674.512 290.996ZM682.63 291.032C682.63 293.174 681.172 294.38 679.624 294.38C678.094 294.38 676.618 293.138 676.618 290.996C676.618 288.854 678.094 287.702 679.624 287.702C681.172 287.702 682.63 288.908 682.63 291.032ZM686.711 291.032C686.711 293.876 688.385 295.802 690.833 296.108V298.088H691.823C692.453 298.088 692.831 298.214 692.831 298.754C692.831 299.294 692.453 299.42 691.823 299.42H689.861V300.716H692.237C693.515 300.716 694.523 299.978 694.523 298.754C694.523 297.512 693.515 296.864 692.183 296.864V296.126C694.271 295.928 695.639 294.65 696.143 292.868H693.929C693.551 293.894 692.795 294.434 691.571 294.434C689.915 294.434 688.817 293.21 688.817 291.032C688.817 288.872 689.915 287.648 691.571 287.648C692.795 287.648 693.587 288.26 693.929 289.214H696.143C695.585 287.126 694.001 285.92 691.571 285.92C688.727 285.92 686.711 287.936 686.711 291.032ZM711.306 292.454C711.306 287.882 704.682 289.646 704.682 286.82C704.682 285.614 705.6 285.038 706.788 285.074C708.084 285.11 708.822 285.884 708.894 286.73H711.162C710.982 284.588 709.29 283.328 706.896 283.328C704.34 283.328 702.594 284.696 702.594 286.892C702.594 291.5 709.236 289.538 709.236 292.562C709.236 293.624 708.426 294.398 706.986 294.398C705.564 294.398 704.844 293.57 704.754 292.544H702.558C702.558 294.758 704.484 296.126 706.986 296.126C709.776 296.126 711.306 294.326 711.306 292.454ZM714.051 293.246C714.051 295.262 715.149 296 716.913 296H718.533V294.29H717.273C716.409 294.29 716.121 293.984 716.121 293.246V287.756H718.533V286.082H716.121V283.616H714.051V286.082H712.881V287.756H714.051V293.246ZM729.874 291.032C729.874 287.918 727.642 285.92 724.816 285.92C721.99 285.92 719.758 287.918 719.758 291.032C719.758 294.146 721.9 296.162 724.726 296.162C727.57 296.162 729.874 294.146 729.874 291.032ZM721.846 291.032C721.846 288.782 723.232 287.702 724.78 287.702C726.31 287.702 727.768 288.782 727.768 291.032C727.768 293.282 726.256 294.38 724.726 294.38C723.178 294.38 721.846 293.282 721.846 291.032ZM731.903 296H733.955V291.734L737.627 296H740.399L735.827 291.05L740.399 286.082H737.555L733.955 290.42V282.68H731.903V296ZM741.87 296H743.922V282.68H741.87V296ZM745.932 290.996C745.932 294.056 748.002 296.162 750.576 296.162C752.232 296.162 753.42 295.37 754.05 294.524V296H756.12V286.082H754.05V287.522C753.438 286.712 752.286 285.92 750.612 285.92C748.002 285.92 745.932 287.936 745.932 290.996ZM754.05 291.032C754.05 293.174 752.592 294.38 751.044 294.38C749.514 294.38 748.038 293.138 748.038 290.996C748.038 288.854 749.514 287.702 751.044 287.702C752.592 287.702 754.05 288.908 754.05 291.032ZM772.873 296H774.907V290.15C774.907 287.378 773.143 285.92 770.821 285.92C769.381 285.92 767.977 286.676 767.365 287.882C766.681 286.586 765.367 285.92 763.801 285.92C762.613 285.92 761.533 286.406 760.867 287.216V286.082H758.815V296H760.867V290.456C760.867 288.638 761.857 287.702 763.369 287.702C764.863 287.702 765.853 288.638 765.853 290.456V296H767.887V290.456C767.887 288.638 768.877 287.702 770.389 287.702C771.883 287.702 772.873 288.638 772.873 290.456V296ZM776.834 290.996C776.834 294.056 778.904 296.162 781.478 296.162C783.134 296.162 784.322 295.37 784.952 294.524V296H787.022V286.082H784.952V287.522C784.34 286.712 783.188 285.92 781.514 285.92C778.904 285.92 776.834 287.936 776.834 290.996ZM784.952 291.032C784.952 293.174 783.494 294.38 781.946 294.38C780.416 294.38 778.94 293.138 778.94 290.996C778.94 288.854 780.416 287.702 781.946 287.702C783.494 287.702 784.952 288.908 784.952 291.032ZM793.223 286.082L796.985 296H799.433L803.213 286.082H801.035L798.227 294.164L795.419 286.082H793.223ZM808.94 287.648C810.47 287.648 811.676 288.62 811.712 290.15H806.222C806.438 288.584 807.554 287.648 808.94 287.648ZM813.584 293.048H811.37C810.992 293.822 810.29 294.434 809.03 294.434C807.518 294.434 806.348 293.444 806.204 291.806H813.782C813.836 291.464 813.854 291.14 813.854 290.798C813.854 287.882 811.856 285.92 809.03 285.92C806.096 285.92 804.08 287.918 804.08 291.032C804.08 294.146 806.186 296.162 809.03 296.162C811.46 296.162 813.026 294.776 813.584 293.048ZM639.769 325.464V330H641.821V325.464L645.961 317.49H643.693L640.795 323.628L637.897 317.49H635.611L639.769 325.464ZM647.589 330H649.641V320.082H647.589V330ZM652.335 330H654.387V325.734L658.059 330H660.831L656.259 325.05L660.831 320.082H657.987L654.387 324.42V316.68H652.335V330ZM661.618 324.996C661.618 328.056 663.688 330.162 666.262 330.162C667.918 330.162 669.106 329.37 669.736 328.524V330H671.806V320.082H669.736V321.522C669.124 320.712 667.972 319.92 666.298 319.92C663.688 319.92 661.618 321.936 661.618 324.996ZM669.736 325.032C669.736 327.174 668.278 328.38 666.73 328.38C665.2 328.38 663.724 327.138 663.724 324.996C663.724 322.854 665.2 321.702 666.73 321.702C668.278 321.702 669.736 322.908 669.736 325.032ZM688.559 330H690.593V324.15C690.593 321.378 688.829 319.92 686.507 319.92C685.067 319.92 683.663 320.676 683.051 321.882C682.367 320.586 681.053 319.92 679.487 319.92C678.299 319.92 677.219 320.406 676.553 321.216V320.082H674.501V330H676.553V324.456C676.553 322.638 677.543 321.702 679.055 321.702C680.549 321.702 681.539 322.638 681.539 324.456V330H683.573V324.456C683.573 322.638 684.563 321.702 686.075 321.702C687.569 321.702 688.559 322.638 688.559 324.456V330ZM692.52 324.996C692.52 328.056 694.59 330.162 697.164 330.162C698.82 330.162 700.008 329.37 700.638 328.524V330H702.708V320.082H700.638V321.522C700.026 320.712 698.874 319.92 697.2 319.92C694.59 319.92 692.52 321.936 692.52 324.996ZM700.638 325.032C700.638 327.174 699.18 328.38 697.632 328.38C696.102 328.38 694.626 327.138 694.626 324.996C694.626 322.854 696.102 321.702 697.632 321.702C699.18 321.702 700.638 322.908 700.638 325.032ZM718.017 330H720.069V317.49H718.017V322.854H712.131V317.49H710.079V330H712.131V324.528H718.017V330ZM722.771 330H724.823V320.082H722.771V330ZM723.815 318.768C724.535 318.768 725.111 318.192 725.111 317.454C725.111 316.716 724.535 316.14 723.815 316.14C723.077 316.14 722.501 316.716 722.501 317.454C722.501 318.192 723.077 318.768 723.815 318.768ZM733.835 320.082H726.959V321.756H731.477L726.959 328.326V330H733.835V328.326H729.335L733.835 321.756V320.082ZM750.048 330H752.082V324.15C752.082 321.378 750.318 319.92 747.996 319.92C746.556 319.92 745.152 320.676 744.54 321.882C743.856 320.586 742.542 319.92 740.976 319.92C739.788 319.92 738.708 320.406 738.042 321.216V320.082H735.99V330H738.042V324.456C738.042 322.638 739.032 321.702 740.544 321.702C742.038 321.702 743.028 322.638 743.028 324.456V330H745.062V324.456C745.062 322.638 746.052 321.702 747.564 321.702C749.058 321.702 750.048 322.638 750.048 324.456V330ZM758.869 321.648C760.399 321.648 761.605 322.62 761.641 324.15H756.151C756.367 322.584 757.483 321.648 758.869 321.648ZM763.513 327.048H761.299C760.921 327.822 760.219 328.434 758.959 328.434C757.447 328.434 756.277 327.444 756.133 325.806H763.711C763.765 325.464 763.783 325.14 763.783 324.798C763.783 321.882 761.785 319.92 758.959 319.92C756.025 319.92 754.009 321.918 754.009 325.032C754.009 328.146 756.115 330.162 758.959 330.162C761.389 330.162 762.955 328.776 763.513 327.048ZM766.126 327.246C766.126 329.262 767.224 330 768.988 330H770.608V328.29H769.348C768.484 328.29 768.196 327.984 768.196 327.246V321.756H770.608V320.082H768.196V317.616H766.126V320.082H764.956V321.756H766.126V327.246ZM772.499 330H774.551V316.68H772.499V330ZM781.422 321.648C782.952 321.648 784.158 322.62 784.194 324.15H778.704C778.92 322.584 780.036 321.648 781.422 321.648ZM786.066 327.048H783.852C783.474 327.822 782.772 328.434 781.512 328.434C780 328.434 778.83 327.444 778.686 325.806H786.264C786.318 325.464 786.336 325.14 786.336 324.798C786.336 321.882 784.338 319.92 781.512 319.92C778.578 319.92 776.562 321.918 776.562 325.032C776.562 328.146 778.668 330.162 781.512 330.162C783.942 330.162 785.508 328.776 786.066 327.048ZM790.407 324.78C790.407 322.674 791.343 322.044 792.855 322.044H793.377V319.92C791.973 319.92 790.983 320.532 790.407 321.522V320.082H788.355V330H790.407V324.78ZM795.263 330H797.315V320.082H795.263V330ZM796.307 318.768C797.027 318.768 797.603 318.192 797.603 317.454C797.603 316.716 797.027 316.14 796.307 316.14C795.569 316.14 794.993 316.716 794.993 317.454C794.993 318.192 795.569 318.768 796.307 318.768Z" fill="white"/>
    <rect x="545" y="1" width="322" height="89" rx="44.5" fill="#8B8B8B"/>
    <path d="M628.449 24.164H631.797V35H633.849V24.164H637.179V22.49H628.449V24.164ZM647.699 31.454C647.699 26.882 641.075 28.646 641.075 25.82C641.075 24.614 641.993 24.038 643.181 24.074C644.477 24.11 645.215 24.884 645.287 25.73H647.555C647.375 23.588 645.683 22.328 643.289 22.328C640.733 22.328 638.987 23.696 638.987 25.892C638.987 30.5 645.629 28.538 645.629 31.562C645.629 32.624 644.819 33.398 643.379 33.398C641.957 33.398 641.237 32.57 641.147 31.544H638.951C638.951 33.758 640.877 35.126 643.379 35.126C646.169 35.126 647.699 33.326 647.699 31.454ZM657.033 22.472H650.121V35H657.033V33.326H652.173V29.492H656.493V27.818H652.173V24.146H657.033V22.472ZM676.332 28.718C676.332 24.974 673.506 22.328 669.942 22.328C666.414 22.328 663.552 24.974 663.552 28.718C663.552 32.48 666.414 35.126 669.942 35.126C673.506 35.126 676.332 32.48 676.332 28.718ZM665.658 28.718C665.658 25.892 667.458 24.128 669.942 24.128C672.426 24.128 674.226 25.892 674.226 28.718C674.226 31.544 672.426 33.344 669.942 33.344C667.458 33.344 665.658 31.544 665.658 28.718ZM685.389 35H687.423V29.15C687.423 26.378 685.677 24.92 683.355 24.92C682.167 24.92 681.069 25.406 680.403 26.216V25.082H678.351V35H680.403V29.456C680.403 27.638 681.393 26.702 682.905 26.702C684.399 26.702 685.389 27.638 685.389 29.456V35ZM689.356 29.996C689.356 33.056 691.426 35.162 694 35.162C695.656 35.162 696.844 34.37 697.474 33.524V35H699.544V25.082H697.474V26.522C696.862 25.712 695.71 24.92 694.036 24.92C691.426 24.92 689.356 26.936 689.356 29.996ZM697.474 30.032C697.474 32.174 696.016 33.38 694.468 33.38C692.938 33.38 691.462 32.138 691.462 29.996C691.462 27.854 692.938 26.702 694.468 26.702C696.016 26.702 697.474 27.908 697.474 30.032ZM706.146 32.642L703.356 25.082H701.07L704.976 34.838L702.96 39.662H705.084L711.168 25.082H709.044L706.146 32.642ZM712.716 35H714.768V21.68H712.716V35ZM717.462 35H719.514V25.082H717.462V35ZM726.452 34.82H735.2V33.11H729.494C731.6 31.184 734.84 28.754 734.84 25.568C734.84 23.21 733.328 21.608 730.664 21.608C728.342 21.608 726.506 22.994 726.434 25.838H728.414C728.468 24.362 729.242 23.354 730.682 23.354C732.212 23.354 732.806 24.29 732.806 25.658C732.806 28.232 729.548 30.608 726.452 33.326V34.82ZM739.397 33.812C739.397 33.074 738.821 32.498 738.101 32.498C737.363 32.498 736.787 33.074 736.787 33.812C736.787 34.55 737.363 35.126 738.101 35.126C738.821 35.126 739.397 34.55 739.397 33.812ZM753.202 22.472H746.29V35H753.202V33.326H748.342V29.492H752.662V27.818H748.342V24.146H753.202V22.472ZM755.73 35H757.782V21.68H755.73V35ZM773.594 35H775.754L771.272 22.472H768.896L764.414 35H766.556L767.456 32.444H772.694L773.594 35ZM772.118 30.77H768.032L770.084 24.956L772.118 30.77ZM779.755 29.78C779.755 27.674 780.691 27.044 782.203 27.044H782.725V24.92C781.321 24.92 780.331 25.532 779.755 26.522V25.082H777.703V35H779.755V29.78ZM783.927 29.996C783.927 33.056 785.997 35.162 788.571 35.162C790.227 35.162 791.415 34.37 792.045 33.524V35H794.115V25.082H792.045V26.522C791.433 25.712 790.281 24.92 788.607 24.92C785.997 24.92 783.927 26.936 783.927 29.996ZM792.045 30.032C792.045 32.174 790.587 33.38 789.039 33.38C787.509 33.38 786.033 32.138 786.033 29.996C786.033 27.854 787.509 26.702 789.039 26.702C790.587 26.702 792.045 27.908 792.045 30.032ZM796.126 30.032C796.126 32.876 797.8 34.802 800.248 35.108V37.088H801.238C801.868 37.088 802.246 37.214 802.246 37.754C802.246 38.294 801.868 38.42 801.238 38.42H799.276V39.716H801.652C802.93 39.716 803.938 38.978 803.938 37.754C803.938 36.512 802.93 35.864 801.598 35.864V35.126C803.686 34.928 805.054 33.65 805.558 31.868H803.344C802.966 32.894 802.21 33.434 800.986 33.434C799.33 33.434 798.232 32.21 798.232 30.032C798.232 27.872 799.33 26.648 800.986 26.648C802.21 26.648 803.002 27.26 803.344 28.214H805.558C805 26.126 803.416 24.92 800.986 24.92C798.142 24.92 796.126 26.936 796.126 30.032ZM591.357 69H593.409V60.432L597.243 69H598.665L602.481 60.432V69H604.533V56.49H602.337L597.963 66.3L593.571 56.49H591.357V69ZM611.406 60.648C612.936 60.648 614.142 61.62 614.178 63.15H608.688C608.904 61.584 610.02 60.648 611.406 60.648ZM616.05 66.048H613.836C613.458 66.822 612.756 67.434 611.496 67.434C609.984 67.434 608.814 66.444 608.67 64.806H616.248C616.302 64.464 616.32 64.14 616.32 63.798C616.32 60.882 614.322 58.92 611.496 58.92C608.562 58.92 606.546 60.918 606.546 64.032C606.546 67.146 608.652 69.162 611.496 69.162C613.926 69.162 615.492 67.776 616.05 66.048ZM618.339 69H620.391V64.734L624.063 69H626.835L622.263 64.05L626.835 59.082H623.991L620.391 63.42V55.68H618.339V69ZM627.622 63.996C627.622 67.056 629.692 69.162 632.266 69.162C633.922 69.162 635.11 68.37 635.74 67.524V69H637.81V59.082H635.74V60.522C635.128 59.712 633.976 58.92 632.302 58.92C629.692 58.92 627.622 60.936 627.622 63.996ZM635.74 64.032C635.74 66.174 634.282 67.38 632.734 67.38C631.204 67.38 629.728 66.138 629.728 63.996C629.728 61.854 631.204 60.702 632.734 60.702C634.282 60.702 635.74 61.908 635.74 64.032ZM647.543 69H649.577V63.15C649.577 60.378 647.831 58.92 645.509 58.92C644.321 58.92 643.223 59.406 642.557 60.216V59.082H640.505V69H642.557V63.456C642.557 61.638 643.547 60.702 645.059 60.702C646.553 60.702 647.543 61.638 647.543 63.456V69ZM652.195 69H654.247V59.082H652.195V69ZM653.239 57.768C653.959 57.768 654.535 57.192 654.535 56.454C654.535 55.716 653.959 55.14 653.239 55.14C652.501 55.14 651.925 55.716 651.925 56.454C651.925 57.192 652.501 57.768 653.239 57.768ZM656.941 69H658.993V64.734L662.665 69H665.437L660.865 64.05L665.437 59.082H662.593L658.993 63.42V55.68H656.941V69ZM678.495 56.472H671.583V69H678.495V67.326H673.635V63.492H677.955V61.818H673.635V58.146H678.495V56.472ZM681.023 69H683.075V64.734L686.747 69H689.519L684.947 64.05L689.519 59.082H686.675L683.075 63.42V55.68H681.023V69ZM698.388 66.228C698.28 62.646 692.682 63.762 692.682 61.764C692.682 61.098 693.258 60.648 694.356 60.648C695.472 60.648 696.138 61.242 696.21 62.106H698.262C698.154 60.126 696.678 58.92 694.428 58.92C692.088 58.92 690.612 60.198 690.612 61.782C690.612 65.418 696.372 64.302 696.372 66.246C696.372 66.93 695.742 67.434 694.554 67.434C693.42 67.434 692.646 66.768 692.574 65.958H690.45C690.54 67.758 692.214 69.162 694.59 69.162C696.93 69.162 698.388 67.902 698.388 66.228ZM702.657 60.54V59.082H700.605V73.716H702.657V67.56C703.305 68.334 704.475 69.162 706.113 69.162C708.723 69.162 710.775 67.056 710.775 63.996C710.775 60.936 708.723 58.92 706.113 58.92C704.493 58.92 703.287 59.712 702.657 60.54ZM708.687 63.996C708.687 66.138 707.211 67.38 705.663 67.38C704.133 67.38 702.657 66.174 702.657 64.032C702.657 61.908 704.133 60.702 705.663 60.702C707.211 60.702 708.687 61.854 708.687 63.996ZM716.98 60.648C718.51 60.648 719.716 61.62 719.752 63.15H714.262C714.478 61.584 715.594 60.648 716.98 60.648ZM721.624 66.048H719.41C719.032 66.822 718.33 67.434 717.07 67.434C715.558 67.434 714.388 66.444 714.244 64.806H721.822C721.876 64.464 721.894 64.14 721.894 63.798C721.894 60.882 719.896 58.92 717.07 58.92C714.136 58.92 712.12 60.918 712.12 64.032C712.12 67.146 714.226 69.162 717.07 69.162C719.5 69.162 721.066 67.776 721.624 66.048ZM725.965 63.78C725.965 61.674 726.901 61.044 728.413 61.044H728.935V58.92C727.531 58.92 726.541 59.532 725.965 60.522V59.082H723.913V69H725.965V63.78ZM731.146 66.246C731.146 68.262 732.244 69 734.008 69H735.628V67.29H734.368C733.504 67.29 733.216 66.984 733.216 66.246V60.756H735.628V59.082H733.216V56.616H731.146V59.082H729.976V60.756H731.146V66.246ZM737.519 69H739.571V59.082H737.519V69ZM738.563 57.768C739.283 57.768 739.859 57.192 739.859 56.454C739.859 55.716 739.283 55.14 738.563 55.14C737.825 55.14 737.249 55.716 737.249 56.454C737.249 57.192 737.825 57.768 738.563 57.768ZM748.583 59.082H741.707V60.756H746.225L741.707 67.326V69H748.583V67.326H744.083L748.583 60.756V59.082ZM763.351 69H765.403V56.49H763.351V61.854H757.465V56.49H755.413V69H757.465V63.528H763.351V69ZM768.105 69H770.157V59.082H768.105V69ZM769.149 57.768C769.869 57.768 770.445 57.192 770.445 56.454C770.445 55.716 769.869 55.14 769.149 55.14C768.411 55.14 767.835 55.716 767.835 56.454C767.835 57.192 768.411 57.768 769.149 57.768ZM779.169 59.082H772.293V60.756H776.811L772.293 67.326V69H779.169V67.326H774.669L779.169 60.756V59.082ZM795.382 69H797.416V63.15C797.416 60.378 795.652 58.92 793.33 58.92C791.89 58.92 790.486 59.676 789.874 60.882C789.19 59.586 787.876 58.92 786.31 58.92C785.122 58.92 784.042 59.406 783.376 60.216V59.082H781.324V69H783.376V63.456C783.376 61.638 784.366 60.702 785.878 60.702C787.372 60.702 788.362 61.638 788.362 63.456V69H790.396V63.456C790.396 61.638 791.386 60.702 792.898 60.702C794.392 60.702 795.382 61.638 795.382 63.456V69ZM804.203 60.648C805.733 60.648 806.939 61.62 806.975 63.15H801.485C801.701 61.584 802.817 60.648 804.203 60.648ZM808.847 66.048H806.633C806.255 66.822 805.553 67.434 804.293 67.434C802.781 67.434 801.611 66.444 801.467 64.806H809.045C809.099 64.464 809.117 64.14 809.117 63.798C809.117 60.882 807.119 58.92 804.293 58.92C801.359 58.92 799.343 60.918 799.343 64.032C799.343 67.146 801.449 69.162 804.293 69.162C806.723 69.162 808.289 67.776 808.847 66.048ZM811.46 66.246C811.46 68.262 812.558 69 814.322 69H815.942V67.29H814.682C813.818 67.29 813.53 66.984 813.53 66.246V60.756H815.942V59.082H813.53V56.616H811.46V59.082H810.29V60.756H811.46V66.246ZM817.833 69H819.885V55.68H817.833V69ZM826.755 60.648C828.285 60.648 829.491 61.62 829.527 63.15H824.037C824.253 61.584 825.369 60.648 826.755 60.648ZM831.399 66.048H829.185C828.807 66.822 828.105 67.434 826.845 67.434C825.333 67.434 824.163 66.444 824.019 64.806H831.597C831.651 64.464 831.669 64.14 831.669 63.798C831.669 60.882 829.671 58.92 826.845 58.92C823.911 58.92 821.895 60.918 821.895 64.032C821.895 67.146 824.001 69.162 826.845 69.162C829.275 69.162 830.841 67.776 831.399 66.048ZM835.741 63.78C835.741 61.674 836.677 61.044 838.189 61.044H838.711V58.92C837.307 58.92 836.317 59.532 835.741 60.522V59.082H833.689V69H835.741V63.78ZM840.597 69H842.649V59.082H840.597V69ZM841.641 57.768C842.361 57.768 842.937 57.192 842.937 56.454C842.937 55.716 842.361 55.14 841.641 55.14C840.903 55.14 840.327 55.716 840.327 56.454C840.327 57.192 840.903 57.768 841.641 57.768Z" fill="white"/>
    <rect x="745" y="131" width="322" height="89" rx="44.5" fill="#9F9F9F"/>
    <path d="M840.738 161.454C840.738 156.882 834.114 158.646 834.114 155.82C834.114 154.614 835.032 154.038 836.22 154.074C837.516 154.11 838.254 154.884 838.326 155.73H840.594C840.414 153.588 838.722 152.328 836.328 152.328C833.772 152.328 832.026 153.696 832.026 155.892C832.026 160.5 838.668 158.538 838.668 161.562C838.668 162.624 837.858 163.398 836.418 163.398C834.996 163.398 834.276 162.57 834.186 161.544H831.99C831.99 163.758 833.916 165.126 836.418 165.126C839.208 165.126 840.738 163.326 840.738 161.454ZM843.16 165H845.212V155.082H843.16V165ZM848.158 165H850.228V156.756H852.064V155.082H850.228V154.38C850.228 153.246 850.66 152.814 851.92 152.814V151.104C849.328 151.104 848.158 152.094 848.158 154.38V155.082H846.988V156.756H848.158V165ZM853.882 165H855.934V155.082H853.882V165ZM860.68 159.78C860.68 157.674 861.616 157.044 863.128 157.044H863.65V154.92C862.246 154.92 861.256 155.532 860.68 156.522V155.082H858.628V165H860.68V159.78ZM878.654 165H880.814L876.332 152.472H873.956L869.474 165H871.616L872.516 162.444H877.754L878.654 165ZM877.178 160.77H873.092L875.144 154.956L877.178 160.77ZM884.815 159.78C884.815 157.674 885.751 157.044 887.263 157.044H887.785V154.92C886.381 154.92 885.391 155.532 884.815 156.522V155.082H882.763V165H884.815V159.78ZM888.987 159.996C888.987 163.056 891.057 165.162 893.631 165.162C895.287 165.162 896.475 164.37 897.105 163.524V165H899.175V155.082H897.105V156.522C896.493 155.712 895.341 154.92 893.667 154.92C891.057 154.92 888.987 156.936 888.987 159.996ZM897.105 160.032C897.105 162.174 895.647 163.38 894.099 163.38C892.569 163.38 891.093 162.138 891.093 159.996C891.093 157.854 892.569 156.702 894.099 156.702C895.647 156.702 897.105 157.908 897.105 160.032ZM901.187 160.032C901.187 162.876 902.861 164.802 905.309 165.108V167.088H906.299C906.929 167.088 907.307 167.214 907.307 167.754C907.307 168.294 906.929 168.42 906.299 168.42H904.337V169.716H906.713C907.991 169.716 908.999 168.978 908.999 167.754C908.999 166.512 907.991 165.864 906.659 165.864V165.126C908.747 164.928 910.115 163.65 910.619 161.868H908.405C908.027 162.894 907.271 163.434 906.047 163.434C904.391 163.434 903.293 162.21 903.293 160.032C903.293 157.872 904.391 156.648 906.047 156.648C907.271 156.648 908.063 157.26 908.405 158.214H910.619C910.061 156.126 908.477 154.92 906.047 154.92C903.203 154.92 901.187 156.936 901.187 160.032ZM925.781 161.454C925.781 156.882 919.157 158.646 919.157 155.82C919.157 154.614 920.075 154.038 921.263 154.074C922.559 154.11 923.297 154.884 923.369 155.73H925.637C925.457 153.588 923.765 152.328 921.371 152.328C918.815 152.328 917.069 153.696 917.069 155.892C917.069 160.5 923.711 158.538 923.711 161.562C923.711 162.624 922.901 163.398 921.461 163.398C920.039 163.398 919.319 162.57 919.229 161.544H917.033C917.033 163.758 918.959 165.126 921.461 165.126C924.251 165.126 925.781 163.326 925.781 161.454ZM930.255 159.78C930.255 157.674 931.191 157.044 932.703 157.044H933.225V154.92C931.821 154.92 930.831 155.532 930.255 156.522V155.082H928.203V165H930.255V159.78ZM944.561 160.032C944.561 156.918 942.329 154.92 939.503 154.92C936.677 154.92 934.445 156.918 934.445 160.032C934.445 163.146 936.587 165.162 939.413 165.162C942.257 165.162 944.561 163.146 944.561 160.032ZM936.533 160.032C936.533 157.782 937.919 156.702 939.467 156.702C940.997 156.702 942.455 157.782 942.455 160.032C942.455 162.282 940.943 163.38 939.413 163.38C937.865 163.38 936.533 162.282 936.533 160.032ZM946.589 165H948.641V160.734L952.313 165H955.085L950.513 160.05L955.085 155.082H952.241L948.641 159.42V151.68H946.589V165ZM956.556 165H958.608V151.68H956.556V165ZM960.618 159.996C960.618 163.056 962.688 165.162 965.262 165.162C966.918 165.162 968.106 164.37 968.736 163.524V165H970.806V155.082H968.736V156.522C968.124 155.712 966.972 154.92 965.298 154.92C962.688 154.92 960.618 156.936 960.618 159.996ZM968.736 160.032C968.736 162.174 967.278 163.38 965.73 163.38C964.2 163.38 962.724 162.138 962.724 159.996C962.724 157.854 964.2 156.702 965.73 156.702C967.278 156.702 968.736 157.908 968.736 160.032ZM987.559 165H989.593V159.15C989.593 156.378 987.829 154.92 985.507 154.92C984.067 154.92 982.663 155.676 982.051 156.882C981.367 155.586 980.053 154.92 978.487 154.92C977.299 154.92 976.219 155.406 975.553 156.216V155.082H973.501V165H975.553V159.456C975.553 157.638 976.543 156.702 978.055 156.702C979.549 156.702 980.539 157.638 980.539 159.456V165H982.573V159.456C982.573 157.638 983.563 156.702 985.075 156.702C986.569 156.702 987.559 157.638 987.559 159.456V165ZM991.52 159.996C991.52 163.056 993.59 165.162 996.164 165.162C997.82 165.162 999.008 164.37 999.638 163.524V165H1001.71V155.082H999.638V156.522C999.026 155.712 997.874 154.92 996.2 154.92C993.59 154.92 991.52 156.936 991.52 159.996ZM999.638 160.032C999.638 162.174 998.18 163.38 996.632 163.38C995.102 163.38 993.626 162.138 993.626 159.996C993.626 157.854 995.102 156.702 996.632 156.702C998.18 156.702 999.638 157.908 999.638 160.032ZM811.248 199H813.3V186.49H811.248V191.854H805.362V186.49H803.31V199H805.362V193.528H811.248V199ZM816.001 199H818.053V189.082H816.001V199ZM817.045 187.768C817.765 187.768 818.341 187.192 818.341 186.454C818.341 185.716 817.765 185.14 817.045 185.14C816.307 185.14 815.731 185.716 815.731 186.454C815.731 187.192 816.307 187.768 817.045 187.768ZM827.065 189.082H820.189V190.756H824.707L820.189 197.326V199H827.065V197.326H822.565L827.065 190.756V189.082ZM843.278 199H845.312V193.15C845.312 190.378 843.548 188.92 841.226 188.92C839.786 188.92 838.382 189.676 837.77 190.882C837.086 189.586 835.772 188.92 834.206 188.92C833.018 188.92 831.938 189.406 831.272 190.216V189.082H829.22V199H831.272V193.456C831.272 191.638 832.262 190.702 833.774 190.702C835.268 190.702 836.258 191.638 836.258 193.456V199H838.292V193.456C838.292 191.638 839.282 190.702 840.794 190.702C842.288 190.702 843.278 191.638 843.278 193.456V199ZM852.099 190.648C853.629 190.648 854.835 191.62 854.871 193.15H849.381C849.597 191.584 850.713 190.648 852.099 190.648ZM856.743 196.048H854.529C854.151 196.822 853.449 197.434 852.189 197.434C850.677 197.434 849.507 196.444 849.363 194.806H856.941C856.995 194.464 857.013 194.14 857.013 193.798C857.013 190.882 855.015 188.92 852.189 188.92C849.255 188.92 847.239 190.918 847.239 194.032C847.239 197.146 849.345 199.162 852.189 199.162C854.619 199.162 856.185 197.776 856.743 196.048ZM859.357 196.246C859.357 198.262 860.455 199 862.219 199H863.839V197.29H862.579C861.715 197.29 861.427 196.984 861.427 196.246V190.756H863.839V189.082H861.427V186.616H859.357V189.082H858.187V190.756H859.357V196.246ZM865.73 199H867.782V185.68H865.73V199ZM874.652 190.648C876.182 190.648 877.388 191.62 877.424 193.15H871.934C872.15 191.584 873.266 190.648 874.652 190.648ZM879.296 196.048H877.082C876.704 196.822 876.002 197.434 874.742 197.434C873.23 197.434 872.06 196.444 871.916 194.806H879.494C879.548 194.464 879.566 194.14 879.566 193.798C879.566 190.882 877.568 188.92 874.742 188.92C871.808 188.92 869.792 190.918 869.792 194.032C869.792 197.146 871.898 199.162 874.742 199.162C877.172 199.162 878.738 197.776 879.296 196.048ZM883.637 193.78C883.637 191.674 884.573 191.044 886.085 191.044H886.607V188.92C885.203 188.92 884.213 189.532 883.637 190.522V189.082H881.585V199H883.637V193.78ZM888.494 199H890.546V189.082H888.494V199ZM889.538 187.768C890.258 187.768 890.834 187.192 890.834 186.454C890.834 185.716 890.258 185.14 889.538 185.14C888.8 185.14 888.224 185.716 888.224 186.454C888.224 187.192 888.8 187.768 889.538 187.768ZM896.745 189.082L900.507 199H902.955L906.735 189.082H904.557L901.749 197.164L898.941 189.082H896.745ZM912.463 190.648C913.993 190.648 915.199 191.62 915.235 193.15H909.745C909.961 191.584 911.077 190.648 912.463 190.648ZM917.107 196.048H914.893C914.515 196.822 913.813 197.434 912.553 197.434C911.041 197.434 909.871 196.444 909.727 194.806H917.305C917.359 194.464 917.377 194.14 917.377 193.798C917.377 190.882 915.379 188.92 912.553 188.92C909.619 188.92 907.603 190.918 907.603 194.032C907.603 197.146 909.709 199.162 912.553 199.162C914.983 199.162 916.549 197.776 917.107 196.048ZM926.124 192.25V188.164H928.392C929.994 188.164 930.714 188.92 930.714 190.216C930.714 191.476 929.994 192.25 928.392 192.25H926.124ZM932.82 190.216C932.82 188.182 931.362 186.49 928.392 186.49H924.072V199H926.124V193.924H928.392C931.65 193.924 932.82 191.998 932.82 190.216ZM938.863 186.49H934.777V199H938.863C942.877 199 945.505 196.642 945.505 192.79C945.505 188.92 942.877 186.49 938.863 186.49ZM936.829 197.326V188.164H938.863C941.815 188.164 943.399 189.928 943.399 192.79C943.399 195.634 941.815 197.326 938.863 197.326H936.829ZM947.538 199H949.59V186.49H947.538V199ZM956.96 199H959.012V186.49H956.96V199ZM957.986 185.23C958.58 185.23 959.066 184.762 959.066 184.15C959.066 183.556 958.58 183.07 957.986 183.07C957.374 183.07 956.906 183.556 956.906 184.15C956.906 184.762 957.374 185.23 957.986 185.23ZM969.104 196.228C968.996 192.646 963.398 193.762 963.398 191.764C963.398 191.098 963.974 190.648 965.072 190.648C966.188 190.648 966.854 191.242 966.926 192.106H968.978C968.87 190.126 967.394 188.92 965.144 188.92C962.804 188.92 961.328 190.198 961.328 191.782C961.328 195.418 967.088 194.302 967.088 196.246C967.088 196.93 966.458 197.434 965.27 197.434C964.136 197.434 963.362 196.768 963.29 195.958H961.166C961.238 197.56 962.588 198.856 964.55 199.108V201.088H965.54C966.17 201.088 966.548 201.214 966.548 201.754C966.548 202.294 966.17 202.42 965.54 202.42H963.578V203.716H965.954C967.232 203.716 968.24 202.978 968.24 201.754C968.24 200.512 967.232 199.864 965.9 199.864V199.126C967.898 198.946 969.104 197.758 969.104 196.228ZM971.322 199H973.374V185.68H971.322V199ZM980.244 190.648C981.774 190.648 982.98 191.62 983.016 193.15H977.526C977.742 191.584 978.858 190.648 980.244 190.648ZM984.888 196.048H982.674C982.296 196.822 981.594 197.434 980.334 197.434C978.822 197.434 977.652 196.444 977.508 194.806H985.086C985.14 194.464 985.158 194.14 985.158 193.798C985.158 190.882 983.16 188.92 980.334 188.92C977.4 188.92 975.384 190.918 975.384 194.032C975.384 197.146 977.49 199.162 980.334 199.162C982.764 199.162 984.33 197.776 984.888 196.048ZM1001.24 199H1003.27V193.15C1003.27 190.378 1001.51 188.92 999.183 188.92C997.743 188.92 996.339 189.676 995.727 190.882C995.043 189.586 993.729 188.92 992.163 188.92C990.975 188.92 989.895 189.406 989.229 190.216V189.082H987.177V199H989.229V193.456C989.229 191.638 990.219 190.702 991.731 190.702C993.225 190.702 994.215 191.638 994.215 193.456V199H996.249V193.456C996.249 191.638 997.239 190.702 998.751 190.702C1000.25 190.702 1001.24 191.638 1001.24 193.456V199ZM1005.88 199H1007.93V185.68H1005.88V199ZM1014.8 190.648C1016.33 190.648 1017.54 191.62 1017.57 193.15H1012.08C1012.3 191.584 1013.42 190.648 1014.8 190.648ZM1019.45 196.048H1017.23C1016.85 196.822 1016.15 197.434 1014.89 197.434C1013.38 197.434 1012.21 196.444 1012.07 194.806H1019.64C1019.7 194.464 1019.72 194.14 1019.72 193.798C1019.72 190.882 1017.72 188.92 1014.89 188.92C1011.96 188.92 1009.94 190.918 1009.94 194.032C1009.94 197.146 1012.05 199.162 1014.89 199.162C1017.32 199.162 1018.89 197.776 1019.45 196.048ZM1023.79 193.78C1023.79 191.674 1024.72 191.044 1026.24 191.044H1026.76V188.92C1025.35 188.92 1024.36 189.532 1023.79 190.522V189.082H1021.74V199H1023.79V193.78ZM1028.64 199H1030.7V189.082H1028.64V199ZM1029.69 187.768C1030.41 187.768 1030.98 187.192 1030.98 186.454C1030.98 185.716 1030.41 185.14 1029.69 185.14C1028.95 185.14 1028.37 185.716 1028.37 186.454C1028.37 187.192 1028.95 187.768 1029.69 187.768Z" fill="white"/>
    <rect x="373" y="390" width="322" height="89" rx="44.5" fill="#C8C8C8"/>
    <path d="M452.676 424H454.728V418.528H458.868V416.854H454.728V413.164H460.038V411.49H452.676V424ZM461.94 424H463.992V414.082H461.94V424ZM462.984 412.768C463.704 412.768 464.28 412.192 464.28 411.454C464.28 410.716 463.704 410.14 462.984 410.14C462.246 410.14 461.67 410.716 461.67 411.454C461.67 412.192 462.246 412.768 462.984 412.768ZM466.686 424H468.738V410.68H466.686V424ZM480.882 419.032C480.882 415.918 478.65 413.92 475.824 413.92C472.998 413.92 470.766 415.918 470.766 419.032C470.766 422.146 472.908 424.162 475.734 424.162C478.578 424.162 480.882 422.146 480.882 419.032ZM472.854 419.032C472.854 416.782 474.24 415.702 475.788 415.702C477.318 415.702 478.776 416.782 478.776 419.032C478.776 421.282 477.264 422.38 475.734 422.38C474.186 422.38 472.854 421.282 472.854 419.032ZM496.028 424H498.188L493.706 411.472H491.33L486.848 424H488.99L489.89 421.444H495.128L496.028 424ZM494.552 419.77H490.466L492.518 413.956L494.552 419.77ZM502.189 418.78C502.189 416.674 503.125 416.044 504.637 416.044H505.159V413.92C503.755 413.92 502.765 414.532 502.189 415.522V414.082H500.137V424H502.189V418.78ZM506.361 418.996C506.361 422.056 508.431 424.162 511.005 424.162C512.661 424.162 513.849 423.37 514.479 422.524V424H516.549V414.082H514.479V415.522C513.867 414.712 512.715 413.92 511.041 413.92C508.431 413.92 506.361 415.936 506.361 418.996ZM514.479 419.032C514.479 421.174 513.021 422.38 511.473 422.38C509.943 422.38 508.467 421.138 508.467 418.996C508.467 416.854 509.943 415.702 511.473 415.702C513.021 415.702 514.479 416.908 514.479 419.032ZM518.561 419.032C518.561 421.876 520.235 423.802 522.683 424.108V426.088H523.673C524.303 426.088 524.681 426.214 524.681 426.754C524.681 427.294 524.303 427.42 523.673 427.42H521.711V428.716H524.087C525.365 428.716 526.373 427.978 526.373 426.754C526.373 425.512 525.365 424.864 524.033 424.864V424.126C526.121 423.928 527.489 422.65 527.993 420.868H525.779C525.401 421.894 524.645 422.434 523.421 422.434C521.765 422.434 520.667 421.21 520.667 419.032C520.667 416.872 521.765 415.648 523.421 415.648C524.645 415.648 525.437 416.26 525.779 417.214H527.993C527.435 415.126 525.851 413.92 523.421 413.92C520.577 413.92 518.561 415.936 518.561 419.032ZM541.625 411.472H534.713V424H541.625V422.326H536.765V418.492H541.085V416.818H536.765V413.146H541.625V411.472ZM544.153 424H546.205V419.734L549.877 424H552.649L548.077 419.05L552.649 414.082H549.805L546.205 418.42V410.68H544.153V424ZM561.518 421.228C561.41 417.646 555.812 418.762 555.812 416.764C555.812 416.098 556.388 415.648 557.486 415.648C558.602 415.648 559.268 416.242 559.34 417.106H561.392C561.284 415.126 559.808 413.92 557.558 413.92C555.218 413.92 553.742 415.198 553.742 416.782C553.742 420.418 559.502 419.302 559.502 421.246C559.502 421.93 558.872 422.434 557.684 422.434C556.55 422.434 555.776 421.768 555.704 420.958H553.58C553.67 422.758 555.344 424.162 557.72 424.162C560.06 424.162 561.518 422.902 561.518 421.228ZM565.787 415.54V414.082H563.735V428.716H565.787V422.56C566.435 423.334 567.605 424.162 569.243 424.162C571.853 424.162 573.905 422.056 573.905 418.996C573.905 415.936 571.853 413.92 569.243 413.92C567.623 413.92 566.417 414.712 565.787 415.54ZM571.817 418.996C571.817 421.138 570.341 422.38 568.793 422.38C567.263 422.38 565.787 421.174 565.787 419.032C565.787 416.908 567.263 415.702 568.793 415.702C570.341 415.702 571.817 416.854 571.817 418.996ZM580.11 415.648C581.64 415.648 582.846 416.62 582.882 418.15H577.392C577.608 416.584 578.724 415.648 580.11 415.648ZM584.754 421.048H582.54C582.162 421.822 581.46 422.434 580.2 422.434C578.688 422.434 577.518 421.444 577.374 419.806H584.952C585.006 419.464 585.024 419.14 585.024 418.798C585.024 415.882 583.026 413.92 580.2 413.92C577.266 413.92 575.25 415.918 575.25 419.032C575.25 422.146 577.356 424.162 580.2 424.162C582.63 424.162 584.196 422.776 584.754 421.048ZM589.095 418.78C589.095 416.674 590.031 416.044 591.543 416.044H592.065V413.92C590.661 413.92 589.671 414.532 589.095 415.522V414.082H587.043V424H589.095V418.78ZM594.276 421.246C594.276 423.262 595.374 424 597.138 424H598.758V422.29H597.498C596.634 422.29 596.346 421.984 596.346 421.246V415.756H598.758V414.082H596.346V411.616H594.276V414.082H593.106V415.756H594.276V421.246ZM600.649 424H602.701V414.082H600.649V424ZM601.693 412.768C602.413 412.768 602.989 412.192 602.989 411.454C602.989 410.716 602.413 410.14 601.693 410.14C600.955 410.14 600.379 410.716 600.379 411.454C600.379 412.192 600.955 412.768 601.693 412.768ZM611.713 414.082H604.837V415.756H609.355L604.837 422.326V424H611.713V422.326H607.213L611.713 415.756V414.082ZM617.373 414.082L621.135 424H623.583L627.363 414.082H625.185L622.377 422.164L619.569 414.082H617.373ZM633.09 415.648C634.62 415.648 635.826 416.62 635.862 418.15H630.372C630.588 416.584 631.704 415.648 633.09 415.648ZM637.734 421.048H635.52C635.142 421.822 634.44 422.434 633.18 422.434C631.668 422.434 630.498 421.444 630.354 419.806H637.932C637.986 419.464 638.004 419.14 638.004 418.798C638.004 415.882 636.006 413.92 633.18 413.92C630.246 413.92 628.23 415.918 628.23 419.032C628.23 422.146 630.336 424.162 633.18 424.162C635.61 424.162 637.176 422.776 637.734 421.048ZM453.255 445.49H449.169V458H453.255C457.269 458 459.897 455.642 459.897 451.79C459.897 447.92 457.269 445.49 453.255 445.49ZM451.221 456.326V447.164H453.255C456.207 447.164 457.791 448.928 457.791 451.79C457.791 454.634 456.207 456.326 453.255 456.326H451.221ZM466.107 449.648C467.637 449.648 468.843 450.62 468.879 452.15H463.389C463.605 450.584 464.721 449.648 466.107 449.648ZM470.751 455.048H468.537C468.159 455.822 467.457 456.434 466.197 456.434C464.685 456.434 463.515 455.444 463.371 453.806H470.949C471.003 453.464 471.021 453.14 471.021 452.798C471.021 449.882 469.023 447.92 466.197 447.92C463.263 447.92 461.247 449.918 461.247 453.032C461.247 456.146 463.353 458.162 466.197 458.162C468.627 458.162 470.193 456.776 470.751 455.048ZM472.356 452.996C472.356 456.056 474.426 458.162 477.036 458.162C478.656 458.162 479.844 457.352 480.474 456.506V458.162C480.474 460.142 479.286 461.114 477.702 461.114C476.28 461.114 475.182 460.412 474.876 459.386H472.842C473.094 461.582 475.056 462.896 477.702 462.896C480.798 462.896 482.544 460.862 482.544 458.162V448.082H480.474V449.522C479.862 448.676 478.656 447.92 477.036 447.92C474.426 447.92 472.356 449.936 472.356 452.996ZM480.474 453.032C480.474 455.174 479.016 456.38 477.468 456.38C475.938 456.38 474.462 455.138 474.462 452.996C474.462 450.854 475.938 449.702 477.468 449.702C479.016 449.702 480.474 450.908 480.474 453.032ZM480.51 444.752V444.356H479.322C479.322 445.166 478.962 445.652 477.792 445.652C476.622 445.652 476.262 445.166 476.262 444.356H475.092V444.734C475.092 446.228 476.1 447.254 477.792 447.254C479.502 447.254 480.51 446.246 480.51 444.752ZM489.416 449.648C490.946 449.648 492.152 450.62 492.188 452.15H486.698C486.914 450.584 488.03 449.648 489.416 449.648ZM494.06 455.048H491.846C491.468 455.822 490.766 456.434 489.506 456.434C487.994 456.434 486.824 455.444 486.68 453.806H494.258C494.312 453.464 494.33 453.14 494.33 452.798C494.33 449.882 492.332 447.92 489.506 447.92C486.572 447.92 484.556 449.918 484.556 453.032C484.556 456.146 486.662 458.162 489.506 458.162C491.936 458.162 493.502 456.776 494.06 455.048ZM498.401 452.78C498.401 450.674 499.337 450.044 500.849 450.044H501.371V447.92C499.967 447.92 498.977 448.532 498.401 449.522V448.082H496.349V458H498.401V452.78ZM503.257 458H505.309V444.68H503.257V458ZM512.179 449.648C513.709 449.648 514.915 450.62 514.951 452.15H509.461C509.677 450.584 510.793 449.648 512.179 449.648ZM516.823 455.048H514.609C514.231 455.822 513.529 456.434 512.269 456.434C510.757 456.434 509.587 455.444 509.443 453.806H517.021C517.075 453.464 517.093 453.14 517.093 452.798C517.093 449.882 515.095 447.92 512.269 447.92C509.335 447.92 507.319 449.918 507.319 453.032C507.319 456.146 509.425 458.162 512.269 458.162C514.699 458.162 516.265 456.776 516.823 455.048ZM533.171 458H535.205V452.15C535.205 449.378 533.441 447.92 531.119 447.92C529.679 447.92 528.275 448.676 527.663 449.882C526.979 448.586 525.665 447.92 524.099 447.92C522.911 447.92 521.831 448.406 521.165 449.216V448.082H519.113V458H521.165V452.456C521.165 450.638 522.155 449.702 523.667 449.702C525.161 449.702 526.151 450.638 526.151 452.456V458H528.185V452.456C528.185 450.638 529.175 449.702 530.687 449.702C532.181 449.702 533.171 450.638 533.171 452.456V458ZM541.992 449.648C543.522 449.648 544.728 450.62 544.764 452.15H539.274C539.49 450.584 540.606 449.648 541.992 449.648ZM546.636 455.048H544.422C544.044 455.822 543.342 456.434 542.082 456.434C540.57 456.434 539.4 455.444 539.256 453.806H546.834C546.888 453.464 546.906 453.14 546.906 452.798C546.906 449.882 544.908 447.92 542.082 447.92C539.148 447.92 537.132 449.918 537.132 453.032C537.132 456.146 539.238 458.162 542.082 458.162C544.512 458.162 546.078 456.776 546.636 455.048ZM561.539 458H563.591V445.49H561.539V450.854H555.653V445.49H553.601V458H555.653V452.528H561.539V458ZM566.292 458H568.344V448.082H566.292V458ZM567.336 446.768C568.056 446.768 568.632 446.192 568.632 445.454C568.632 444.716 568.056 444.14 567.336 444.14C566.598 444.14 566.022 444.716 566.022 445.454C566.022 446.192 566.598 446.768 567.336 446.768ZM577.356 448.082H570.48V449.756H574.998L570.48 456.326V458H577.356V456.326H572.856L577.356 449.756V448.082ZM593.569 458H595.603V452.15C595.603 449.378 593.839 447.92 591.517 447.92C590.077 447.92 588.673 448.676 588.061 449.882C587.377 448.586 586.063 447.92 584.497 447.92C583.309 447.92 582.229 448.406 581.563 449.216V448.082H579.511V458H581.563V452.456C581.563 450.638 582.553 449.702 584.065 449.702C585.559 449.702 586.549 450.638 586.549 452.456V458H588.583V452.456C588.583 450.638 589.573 449.702 591.085 449.702C592.579 449.702 593.569 450.638 593.569 452.456V458ZM602.39 449.648C603.92 449.648 605.126 450.62 605.162 452.15H599.672C599.888 450.584 601.004 449.648 602.39 449.648ZM607.034 455.048H604.82C604.442 455.822 603.74 456.434 602.48 456.434C600.968 456.434 599.798 455.444 599.654 453.806H607.232C607.286 453.464 607.304 453.14 607.304 452.798C607.304 449.882 605.306 447.92 602.48 447.92C599.546 447.92 597.53 449.918 597.53 453.032C597.53 456.146 599.636 458.162 602.48 458.162C604.91 458.162 606.476 456.776 607.034 455.048ZM609.648 455.246C609.648 457.262 610.746 458 612.51 458H614.13V456.29H612.87C612.006 456.29 611.718 455.984 611.718 455.246V449.756H614.13V448.082H611.718V445.616H609.648V448.082H608.478V449.756H609.648V455.246ZM616.021 458H618.073V444.68H616.021V458ZM624.943 449.648C626.473 449.648 627.679 450.62 627.715 452.15H622.225C622.441 450.584 623.557 449.648 624.943 449.648ZM629.587 455.048H627.373C626.995 455.822 626.293 456.434 625.033 456.434C623.521 456.434 622.351 455.444 622.207 453.806H629.785C629.839 453.464 629.857 453.14 629.857 452.798C629.857 449.882 627.859 447.92 625.033 447.92C622.099 447.92 620.083 449.918 620.083 453.032C620.083 456.146 622.189 458.162 625.033 458.162C627.463 458.162 629.029 456.776 629.587 455.048ZM633.928 452.78C633.928 450.674 634.864 450.044 636.376 450.044H636.898V447.92C635.494 447.92 634.504 448.532 633.928 449.522V448.082H631.876V458H633.928V452.78ZM638.785 458H640.837V448.082H638.785V458ZM639.829 446.768C640.549 446.768 641.125 446.192 641.125 445.454C641.125 444.716 640.549 444.14 639.829 444.14C639.091 444.14 638.515 444.716 638.515 445.454C638.515 446.192 639.091 446.768 639.829 446.768Z" fill="white"/>
    <rect x="355" y="123" width="357" height="105" rx="52.5" fill="#FFCC05"/>
    <path d="M453.192 183H456.552V166.248H453.192V173.136H446.016V166.248H442.656V183H446.016V175.872H453.192V183ZM459.859 183H463.219V169.704H459.859V183ZM461.563 168.12C462.739 168.12 463.627 167.256 463.627 166.152C463.627 165.048 462.739 164.184 461.563 164.184C460.363 164.184 459.499 165.048 459.499 166.152C459.499 167.256 460.363 168.12 461.563 168.12ZM475.467 169.704H465.819V172.464H471.603L465.795 180.288V183H475.539V180.24H469.611L475.467 172.416V169.704ZM496.74 183H500.1V175.2C500.1 171.528 497.844 169.512 494.652 169.512C492.708 169.512 490.956 170.544 490.092 172.056C489.18 170.4 487.476 169.512 485.412 169.512C483.756 169.512 482.34 170.208 481.5 171.312V169.704H478.14V183H481.5V175.656C481.5 173.544 482.676 172.44 484.5 172.44C486.276 172.44 487.452 173.544 487.452 175.656V183H490.812V175.656C490.812 173.544 491.988 172.44 493.788 172.44C495.564 172.44 496.74 173.544 496.74 175.656V183ZM509.001 172.248C510.729 172.248 512.121 173.352 512.169 175.104H505.857C506.121 173.28 507.393 172.248 509.001 172.248ZM515.313 178.824H511.689C511.257 179.712 510.465 180.432 509.025 180.432C507.345 180.432 506.001 179.328 505.833 177.36H515.553C515.625 176.928 515.649 176.496 515.649 176.064C515.649 172.104 512.937 169.488 509.097 169.488C505.161 169.488 502.425 172.152 502.425 176.352C502.425 180.528 505.233 183.216 509.097 183.216C512.385 183.216 514.593 181.272 515.313 178.824ZM518.629 178.872C518.629 181.92 520.333 183 522.877 183H524.989V180.168H523.429C522.373 180.168 522.013 179.784 522.013 178.896V172.464H524.989V169.704H522.013V166.416H518.629V169.704H517.045V172.464H518.629V178.872ZM543.661 183H547.021V166.248H543.661V173.136H536.485V166.248H533.125V183H536.485V175.872H543.661V183ZM549.464 176.304C549.464 180.456 552.152 183.216 555.512 183.216C557.624 183.216 559.136 182.208 559.928 181.056V183H563.312V169.704H559.928V171.6C559.136 170.496 557.672 169.488 555.536 169.488C552.152 169.488 549.464 172.152 549.464 176.304ZM559.928 176.352C559.928 178.872 558.248 180.264 556.4 180.264C554.6 180.264 552.896 178.824 552.896 176.304C552.896 173.784 554.6 172.44 556.4 172.44C558.248 172.44 559.928 173.832 559.928 176.352ZM569.954 176.376C569.954 173.808 571.154 173.04 573.146 173.04H574.034V169.512C572.186 169.512 570.794 170.4 569.954 171.768V169.704H566.594V183H569.954V176.376ZM576.297 183H579.657V169.704H576.297V183ZM578.001 168.12C579.177 168.12 580.065 167.256 580.065 166.152C580.065 165.048 579.177 164.184 578.001 164.184C576.801 164.184 575.937 165.048 575.937 166.152C575.937 167.256 576.801 168.12 578.001 168.12ZM583.504 178.872C583.504 181.92 585.208 183 587.752 183H589.864V180.168H588.304C587.248 180.168 586.888 179.784 586.888 178.896V172.464H589.864V169.704H586.888V166.416H583.504V169.704H581.92V172.464H583.504V178.872ZM591.417 176.304C591.417 180.456 594.105 183.216 597.465 183.216C599.577 183.216 601.089 182.208 601.881 181.056V183H605.265V169.704H601.881V171.6C601.089 170.496 599.625 169.488 597.489 169.488C594.105 169.488 591.417 172.152 591.417 176.304ZM601.881 176.352C601.881 178.872 600.201 180.264 598.353 180.264C596.553 180.264 594.849 178.824 594.849 176.304C594.849 173.784 596.553 172.44 598.353 172.44C600.201 172.44 601.881 173.832 601.881 176.352ZM618.867 179.208C618.771 174.336 611.403 175.848 611.403 173.424C611.403 172.656 612.051 172.152 613.299 172.152C614.619 172.152 615.435 172.848 615.531 173.88H618.747C618.555 171.24 616.611 169.488 613.395 169.488C610.107 169.488 608.139 171.264 608.139 173.472C608.139 178.344 615.651 176.832 615.651 179.208C615.651 179.976 614.931 180.576 613.611 180.576C612.267 180.576 611.331 179.808 611.211 178.8H607.827C607.971 181.272 610.299 183.216 613.635 183.216C616.875 183.216 618.867 181.488 618.867 179.208ZM621.769 183H625.129V169.704H621.769V183Z" fill="black"/>
</svg>
