<svg width="1067" height="500" viewBox="0 0 1067 500" fill="none" xmlns="http://www.w3.org/2000/svg">
<rect x="180" y="5" width="322" height="89" rx="44.5" fill="black"/>
<path d="M224.085 50.894L220.377 40.49H218.181L222.897 53H225.273L229.971 40.49H227.811L224.085 50.894ZM235.863 44.648C237.393 44.648 238.599 45.62 238.635 47.15H233.145C233.361 45.584 234.477 44.648 235.863 44.648ZM240.507 50.048H238.293C237.915 50.822 237.213 51.434 235.953 51.434C234.441 51.434 233.271 50.444 233.127 48.806H240.705C240.759 48.464 240.777 48.14 240.777 47.798C240.777 44.882 238.779 42.92 235.953 42.92C233.019 42.92 231.003 44.918 231.003 48.032C231.003 51.146 233.109 53.162 235.953 53.162C238.383 53.162 239.949 51.776 240.507 50.048ZM242.796 53H244.848V47.456C244.848 45.638 245.838 44.702 247.35 44.702C248.844 44.702 249.834 45.638 249.834 47.456V53H251.868V47.15C251.868 44.378 250.14 42.92 247.926 42.92C246.648 42.92 245.532 43.406 244.848 44.234V39.68H242.796V53ZM254.486 53H256.538V43.082H254.486V53ZM255.53 41.768C256.25 41.768 256.826 41.192 256.826 40.454C256.826 39.716 256.25 39.14 255.53 39.14C254.792 39.14 254.216 39.716 254.216 40.454C254.216 41.192 254.792 41.768 255.53 41.768ZM258.548 48.032C258.548 51.146 260.564 53.162 263.408 53.162C265.838 53.162 267.422 51.812 267.98 49.868H265.766C265.388 50.894 264.632 51.434 263.408 51.434C261.752 51.434 260.654 50.21 260.654 48.032C260.654 45.872 261.752 44.648 263.408 44.648C264.632 44.648 265.424 45.26 265.766 46.214H267.98C267.422 44.126 265.838 42.92 263.408 42.92C260.564 42.92 258.548 44.936 258.548 48.032ZM270.025 53H272.077V39.68H270.025V53ZM278.947 44.648C280.477 44.648 281.683 45.62 281.719 47.15H276.229C276.445 45.584 277.561 44.648 278.947 44.648ZM283.591 50.048H281.377C280.999 50.822 280.297 51.434 279.037 51.434C277.525 51.434 276.355 50.444 276.211 48.806H283.789C283.843 48.464 283.861 48.14 283.861 47.798C283.861 44.882 281.863 42.92 279.037 42.92C276.103 42.92 274.087 44.918 274.087 48.032C274.087 51.146 276.193 53.162 279.037 53.162C281.467 53.162 283.033 51.776 283.591 50.048ZM290.556 53H292.608V40.49H290.556V53ZM302.34 53H304.374V47.15C304.374 44.378 302.628 42.92 300.306 42.92C299.118 42.92 298.02 43.406 297.354 44.216V43.082H295.302V53H297.354V47.456C297.354 45.638 298.344 44.702 299.856 44.702C301.35 44.702 302.34 45.638 302.34 47.456V53ZM314.39 50.228C314.282 46.646 308.684 47.762 308.684 45.764C308.684 45.098 309.26 44.648 310.358 44.648C311.474 44.648 312.14 45.242 312.212 46.106H314.264C314.156 44.126 312.68 42.92 310.43 42.92C308.09 42.92 306.614 44.198 306.614 45.782C306.614 49.418 312.374 48.302 312.374 50.246C312.374 50.93 311.744 51.434 310.556 51.434C309.422 51.434 308.648 50.768 308.576 49.958H306.452C306.542 51.758 308.216 53.162 310.592 53.162C312.932 53.162 314.39 51.902 314.39 50.228ZM318.659 44.54V43.082H316.607V57.716H318.659V51.56C319.307 52.334 320.477 53.162 322.115 53.162C324.725 53.162 326.777 51.056 326.777 47.996C326.777 44.936 324.725 42.92 322.115 42.92C320.495 42.92 319.289 43.712 318.659 44.54ZM324.689 47.996C324.689 50.138 323.213 51.38 321.665 51.38C320.135 51.38 318.659 50.174 318.659 48.032C318.659 45.908 320.135 44.702 321.665 44.702C323.213 44.702 324.689 45.854 324.689 47.996ZM332.982 44.648C334.512 44.648 335.718 45.62 335.754 47.15H330.264C330.48 45.584 331.596 44.648 332.982 44.648ZM337.626 50.048H335.412C335.034 50.822 334.332 51.434 333.072 51.434C331.56 51.434 330.39 50.444 330.246 48.806H337.824C337.878 48.464 337.896 48.14 337.896 47.798C337.896 44.882 335.898 42.92 333.072 42.92C330.138 42.92 328.122 44.918 328.122 48.032C328.122 51.146 330.228 53.162 333.072 53.162C335.502 53.162 337.068 51.776 337.626 50.048ZM339.231 48.032C339.231 51.146 341.247 53.162 344.091 53.162C346.521 53.162 348.105 51.812 348.663 49.868H346.449C346.071 50.894 345.315 51.434 344.091 51.434C342.435 51.434 341.337 50.21 341.337 48.032C341.337 45.872 342.435 44.648 344.091 44.648C345.315 44.648 346.107 45.26 346.449 46.214H348.663C348.105 44.126 346.521 42.92 344.091 42.92C341.247 42.92 339.231 44.936 339.231 48.032ZM351.032 50.246C351.032 52.262 352.13 53 353.894 53H355.514V51.29H354.254C353.39 51.29 353.102 50.984 353.102 50.246V44.756H355.514V43.082H353.102V40.616H351.032V43.082H349.862V44.756H351.032V50.246ZM357.406 53H359.458V43.082H357.406V53ZM358.45 41.768C359.17 41.768 359.746 41.192 359.746 40.454C359.746 39.716 359.17 39.14 358.45 39.14C357.712 39.14 357.136 39.716 357.136 40.454C357.136 41.192 357.712 41.768 358.45 41.768ZM371.602 48.032C371.602 44.918 369.37 42.92 366.544 42.92C363.718 42.92 361.486 44.918 361.486 48.032C361.486 51.146 363.628 53.162 366.454 53.162C369.298 53.162 371.602 51.146 371.602 48.032ZM363.574 48.032C363.574 45.782 364.96 44.702 366.508 44.702C368.038 44.702 369.496 45.782 369.496 48.032C369.496 50.282 367.984 51.38 366.454 51.38C364.906 51.38 363.574 50.282 363.574 48.032ZM380.668 53H382.702V47.15C382.702 44.378 380.956 42.92 378.634 42.92C377.446 42.92 376.348 43.406 375.682 44.216V43.082H373.63V53H375.682V47.456C375.682 45.638 376.672 44.702 378.184 44.702C379.678 44.702 380.668 45.638 380.668 47.456V53ZM398.438 49.454C398.438 44.882 391.814 46.646 391.814 43.82C391.814 42.614 392.732 42.038 393.92 42.074C395.216 42.11 395.954 42.884 396.026 43.73H398.294C398.114 41.588 396.422 40.328 394.028 40.328C391.472 40.328 389.726 41.696 389.726 43.892C389.726 48.5 396.368 46.538 396.368 49.562C396.368 50.624 395.558 51.398 394.118 51.398C392.696 51.398 391.976 50.57 391.886 49.544H389.69C389.69 51.758 391.616 53.126 394.118 53.126C396.908 53.126 398.438 51.326 398.438 49.454ZM405.035 44.648C406.565 44.648 407.771 45.62 407.807 47.15H402.317C402.533 45.584 403.649 44.648 405.035 44.648ZM409.679 50.048H407.465C407.087 50.822 406.385 51.434 405.125 51.434C403.613 51.434 402.443 50.444 402.299 48.806H409.877C409.931 48.464 409.949 48.14 409.949 47.798C409.949 44.882 407.951 42.92 405.125 42.92C402.191 42.92 400.175 44.918 400.175 48.032C400.175 51.146 402.281 53.162 405.125 53.162C407.555 53.162 409.121 51.776 409.679 50.048ZM414.02 47.78C414.02 45.674 414.956 45.044 416.468 45.044H416.99V42.92C415.586 42.92 414.596 43.532 414.02 44.522V43.082H411.968V53H414.02V47.78ZM417.706 43.082L421.468 53H423.916L427.696 43.082H425.518L422.71 51.164L419.902 43.082H417.706ZM429.247 53H431.299V43.082H429.247V53ZM430.291 41.768C431.011 41.768 431.587 41.192 431.587 40.454C431.587 39.716 431.011 39.14 430.291 39.14C429.553 39.14 428.977 39.716 428.977 40.454C428.977 41.192 429.553 41.768 430.291 41.768ZM433.31 48.032C433.31 51.146 435.326 53.162 438.17 53.162C440.6 53.162 442.184 51.812 442.742 49.868H440.528C440.15 50.894 439.394 51.434 438.17 51.434C436.514 51.434 435.416 50.21 435.416 48.032C435.416 45.872 436.514 44.648 438.17 44.648C439.394 44.648 440.186 45.26 440.528 46.214H442.742C442.184 44.126 440.6 42.92 438.17 42.92C435.326 42.92 433.31 44.936 433.31 48.032ZM448.963 44.648C450.493 44.648 451.699 45.62 451.735 47.15H446.245C446.461 45.584 447.577 44.648 448.963 44.648ZM453.607 50.048H451.393C451.015 50.822 450.313 51.434 449.053 51.434C447.541 51.434 446.371 50.444 446.227 48.806H453.805C453.859 48.464 453.877 48.14 453.877 47.798C453.877 44.882 451.879 42.92 449.053 42.92C446.119 42.92 444.103 44.918 444.103 48.032C444.103 51.146 446.209 53.162 449.053 53.162C451.483 53.162 453.049 51.776 453.607 50.048ZM463.294 50.228C463.186 46.646 457.588 47.762 457.588 45.764C457.588 45.098 458.164 44.648 459.262 44.648C460.378 44.648 461.044 45.242 461.116 46.106H463.168C463.06 44.126 461.584 42.92 459.334 42.92C456.994 42.92 455.518 44.198 455.518 45.782C455.518 49.418 461.278 48.302 461.278 50.246C461.278 50.93 460.648 51.434 459.46 51.434C458.326 51.434 457.552 50.768 457.48 49.958H455.356C455.446 51.758 457.12 53.162 459.496 53.162C461.836 53.162 463.294 51.902 463.294 50.228Z" fill="white"/>
<rect y="129" width="322" height="89" rx="44.5" fill="#2C2C2C"/>
<path d="M64.2294 160.894L60.5214 150.49H58.3254L63.0414 163H65.4174L70.1154 150.49H67.9554L64.2294 160.894ZM76.0074 154.648C77.5374 154.648 78.7434 155.62 78.7794 157.15H73.2894C73.5054 155.584 74.6214 154.648 76.0074 154.648ZM80.6514 160.048H78.4374C78.0594 160.822 77.3574 161.434 76.0974 161.434C74.5854 161.434 73.4154 160.444 73.2714 158.806H80.8494C80.9034 158.464 80.9214 158.14 80.9214 157.798C80.9214 154.882 78.9234 152.92 76.0974 152.92C73.1634 152.92 71.1474 154.918 71.1474 158.032C71.1474 161.146 73.2534 163.162 76.0974 163.162C78.5274 163.162 80.0934 161.776 80.6514 160.048ZM82.9408 163H84.9928V157.456C84.9928 155.638 85.9828 154.702 87.4948 154.702C88.9888 154.702 89.9788 155.638 89.9788 157.456V163H92.0128V157.15C92.0128 154.378 90.2848 152.92 88.0708 152.92C86.7928 152.92 85.6768 153.406 84.9928 154.234V149.68H82.9408V163ZM94.6303 163H96.6823V153.082H94.6303V163ZM95.6743 151.768C96.3943 151.768 96.9703 151.192 96.9703 150.454C96.9703 149.716 96.3943 149.14 95.6743 149.14C94.9363 149.14 94.3603 149.716 94.3603 150.454C94.3603 151.192 94.9363 151.768 95.6743 151.768ZM98.6924 158.032C98.6924 161.146 100.708 163.162 103.552 163.162C105.982 163.162 107.566 161.812 108.124 159.868H105.91C105.532 160.894 104.776 161.434 103.552 161.434C101.896 161.434 100.798 160.21 100.798 158.032C100.798 155.872 101.896 154.648 103.552 154.648C104.776 154.648 105.568 155.26 105.91 156.214H108.124C107.566 154.126 105.982 152.92 103.552 152.92C100.708 152.92 98.6924 154.936 98.6924 158.032ZM110.169 163H112.221V149.68H110.169V163ZM119.091 154.648C120.621 154.648 121.827 155.62 121.863 157.15H116.373C116.589 155.584 117.705 154.648 119.091 154.648ZM123.735 160.048H121.521C121.143 160.822 120.441 161.434 119.181 161.434C117.669 161.434 116.499 160.444 116.355 158.806H123.933C123.987 158.464 124.005 158.14 124.005 157.798C124.005 154.882 122.007 152.92 119.181 152.92C116.247 152.92 114.231 154.918 114.231 158.032C114.231 161.146 116.337 163.162 119.181 163.162C121.611 163.162 123.177 161.776 123.735 160.048ZM130.053 152.164H133.401V163H135.453V152.164H138.783V150.49H130.053V152.164ZM142.913 157.78C142.913 155.674 143.849 155.044 145.361 155.044H145.883V152.92C144.479 152.92 143.489 153.532 142.913 154.522V153.082H140.861V163H142.913V157.78ZM147.085 157.996C147.085 161.056 149.155 163.162 151.729 163.162C153.385 163.162 154.573 162.37 155.203 161.524V163H157.273V153.082H155.203V154.522C154.591 153.712 153.439 152.92 151.765 152.92C149.155 152.92 147.085 154.936 147.085 157.996ZM155.203 158.032C155.203 160.174 153.745 161.38 152.197 161.38C150.667 161.38 149.191 160.138 149.191 157.996C149.191 155.854 150.667 154.702 152.197 154.702C153.745 154.702 155.203 155.908 155.203 158.032ZM167.006 163H169.04V157.15C169.04 154.378 167.294 152.92 164.972 152.92C163.784 152.92 162.686 153.406 162.02 154.216V153.082H159.968V163H162.02V157.456C162.02 155.638 163.01 154.702 164.522 154.702C166.016 154.702 167.006 155.638 167.006 157.456V163ZM179.056 160.228C178.948 156.646 173.35 157.762 173.35 155.764C173.35 155.098 173.926 154.648 175.024 154.648C176.14 154.648 176.806 155.242 176.878 156.106H178.93C178.822 154.126 177.346 152.92 175.096 152.92C172.756 152.92 171.28 154.198 171.28 155.782C171.28 159.418 177.04 158.302 177.04 160.246C177.04 160.93 176.41 161.434 175.222 161.434C174.088 161.434 173.314 160.768 173.242 159.958H171.118C171.208 161.758 172.882 163.162 175.258 163.162C177.598 163.162 179.056 161.902 179.056 160.228ZM183.325 154.54V153.082H181.273V167.716H183.325V161.56C183.973 162.334 185.143 163.162 186.781 163.162C189.391 163.162 191.443 161.056 191.443 157.996C191.443 154.936 189.391 152.92 186.781 152.92C185.161 152.92 183.955 153.712 183.325 154.54ZM189.355 157.996C189.355 160.138 187.879 161.38 186.331 161.38C184.801 161.38 183.325 160.174 183.325 158.032C183.325 155.908 184.801 154.702 186.331 154.702C187.879 154.702 189.355 155.854 189.355 157.996ZM202.922 158.032C202.922 154.918 200.69 152.92 197.864 152.92C195.038 152.92 192.806 154.918 192.806 158.032C192.806 161.146 194.948 163.162 197.774 163.162C200.618 163.162 202.922 161.146 202.922 158.032ZM194.894 158.032C194.894 155.782 196.28 154.702 197.828 154.702C199.358 154.702 200.816 155.782 200.816 158.032C200.816 160.282 199.304 161.38 197.774 161.38C196.226 161.38 194.894 160.282 194.894 158.032ZM207.003 157.78C207.003 155.674 207.939 155.044 209.451 155.044H209.973V152.92C208.569 152.92 207.579 153.532 207.003 154.522V153.082H204.951V163H207.003V157.78ZM212.183 160.246C212.183 162.262 213.281 163 215.045 163H216.665V161.29H215.405C214.541 161.29 214.253 160.984 214.253 160.246V154.756H216.665V153.082H214.253V150.616H212.183V153.082H211.013V154.756H212.183V160.246ZM217.872 157.996C217.872 161.056 219.942 163.162 222.516 163.162C224.172 163.162 225.36 162.37 225.99 161.524V163H228.06V153.082H225.99V154.522C225.378 153.712 224.226 152.92 222.552 152.92C219.942 152.92 217.872 154.936 217.872 157.996ZM225.99 158.032C225.99 160.174 224.532 161.38 222.984 161.38C221.454 161.38 219.978 160.138 219.978 157.996C219.978 155.854 221.454 154.702 222.984 154.702C224.532 154.702 225.99 155.908 225.99 158.032ZM231.079 160.246C231.079 162.262 232.177 163 233.941 163H235.561V161.29H234.301C233.437 161.29 233.149 160.984 233.149 160.246V154.756H235.561V153.082H233.149V150.616H231.079V153.082H229.909V154.756H231.079V160.246ZM237.453 163H239.505V153.082H237.453V163ZM238.497 151.768C239.217 151.768 239.793 151.192 239.793 150.454C239.793 149.716 239.217 149.14 238.497 149.14C237.759 149.14 237.183 149.716 237.183 150.454C237.183 151.192 237.759 151.768 238.497 151.768ZM251.649 158.032C251.649 154.918 249.417 152.92 246.591 152.92C243.765 152.92 241.533 154.918 241.533 158.032C241.533 161.146 243.675 163.162 246.501 163.162C249.345 163.162 251.649 161.146 251.649 158.032ZM243.621 158.032C243.621 155.782 245.007 154.702 246.555 154.702C248.085 154.702 249.543 155.782 249.543 158.032C249.543 160.282 248.031 161.38 246.501 161.38C244.953 161.38 243.621 160.282 243.621 158.032ZM260.715 163H262.749V157.15C262.749 154.378 261.003 152.92 258.681 152.92C257.493 152.92 256.395 153.406 255.729 154.216V153.082H253.677V163H255.729V157.456C255.729 155.638 256.719 154.702 258.231 154.702C259.725 154.702 260.715 155.638 260.715 157.456V163ZM82.9629 193.454C82.9629 188.882 76.3389 190.646 76.3389 187.82C76.3389 186.614 77.2569 186.038 78.4449 186.074C79.7409 186.11 80.4789 186.884 80.5509 187.73H82.8189C82.6389 185.588 80.9469 184.328 78.5529 184.328C75.9969 184.328 74.2509 185.696 74.2509 187.892C74.2509 192.5 80.8929 190.538 80.8929 193.562C80.8929 194.624 80.0829 195.398 78.6429 195.398C77.2209 195.398 76.5009 194.57 76.4109 193.544H74.2149C74.2149 195.758 76.1409 197.126 78.6429 197.126C81.4329 197.126 82.9629 195.326 82.9629 193.454ZM89.5602 188.648C91.0902 188.648 92.2962 189.62 92.3322 191.15H86.8422C87.0582 189.584 88.1742 188.648 89.5602 188.648ZM94.2042 194.048H91.9902C91.6122 194.822 90.9102 195.434 89.6502 195.434C88.1382 195.434 86.9682 194.444 86.8242 192.806H94.4022C94.4562 192.464 94.4742 192.14 94.4742 191.798C94.4742 188.882 92.4762 186.92 89.6502 186.92C86.7162 186.92 84.7002 188.918 84.7002 192.032C84.7002 195.146 86.8062 197.162 89.6502 197.162C92.0802 197.162 93.6462 195.776 94.2042 194.048ZM98.5456 191.78C98.5456 189.674 99.4816 189.044 100.994 189.044H101.516V186.92C100.112 186.92 99.1216 187.532 98.5456 188.522V187.082H96.4936V197H98.5456V191.78ZM102.232 187.082L105.994 197H108.442L112.222 187.082H110.044L107.236 195.164L104.428 187.082H102.232ZM113.773 197H115.825V187.082H113.773V197ZM114.817 185.768C115.537 185.768 116.113 185.192 116.113 184.454C116.113 183.716 115.537 183.14 114.817 183.14C114.079 183.14 113.503 183.716 113.503 184.454C113.503 185.192 114.079 185.768 114.817 185.768ZM117.835 192.032C117.835 195.146 119.851 197.162 122.695 197.162C125.125 197.162 126.709 195.812 127.267 193.868H125.053C124.675 194.894 123.919 195.434 122.695 195.434C121.039 195.434 119.941 194.21 119.941 192.032C119.941 189.872 121.039 188.648 122.695 188.648C123.919 188.648 124.711 189.26 125.053 190.214H127.267C126.709 188.126 125.125 186.92 122.695 186.92C119.851 186.92 117.835 188.936 117.835 192.032ZM133.488 188.648C135.018 188.648 136.224 189.62 136.26 191.15H130.77C130.986 189.584 132.102 188.648 133.488 188.648ZM138.132 194.048H135.918C135.54 194.822 134.838 195.434 133.578 195.434C132.066 195.434 130.896 194.444 130.752 192.806H138.33C138.384 192.464 138.402 192.14 138.402 191.798C138.402 188.882 136.404 186.92 133.578 186.92C130.644 186.92 128.628 188.918 128.628 192.032C128.628 195.146 130.734 197.162 133.578 197.162C136.008 197.162 137.574 195.776 138.132 194.048ZM147.819 194.228C147.711 190.646 142.113 191.762 142.113 189.764C142.113 189.098 142.689 188.648 143.787 188.648C144.903 188.648 145.569 189.242 145.641 190.106H147.693C147.585 188.126 146.109 186.92 143.859 186.92C141.519 186.92 140.043 188.198 140.043 189.782C140.043 193.418 145.803 192.302 145.803 194.246C145.803 194.93 145.173 195.434 143.985 195.434C142.851 195.434 142.077 194.768 142.005 193.958H139.881C139.971 195.758 141.645 197.162 144.021 197.162C146.361 197.162 147.819 195.902 147.819 194.228ZM156.638 197H158.798L160.796 189.674L162.794 197H164.954L168.032 187.082H166.016L163.964 195.02L161.948 187.082H159.806L157.7 195.056L155.63 187.082H153.542L156.638 197ZM169.566 197H171.618V187.082H169.566V197ZM170.61 185.768C171.33 185.768 171.906 185.192 171.906 184.454C171.906 183.716 171.33 183.14 170.61 183.14C169.872 183.14 169.296 183.716 169.296 184.454C169.296 185.192 169.872 185.768 170.61 185.768ZM174.636 194.246C174.636 196.262 175.734 197 177.498 197H179.118V195.29H177.858C176.994 195.29 176.706 194.984 176.706 194.246V188.756H179.118V187.082H176.706V184.616H174.636V187.082H173.466V188.756H174.636V194.246ZM181.009 197H183.061V191.456C183.061 189.638 184.051 188.702 185.563 188.702C187.057 188.702 188.047 189.638 188.047 191.456V197H190.081V191.15C190.081 188.378 188.353 186.92 186.139 186.92C184.861 186.92 183.745 187.406 183.061 188.234V183.68H181.009V197ZM201.46 184.49H197.374V197H201.46C205.474 197 208.102 194.642 208.102 190.79C208.102 186.92 205.474 184.49 201.46 184.49ZM199.426 195.326V186.164H201.46C204.412 186.164 205.996 187.928 205.996 190.79C205.996 193.634 204.412 195.326 201.46 195.326H199.426ZM212.188 191.78C212.188 189.674 213.124 189.044 214.636 189.044H215.158V186.92C213.754 186.92 212.764 187.532 212.188 188.522V187.082H210.136V197H212.188V191.78ZM217.044 197H219.096V187.082H217.044V197ZM218.088 185.768C218.808 185.768 219.384 185.192 219.384 184.454C219.384 183.716 218.808 183.14 218.088 183.14C217.35 183.14 216.774 183.716 216.774 184.454C216.774 185.192 217.35 185.768 218.088 185.768ZM220.62 187.082L224.382 197H226.83L230.61 187.082H228.432L225.624 195.164L222.816 187.082H220.62ZM236.338 188.648C237.868 188.648 239.074 189.62 239.11 191.15H233.62C233.836 189.584 234.952 188.648 236.338 188.648ZM240.982 194.048H238.768C238.39 194.822 237.688 195.434 236.428 195.434C234.916 195.434 233.746 194.444 233.602 192.806H241.18C241.234 192.464 241.252 192.14 241.252 191.798C241.252 188.882 239.254 186.92 236.428 186.92C233.494 186.92 231.478 188.918 231.478 192.032C231.478 195.146 233.584 197.162 236.428 197.162C238.858 197.162 240.424 195.776 240.982 194.048ZM245.323 191.78C245.323 189.674 246.259 189.044 247.771 189.044H248.293V186.92C246.889 186.92 245.899 187.532 245.323 188.522V187.082H243.271V197H245.323V191.78Z" fill="white"/>
<rect x="180" y="267" width="322" height="89" rx="44.5" fill="#484848"/>
<path d="M231.565 294.718C231.565 298.48 234.427 301.108 237.955 301.108C240.565 301.108 242.815 299.812 243.769 297.364H241.303C240.637 298.696 239.449 299.326 237.955 299.326C235.471 299.326 233.671 297.544 233.671 294.718C233.671 291.892 235.471 290.128 237.955 290.128C239.449 290.128 240.637 290.758 241.303 292.09H243.769C242.815 289.642 240.565 288.328 237.955 288.328C234.427 288.328 231.565 290.974 231.565 294.718ZM245.487 295.996C245.487 299.056 247.557 301.162 250.131 301.162C251.787 301.162 252.975 300.37 253.605 299.524V301H255.675V291.082H253.605V292.522C252.993 291.712 251.841 290.92 250.167 290.92C247.557 290.92 245.487 292.936 245.487 295.996ZM253.605 296.032C253.605 298.174 252.147 299.38 250.599 299.38C249.069 299.38 247.593 298.138 247.593 295.996C247.593 293.854 249.069 292.702 250.599 292.702C252.147 292.702 253.605 293.908 253.605 296.032ZM260.423 295.78C260.423 293.674 261.359 293.044 262.871 293.044H263.393V290.92C261.989 290.92 260.999 291.532 260.423 292.522V291.082H258.371V301H260.423V295.78ZM272.492 301.018L274.796 301L277.586 291.532L280.214 301H282.536L286.244 288.49H284.048L281.438 298.624L278.828 288.49H276.524L273.716 298.678L271.124 288.49H268.946L272.492 301.018ZM287.253 295.996C287.253 299.056 289.323 301.162 291.897 301.162C293.553 301.162 294.741 300.37 295.371 299.524V301H297.441V291.082H295.371V292.522C294.759 291.712 293.607 290.92 291.933 290.92C289.323 290.92 287.253 292.936 287.253 295.996ZM295.371 296.032C295.371 298.174 293.913 299.38 292.365 299.38C290.835 299.38 289.359 298.138 289.359 295.996C289.359 293.854 290.835 292.702 292.365 292.702C293.913 292.702 295.371 293.908 295.371 296.032ZM307.534 298.228C307.426 294.646 301.828 295.762 301.828 293.764C301.828 293.098 302.404 292.648 303.502 292.648C304.618 292.648 305.284 293.242 305.356 294.106H307.408C307.3 292.126 305.824 290.92 303.574 290.92C301.234 290.92 299.758 292.198 299.758 293.782C299.758 297.418 305.518 296.302 305.518 298.246C305.518 298.93 304.888 299.434 303.7 299.434C302.566 299.434 301.792 298.768 301.72 297.958H299.596C299.686 299.758 301.36 301.162 303.736 301.162C306.076 301.162 307.534 299.902 307.534 298.228ZM309.751 301H311.803V295.456C311.803 293.638 312.793 292.702 314.305 292.702C315.799 292.702 316.789 293.638 316.789 295.456V301H318.823V295.15C318.823 292.378 317.095 290.92 314.881 290.92C313.603 290.92 312.487 291.406 311.803 292.234V287.68H309.751V301ZM325.433 295.996C325.433 299.056 327.503 301.162 330.077 301.162C331.733 301.162 332.921 300.37 333.551 299.524V301H335.621V291.082H333.551V292.522C332.939 291.712 331.787 290.92 330.113 290.92C327.503 290.92 325.433 292.936 325.433 295.996ZM333.551 296.032C333.551 298.174 332.093 299.38 330.545 299.38C329.015 299.38 327.539 298.138 327.539 295.996C327.539 293.854 329.015 292.702 330.545 292.702C332.093 292.702 333.551 293.908 333.551 296.032ZM345.354 301H347.388V295.15C347.388 292.378 345.642 290.92 343.32 290.92C342.132 290.92 341.034 291.406 340.368 292.216V291.082H338.316V301H340.368V295.456C340.368 293.638 341.358 292.702 342.87 292.702C344.364 292.702 345.354 293.638 345.354 295.456V301ZM349.321 295.996C349.321 299.056 351.391 301.162 354.001 301.162C355.621 301.162 356.809 300.406 357.439 299.506V301H359.509V287.68H357.439V292.468C356.683 291.532 355.315 290.92 354.019 290.92C351.391 290.92 349.321 292.936 349.321 295.996ZM357.439 296.032C357.439 298.174 355.981 299.38 354.433 299.38C352.903 299.38 351.427 298.138 351.427 295.996C351.427 293.854 352.903 292.702 354.433 292.702C355.981 292.702 357.439 293.908 357.439 296.032ZM370.966 288.49H366.88V301H370.966C374.98 301 377.608 298.642 377.608 294.79C377.608 290.92 374.98 288.49 370.966 288.49ZM368.932 299.326V290.164H370.966C373.918 290.164 375.502 291.928 375.502 294.79C375.502 297.634 373.918 299.326 370.966 299.326H368.932ZM383.818 292.648C385.348 292.648 386.554 293.62 386.59 295.15H381.1C381.316 293.584 382.432 292.648 383.818 292.648ZM388.462 298.048H386.248C385.87 298.822 385.168 299.434 383.908 299.434C382.396 299.434 381.226 298.444 381.082 296.806H388.66C388.714 296.464 388.732 296.14 388.732 295.798C388.732 292.882 386.734 290.92 383.908 290.92C380.974 290.92 378.958 292.918 378.958 296.032C378.958 299.146 381.064 301.162 383.908 301.162C386.338 301.162 387.904 299.776 388.462 298.048ZM391.075 298.246C391.075 300.262 392.173 301 393.937 301H395.557V299.29H394.297C393.433 299.29 393.145 298.984 393.145 298.246V292.756H395.557V291.082H393.145V288.616H391.075V291.082H389.905V292.756H391.075V298.246ZM396.765 295.996C396.765 299.056 398.835 301.162 401.409 301.162C403.065 301.162 404.253 300.37 404.883 299.524V301H406.953V291.082H404.883V292.522C404.271 291.712 403.119 290.92 401.445 290.92C398.835 290.92 396.765 292.936 396.765 295.996ZM404.883 296.032C404.883 298.174 403.425 299.38 401.877 299.38C400.347 299.38 398.871 298.138 398.871 295.996C398.871 293.854 400.347 292.702 401.877 292.702C403.425 292.702 404.883 293.908 404.883 296.032ZM409.648 301H411.7V291.082H409.648V301ZM410.692 289.768C411.412 289.768 411.988 289.192 411.988 288.454C411.988 287.716 411.412 287.14 410.692 287.14C409.954 287.14 409.378 287.716 409.378 288.454C409.378 289.192 409.954 289.768 410.692 289.768ZM414.394 301H416.446V287.68H414.394V301ZM419.14 301H421.192V291.082H419.14V301ZM420.184 289.768C420.904 289.768 421.48 289.192 421.48 288.454C421.48 287.716 420.904 287.14 420.184 287.14C419.446 287.14 418.87 287.716 418.87 288.454C418.87 289.192 419.446 289.768 420.184 289.768ZM430.924 301H432.958V295.15C432.958 292.378 431.212 290.92 428.89 290.92C427.702 290.92 426.604 291.406 425.938 292.216V291.082H423.886V301H425.938V295.456C425.938 293.638 426.928 292.702 428.44 292.702C429.934 292.702 430.924 293.638 430.924 295.456V301ZM434.892 295.996C434.892 299.056 436.962 301.162 439.572 301.162C441.192 301.162 442.38 300.352 443.01 299.506V301.162C443.01 303.142 441.822 304.114 440.238 304.114C438.816 304.114 437.718 303.412 437.412 302.386H435.378C435.63 304.582 437.592 305.896 440.238 305.896C443.334 305.896 445.08 303.862 445.08 301.162V291.082H443.01V292.522C442.398 291.676 441.192 290.92 439.572 290.92C436.962 290.92 434.892 292.936 434.892 295.996ZM443.01 296.032C443.01 298.174 441.552 299.38 440.004 299.38C438.474 299.38 436.998 298.138 436.998 295.996C436.998 293.854 438.474 292.702 440.004 292.702C441.552 292.702 443.01 293.908 443.01 296.032ZM313.034 331.454C313.034 326.882 306.41 328.646 306.41 325.82C306.41 324.614 307.328 324.038 308.516 324.074C309.812 324.11 310.55 324.884 310.622 325.73H312.89C312.71 323.588 311.018 322.328 308.624 322.328C306.068 322.328 304.322 323.696 304.322 325.892C304.322 330.5 310.964 328.538 310.964 331.562C310.964 332.624 310.154 333.398 308.714 333.398C307.292 333.398 306.572 332.57 306.482 331.544H304.286C304.286 333.758 306.212 335.126 308.714 335.126C311.504 335.126 313.034 333.326 313.034 331.454ZM319.631 326.648C321.161 326.648 322.367 327.62 322.403 329.15H316.913C317.129 327.584 318.245 326.648 319.631 326.648ZM324.275 332.048H322.061C321.683 332.822 320.981 333.434 319.721 333.434C318.209 333.434 317.039 332.444 316.895 330.806H324.473C324.527 330.464 324.545 330.14 324.545 329.798C324.545 326.882 322.547 324.92 319.721 324.92C316.787 324.92 314.771 326.918 314.771 330.032C314.771 333.146 316.877 335.162 319.721 335.162C322.151 335.162 323.717 333.776 324.275 332.048ZM328.617 329.78C328.617 327.674 329.553 327.044 331.065 327.044H331.587V324.92C330.183 324.92 329.193 325.532 328.617 326.522V325.082H326.565V335H328.617V329.78ZM332.303 325.082L336.065 335H338.513L342.293 325.082H340.115L337.307 333.164L334.499 325.082H332.303ZM343.844 335H345.896V325.082H343.844V335ZM344.888 323.768C345.608 323.768 346.184 323.192 346.184 322.454C346.184 321.716 345.608 321.14 344.888 321.14C344.15 321.14 343.574 321.716 343.574 322.454C343.574 323.192 344.15 323.768 344.888 323.768ZM347.906 330.032C347.906 333.146 349.922 335.162 352.766 335.162C355.196 335.162 356.78 333.812 357.338 331.868H355.124C354.746 332.894 353.99 333.434 352.766 333.434C351.11 333.434 350.012 332.21 350.012 330.032C350.012 327.872 351.11 326.648 352.766 326.648C353.99 326.648 354.782 327.26 355.124 328.214H357.338C356.78 326.126 355.196 324.92 352.766 324.92C349.922 324.92 347.906 326.936 347.906 330.032ZM363.559 326.648C365.089 326.648 366.295 327.62 366.331 329.15H360.841C361.057 327.584 362.173 326.648 363.559 326.648ZM368.203 332.048H365.989C365.611 332.822 364.909 333.434 363.649 333.434C362.137 333.434 360.967 332.444 360.823 330.806H368.401C368.455 330.464 368.473 330.14 368.473 329.798C368.473 326.882 366.475 324.92 363.649 324.92C360.715 324.92 358.699 326.918 358.699 330.032C358.699 333.146 360.805 335.162 363.649 335.162C366.079 335.162 367.645 333.776 368.203 332.048ZM377.891 332.228C377.783 328.646 372.185 329.762 372.185 327.764C372.185 327.098 372.761 326.648 373.859 326.648C374.975 326.648 375.641 327.242 375.713 328.106H377.765C377.657 326.126 376.181 324.92 373.931 324.92C371.591 324.92 370.115 326.198 370.115 327.782C370.115 331.418 375.875 330.302 375.875 332.246C375.875 332.93 375.245 333.434 374.057 333.434C372.923 333.434 372.149 332.768 372.077 331.958H369.953C370.043 333.758 371.717 335.162 374.093 335.162C376.433 335.162 377.891 333.902 377.891 332.228Z" fill="white"/>
<rect x="556" y="267" width="322" height="89" rx="44.5" fill="#656565"/>
<path d="M619.649 301H621.701V295.528H625.841V293.854H621.701V290.164H627.011V288.49H619.649V301ZM628.913 301H630.965V287.68H628.913V301ZM637.835 292.648C639.365 292.648 640.571 293.62 640.607 295.15H635.117C635.333 293.584 636.449 292.648 637.835 292.648ZM642.479 298.048H640.265C639.887 298.822 639.185 299.434 637.925 299.434C636.413 299.434 635.243 298.444 635.099 296.806H642.677C642.731 296.464 642.749 296.14 642.749 295.798C642.749 292.882 640.751 290.92 637.925 290.92C634.991 290.92 632.975 292.918 632.975 296.032C632.975 299.146 635.081 301.162 637.925 301.162C640.355 301.162 641.921 299.776 642.479 298.048ZM648.944 292.648C650.474 292.648 651.68 293.62 651.716 295.15H646.226C646.442 293.584 647.558 292.648 648.944 292.648ZM653.588 298.048H651.374C650.996 298.822 650.294 299.434 649.034 299.434C647.522 299.434 646.352 298.444 646.208 296.806H653.786C653.84 296.464 653.858 296.14 653.858 295.798C653.858 292.882 651.86 290.92 649.034 290.92C646.1 290.92 644.084 292.918 644.084 296.032C644.084 299.146 646.19 301.162 649.034 301.162C651.464 301.162 653.03 299.776 653.588 298.048ZM656.201 298.246C656.201 300.262 657.299 301 659.063 301H660.683V299.29H659.423C658.559 299.29 658.271 298.984 658.271 298.246V292.756H660.683V291.082H658.271V288.616H656.201V291.082H655.031V292.756H656.201V298.246ZM672.146 298.894L668.438 288.49H666.242L670.958 301H673.334L678.032 288.49H675.872L672.146 298.894ZM683.924 292.648C685.454 292.648 686.66 293.62 686.696 295.15H681.206C681.422 293.584 682.538 292.648 683.924 292.648ZM688.568 298.048H686.354C685.976 298.822 685.274 299.434 684.014 299.434C682.502 299.434 681.332 298.444 681.188 296.806H688.766C688.82 296.464 688.838 296.14 688.838 295.798C688.838 292.882 686.84 290.92 684.014 290.92C681.08 290.92 679.064 292.918 679.064 296.032C679.064 299.146 681.17 301.162 684.014 301.162C686.444 301.162 688.01 299.776 688.568 298.048ZM690.858 301H692.91V295.456C692.91 293.638 693.9 292.702 695.412 292.702C696.906 292.702 697.896 293.638 697.896 295.456V301H699.93V295.15C699.93 292.378 698.202 290.92 695.988 290.92C694.71 290.92 693.594 291.406 692.91 292.234V287.68H690.858V301ZM702.547 301H704.599V291.082H702.547V301ZM703.591 289.768C704.311 289.768 704.887 289.192 704.887 288.454C704.887 287.716 704.311 287.14 703.591 287.14C702.853 287.14 702.277 287.716 702.277 288.454C702.277 289.192 702.853 289.768 703.591 289.768ZM706.609 296.032C706.609 299.146 708.625 301.162 711.469 301.162C713.899 301.162 715.483 299.812 716.041 297.868H713.827C713.449 298.894 712.693 299.434 711.469 299.434C709.813 299.434 708.715 298.21 708.715 296.032C708.715 293.872 709.813 292.648 711.469 292.648C712.693 292.648 713.485 293.26 713.827 294.214H716.041C715.483 292.126 713.899 290.92 711.469 290.92C708.625 290.92 706.609 292.936 706.609 296.032ZM718.086 301H720.138V287.68H718.086V301ZM727.008 292.648C728.538 292.648 729.744 293.62 729.78 295.15H724.29C724.506 293.584 725.622 292.648 727.008 292.648ZM731.652 298.048H729.438C729.06 298.822 728.358 299.434 727.098 299.434C725.586 299.434 724.416 298.444 724.272 296.806H731.85C731.904 296.464 731.922 296.14 731.922 295.798C731.922 292.882 729.924 290.92 727.098 290.92C724.164 290.92 722.148 292.918 722.148 296.032C722.148 299.146 724.254 301.162 727.098 301.162C729.528 301.162 731.094 299.776 731.652 298.048ZM747.06 297.454C747.06 292.882 740.436 294.646 740.436 291.82C740.436 290.614 741.354 290.038 742.542 290.074C743.838 290.11 744.576 290.884 744.648 291.73H746.916C746.736 289.588 745.044 288.328 742.65 288.328C740.094 288.328 738.348 289.696 738.348 291.892C738.348 296.5 744.99 294.538 744.99 297.562C744.99 298.624 744.18 299.398 742.74 299.398C741.318 299.398 740.598 298.57 740.508 297.544H738.312C738.312 299.758 740.238 301.126 742.74 301.126C745.53 301.126 747.06 299.326 747.06 297.454ZM749.805 298.246C749.805 300.262 750.903 301 752.667 301H754.287V299.29H753.027C752.163 299.29 751.875 298.984 751.875 298.246V292.756H754.287V291.082H751.875V288.616H749.805V291.082H748.635V292.756H749.805V298.246ZM765.628 296.032C765.628 292.918 763.396 290.92 760.57 290.92C757.744 290.92 755.512 292.918 755.512 296.032C755.512 299.146 757.654 301.162 760.48 301.162C763.324 301.162 765.628 299.146 765.628 296.032ZM757.6 296.032C757.6 293.782 758.986 292.702 760.534 292.702C762.064 292.702 763.522 293.782 763.522 296.032C763.522 298.282 762.01 299.38 760.48 299.38C758.932 299.38 757.6 298.282 757.6 296.032ZM766.973 296.032C766.973 299.146 768.989 301.162 771.833 301.162C774.263 301.162 775.847 299.812 776.405 297.868H774.191C773.813 298.894 773.057 299.434 771.833 299.434C770.177 299.434 769.079 298.21 769.079 296.032C769.079 293.872 770.177 292.648 771.833 292.648C773.057 292.648 773.849 293.26 774.191 294.214H776.405C775.847 292.126 774.263 290.92 771.833 290.92C768.989 290.92 766.973 292.936 766.973 296.032ZM778.45 301H780.502V296.734L784.174 301H786.946L782.374 296.05L786.946 291.082H784.102L780.502 295.42V287.68H778.45V301ZM788.416 301H790.468V291.082H788.416V301ZM789.46 289.768C790.18 289.768 790.756 289.192 790.756 288.454C790.756 287.716 790.18 287.14 789.46 287.14C788.722 287.14 788.146 287.716 788.146 288.454C788.146 289.192 788.722 289.768 789.46 289.768ZM800.201 301H802.235V295.15C802.235 292.378 800.489 290.92 798.167 290.92C796.979 290.92 795.881 291.406 795.215 292.216V291.082H793.163V301H795.215V295.456C795.215 293.638 796.205 292.702 797.717 292.702C799.211 292.702 800.201 293.638 800.201 295.456V301ZM804.168 295.996C804.168 299.056 806.238 301.162 808.848 301.162C810.468 301.162 811.656 300.352 812.286 299.506V301.162C812.286 303.142 811.098 304.114 809.514 304.114C808.092 304.114 806.994 303.412 806.688 302.386H804.654C804.906 304.582 806.868 305.896 809.514 305.896C812.61 305.896 814.356 303.862 814.356 301.162V291.082H812.286V292.522C811.674 291.676 810.468 290.92 808.848 290.92C806.238 290.92 804.168 292.936 804.168 295.996ZM812.286 296.032C812.286 298.174 810.828 299.38 809.28 299.38C807.75 299.38 806.274 298.138 806.274 295.996C806.274 293.854 807.75 292.702 809.28 292.702C810.828 292.702 812.286 293.908 812.286 296.032ZM617.128 329.996C617.128 333.056 619.198 335.162 621.772 335.162C623.428 335.162 624.616 334.37 625.246 333.524V335H627.316V325.082H625.246V326.522C624.634 325.712 623.482 324.92 621.808 324.92C619.198 324.92 617.128 326.936 617.128 329.996ZM625.246 330.032C625.246 332.174 623.788 333.38 622.24 333.38C620.71 333.38 619.234 332.138 619.234 329.996C619.234 327.854 620.71 326.702 622.24 326.702C623.788 326.702 625.246 327.908 625.246 330.032ZM637.049 335H639.083V329.15C639.083 326.378 637.337 324.92 635.015 324.92C633.827 324.92 632.729 325.406 632.063 326.216V325.082H630.011V335H632.063V329.456C632.063 327.638 633.053 326.702 634.565 326.702C636.059 326.702 637.049 327.638 637.049 329.456V335ZM641.017 329.996C641.017 333.056 643.087 335.162 645.697 335.162C647.317 335.162 648.505 334.406 649.135 333.506V335H651.205V321.68H649.135V326.468C648.379 325.532 647.011 324.92 645.715 324.92C643.087 324.92 641.017 326.936 641.017 329.996ZM649.135 330.032C649.135 332.174 647.677 333.38 646.129 333.38C644.599 333.38 643.123 332.138 643.123 329.996C643.123 327.854 644.599 326.702 646.129 326.702C647.677 326.702 649.135 327.908 649.135 330.032ZM661.114 335.018L663.418 335L666.208 325.532L668.836 335H671.158L674.866 322.49H672.67L670.06 332.624L667.45 322.49H665.146L662.338 332.678L659.746 322.49H657.568L661.114 335.018ZM675.874 329.996C675.874 333.056 677.944 335.162 680.518 335.162C682.174 335.162 683.362 334.37 683.992 333.524V335H686.062V325.082H683.992V326.522C683.38 325.712 682.228 324.92 680.554 324.92C677.944 324.92 675.874 326.936 675.874 329.996ZM683.992 330.032C683.992 332.174 682.534 333.38 680.986 333.38C679.456 333.38 677.98 332.138 677.98 329.996C677.98 327.854 679.456 326.702 680.986 326.702C682.534 326.702 683.992 327.908 683.992 330.032ZM696.155 332.228C696.047 328.646 690.449 329.762 690.449 327.764C690.449 327.098 691.025 326.648 692.123 326.648C693.239 326.648 693.905 327.242 693.977 328.106H696.029C695.921 326.126 694.445 324.92 692.195 324.92C689.855 324.92 688.379 326.198 688.379 327.782C688.379 331.418 694.139 330.302 694.139 332.246C694.139 332.93 693.509 333.434 692.321 333.434C691.187 333.434 690.413 332.768 690.341 331.958H688.217C688.307 333.758 689.981 335.162 692.357 335.162C694.697 335.162 696.155 333.902 696.155 332.228ZM698.372 335H700.424V329.456C700.424 327.638 701.414 326.702 702.926 326.702C704.42 326.702 705.41 327.638 705.41 329.456V335H707.444V329.15C707.444 326.378 705.716 324.92 703.502 324.92C702.224 324.92 701.108 325.406 700.424 326.234V321.68H698.372V335ZM710.062 335H712.114V325.082H710.062V335ZM711.106 323.768C711.826 323.768 712.402 323.192 712.402 322.454C712.402 321.716 711.826 321.14 711.106 321.14C710.368 321.14 709.792 321.716 709.792 322.454C709.792 323.192 710.368 323.768 711.106 323.768ZM721.846 335H723.88V329.15C723.88 326.378 722.134 324.92 719.812 324.92C718.624 324.92 717.526 325.406 716.86 326.216V325.082H714.808V335H716.86V329.456C716.86 327.638 717.85 326.702 719.362 326.702C720.856 326.702 721.846 327.638 721.846 329.456V335ZM725.813 329.996C725.813 333.056 727.883 335.162 730.493 335.162C732.113 335.162 733.301 334.352 733.931 333.506V335.162C733.931 337.142 732.743 338.114 731.159 338.114C729.737 338.114 728.639 337.412 728.333 336.386H726.299C726.551 338.582 728.513 339.896 731.159 339.896C734.255 339.896 736.001 337.862 736.001 335.162V325.082H733.931V326.522C733.319 325.676 732.113 324.92 730.493 324.92C727.883 324.92 725.813 326.936 725.813 329.996ZM733.931 330.032C733.931 332.174 732.473 333.38 730.925 333.38C729.395 333.38 727.919 332.138 727.919 329.996C727.919 327.854 729.395 326.702 730.925 326.702C732.473 326.702 733.931 327.908 733.931 330.032ZM751.814 331.454C751.814 326.882 745.19 328.646 745.19 325.82C745.19 324.614 746.108 324.038 747.296 324.074C748.592 324.11 749.33 324.884 749.402 325.73H751.67C751.49 323.588 749.798 322.328 747.404 322.328C744.848 322.328 743.102 323.696 743.102 325.892C743.102 330.5 749.744 328.538 749.744 331.562C749.744 332.624 748.934 333.398 747.494 333.398C746.072 333.398 745.352 332.57 745.262 331.544H743.066C743.066 333.758 744.992 335.126 747.494 335.126C750.284 335.126 751.814 333.326 751.814 331.454ZM758.412 326.648C759.942 326.648 761.148 327.62 761.184 329.15H755.694C755.91 327.584 757.026 326.648 758.412 326.648ZM763.056 332.048H760.842C760.464 332.822 759.762 333.434 758.502 333.434C756.99 333.434 755.82 332.444 755.676 330.806H763.254C763.308 330.464 763.326 330.14 763.326 329.798C763.326 326.882 761.328 324.92 758.502 324.92C755.568 324.92 753.552 326.918 753.552 330.032C753.552 333.146 755.658 335.162 758.502 335.162C760.932 335.162 762.498 333.776 763.056 332.048ZM767.397 329.78C767.397 327.674 768.333 327.044 769.845 327.044H770.367V324.92C768.963 324.92 767.973 325.532 767.397 326.522V325.082H765.345V335H767.397V329.78ZM771.083 325.082L774.845 335H777.293L781.073 325.082H778.895L776.087 333.164L773.279 325.082H771.083ZM782.624 335H784.676V325.082H782.624V335ZM783.668 323.768C784.388 323.768 784.964 323.192 784.964 322.454C784.964 321.716 784.388 321.14 783.668 321.14C782.93 321.14 782.354 321.716 782.354 322.454C782.354 323.192 782.93 323.768 783.668 323.768ZM786.687 330.032C786.687 333.146 788.703 335.162 791.547 335.162C793.977 335.162 795.561 333.812 796.119 331.868H793.905C793.527 332.894 792.771 333.434 791.547 333.434C789.891 333.434 788.793 332.21 788.793 330.032C788.793 327.872 789.891 326.648 791.547 326.648C792.771 326.648 793.563 327.26 793.905 328.214H796.119C795.561 326.126 793.977 324.92 791.547 324.92C788.703 324.92 786.687 326.936 786.687 330.032ZM802.339 326.648C803.869 326.648 805.075 327.62 805.111 329.15H799.621C799.837 327.584 800.953 326.648 802.339 326.648ZM806.983 332.048H804.769C804.391 332.822 803.689 333.434 802.429 333.434C800.917 333.434 799.747 332.444 799.603 330.806H807.181C807.235 330.464 807.253 330.14 807.253 329.798C807.253 326.882 805.255 324.92 802.429 324.92C799.495 324.92 797.479 326.918 797.479 330.032C797.479 333.146 799.585 335.162 802.429 335.162C804.859 335.162 806.425 333.776 806.983 332.048ZM816.671 332.228C816.563 328.646 810.965 329.762 810.965 327.764C810.965 327.098 811.541 326.648 812.639 326.648C813.755 326.648 814.421 327.242 814.493 328.106H816.545C816.437 326.126 814.961 324.92 812.711 324.92C810.371 324.92 808.895 326.198 808.895 327.782C808.895 331.418 814.655 330.302 814.655 332.246C814.655 332.93 814.025 333.434 812.837 333.434C811.703 333.434 810.929 332.768 810.857 331.958H808.733C808.823 333.758 810.497 335.162 812.873 335.162C815.213 335.162 816.671 333.902 816.671 332.228Z" fill="white"/>
<rect x="545" y="6" width="322" height="89" rx="44.5" fill="#8B8B8B"/>
<path d="M596.25 25.164H599.598V36H601.65V25.164H604.98V23.49H596.25V25.164ZM615.5 32.454C615.5 27.882 608.876 29.646 608.876 26.82C608.876 25.614 609.794 25.038 610.982 25.074C612.278 25.11 613.016 25.884 613.088 26.73H615.356C615.176 24.588 613.484 23.328 611.09 23.328C608.534 23.328 606.788 24.696 606.788 26.892C606.788 31.5 613.43 29.538 613.43 32.562C613.43 33.624 612.62 34.398 611.18 34.398C609.758 34.398 609.038 33.57 608.948 32.544H606.752C606.752 34.758 608.678 36.126 611.18 36.126C613.97 36.126 615.5 34.326 615.5 32.454ZM624.833 23.472H617.921V36H624.833V34.326H619.973V30.492H624.293V28.818H619.973V25.146H624.833V23.472ZM640.479 36H642.639L638.157 23.472H635.781L631.299 36H633.441L634.341 33.444H639.579L640.479 36ZM639.003 31.77H634.917L636.969 25.956L639.003 31.77ZM646.639 27.54V26.082H644.587V40.716H646.639V34.56C647.287 35.334 648.457 36.162 650.095 36.162C652.705 36.162 654.757 34.056 654.757 30.996C654.757 27.936 652.705 25.92 650.095 25.92C648.475 25.92 647.269 26.712 646.639 27.54ZM652.669 30.996C652.669 33.138 651.193 34.38 649.645 34.38C648.115 34.38 646.639 33.174 646.639 31.032C646.639 28.908 648.115 27.702 649.645 27.702C651.193 27.702 652.669 28.854 652.669 30.996ZM658.839 27.54V26.082H656.787V40.716H658.839V34.56C659.487 35.334 660.657 36.162 662.295 36.162C664.905 36.162 666.957 34.056 666.957 30.996C666.957 27.936 664.905 25.92 662.295 25.92C660.675 25.92 659.469 26.712 658.839 27.54ZM664.869 30.996C664.869 33.138 663.393 34.38 661.845 34.38C660.315 34.38 658.839 33.174 658.839 31.032C658.839 28.908 660.315 27.702 661.845 27.702C663.393 27.702 664.869 28.854 664.869 30.996ZM671.038 30.78C671.038 28.674 671.974 28.044 673.486 28.044H674.008V25.92C672.604 25.92 671.614 26.532 671.038 27.522V26.082H668.986V36H671.038V30.78ZM685.344 31.032C685.344 27.918 683.112 25.92 680.286 25.92C677.46 25.92 675.228 27.918 675.228 31.032C675.228 34.146 677.37 36.162 680.196 36.162C683.04 36.162 685.344 34.146 685.344 31.032ZM677.316 31.032C677.316 28.782 678.702 27.702 680.25 27.702C681.78 27.702 683.238 28.782 683.238 31.032C683.238 33.282 681.726 34.38 680.196 34.38C678.648 34.38 677.316 33.282 677.316 31.032ZM686.202 26.082L689.964 36H692.412L696.192 26.082H694.014L691.206 34.164L688.398 26.082H686.202ZM701.92 27.648C703.45 27.648 704.656 28.62 704.692 30.15H699.202C699.418 28.584 700.534 27.648 701.92 27.648ZM706.564 33.048H704.35C703.972 33.822 703.27 34.434 702.01 34.434C700.498 34.434 699.328 33.444 699.184 31.806H706.762C706.816 31.464 706.834 31.14 706.834 30.798C706.834 27.882 704.836 25.92 702.01 25.92C699.076 25.92 697.06 27.918 697.06 31.032C697.06 34.146 699.166 36.162 702.01 36.162C704.44 36.162 706.006 34.776 706.564 33.048ZM708.169 30.996C708.169 34.056 710.239 36.162 712.849 36.162C714.469 36.162 715.657 35.406 716.287 34.506V36H718.357V22.68H716.287V27.468C715.531 26.532 714.163 25.92 712.867 25.92C710.239 25.92 708.169 27.936 708.169 30.996ZM716.287 31.032C716.287 33.174 714.829 34.38 713.281 34.38C711.751 34.38 710.275 33.138 710.275 30.996C710.275 28.854 711.751 27.702 713.281 27.702C714.829 27.702 716.287 28.908 716.287 31.032ZM725.296 35.82H734.044V34.11H728.338C730.444 32.184 733.684 29.754 733.684 26.568C733.684 24.21 732.172 22.608 729.508 22.608C727.186 22.608 725.35 23.994 725.278 26.838H727.258C727.312 25.362 728.086 24.354 729.526 24.354C731.056 24.354 731.65 25.29 731.65 26.658C731.65 29.232 728.392 31.608 725.296 34.326V35.82ZM743.155 36H745.189V30.15C745.189 27.378 743.443 25.92 741.121 25.92C739.933 25.92 738.835 26.406 738.169 27.216V26.082H736.117V36H738.169V30.456C738.169 28.638 739.159 27.702 740.671 27.702C742.165 27.702 743.155 28.638 743.155 30.456V36ZM747.122 30.996C747.122 34.056 749.192 36.162 751.802 36.162C753.422 36.162 754.61 35.406 755.24 34.506V36H757.31V22.68H755.24V27.468C754.484 26.532 753.116 25.92 751.82 25.92C749.192 25.92 747.122 27.936 747.122 30.996ZM755.24 31.032C755.24 33.174 753.782 34.38 752.234 34.38C750.704 34.38 749.228 33.138 749.228 30.996C749.228 28.854 750.704 27.702 752.234 27.702C753.782 27.702 755.24 28.908 755.24 31.032ZM762.129 34.812C762.129 34.074 761.553 33.498 760.833 33.498C760.095 33.498 759.519 34.074 759.519 34.812C759.519 35.55 760.095 36.126 760.833 36.126C761.553 36.126 762.129 35.55 762.129 34.812ZM776.961 36H779.013V23.49H776.961V28.854H771.075V23.49H769.023V36H771.075V30.528H776.961V36ZM781.03 30.996C781.03 34.056 783.1 36.162 785.674 36.162C787.33 36.162 788.518 35.37 789.148 34.524V36H791.218V26.082H789.148V27.522C788.536 26.712 787.384 25.92 785.71 25.92C783.1 25.92 781.03 27.936 781.03 30.996ZM789.148 31.032C789.148 33.174 787.69 34.38 786.142 34.38C784.612 34.38 783.136 33.138 783.136 30.996C783.136 28.854 784.612 27.702 786.142 27.702C787.69 27.702 789.148 28.908 789.148 31.032ZM800.951 36H802.985V30.15C802.985 27.378 801.239 25.92 798.917 25.92C797.729 25.92 796.631 26.406 795.965 27.216V26.082H793.913V36H795.965V30.456C795.965 28.638 796.955 27.702 798.467 27.702C799.961 27.702 800.951 28.638 800.951 30.456V36ZM804.919 30.996C804.919 34.056 806.989 36.162 809.599 36.162C811.219 36.162 812.407 35.406 813.037 34.506V36H815.107V22.68H813.037V27.468C812.281 26.532 810.913 25.92 809.617 25.92C806.989 25.92 804.919 27.936 804.919 30.996ZM813.037 31.032C813.037 33.174 811.579 34.38 810.031 34.38C808.501 34.38 807.025 33.138 807.025 30.996C807.025 28.854 808.501 27.702 810.031 27.702C811.579 27.702 813.037 28.908 813.037 31.032ZM623.643 58.894L619.935 48.49H617.739L622.455 61H624.831L629.529 48.49H627.369L623.643 58.894ZM635.422 52.648C636.952 52.648 638.158 53.62 638.194 55.15H632.704C632.92 53.584 634.036 52.648 635.422 52.648ZM640.066 58.048H637.852C637.474 58.822 636.772 59.434 635.512 59.434C634 59.434 632.83 58.444 632.686 56.806H640.264C640.318 56.464 640.336 56.14 640.336 55.798C640.336 52.882 638.338 50.92 635.512 50.92C632.578 50.92 630.562 52.918 630.562 56.032C630.562 59.146 632.668 61.162 635.512 61.162C637.942 61.162 639.508 59.776 640.066 58.048ZM642.355 61H644.407V55.456C644.407 53.638 645.397 52.702 646.909 52.702C648.403 52.702 649.393 53.638 649.393 55.456V61H651.427V55.15C651.427 52.378 649.699 50.92 647.485 50.92C646.207 50.92 645.091 51.406 644.407 52.234V47.68H642.355V61ZM654.044 61H656.096V51.082H654.044V61ZM655.088 49.768C655.808 49.768 656.384 49.192 656.384 48.454C656.384 47.716 655.808 47.14 655.088 47.14C654.35 47.14 653.774 47.716 653.774 48.454C653.774 49.192 654.35 49.768 655.088 49.768ZM658.106 56.032C658.106 59.146 660.122 61.162 662.966 61.162C665.396 61.162 666.98 59.812 667.538 57.868H665.324C664.946 58.894 664.19 59.434 662.966 59.434C661.31 59.434 660.212 58.21 660.212 56.032C660.212 53.872 661.31 52.648 662.966 52.648C664.19 52.648 664.982 53.26 665.324 54.214H667.538C666.98 52.126 665.396 50.92 662.966 50.92C660.122 50.92 658.106 52.936 658.106 56.032ZM669.583 61H671.635V47.68H669.583V61ZM678.505 52.648C680.035 52.648 681.241 53.62 681.277 55.15H675.787C676.003 53.584 677.119 52.648 678.505 52.648ZM683.149 58.048H680.935C680.557 58.822 679.855 59.434 678.595 59.434C677.083 59.434 675.913 58.444 675.769 56.806H683.347C683.401 56.464 683.419 56.14 683.419 55.798C683.419 52.882 681.421 50.92 678.595 50.92C675.661 50.92 673.645 52.918 673.645 56.032C673.645 59.146 675.751 61.162 678.595 61.162C681.025 61.162 682.591 59.776 683.149 58.048ZM690.115 61H692.167V52.432L696.001 61H697.423L701.239 52.432V61H703.291V48.49H701.095L696.721 58.3L692.329 48.49H690.115V61ZM710.164 52.648C711.694 52.648 712.9 53.62 712.936 55.15H707.446C707.662 53.584 708.778 52.648 710.164 52.648ZM714.808 58.048H712.594C712.216 58.822 711.514 59.434 710.254 59.434C708.742 59.434 707.572 58.444 707.428 56.806H715.006C715.06 56.464 715.078 56.14 715.078 55.798C715.078 52.882 713.08 50.92 710.254 50.92C707.32 50.92 705.304 52.918 705.304 56.032C705.304 59.146 707.41 61.162 710.254 61.162C712.684 61.162 714.25 59.776 714.808 58.048ZM716.413 56.032C716.413 59.146 718.429 61.162 721.273 61.162C723.703 61.162 725.287 59.812 725.845 57.868H723.631C723.253 58.894 722.497 59.434 721.273 59.434C719.617 59.434 718.519 58.21 718.519 56.032C718.519 53.872 719.617 52.648 721.273 52.648C722.497 52.648 723.289 53.26 723.631 54.214H725.845C725.287 52.126 723.703 50.92 721.273 50.92C718.429 50.92 716.413 52.936 716.413 56.032ZM727.89 61H729.942V55.456C729.942 53.638 730.932 52.702 732.444 52.702C733.938 52.702 734.928 53.638 734.928 55.456V61H736.962V55.15C736.962 52.378 735.234 50.92 733.02 50.92C731.742 50.92 730.626 51.406 729.942 52.234V47.68H727.89V61ZM738.895 55.996C738.895 59.056 740.965 61.162 743.539 61.162C745.195 61.162 746.383 60.37 747.013 59.524V61H749.083V51.082H747.013V52.522C746.401 51.712 745.249 50.92 743.575 50.92C740.965 50.92 738.895 52.936 738.895 55.996ZM747.013 56.032C747.013 58.174 745.555 59.38 744.007 59.38C742.477 59.38 741.001 58.138 741.001 55.996C741.001 53.854 742.477 52.702 744.007 52.702C745.555 52.702 747.013 53.908 747.013 56.032ZM758.817 61H760.851V55.15C760.851 52.378 759.105 50.92 756.783 50.92C755.595 50.92 754.497 51.406 753.831 52.216V51.082H751.779V61H753.831V55.456C753.831 53.638 754.821 52.702 756.333 52.702C757.827 52.702 758.817 53.638 758.817 55.456V61ZM763.468 61H765.52V51.082H763.468V61ZM764.512 49.768C765.232 49.768 765.808 49.192 765.808 48.454C765.808 47.716 765.232 47.14 764.512 47.14C763.774 47.14 763.198 47.716 763.198 48.454C763.198 49.192 763.774 49.768 764.512 49.768ZM767.53 56.032C767.53 59.146 769.546 61.162 772.39 61.162C774.82 61.162 776.404 59.812 776.962 57.868H774.748C774.37 58.894 773.614 59.434 772.39 59.434C770.734 59.434 769.636 58.21 769.636 56.032C769.636 53.872 770.734 52.648 772.39 52.648C773.614 52.648 774.406 53.26 774.748 54.214H776.962C776.404 52.126 774.82 50.92 772.39 50.92C769.546 50.92 767.53 52.936 767.53 56.032ZM778.323 55.996C778.323 59.056 780.393 61.162 782.967 61.162C784.623 61.162 785.811 60.37 786.441 59.524V61H788.511V51.082H786.441V52.522C785.829 51.712 784.677 50.92 783.003 50.92C780.393 50.92 778.323 52.936 778.323 55.996ZM786.441 56.032C786.441 58.174 784.983 59.38 783.435 59.38C781.905 59.38 780.429 58.138 780.429 55.996C780.429 53.854 781.905 52.702 783.435 52.702C784.983 52.702 786.441 53.908 786.441 56.032ZM791.206 61H793.258V47.68H791.206V61ZM633.763 73.472H626.851V86H633.763V84.326H628.903V80.492H633.223V78.818H628.903V75.146H633.763V73.472ZM641.42 86H643.742L640.538 80.978L643.742 76.082H641.6L639.584 79.448L637.442 76.082H635.12L638.324 81.122L635.12 86H637.262L639.278 82.634L641.42 86ZM647.325 77.54V76.082H645.273V90.716H647.325V84.56C647.973 85.334 649.143 86.162 650.781 86.162C653.391 86.162 655.443 84.056 655.443 80.996C655.443 77.936 653.391 75.92 650.781 75.92C649.161 75.92 647.955 76.712 647.325 77.54ZM653.355 80.996C653.355 83.138 651.879 84.38 650.331 84.38C648.801 84.38 647.325 83.174 647.325 81.032C647.325 78.908 648.801 77.702 650.331 77.702C651.879 77.702 653.355 78.854 653.355 80.996ZM661.648 77.648C663.178 77.648 664.384 78.62 664.42 80.15H658.93C659.146 78.584 660.262 77.648 661.648 77.648ZM666.292 83.048H664.078C663.7 83.822 662.998 84.434 661.738 84.434C660.226 84.434 659.056 83.444 658.912 81.806H666.49C666.544 81.464 666.562 81.14 666.562 80.798C666.562 77.882 664.564 75.92 661.738 75.92C658.804 75.92 656.788 77.918 656.788 81.032C656.788 84.146 658.894 86.162 661.738 86.162C664.168 86.162 665.734 84.776 666.292 83.048ZM670.633 80.78C670.633 78.674 671.569 78.044 673.081 78.044H673.603V75.92C672.199 75.92 671.209 76.532 670.633 77.522V76.082H668.581V86H670.633V80.78ZM675.814 83.246C675.814 85.262 676.912 86 678.676 86H680.296V84.29H679.036C678.172 84.29 677.884 83.984 677.884 83.246V77.756H680.296V76.082H677.884V73.616H675.814V76.082H674.644V77.756H675.814V83.246ZM682.187 86H684.239V76.082H682.187V86ZM683.231 74.768C683.951 74.768 684.527 74.192 684.527 73.454C684.527 72.716 683.951 72.14 683.231 72.14C682.493 72.14 681.917 72.716 681.917 73.454C681.917 74.192 682.493 74.768 683.231 74.768ZM694.331 83.228C694.223 79.646 688.625 80.762 688.625 78.764C688.625 78.098 689.201 77.648 690.299 77.648C691.415 77.648 692.081 78.242 692.153 79.106H694.205C694.097 77.126 692.621 75.92 690.371 75.92C688.031 75.92 686.555 77.198 686.555 78.782C686.555 82.418 692.315 81.302 692.315 83.246C692.315 83.93 691.685 84.434 690.497 84.434C689.363 84.434 688.589 83.768 688.517 82.958H686.393C686.483 84.758 688.157 86.162 690.533 86.162C692.873 86.162 694.331 84.902 694.331 83.228ZM700.724 77.648C702.254 77.648 703.46 78.62 703.496 80.15H698.006C698.222 78.584 699.338 77.648 700.724 77.648ZM705.368 83.048H703.154C702.776 83.822 702.074 84.434 700.814 84.434C699.302 84.434 698.132 83.444 697.988 81.806H705.566C705.62 81.464 705.638 81.14 705.638 80.798C705.638 77.882 703.64 75.92 700.814 75.92C697.88 75.92 695.864 77.918 695.864 81.032C695.864 84.146 697.97 86.162 700.814 86.162C703.244 86.162 704.81 84.776 705.368 83.048ZM720.775 82.454C720.775 77.882 714.151 79.646 714.151 76.82C714.151 75.614 715.069 75.038 716.257 75.074C717.553 75.11 718.291 75.884 718.363 76.73H720.631C720.451 74.588 718.759 73.328 716.365 73.328C713.809 73.328 712.063 74.696 712.063 76.892C712.063 81.5 718.705 79.538 718.705 82.562C718.705 83.624 717.895 84.398 716.455 84.398C715.033 84.398 714.313 83.57 714.223 82.544H712.027C712.027 84.758 713.953 86.126 716.455 86.126C719.245 86.126 720.775 84.326 720.775 82.454ZM727.373 77.648C728.903 77.648 730.109 78.62 730.145 80.15H724.655C724.871 78.584 725.987 77.648 727.373 77.648ZM732.017 83.048H729.803C729.425 83.822 728.723 84.434 727.463 84.434C725.951 84.434 724.781 83.444 724.637 81.806H732.215C732.269 81.464 732.287 81.14 732.287 80.798C732.287 77.882 730.289 75.92 727.463 75.92C724.529 75.92 722.513 77.918 722.513 81.032C722.513 84.146 724.619 86.162 727.463 86.162C729.893 86.162 731.459 84.776 732.017 83.048ZM736.358 80.78C736.358 78.674 737.294 78.044 738.806 78.044H739.328V75.92C737.924 75.92 736.934 76.532 736.358 77.522V76.082H734.306V86H736.358V80.78ZM740.044 76.082L743.806 86H746.254L750.034 76.082H747.856L745.048 84.164L742.24 76.082H740.044ZM751.585 86H753.637V76.082H751.585V86ZM752.629 74.768C753.349 74.768 753.925 74.192 753.925 73.454C753.925 72.716 753.349 72.14 752.629 72.14C751.891 72.14 751.315 72.716 751.315 73.454C751.315 74.192 751.891 74.768 752.629 74.768ZM755.647 81.032C755.647 84.146 757.663 86.162 760.507 86.162C762.937 86.162 764.521 84.812 765.079 82.868H762.865C762.487 83.894 761.731 84.434 760.507 84.434C758.851 84.434 757.753 83.21 757.753 81.032C757.753 78.872 758.851 77.648 760.507 77.648C761.731 77.648 762.523 78.26 762.865 79.214H765.079C764.521 77.126 762.937 75.92 760.507 75.92C757.663 75.92 755.647 77.936 755.647 81.032ZM771.3 77.648C772.83 77.648 774.036 78.62 774.072 80.15H768.582C768.798 78.584 769.914 77.648 771.3 77.648ZM775.944 83.048H773.73C773.352 83.822 772.65 84.434 771.39 84.434C769.878 84.434 768.708 83.444 768.564 81.806H776.142C776.196 81.464 776.214 81.14 776.214 80.798C776.214 77.882 774.216 75.92 771.39 75.92C768.456 75.92 766.44 77.918 766.44 81.032C766.44 84.146 768.546 86.162 771.39 86.162C773.82 86.162 775.386 84.776 775.944 83.048ZM785.632 83.228C785.524 79.646 779.926 80.762 779.926 78.764C779.926 78.098 780.502 77.648 781.6 77.648C782.716 77.648 783.382 78.242 783.454 79.106H785.506C785.398 77.126 783.922 75.92 781.672 75.92C779.332 75.92 777.856 77.198 777.856 78.782C777.856 82.418 783.616 81.302 783.616 83.246C783.616 83.93 782.986 84.434 781.798 84.434C780.664 84.434 779.89 83.768 779.818 82.958H777.694C777.784 84.758 779.458 86.162 781.834 86.162C784.174 86.162 785.632 84.902 785.632 83.228Z" fill="white"/>
<rect x="745" y="136" width="322" height="89" rx="44.5" fill="#9F9F9F"/>
<path d="M785.857 166.418C785.857 167.624 785.011 168.326 783.625 168.326H780.853V164.42H783.553C784.921 164.42 785.857 165.176 785.857 166.418ZM785.533 160.964C785.533 162.116 784.723 162.746 783.391 162.746H780.853V159.164H783.391C784.723 159.164 785.533 159.83 785.533 160.964ZM787.909 166.634C787.909 165.14 786.829 163.808 785.497 163.574C786.703 163.142 787.621 162.224 787.621 160.712C787.621 158.948 786.217 157.49 783.571 157.49H778.801V170H783.805C786.361 170 787.909 168.542 787.909 166.634ZM792.191 164.78C792.191 162.674 793.127 162.044 794.639 162.044H795.161V159.92C793.757 159.92 792.767 160.532 792.191 161.522V160.082H790.139V170H792.191V164.78ZM796.363 164.996C796.363 168.056 798.433 170.162 801.007 170.162C802.663 170.162 803.851 169.37 804.481 168.524V170H806.551V160.082H804.481V161.522C803.869 160.712 802.717 159.92 801.043 159.92C798.433 159.92 796.363 161.936 796.363 164.996ZM804.481 165.032C804.481 167.174 803.023 168.38 801.475 168.38C799.945 168.38 798.469 167.138 798.469 164.996C798.469 162.854 799.945 161.702 801.475 161.702C803.023 161.702 804.481 162.908 804.481 165.032ZM816.284 170H818.318V164.15C818.318 161.378 816.572 159.92 814.25 159.92C813.062 159.92 811.964 160.406 811.298 161.216V160.082H809.246V170H811.298V164.456C811.298 162.638 812.288 161.702 813.8 161.702C815.294 161.702 816.284 162.638 816.284 164.456V170ZM820.252 164.996C820.252 168.056 822.322 170.162 824.932 170.162C826.552 170.162 827.74 169.406 828.37 168.506V170H830.44V156.68H828.37V161.468C827.614 160.532 826.246 159.92 824.95 159.92C822.322 159.92 820.252 161.936 820.252 164.996ZM828.37 165.032C828.37 167.174 826.912 168.38 825.364 168.38C823.834 168.38 822.358 167.138 822.358 164.996C822.358 162.854 823.834 161.702 825.364 161.702C826.912 161.702 828.37 162.908 828.37 165.032ZM846.037 157.472V166.796L839.863 157.472H837.811V170H839.863V160.658L846.037 170H848.089V157.472H846.037ZM854.96 161.648C856.49 161.648 857.696 162.62 857.732 164.15H852.242C852.458 162.584 853.574 161.648 854.96 161.648ZM859.604 167.048H857.39C857.012 167.822 856.31 168.434 855.05 168.434C853.538 168.434 852.368 167.444 852.224 165.806H859.802C859.856 165.464 859.874 165.14 859.874 164.798C859.874 161.882 857.876 159.92 855.05 159.92C852.116 159.92 850.1 161.918 850.1 165.032C850.1 168.146 852.206 170.162 855.05 170.162C857.48 170.162 859.046 168.776 859.604 167.048ZM863.819 170H865.979L867.977 162.674L869.975 170H872.135L875.213 160.082H873.197L871.145 168.02L869.129 160.082H866.987L864.881 168.056L862.811 160.082H860.723L863.819 170ZM886.318 167.894L882.61 157.49H880.414L885.13 170H887.506L892.204 157.49H890.044L886.318 167.894ZM898.096 161.648C899.626 161.648 900.832 162.62 900.868 164.15H895.378C895.594 162.584 896.71 161.648 898.096 161.648ZM902.74 167.048H900.526C900.148 167.822 899.446 168.434 898.186 168.434C896.674 168.434 895.504 167.444 895.36 165.806H902.938C902.992 165.464 903.01 165.14 903.01 164.798C903.01 161.882 901.012 159.92 898.186 159.92C895.252 159.92 893.236 161.918 893.236 165.032C893.236 168.146 895.342 170.162 898.186 170.162C900.616 170.162 902.182 168.776 902.74 167.048ZM905.03 170H907.082V164.456C907.082 162.638 908.072 161.702 909.584 161.702C911.078 161.702 912.068 162.638 912.068 164.456V170H914.102V164.15C914.102 161.378 912.374 159.92 910.16 159.92C908.882 159.92 907.766 160.406 907.082 161.234V156.68H905.03V170ZM916.719 170H918.771V160.082H916.719V170ZM917.763 158.768C918.483 158.768 919.059 158.192 919.059 157.454C919.059 156.716 918.483 156.14 917.763 156.14C917.025 156.14 916.449 156.716 916.449 157.454C916.449 158.192 917.025 158.768 917.763 158.768ZM920.781 165.032C920.781 168.146 922.797 170.162 925.641 170.162C928.071 170.162 929.655 168.812 930.213 166.868H927.999C927.621 167.894 926.865 168.434 925.641 168.434C923.985 168.434 922.887 167.21 922.887 165.032C922.887 162.872 923.985 161.648 925.641 161.648C926.865 161.648 927.657 162.26 927.999 163.214H930.213C929.655 161.126 928.071 159.92 925.641 159.92C922.797 159.92 920.781 161.936 920.781 165.032ZM932.258 170H934.31V156.68H932.258V170ZM941.18 161.648C942.71 161.648 943.916 162.62 943.952 164.15H938.462C938.678 162.584 939.794 161.648 941.18 161.648ZM945.824 167.048H943.61C943.232 167.822 942.53 168.434 941.27 168.434C939.758 168.434 938.588 167.444 938.444 165.806H946.022C946.076 165.464 946.094 165.14 946.094 164.798C946.094 161.882 944.096 159.92 941.27 159.92C938.336 159.92 936.32 161.918 936.32 165.032C936.32 168.146 938.426 170.162 941.27 170.162C943.7 170.162 945.266 168.776 945.824 167.048ZM961.231 166.454C961.231 161.882 954.607 163.646 954.607 160.82C954.607 159.614 955.525 159.038 956.713 159.074C958.009 159.11 958.747 159.884 958.819 160.73H961.087C960.907 158.588 959.215 157.328 956.821 157.328C954.265 157.328 952.519 158.696 952.519 160.892C952.519 165.5 959.161 163.538 959.161 166.562C959.161 167.624 958.351 168.398 956.911 168.398C955.489 168.398 954.769 167.57 954.679 166.544H952.483C952.483 168.758 954.409 170.126 956.911 170.126C959.701 170.126 961.231 168.326 961.231 166.454ZM963.977 167.246C963.977 169.262 965.075 170 966.839 170H968.459V168.29H967.199C966.335 168.29 966.047 167.984 966.047 167.246V161.756H968.459V160.082H966.047V157.616H963.977V160.082H962.807V161.756H963.977V167.246ZM979.8 165.032C979.8 161.918 977.568 159.92 974.742 159.92C971.916 159.92 969.684 161.918 969.684 165.032C969.684 168.146 971.826 170.162 974.652 170.162C977.496 170.162 979.8 168.146 979.8 165.032ZM971.772 165.032C971.772 162.782 973.158 161.702 974.706 161.702C976.236 161.702 977.694 162.782 977.694 165.032C977.694 167.282 976.182 168.38 974.652 168.38C973.104 168.38 971.772 167.282 971.772 165.032ZM981.145 165.032C981.145 168.146 983.161 170.162 986.005 170.162C988.435 170.162 990.019 168.812 990.577 166.868H988.363C987.985 167.894 987.229 168.434 986.005 168.434C984.349 168.434 983.251 167.21 983.251 165.032C983.251 162.872 984.349 161.648 986.005 161.648C987.229 161.648 988.021 162.26 988.363 163.214H990.577C990.019 161.126 988.435 159.92 986.005 159.92C983.161 159.92 981.145 161.936 981.145 165.032ZM992.621 170H994.673V165.734L998.345 170H1001.12L996.545 165.05L1001.12 160.082H998.273L994.673 164.42V156.68H992.621V170ZM1002.59 170H1004.64V160.082H1002.59V170ZM1003.63 158.768C1004.35 158.768 1004.93 158.192 1004.93 157.454C1004.93 156.716 1004.35 156.14 1003.63 156.14C1002.89 156.14 1002.32 156.716 1002.32 157.454C1002.32 158.192 1002.89 158.768 1003.63 158.768ZM1014.37 170H1016.41V164.15C1016.41 161.378 1014.66 159.92 1012.34 159.92C1011.15 159.92 1010.05 160.406 1009.39 161.216V160.082H1007.33V170H1009.39V164.456C1009.39 162.638 1010.38 161.702 1011.89 161.702C1013.38 161.702 1014.37 162.638 1014.37 164.456V170ZM1018.34 164.996C1018.34 168.056 1020.41 170.162 1023.02 170.162C1024.64 170.162 1025.83 169.352 1026.46 168.506V170.162C1026.46 172.142 1025.27 173.114 1023.69 173.114C1022.26 173.114 1021.17 172.412 1020.86 171.386H1018.83C1019.08 173.582 1021.04 174.896 1023.69 174.896C1026.78 174.896 1028.53 172.862 1028.53 170.162V160.082H1026.46V161.522C1025.85 160.676 1024.64 159.92 1023.02 159.92C1020.41 159.92 1018.34 161.936 1018.34 164.996ZM1026.46 165.032C1026.46 167.174 1025 168.38 1023.45 168.38C1021.92 168.38 1020.45 167.138 1020.45 164.996C1020.45 162.854 1021.92 161.702 1023.45 161.702C1025 161.702 1026.46 162.908 1026.46 165.032ZM789.81 200.454C789.81 195.882 783.186 197.646 783.186 194.82C783.186 193.614 784.104 193.038 785.292 193.074C786.588 193.11 787.326 193.884 787.398 194.73H789.666C789.486 192.588 787.794 191.328 785.4 191.328C782.844 191.328 781.098 192.696 781.098 194.892C781.098 199.5 787.74 197.538 787.74 200.562C787.74 201.624 786.93 202.398 785.49 202.398C784.068 202.398 783.348 201.57 783.258 200.544H781.062C781.062 202.758 782.988 204.126 785.49 204.126C788.28 204.126 789.81 202.326 789.81 200.454ZM796.407 195.648C797.937 195.648 799.143 196.62 799.179 198.15H793.689C793.905 196.584 795.021 195.648 796.407 195.648ZM801.051 201.048H798.837C798.459 201.822 797.757 202.434 796.497 202.434C794.985 202.434 793.815 201.444 793.671 199.806H801.249C801.303 199.464 801.321 199.14 801.321 198.798C801.321 195.882 799.323 193.92 796.497 193.92C793.563 193.92 791.547 195.918 791.547 199.032C791.547 202.146 793.653 204.162 796.497 204.162C798.927 204.162 800.493 202.776 801.051 201.048ZM805.392 198.78C805.392 196.674 806.328 196.044 807.84 196.044H808.362V193.92C806.958 193.92 805.968 194.532 805.392 195.522V194.082H803.34V204H805.392V198.78ZM809.078 194.082L812.84 204H815.288L819.068 194.082H816.89L814.082 202.164L811.274 194.082H809.078ZM820.62 204H822.672V194.082H820.62V204ZM821.664 192.768C822.384 192.768 822.96 192.192 822.96 191.454C822.96 190.716 822.384 190.14 821.664 190.14C820.926 190.14 820.35 190.716 820.35 191.454C820.35 192.192 820.926 192.768 821.664 192.768ZM824.682 199.032C824.682 202.146 826.698 204.162 829.542 204.162C831.972 204.162 833.556 202.812 834.114 200.868H831.9C831.522 201.894 830.766 202.434 829.542 202.434C827.886 202.434 826.788 201.21 826.788 199.032C826.788 196.872 827.886 195.648 829.542 195.648C830.766 195.648 831.558 196.26 831.9 197.214H834.114C833.556 195.126 831.972 193.92 829.542 193.92C826.698 193.92 824.682 195.936 824.682 199.032ZM840.335 195.648C841.865 195.648 843.071 196.62 843.107 198.15H837.617C837.833 196.584 838.949 195.648 840.335 195.648ZM844.979 201.048H842.765C842.387 201.822 841.685 202.434 840.425 202.434C838.913 202.434 837.743 201.444 837.599 199.806H845.177C845.231 199.464 845.249 199.14 845.249 198.798C845.249 195.882 843.251 193.92 840.425 193.92C837.491 193.92 835.475 195.918 835.475 199.032C835.475 202.146 837.581 204.162 840.425 204.162C842.855 204.162 844.421 202.776 844.979 201.048ZM854.666 201.228C854.558 197.646 848.96 198.762 848.96 196.764C848.96 196.098 849.536 195.648 850.634 195.648C851.75 195.648 852.416 196.242 852.488 197.106H854.54C854.432 195.126 852.956 193.92 850.706 193.92C848.366 193.92 846.89 195.198 846.89 196.782C846.89 200.418 852.65 199.302 852.65 201.246C852.65 201.93 852.02 202.434 850.832 202.434C849.698 202.434 848.924 201.768 848.852 200.958H846.728C846.818 202.758 848.492 204.162 850.868 204.162C853.208 204.162 854.666 202.902 854.666 201.228ZM860.875 198.996C860.875 202.056 862.945 204.162 865.519 204.162C867.175 204.162 868.363 203.37 868.993 202.524V204H871.063V194.082H868.993V195.522C868.381 194.712 867.229 193.92 865.555 193.92C862.945 193.92 860.875 195.936 860.875 198.996ZM868.993 199.032C868.993 201.174 867.535 202.38 865.987 202.38C864.457 202.38 862.981 201.138 862.981 198.996C862.981 196.854 864.457 195.702 865.987 195.702C867.535 195.702 868.993 196.908 868.993 199.032ZM880.796 204H882.83V198.15C882.83 195.378 881.084 193.92 878.762 193.92C877.574 193.92 876.476 194.406 875.81 195.216V194.082H873.758V204H875.81V198.456C875.81 196.638 876.8 195.702 878.312 195.702C879.806 195.702 880.796 196.638 880.796 198.456V204ZM884.764 198.996C884.764 202.056 886.834 204.162 889.444 204.162C891.064 204.162 892.252 203.406 892.882 202.506V204H894.952V190.68H892.882V195.468C892.126 194.532 890.758 193.92 889.462 193.92C886.834 193.92 884.764 195.936 884.764 198.996ZM892.882 199.032C892.882 201.174 891.424 202.38 889.876 202.38C888.346 202.38 886.87 201.138 886.87 198.996C886.87 196.854 888.346 195.702 889.876 195.702C891.424 195.702 892.882 196.908 892.882 199.032ZM904.375 197.25V193.164H906.643C908.245 193.164 908.965 193.92 908.965 195.216C908.965 196.476 908.245 197.25 906.643 197.25H904.375ZM911.071 195.216C911.071 193.182 909.613 191.49 906.643 191.49H902.323V204H904.375V198.924H906.643C909.901 198.924 911.071 196.998 911.071 195.216ZM917.114 191.49H913.028V204H917.114C921.128 204 923.756 201.642 923.756 197.79C923.756 193.92 921.128 191.49 917.114 191.49ZM915.08 202.326V193.164H917.114C920.066 193.164 921.65 194.928 921.65 197.79C921.65 200.634 920.066 202.326 917.114 202.326H915.08ZM925.789 204H927.841V191.49H925.789V204ZM944.661 199.032C944.661 195.918 942.429 193.92 939.603 193.92C936.777 193.92 934.545 195.918 934.545 199.032C934.545 202.146 936.687 204.162 939.513 204.162C942.357 204.162 944.661 202.146 944.661 199.032ZM936.633 199.032C936.633 196.782 938.019 195.702 939.567 195.702C941.097 195.702 942.555 196.782 942.555 199.032C942.555 201.282 941.043 202.38 939.513 202.38C937.965 202.38 936.633 201.282 936.633 199.032ZM948.742 195.54V194.082H946.69V208.716H948.742V202.56C949.39 203.334 950.56 204.162 952.198 204.162C954.808 204.162 956.86 202.056 956.86 198.996C956.86 195.936 954.808 193.92 952.198 193.92C950.578 193.92 949.372 194.712 948.742 195.54ZM954.772 198.996C954.772 201.138 953.296 202.38 951.748 202.38C950.218 202.38 948.742 201.174 948.742 199.032C948.742 196.908 950.218 195.702 951.748 195.702C953.296 195.702 954.772 196.854 954.772 198.996ZM963.065 195.648C964.595 195.648 965.801 196.62 965.837 198.15H960.347C960.563 196.584 961.679 195.648 963.065 195.648ZM967.709 201.048H965.495C965.117 201.822 964.415 202.434 963.155 202.434C961.643 202.434 960.473 201.444 960.329 199.806H967.907C967.961 199.464 967.979 199.14 967.979 198.798C967.979 195.882 965.981 193.92 963.155 193.92C960.221 193.92 958.205 195.918 958.205 199.032C958.205 202.146 960.311 204.162 963.155 204.162C965.585 204.162 967.151 202.776 967.709 201.048ZM972.05 198.78C972.05 196.674 972.986 196.044 974.498 196.044H975.02V193.92C973.616 193.92 972.626 194.532 972.05 195.522V194.082H969.998V204H972.05V198.78ZM976.223 198.996C976.223 202.056 978.293 204.162 980.867 204.162C982.523 204.162 983.711 203.37 984.341 202.524V204H986.411V194.082H984.341V195.522C983.729 194.712 982.577 193.92 980.903 193.92C978.293 193.92 976.223 195.936 976.223 198.996ZM984.341 199.032C984.341 201.174 982.883 202.38 981.335 202.38C979.805 202.38 978.329 201.138 978.329 198.996C978.329 196.854 979.805 195.702 981.335 195.702C982.883 195.702 984.341 196.908 984.341 199.032ZM989.43 201.246C989.43 203.262 990.528 204 992.292 204H993.912V202.29H992.652C991.788 202.29 991.5 201.984 991.5 201.246V195.756H993.912V194.082H991.5V191.616H989.43V194.082H988.26V195.756H989.43V201.246ZM995.803 204H997.855V194.082H995.803V204ZM996.847 192.768C997.567 192.768 998.143 192.192 998.143 191.454C998.143 190.716 997.567 190.14 996.847 190.14C996.109 190.14 995.533 190.716 995.533 191.454C995.533 192.192 996.109 192.768 996.847 192.768ZM1010 199.032C1010 195.918 1007.77 193.92 1004.94 193.92C1002.12 193.92 999.883 195.918 999.883 199.032C999.883 202.146 1002.03 204.162 1004.85 204.162C1007.7 204.162 1010 202.146 1010 199.032ZM1001.97 199.032C1001.97 196.782 1003.36 195.702 1004.91 195.702C1006.44 195.702 1007.89 196.782 1007.89 199.032C1007.89 201.282 1006.38 202.38 1004.85 202.38C1003.3 202.38 1001.97 201.282 1001.97 199.032ZM1019.07 204H1021.1V198.15C1021.1 195.378 1019.35 193.92 1017.03 193.92C1015.84 193.92 1014.75 194.406 1014.08 195.216V194.082H1012.03V204H1014.08V198.456C1014.08 196.638 1015.07 195.702 1016.58 195.702C1018.08 195.702 1019.07 196.638 1019.07 198.456V204ZM1031.12 201.228C1031.01 197.646 1025.41 198.762 1025.41 196.764C1025.41 196.098 1025.99 195.648 1027.08 195.648C1028.2 195.648 1028.87 196.242 1028.94 197.106H1030.99C1030.88 195.126 1029.41 193.92 1027.16 193.92C1024.82 193.92 1023.34 195.198 1023.34 196.782C1023.34 200.418 1029.1 199.302 1029.1 201.246C1029.1 201.93 1028.47 202.434 1027.28 202.434C1026.15 202.434 1025.37 201.768 1025.3 200.958H1023.18C1023.27 202.758 1024.94 204.162 1027.32 204.162C1029.66 204.162 1031.12 202.902 1031.12 201.228Z" fill="white"/>
<rect x="373" y="395" width="322" height="89" rx="44.5" fill="#C8C8C8"/>
<path d="M412.743 429H414.795V423.528H418.935V421.854H414.795V418.164H420.105V416.49H412.743V429ZM422.006 429H424.058V415.68H422.006V429ZM430.928 420.648C432.458 420.648 433.664 421.62 433.7 423.15H428.21C428.426 421.584 429.542 420.648 430.928 420.648ZM435.572 426.048H433.358C432.98 426.822 432.278 427.434 431.018 427.434C429.506 427.434 428.336 426.444 428.192 424.806H435.77C435.824 424.464 435.842 424.14 435.842 423.798C435.842 420.882 433.844 418.92 431.018 418.92C428.084 418.92 426.068 420.918 426.068 424.032C426.068 427.146 428.174 429.162 431.018 429.162C433.448 429.162 435.014 427.776 435.572 426.048ZM442.038 420.648C443.568 420.648 444.774 421.62 444.81 423.15H439.32C439.536 421.584 440.652 420.648 442.038 420.648ZM446.682 426.048H444.468C444.09 426.822 443.388 427.434 442.128 427.434C440.616 427.434 439.446 426.444 439.302 424.806H446.88C446.934 424.464 446.952 424.14 446.952 423.798C446.952 420.882 444.954 418.92 442.128 418.92C439.194 418.92 437.178 420.918 437.178 424.032C437.178 427.146 439.284 429.162 442.128 429.162C444.558 429.162 446.124 427.776 446.682 426.048ZM449.295 426.246C449.295 428.262 450.393 429 452.157 429H453.777V427.29H452.517C451.653 427.29 451.365 426.984 451.365 426.246V420.756H453.777V419.082H451.365V416.616H449.295V419.082H448.125V420.756H449.295V426.246ZM465.24 426.894L461.532 416.49H459.336L464.052 429H466.428L471.126 416.49H468.966L465.24 426.894ZM477.018 420.648C478.548 420.648 479.754 421.62 479.79 423.15H474.3C474.516 421.584 475.632 420.648 477.018 420.648ZM481.662 426.048H479.448C479.07 426.822 478.368 427.434 477.108 427.434C475.596 427.434 474.426 426.444 474.282 424.806H481.86C481.914 424.464 481.932 424.14 481.932 423.798C481.932 420.882 479.934 418.92 477.108 418.92C474.174 418.92 472.158 420.918 472.158 424.032C472.158 427.146 474.264 429.162 477.108 429.162C479.538 429.162 481.104 427.776 481.662 426.048ZM483.952 429H486.004V423.456C486.004 421.638 486.994 420.702 488.506 420.702C490 420.702 490.99 421.638 490.99 423.456V429H493.024V423.15C493.024 420.378 491.296 418.92 489.082 418.92C487.804 418.92 486.688 419.406 486.004 420.234V415.68H483.952V429ZM495.641 429H497.693V419.082H495.641V429ZM496.685 417.768C497.405 417.768 497.981 417.192 497.981 416.454C497.981 415.716 497.405 415.14 496.685 415.14C495.947 415.14 495.371 415.716 495.371 416.454C495.371 417.192 495.947 417.768 496.685 417.768ZM499.703 424.032C499.703 427.146 501.719 429.162 504.563 429.162C506.993 429.162 508.577 427.812 509.135 425.868H506.921C506.543 426.894 505.787 427.434 504.563 427.434C502.907 427.434 501.809 426.21 501.809 424.032C501.809 421.872 502.907 420.648 504.563 420.648C505.787 420.648 506.579 421.26 506.921 422.214H509.135C508.577 420.126 506.993 418.92 504.563 418.92C501.719 418.92 499.703 420.936 499.703 424.032ZM511.18 429H513.232V415.68H511.18V429ZM520.102 420.648C521.632 420.648 522.838 421.62 522.874 423.15H517.384C517.6 421.584 518.716 420.648 520.102 420.648ZM524.746 426.048H522.532C522.154 426.822 521.452 427.434 520.192 427.434C518.68 427.434 517.51 426.444 517.366 424.806H524.944C524.998 424.464 525.016 424.14 525.016 423.798C525.016 420.882 523.018 418.92 520.192 418.92C517.258 418.92 515.242 420.918 515.242 424.032C515.242 427.146 517.348 429.162 520.192 429.162C522.622 429.162 524.188 427.776 524.746 426.048ZM538.623 416.472H531.711V429H538.623V427.326H533.763V423.492H538.083V421.818H533.763V418.146H538.623V416.472ZM546.281 429H548.603L545.399 423.978L548.603 419.082H546.461L544.445 422.448L542.303 419.082H539.981L543.185 424.122L539.981 429H542.123L544.139 425.634L546.281 429ZM552.185 420.54V419.082H550.133V433.716H552.185V427.56C552.833 428.334 554.003 429.162 555.641 429.162C558.251 429.162 560.303 427.056 560.303 423.996C560.303 420.936 558.251 418.92 555.641 418.92C554.021 418.92 552.815 419.712 552.185 420.54ZM558.215 423.996C558.215 426.138 556.739 427.38 555.191 427.38C553.661 427.38 552.185 426.174 552.185 424.032C552.185 421.908 553.661 420.702 555.191 420.702C556.739 420.702 558.215 421.854 558.215 423.996ZM566.508 420.648C568.038 420.648 569.244 421.62 569.28 423.15H563.79C564.006 421.584 565.122 420.648 566.508 420.648ZM571.152 426.048H568.938C568.56 426.822 567.858 427.434 566.598 427.434C565.086 427.434 563.916 426.444 563.772 424.806H571.35C571.404 424.464 571.422 424.14 571.422 423.798C571.422 420.882 569.424 418.92 566.598 418.92C563.664 418.92 561.648 420.918 561.648 424.032C561.648 427.146 563.754 429.162 566.598 429.162C569.028 429.162 570.594 427.776 571.152 426.048ZM575.494 423.78C575.494 421.674 576.43 421.044 577.942 421.044H578.464V418.92C577.06 418.92 576.07 419.532 575.494 420.522V419.082H573.442V429H575.494V423.78ZM580.674 426.246C580.674 428.262 581.772 429 583.536 429H585.156V427.29H583.896C583.032 427.29 582.744 426.984 582.744 426.246V420.756H585.156V419.082H582.744V416.616H580.674V419.082H579.504V420.756H580.674V426.246ZM587.047 429H589.099V419.082H587.047V429ZM588.091 417.768C588.811 417.768 589.387 417.192 589.387 416.454C589.387 415.716 588.811 415.14 588.091 415.14C587.353 415.14 586.777 415.716 586.777 416.454C586.777 417.192 587.353 417.768 588.091 417.768ZM599.191 426.228C599.083 422.646 593.485 423.762 593.485 421.764C593.485 421.098 594.061 420.648 595.159 420.648C596.275 420.648 596.941 421.242 597.013 422.106H599.065C598.957 420.126 597.481 418.92 595.231 418.92C592.891 418.92 591.415 420.198 591.415 421.782C591.415 425.418 597.175 424.302 597.175 426.246C597.175 426.93 596.545 427.434 595.357 427.434C594.223 427.434 593.449 426.768 593.377 425.958H591.253C591.343 427.758 593.017 429.162 595.393 429.162C597.733 429.162 599.191 427.902 599.191 426.228ZM605.585 420.648C607.115 420.648 608.321 421.62 608.357 423.15H602.867C603.083 421.584 604.199 420.648 605.585 420.648ZM610.229 426.048H608.015C607.637 426.822 606.935 427.434 605.675 427.434C604.163 427.434 602.993 426.444 602.849 424.806H610.427C610.481 424.464 610.499 424.14 610.499 423.798C610.499 420.882 608.501 418.92 605.675 418.92C602.741 418.92 600.725 420.918 600.725 424.032C600.725 427.146 602.831 429.162 605.675 429.162C608.105 429.162 609.671 427.776 610.229 426.048ZM616.51 423.996C616.51 427.056 618.58 429.162 621.154 429.162C622.81 429.162 623.998 428.37 624.628 427.524V429H626.698V419.082H624.628V420.522C624.016 419.712 622.864 418.92 621.19 418.92C618.58 418.92 616.51 420.936 616.51 423.996ZM624.628 424.032C624.628 426.174 623.17 427.38 621.622 427.38C620.092 427.38 618.616 426.138 618.616 423.996C618.616 421.854 620.092 420.702 621.622 420.702C623.17 420.702 624.628 421.908 624.628 424.032ZM636.431 429H638.465V423.15C638.465 420.378 636.719 418.92 634.397 418.92C633.209 418.92 632.111 419.406 631.445 420.216V419.082H629.393V429H631.445V423.456C631.445 421.638 632.435 420.702 633.947 420.702C635.441 420.702 636.431 421.638 636.431 423.456V429ZM640.398 423.996C640.398 427.056 642.468 429.162 645.078 429.162C646.698 429.162 647.886 428.406 648.516 427.506V429H650.586V415.68H648.516V420.468C647.76 419.532 646.392 418.92 645.096 418.92C642.468 418.92 640.398 420.936 640.398 423.996ZM648.516 424.032C648.516 426.174 647.058 427.38 645.51 427.38C643.98 427.38 642.504 426.138 642.504 423.996C642.504 421.854 643.98 420.702 645.51 420.702C647.058 420.702 648.516 421.908 648.516 424.032ZM456.179 460.894L452.471 450.49H450.275L454.991 463H457.367L462.065 450.49H459.905L456.179 460.894ZM463.097 457.996C463.097 461.056 465.167 463.162 467.741 463.162C469.397 463.162 470.585 462.37 471.215 461.524V463H473.285V453.082H471.215V454.522C470.603 453.712 469.451 452.92 467.777 452.92C465.167 452.92 463.097 454.936 463.097 457.996ZM471.215 458.032C471.215 460.174 469.757 461.38 468.209 461.38C466.679 461.38 465.203 460.138 465.203 457.996C465.203 455.854 466.679 454.702 468.209 454.702C469.757 454.702 471.215 455.908 471.215 458.032ZM475.98 463H478.032V449.68H475.98V463ZM489.708 453.082H487.656V458.608C487.656 460.426 486.666 461.362 485.154 461.362C483.66 461.362 482.67 460.426 482.67 458.608V453.082H480.636V458.914C480.636 461.686 482.4 463.144 484.722 463.144C485.892 463.144 487.008 462.658 487.656 461.812V463H489.708V453.082ZM491.731 457.996C491.731 461.056 493.801 463.162 496.375 463.162C498.031 463.162 499.219 462.37 499.849 461.524V463H501.919V453.082H499.849V454.522C499.237 453.712 498.085 452.92 496.411 452.92C493.801 452.92 491.731 454.936 491.731 457.996ZM499.849 458.032C499.849 460.174 498.391 461.38 496.843 461.38C495.313 461.38 493.837 460.138 493.837 457.996C493.837 455.854 495.313 454.702 496.843 454.702C498.391 454.702 499.849 455.908 499.849 458.032ZM504.939 460.246C504.939 462.262 506.037 463 507.801 463H509.421V461.29H508.161C507.297 461.29 507.009 460.984 507.009 460.246V454.756H509.421V453.082H507.009V450.616H504.939V453.082H503.769V454.756H504.939V460.246ZM511.312 463H513.364V453.082H511.312V463ZM512.356 451.768C513.076 451.768 513.652 451.192 513.652 450.454C513.652 449.716 513.076 449.14 512.356 449.14C511.618 449.14 511.042 449.716 511.042 450.454C511.042 451.192 511.618 451.768 512.356 451.768ZM525.508 458.032C525.508 454.918 523.276 452.92 520.45 452.92C517.624 452.92 515.392 454.918 515.392 458.032C515.392 461.146 517.534 463.162 520.36 463.162C523.204 463.162 525.508 461.146 525.508 458.032ZM517.48 458.032C517.48 455.782 518.866 454.702 520.414 454.702C521.944 454.702 523.402 455.782 523.402 458.032C523.402 460.282 521.89 461.38 520.36 461.38C518.812 461.38 517.48 460.282 517.48 458.032ZM534.575 463H536.609V457.15C536.609 454.378 534.863 452.92 532.541 452.92C531.353 452.92 530.255 453.406 529.589 454.216V453.082H527.537V463H529.589V457.456C529.589 455.638 530.579 454.702 532.091 454.702C533.585 454.702 534.575 455.638 534.575 457.456V463ZM552.344 459.454C552.344 454.882 545.72 456.646 545.72 453.82C545.72 452.614 546.638 452.038 547.826 452.074C549.122 452.11 549.86 452.884 549.932 453.73H552.2C552.02 451.588 550.328 450.328 547.934 450.328C545.378 450.328 543.632 451.696 543.632 453.892C543.632 458.5 550.274 456.538 550.274 459.562C550.274 460.624 549.464 461.398 548.024 461.398C546.602 461.398 545.882 460.57 545.792 459.544H543.596C543.596 461.758 545.522 463.126 548.024 463.126C550.814 463.126 552.344 461.326 552.344 459.454ZM558.941 454.648C560.471 454.648 561.677 455.62 561.713 457.15H556.223C556.439 455.584 557.555 454.648 558.941 454.648ZM563.585 460.048H561.371C560.993 460.822 560.291 461.434 559.031 461.434C557.519 461.434 556.349 460.444 556.205 458.806H563.783C563.837 458.464 563.855 458.14 563.855 457.798C563.855 454.882 561.857 452.92 559.031 452.92C556.097 452.92 554.081 454.918 554.081 458.032C554.081 461.146 556.187 463.162 559.031 463.162C561.461 463.162 563.027 461.776 563.585 460.048ZM567.926 457.78C567.926 455.674 568.862 455.044 570.374 455.044H570.896V452.92C569.492 452.92 568.502 453.532 567.926 454.522V453.082H565.874V463H567.926V457.78ZM571.613 453.082L575.375 463H577.823L581.603 453.082H579.425L576.617 461.164L573.809 453.082H571.613ZM583.154 463H585.206V453.082H583.154V463ZM584.198 451.768C584.918 451.768 585.494 451.192 585.494 450.454C585.494 449.716 584.918 449.14 584.198 449.14C583.46 449.14 582.884 449.716 582.884 450.454C582.884 451.192 583.46 451.768 584.198 451.768ZM587.216 458.032C587.216 461.146 589.232 463.162 592.076 463.162C594.506 463.162 596.09 461.812 596.648 459.868H594.434C594.056 460.894 593.3 461.434 592.076 461.434C590.42 461.434 589.322 460.21 589.322 458.032C589.322 455.872 590.42 454.648 592.076 454.648C593.3 454.648 594.092 455.26 594.434 456.214H596.648C596.09 454.126 594.506 452.92 592.076 452.92C589.232 452.92 587.216 454.936 587.216 458.032ZM602.869 454.648C604.399 454.648 605.605 455.62 605.641 457.15H600.151C600.367 455.584 601.483 454.648 602.869 454.648ZM607.513 460.048H605.299C604.921 460.822 604.219 461.434 602.959 461.434C601.447 461.434 600.277 460.444 600.133 458.806H607.711C607.765 458.464 607.783 458.14 607.783 457.798C607.783 454.882 605.785 452.92 602.959 452.92C600.025 452.92 598.009 454.918 598.009 458.032C598.009 461.146 600.115 463.162 602.959 463.162C605.389 463.162 606.955 461.776 607.513 460.048ZM617.2 460.228C617.092 456.646 611.494 457.762 611.494 455.764C611.494 455.098 612.07 454.648 613.168 454.648C614.284 454.648 614.95 455.242 615.022 456.106H617.074C616.966 454.126 615.49 452.92 613.24 452.92C610.9 452.92 609.424 454.198 609.424 455.782C609.424 459.418 615.184 458.302 615.184 460.246C615.184 460.93 614.554 461.434 613.366 461.434C612.232 461.434 611.458 460.768 611.386 459.958H609.262C609.352 461.758 611.026 463.162 613.402 463.162C615.742 463.162 617.2 461.902 617.2 460.228Z" fill="white"/>
<rect x="355" y="128" width="357" height="105" rx="52.5" fill="#FFCC05"/>
<path d="M468.368 183.152C468.368 177.248 459.776 179.12 459.776 175.76C459.776 174.392 460.76 173.744 462.08 173.792C463.52 173.816 464.408 174.68 464.48 175.784H468.176C467.96 172.76 465.608 171.008 462.176 171.008C458.72 171.008 456.272 172.832 456.272 175.856C456.248 181.928 464.888 179.744 464.888 183.368C464.888 184.568 463.952 185.408 462.368 185.408C460.808 185.408 459.92 184.52 459.824 183.176H456.224C456.272 186.344 458.96 188.168 462.44 188.168C466.256 188.168 468.368 185.792 468.368 183.152ZM476.993 177.248C478.721 177.248 480.113 178.352 480.161 180.104H473.849C474.113 178.28 475.385 177.248 476.993 177.248ZM483.305 183.824H479.681C479.249 184.712 478.457 185.432 477.017 185.432C475.337 185.432 473.993 184.328 473.825 182.36H483.545C483.617 181.928 483.641 181.496 483.641 181.064C483.641 177.104 480.929 174.488 477.089 174.488C473.153 174.488 470.417 177.152 470.417 181.352C470.417 185.528 473.225 188.216 477.089 188.216C480.377 188.216 482.585 186.272 483.305 183.824ZM489.454 181.376C489.454 178.808 490.654 178.04 492.646 178.04H493.534V174.512C491.686 174.512 490.294 175.4 489.454 176.768V174.704H486.094V188H489.454V181.376ZM494.381 174.704L499.277 188H503.357L508.277 174.704H504.701L501.341 184.904L497.981 174.704H494.381ZM510.164 188H513.524V174.704H510.164V188ZM511.868 173.12C513.044 173.12 513.932 172.256 513.932 171.152C513.932 170.048 513.044 169.184 511.868 169.184C510.668 169.184 509.804 170.048 509.804 171.152C509.804 172.256 510.668 173.12 511.868 173.12ZM515.979 181.352C515.979 185.528 518.715 188.216 522.556 188.216C525.868 188.216 528.1 186.344 528.82 183.512H525.196C524.788 184.712 523.924 185.336 522.532 185.336C520.66 185.336 519.412 183.944 519.412 181.352C519.412 178.76 520.66 177.344 522.532 177.344C523.924 177.344 524.812 178.064 525.196 179.192H528.82C528.1 176.216 525.868 174.488 522.556 174.488C518.715 174.488 515.979 177.176 515.979 181.352ZM536.993 177.248C538.721 177.248 540.113 178.352 540.161 180.104H533.849C534.113 178.28 535.385 177.248 536.993 177.248ZM543.305 183.824H539.681C539.249 184.712 538.457 185.432 537.017 185.432C535.337 185.432 533.993 184.328 533.825 182.36H543.545C543.617 181.928 543.641 181.496 543.641 181.064C543.641 177.104 540.929 174.488 537.089 174.488C533.153 174.488 530.417 177.152 530.417 181.352C530.417 185.528 533.225 188.216 537.089 188.216C540.377 188.216 542.585 186.272 543.305 183.824ZM551.812 188H555.172V177.104L559.684 188H562.228L566.716 177.104V188H570.076V171.248H566.284L560.956 183.704L555.628 171.248H551.812V188ZM572.534 181.304C572.534 185.456 575.222 188.216 578.582 188.216C580.694 188.216 582.206 187.208 582.998 186.056V188H586.382V174.704H582.998V176.6C582.206 175.496 580.742 174.488 578.606 174.488C575.222 174.488 572.534 177.152 572.534 181.304ZM582.998 181.352C582.998 183.872 581.318 185.264 579.47 185.264C577.67 185.264 575.966 183.824 575.966 181.304C575.966 178.784 577.67 177.44 579.47 177.44C581.318 177.44 582.998 178.832 582.998 181.352ZM593.024 176.624V174.704H589.664V194.336H593.024V186.104C593.84 187.184 595.328 188.216 597.416 188.216C600.824 188.216 603.488 185.456 603.488 181.304C603.488 177.152 600.824 174.488 597.416 174.488C595.352 174.488 593.816 175.496 593.024 176.624ZM600.056 181.304C600.056 183.824 598.352 185.264 596.528 185.264C594.728 185.264 593.024 183.872 593.024 181.352C593.024 178.832 594.728 177.44 596.528 177.44C598.352 177.44 600.056 178.784 600.056 181.304Z" fill="black"/>
</svg>
